<svg width="89" height="64" viewBox="0 0 89 64" fill="none" xmlns="http://www.w3.org/2000/svg">
<g clip-path="url(#clip0)">
<path d="M0.5 3.5133L0.5 60.4866C0.5 62.1509 1.84745 63.5 3.50962 63.5L85.4904 63.5C87.1526 63.5 88.5 62.1509 88.5 60.4866V3.5133C88.5 1.849 87.1526 0.499901 85.4904 0.499901L3.50962 0.499901C1.84745 0.499901 0.5 1.849 0.5 3.5133Z" fill="white"/>
<path d="M64.5 31.5C64.5 20.4543 55.5457 11.5 44.5 11.5C33.4543 11.5 24.5 20.4543 24.5 31.5C24.5 42.5457 33.4543 51.5 44.5 51.5C55.5457 51.5 64.5 42.5457 64.5 31.5Z" fill="black"/>
<path d="M60.5 31.5C60.5 22.6634 53.3366 15.5 44.5 15.5C35.6634 15.5 28.5 22.6634 28.5 31.5C28.5 40.3366 35.6634 47.5 44.5 47.5C53.3366 47.5 60.5 40.3366 60.5 31.5Z" fill="white"/>
<path d="M51.5 21.5C51.5 18.7386 48.5899 16.5 45 16.5C41.4101 16.5 38.5 18.7386 38.5 21.5C38.5 24.2614 41.4101 26.5 45 26.5C48.5899 26.5 51.5 24.2614 51.5 21.5Z" fill="white" stroke="black" stroke-width="0.4"/>
<path d="M51.5 41.5C51.5 38.7386 48.5899 36.5 45 36.5C41.4101 36.5 38.5 38.7386 38.5 41.5C38.5 44.2614 41.4101 46.5 45 46.5C48.5899 46.5 51.5 44.2614 51.5 41.5Z" fill="white" stroke="black" stroke-width="0.4"/>
<path d="M54.5 24.5C51.7386 24.5 49.5 27.634 49.5 31.5C49.5 35.366 51.7386 38.5 54.5 38.5C57.2614 38.5 59.5 35.366 59.5 31.5C59.5 27.634 57.2614 24.5 54.5 24.5Z" fill="white" stroke="black" stroke-width="0.4"/>
<path d="M34.5 24.5C31.7386 24.5 29.5 27.634 29.5 31.5C29.5 35.366 31.7386 38.5 34.5 38.5C37.2614 38.5 39.5 35.366 39.5 31.5C39.5 27.634 37.2614 24.5 34.5 24.5Z" fill="white" stroke="black" stroke-width="0.4"/>
<path d="M45.0009 25.5C47.401 25.4601 48.4771 23.39 46.6997 21.7825C46.4418 21.548 46.4152 21.4135 46.8874 21.6387C48.0842 22.2517 50.3788 21.8487 50.4963 19.9745C50.6415 17.6652 46.4294 16.9998 45.6386 19.4554C45.5972 19.7145 45.322 19.7086 45.3883 19.3408C45.4604 18.3427 46 17.5 45.5 16.5C44.549 16.5 45.451 16.5 44.5 16.5C44 17.5 44.5397 18.3427 44.6118 19.3408C44.6781 19.7086 44.4031 19.7145 44.3615 19.4554C43.5706 16.9998 39.3585 17.6652 39.5037 19.9745C39.6211 21.8487 41.916 22.2517 43.1126 21.6387C43.5848 21.4135 43.5582 21.548 43.3004 21.7825C41.5228 23.39 42.5992 25.4601 44.9991 25.5H45.0009Z" fill="black"/>
<path d="M59.5 31.5C57.7157 32.9851 55.9814 34.5475 54.5 36.5C53.0186 34.5475 51.2844 32.9851 49.5 31.5C51.2844 30.0149 53.0186 28.4525 54.5 26.5C55.9814 28.4525 57.7157 30.0149 59.5 31.5Z" fill="black"/>
<path d="M38.5 31.5C36.033 29.1052 34.6134 26.5429 32.6888 26.5003C32.0655 26.486 31.0062 26.9525 30.8035 28.4136C30.6725 29.3615 31.2268 30.6666 32.3527 30.6939C32.5769 30.6897 32.571 31.0225 32.2639 31.0193C31.3757 30.9747 30.3417 30.5855 29.5 29.9314C29.5 30.9771 29.5 32.0229 29.5 33.0686C30.3417 32.4145 31.3757 32.0252 32.2639 31.9806C32.571 31.9775 32.5769 32.3102 32.3527 32.3061C31.2268 32.3333 30.6725 33.6384 30.8035 34.5864C31.0062 36.0475 32.0655 36.514 32.6888 36.4997C34.6134 36.4571 36.033 33.8947 38.5 31.5Z" fill="black"/>
<path d="M45 45.6951C44.8982 45.5683 44.7786 45.4204 44.6434 45.2549C44.1746 44.6813 43.5168 43.895 42.7608 43.0448L45 45.6951ZM45 45.6951C45.1018 45.5683 45.2213 45.4204 45.3566 45.2549C45.8254 44.6813 46.4832 43.895 47.2392 43.0448C47.7274 42.4955 48.1561 41.935 48.4693 41.3949C48.7851 40.8501 48.9653 40.3569 48.9951 39.936V39.9359C49.0638 38.97 48.425 38.0476 47.2829 38.0021C46.6785 37.978 46.2957 38.1651 46.0353 38.4102C45.7607 38.6685 45.5862 39.0266 45.4792 39.3861L45 40.9949L44.5208 39.3861C44.4137 39.0266 44.2392 38.6685 43.9647 38.4102C43.7043 38.1651 43.3215 37.978 42.7171 38.0021C41.575 38.0476 40.9362 38.97 41.0049 39.9359V39.936C41.0347 40.3569 41.2149 40.8501 41.5307 41.3949C41.8439 41.935 42.2726 42.4955 42.7608 43.0447L45 45.6951Z" fill="black" stroke="black"/>
<path d="M47.5 31.5C47.5 29.8431 46.1569 28.5 44.5 28.5C42.8431 28.5 41.5 29.8431 41.5 31.5C41.5 33.1569 42.8431 34.5 44.5 34.5C46.1569 34.5 47.5 33.1569 47.5 31.5Z" fill="black"/>
</g>
<defs>
<clipPath id="clip0">
<rect width="63" height="88" fill="white" transform="translate(0.5 63.5) rotate(-90)"/>
</clipPath>
</defs>
</svg>
