<svg width="63" height="88" viewBox="0 0 63 88" fill="none" xmlns="http://www.w3.org/2000/svg">
<path d="M59.9867 0H3.01344C1.34915 0 0 1.34745 0 3.00962V84.9904C0 86.6526 1.34915 88 3.01344 88H59.9867C61.651 88 63.0001 86.6526 63.0001 84.9904V3.00962C63.0001 1.34745 61.651 0 59.9867 0Z" fill="white"/>
<circle cx="32" cy="44" r="20" fill="black"/>
<circle cx="32" cy="44" r="16" fill="white"/>
<ellipse cx="42" cy="44.5" rx="5" ry="6.5" fill="white" stroke="black" stroke-width="0.4"/>
<ellipse cx="22" cy="44.5" rx="5" ry="6.5" fill="white" stroke="black" stroke-width="0.4"/>
<ellipse cx="32" cy="54" rx="5" ry="7" transform="rotate(-90 32 54)" fill="white" stroke="black" stroke-width="0.4"/>
<ellipse cx="32" cy="34" rx="5" ry="7" transform="rotate(-90 32 34)" fill="white" stroke="black" stroke-width="0.4"/>
<path d="M38 44.5009C38.0399 46.901 40.11 47.9771 41.7175 46.1997C41.952 45.9418 42.0865 45.9152 41.8613 46.3874C41.2483 47.5842 41.6513 49.8788 43.5255 49.9963C45.8348 50.1415 46.5002 45.9294 44.0446 45.1386C43.7855 45.0972 43.7914 44.822 44.1592 44.8883C45.1573 44.9604 46 45.5 47 45C47 44.049 47 44.951 47 44C46 43.5 45.1573 44.0397 44.1592 44.1118C43.7914 44.1781 43.7855 43.9031 44.0446 43.8615C46.5002 43.0706 45.8348 38.8585 43.5255 39.0037C41.6513 39.1211 41.2483 41.416 41.8613 42.6126C42.0865 43.0848 41.952 43.0582 41.7175 42.8004C40.11 41.0228 38.0399 42.0992 38 44.4991V44.5009Z" fill="black"/>
<path d="M32 59C30.5149 57.2157 28.9525 55.4814 27 54C28.9525 52.5186 30.5149 50.7844 32 49C33.4851 50.7844 35.0475 52.5186 37 54C35.0475 55.4814 33.4851 57.2157 32 59Z" fill="black"/>
<path d="M32 38C34.3948 35.533 36.9571 34.1134 36.9997 32.1888C37.014 31.5655 36.5475 30.5062 35.0864 30.3035C34.1385 30.1725 32.8334 30.7268 32.8061 31.8527C32.8103 32.0769 32.4775 32.071 32.4807 31.7639C32.5253 30.8757 32.9145 29.8417 33.5686 29C32.5229 29 31.4771 29 30.4314 29C31.0855 29.8417 31.4748 30.8757 31.5194 31.7639C31.5225 32.071 31.1898 32.0769 31.1939 31.8527C31.1667 30.7268 29.8616 30.1725 28.9136 30.3035C27.4525 30.5062 26.986 31.5655 27.0003 32.1888C27.0429 34.1134 29.6053 35.533 32 38Z" fill="black"/>
<path d="M17.8049 44.5C17.9317 44.3982 18.0796 44.2786 18.2451 44.1434C18.8187 43.6746 19.605 43.0168 20.4552 42.2608L17.8049 44.5ZM17.8049 44.5C17.9317 44.6018 18.0796 44.7213 18.2451 44.8566C18.8187 45.3254 19.605 45.9832 20.4552 46.7392C21.0045 47.2274 21.565 47.6561 22.1051 47.9693C22.6499 48.2851 23.1431 48.4653 23.564 48.4951L23.5641 48.4951C24.53 48.5638 25.4524 47.925 25.4979 46.7829C25.522 46.1785 25.3349 45.7957 25.0898 45.5353C24.8315 45.2607 24.4734 45.0862 24.1139 44.9792L22.5051 44.5L24.1139 44.0208C24.4734 43.9137 24.8315 43.7392 25.0898 43.4647C25.3349 43.2043 25.522 42.8215 25.4979 42.2171C25.4524 41.075 24.53 40.4362 23.5641 40.5049L23.564 40.5049C23.1431 40.5347 22.6499 40.7149 22.1051 41.0307C21.565 41.3439 21.0045 41.7726 20.4553 42.2608L17.8049 44.5Z" fill="black" stroke="black"/>
<circle cx="32" cy="44" r="3" fill="black"/>
</svg>
