<svg width="89" height="64" viewBox="0 0 89 64" fill="none" xmlns="http://www.w3.org/2000/svg">
<g clip-path="url(#clip0)">
<path d="M0.500031 3.51345L0.500031 60.4867C0.500031 62.151 1.84748 63.5001 3.50965 63.5001L85.4905 63.5001C87.1526 63.5001 88.5001 62.151 88.5001 60.4867V3.51345C88.5001 1.84916 87.1526 0.499985 85.4905 0.499985L3.50965 0.499985C1.84748 0.499985 0.500031 1.84916 0.500031 3.51345Z" fill="white"/>
<path d="M37.8441 32.0012C37.9042 34.7721 41.02 36.0147 43.4396 33.9625C43.7925 33.6648 43.995 33.6341 43.656 34.1792C42.7333 35.5609 43.3399 38.2102 46.161 38.3459C49.6369 38.5135 50.6384 33.6505 46.9423 32.7374C46.5523 32.6892 46.5612 32.3719 47.1148 32.4484C48.6172 32.5317 50.0214 33.0014 51.3907 33.6472C51.3907 32.5588 51.3907 31.3426 51.3907 30.353C50.0214 30.9987 48.6172 31.4685 47.1148 31.5517C46.5612 31.6283 46.5523 31.3109 46.9423 31.2627C50.6384 30.3496 49.6369 25.4867 46.161 25.6543C43.3399 25.7899 42.7333 28.4393 43.656 29.8209C43.995 30.366 43.7925 30.3353 43.4396 30.0377C41.02 27.9855 37.9042 29.228 37.8441 31.9989C37.844 31.9989 37.8441 31.9989 37.8441 32.0018V32.0012Z" fill="black"/>
<path d="M74.3965 5.35847C74.3715 4.25009 73.0732 3.75307 72.065 4.57394C71.918 4.69301 71.8336 4.70529 71.9749 4.48724C72.3593 3.93456 72.1066 2.87486 70.9311 2.82059C69.4828 2.75356 69.0655 4.69875 70.6056 5.06397C70.7681 5.08317 70.7644 5.21019 70.5337 5.17957C69.9077 5.14627 69.3226 4.95835 68.7521 4.70006C68.7521 5.13926 68.7521 5.57849 68.7521 6.01768C69.3226 5.75939 69.9077 5.57149 70.5337 5.53819C70.7644 5.50757 70.7681 5.63451 70.6056 5.65379C69.0655 6.01901 69.4828 7.9642 70.9311 7.89717C72.1066 7.8429 72.3593 6.78318 71.9749 6.23051C71.8336 6.01246 71.918 6.02473 72.065 6.1438C73.0732 6.96467 74.3715 6.46766 74.3965 5.35931C74.3965 5.35903 74.3965 5.35931 74.3965 5.35931V5.35847Z" fill="black"/>
<path d="M13.7187 61.4896H12.9223V60.7298L4.40533 59.1111V58.1898L12.9223 56.4068V55.7932H13.7187V57.884H12.9223V57.3197L11.6171 57.5451V59.6543L12.9223 59.8172V59.253H13.7187V61.4896ZM10.6874 57.725L6.12885 58.642L10.6874 59.5008V57.725Z" fill="black"/>
<path d="M75.2814 8.20752H76.0778V7.44769L84.5948 5.82902V4.90773L76.0778 3.12469V2.5111H75.2814V4.60186H76.0778V4.03762L77.383 4.26295V6.37219L76.0778 6.53512V5.9709H75.2814V8.20752ZM78.3127 4.44291L82.8713 5.35985L78.3127 6.21873V4.44291Z" fill="black"/>
<path d="M14.6036 58.6415C14.6285 59.7498 15.9269 60.2468 16.9351 59.426C17.0821 59.3069 17.1665 59.2946 17.0253 59.5127C16.6408 60.0653 16.8936 61.1251 18.069 61.1793C19.5173 61.2464 19.9346 59.3012 18.3946 58.936C18.2321 58.9168 18.2358 58.7897 18.4664 58.8204C19.0924 58.8537 19.6775 59.0416 20.2481 59.2998C20.2481 58.8607 20.2481 58.4214 20.2481 57.9822C19.6775 58.2405 19.0924 58.4284 18.4664 58.4617C18.2358 58.4923 18.2321 58.3654 18.3946 58.3461C19.9346 57.9809 19.5173 56.0357 18.069 56.1027C16.8936 56.157 16.6408 57.2167 17.0253 57.7694C17.1665 57.9875 17.0821 57.9752 16.9351 57.8561C15.9269 57.0352 14.6286 57.5323 14.6036 58.6406C14.6036 58.6409 14.6036 58.6406 14.6036 58.6406V58.6415Z" fill="black"/>
</g>
<defs>
<clipPath id="clip0">
<rect width="63.0001" height="88" fill="white" transform="translate(0.500031 63.5001) rotate(-90)"/>
</clipPath>
</defs>
</svg>
