<svg width="89" height="64" viewBox="0 0 89 64" fill="none" xmlns="http://www.w3.org/2000/svg">
<g clip-path="url(#clip0)">
<path d="M0.5 3.51339L0.5 60.4866C0.5 62.1509 1.84745 63.5001 3.50962 63.5001L85.4904 63.5001C87.1526 63.5001 88.5 62.1509 88.5 60.4866V3.51339C88.5 1.84911 87.1526 0.49995 85.4904 0.49995L3.50962 0.49995C1.84745 0.49995 0.5 1.84911 0.5 3.51339Z" fill="white"/>
<path d="M9.8446 17.3915C9.90471 20.1624 13.0205 21.405 15.4401 19.3528C15.7931 19.0552 15.9956 19.0244 15.6566 19.5695C14.7338 20.9511 15.3404 23.6005 18.1615 23.7362C21.6375 23.9038 22.639 19.0407 18.9429 18.1277C18.5529 18.0795 18.5618 17.7621 19.1153 17.8387C20.6177 17.9219 22.0219 18.3917 23.3913 19.0375C23.3913 17.9491 23.3913 16.7328 23.3913 15.7433C22.0219 16.389 20.6177 16.8588 19.1153 16.942C18.5618 17.0185 18.5529 16.7012 18.9429 16.653C22.639 15.7399 21.6375 10.877 18.1615 11.0446C15.3404 11.1802 14.7338 13.8295 15.6566 15.2112C15.9956 15.7563 15.7931 15.7256 15.4401 15.428C13.0205 13.3758 9.90471 14.6183 9.8446 17.3892C9.8446 17.3892 9.84463 17.3892 9.8446 17.392V17.3915Z" fill="black"/>
<path d="M9.8446 46.6107C9.90471 49.3817 13.0205 50.6242 15.4401 48.572C15.7931 48.2744 15.9956 48.2436 15.6566 48.7887C14.7338 50.1704 15.3404 52.8197 18.1615 52.9554C21.6375 53.123 22.639 48.26 18.9429 47.3469C18.5529 47.2987 18.5618 46.9814 19.1153 47.0579C20.6177 47.1412 22.0219 47.611 23.3913 48.2567C23.3913 47.1684 23.3913 45.9521 23.3913 44.9625C22.0219 45.6082 20.6177 46.078 19.1153 46.1613C18.5618 46.2378 18.5529 45.9204 18.9429 45.8722C22.639 44.9592 21.6375 40.0962 18.1615 40.2638C15.3404 40.3994 14.7338 43.0488 15.6566 44.4304C15.9956 44.9755 15.7931 44.9448 15.4401 44.6472C13.0205 42.595 9.90471 43.8375 9.8446 46.6084C9.8446 46.6084 9.84463 46.6084 9.8446 46.6113V46.6107Z" fill="black"/>
<path d="M79.3902 17.3915C79.3301 20.1624 76.2142 21.405 73.7946 19.3528C73.4417 19.0552 73.2392 19.0244 73.5782 19.5695C74.5009 20.9511 73.8943 23.6005 71.0733 23.7362C67.5973 23.9038 66.5958 19.0407 70.2919 18.1277C70.6819 18.0795 70.673 17.7621 70.1194 17.8387C68.617 17.9219 67.2128 18.3917 65.8435 19.0375C65.8435 17.9491 65.8435 16.7328 65.8435 15.7433C67.2128 16.389 68.617 16.8588 70.1194 16.942C70.673 17.0185 70.6819 16.7012 70.2919 16.653C66.5958 15.7399 67.5973 10.877 71.0733 11.0446C73.8943 11.1802 74.5009 13.8295 73.5782 15.2112C73.2392 15.7563 73.4417 15.7256 73.7946 15.428C76.2142 13.3758 79.3301 14.6183 79.3902 17.3892C79.3902 17.3892 79.3902 17.3892 79.3902 17.392V17.3915Z" fill="black"/>
<path d="M79.3902 46.6107C79.3301 49.3817 76.2142 50.6242 73.7946 48.572C73.4417 48.2744 73.2392 48.2436 73.5782 48.7887C74.5009 50.1704 73.8943 52.8197 71.0733 52.9554C67.5973 53.123 66.5958 48.26 70.2919 47.3469C70.6819 47.2987 70.673 46.9814 70.1194 47.0579C68.617 47.1412 67.2128 47.611 65.8435 48.2567C65.8435 47.1684 65.8435 45.9521 65.8435 44.9625C67.2128 45.6082 68.617 46.078 70.1194 46.1613C70.673 46.2378 70.6819 45.9204 70.2919 45.8722C66.5958 44.9592 67.5973 40.0962 71.0733 40.2638C73.8943 40.3994 74.5009 43.0488 73.5782 44.4304C73.2392 44.9755 73.4417 44.9448 73.7946 44.6472C76.2142 42.595 79.3301 43.8375 79.3902 46.6084C79.3902 46.6084 79.3902 46.6084 79.3902 46.6113V46.6107Z" fill="black"/>
<path d="M19.1777 32.0011C19.2378 34.7721 22.3537 36.0145 24.7733 33.9624C25.1262 33.6648 25.3287 33.634 24.9897 34.1791C24.0669 35.5608 24.6736 38.2101 27.4947 38.3458C30.9706 38.5134 31.9721 33.6504 28.276 32.7373C27.886 32.6891 27.8949 32.3718 28.4484 32.4483C29.9508 32.5316 31.3551 33.0014 32.7244 33.6471C32.7244 32.5588 32.7244 31.3425 32.7244 30.3529C31.3551 30.9986 29.9508 31.4684 28.4484 31.5517C27.8949 31.6282 27.886 31.3109 28.276 31.2627C31.9721 30.3496 30.9706 25.4866 27.4947 25.6542C24.6736 25.7898 24.0669 28.4392 24.9897 29.8208C25.3287 30.3659 25.1262 30.3352 24.7733 30.0376C22.3537 27.9854 19.2378 29.2279 19.1777 31.9988C19.1777 31.9988 19.1778 31.9988 19.1777 32.0017V32.0011Z" fill="black"/>
<path d="M70.0571 32.0011C69.997 34.7721 66.8811 36.0146 64.4615 33.9624C64.1086 33.6648 63.9061 33.634 64.2451 34.1791C65.1678 35.5608 64.5612 38.2101 61.7401 38.3458C58.2642 38.5134 57.2627 33.6504 60.9588 32.7373C61.3488 32.6891 61.3399 32.3718 60.7863 32.4483C59.2839 32.5315 57.8797 33.0014 56.5104 33.6471C56.5104 32.5587 56.5104 31.3425 56.5104 30.3529C57.8797 30.9986 59.2839 31.4684 60.7863 31.5517C61.3399 31.6282 61.3488 31.3108 60.9588 31.2626C57.2627 30.3495 58.2642 25.4866 61.7401 25.6542C64.5612 25.7898 65.1678 28.4391 64.2451 29.8208C63.9061 30.3659 64.1086 30.3352 64.4615 30.0376C66.8811 27.9854 69.997 29.2279 70.0571 31.9988C70.0571 31.9988 70.057 31.9988 70.0571 32.0017V32.0011Z" fill="black"/>
<path d="M74.3965 5.35833C74.3715 4.24997 73.0732 3.753 72.065 4.57389C71.918 4.69296 71.8336 4.70523 71.9749 4.48717C72.3593 3.93451 72.1066 2.87476 70.9311 2.8205C69.4828 2.75346 69.0655 4.69869 70.6056 5.0639C70.7681 5.08318 70.7643 5.2101 70.5337 5.17949C69.9077 5.14618 69.3226 4.95828 68.7521 4.69999C68.7521 5.13917 68.7521 5.57838 68.7521 6.01756C69.3226 5.75928 69.9077 5.57138 70.5337 5.53807C70.7643 5.50745 70.7681 5.63444 70.6056 5.65372C69.0655 6.01894 69.4828 7.96407 70.9311 7.89705C72.1066 7.84279 72.3593 6.78311 71.9749 6.23045C71.8336 6.01239 71.918 6.02467 72.065 6.14373C73.0732 6.96463 74.3715 6.46758 74.3965 5.35923C74.3965 5.35894 74.3965 5.35923 74.3965 5.35923V5.35833Z" fill="black"/>
<path d="M28.5109 46.6107C28.571 49.3817 31.6868 50.6242 34.1064 48.572C34.4593 48.2744 34.6619 48.2436 34.3229 48.7887C33.4001 50.1704 34.0067 52.8197 36.8278 52.9554C40.3037 53.123 41.3052 48.26 37.6091 47.3469C37.2192 47.2987 37.2281 46.9814 37.7816 47.0579C39.284 47.1412 40.6882 47.611 42.0576 48.2567C42.0576 47.1684 42.0576 45.9521 42.0576 44.9625C40.6882 45.6082 39.284 46.078 37.7816 46.1613C37.2281 46.2378 37.2192 45.9204 37.6091 45.8722C41.3052 44.9592 40.3037 40.0962 36.8278 40.2638C34.0067 40.3994 33.4001 43.0488 34.3229 44.4304C34.6619 44.9755 34.4593 44.9448 34.1064 44.6472C31.6868 42.595 28.571 43.8375 28.5109 46.6084C28.5109 46.6084 28.5109 46.6084 28.5109 46.6113V46.6107Z" fill="black"/>
<path d="M60.7239 46.6107C60.6638 49.3817 57.548 50.6242 55.1284 48.572C54.7754 48.2744 54.5729 48.2436 54.9119 48.7887C55.8347 50.1704 55.2281 52.8197 52.407 52.9554C48.9311 53.123 47.9295 48.26 51.6257 47.3469C52.0156 47.2987 52.0067 46.9814 51.4532 47.0579C49.9508 47.1412 48.5466 47.611 47.1772 48.2567C47.1772 47.1684 47.1772 45.9521 47.1772 44.9625C48.5466 45.6082 49.9508 46.078 51.4532 46.1613C52.0067 46.2378 52.0156 45.9204 51.6257 45.8722C47.9295 44.9592 48.9311 40.0962 52.407 40.2638C55.2281 40.3994 55.8347 43.0488 54.9119 44.4304C54.5729 44.9755 54.7754 44.9448 55.1284 44.6472C57.548 42.595 60.6638 43.8375 60.7239 46.6084C60.7239 46.6084 60.7239 46.6084 60.7239 46.6113V46.6107Z" fill="black"/>
<path d="M28.5109 17.3915C28.571 20.1624 31.6868 21.405 34.1064 19.3528C34.4593 19.0552 34.6619 19.0244 34.3229 19.5695C33.4001 20.9511 34.0067 23.6005 36.8278 23.7362C40.3037 23.9038 41.3052 19.0407 37.6091 18.1277C37.2192 18.0795 37.2281 17.7621 37.7816 17.8387C39.284 17.9219 40.6882 18.3917 42.0576 19.0375C42.0576 17.9491 42.0576 16.7328 42.0576 15.7433C40.6882 16.389 39.284 16.8588 37.7816 16.942C37.2281 17.0185 37.2192 16.7012 37.6091 16.653C41.3052 15.7399 40.3037 10.877 36.8278 11.0446C34.0067 11.1802 33.4001 13.8295 34.3229 15.2112C34.6619 15.7563 34.4593 15.7256 34.1064 15.428C31.6868 13.3758 28.571 14.6183 28.5109 17.3892C28.5109 17.3892 28.5109 17.3892 28.5109 17.392V17.3915Z" fill="black"/>
<path d="M60.7239 17.3915C60.6638 20.1624 57.548 21.405 55.1284 19.3528C54.7754 19.0552 54.5729 19.0244 54.9119 19.5695C55.8347 20.9511 55.2281 23.6005 52.407 23.7362C48.9311 23.9038 47.9295 19.0407 51.6257 18.1277C52.0156 18.0795 52.0067 17.7621 51.4532 17.8387C49.9508 17.9219 48.5466 18.3917 47.1772 19.0375C47.1772 17.9491 47.1772 16.7328 47.1772 15.7433C48.5466 16.389 49.9508 16.8588 51.4532 16.942C52.0067 17.0185 52.0156 16.7012 51.6257 16.653C47.9295 15.7399 48.9311 10.877 52.407 11.0446C55.2281 11.1802 55.8347 13.8295 54.9119 15.2112C54.5729 15.7563 54.7754 15.7256 55.1284 15.428C57.548 13.3758 60.6638 14.6183 60.7239 17.3892C60.7239 17.3892 60.7239 17.3892 60.7239 17.392V17.3915Z" fill="black"/>
<path d="M14.6035 58.6413C14.6284 59.7497 15.9268 60.2467 16.935 59.4258C17.0821 59.3068 17.1664 59.2945 17.0252 59.5125C16.6407 60.0652 16.8935 61.125 18.0689 61.1792C19.5172 61.2463 19.9345 59.3011 18.3945 58.9358C18.232 58.9165 18.2357 58.7896 18.4663 58.8202C19.0923 58.8535 19.6774 59.0414 20.248 59.2997C20.248 58.8605 20.248 58.4213 20.248 57.9821C19.6774 58.2404 19.0923 58.4283 18.4663 58.4616C18.2357 58.4922 18.232 58.3653 18.3945 58.346C19.9345 57.9808 19.5172 56.0356 18.0689 56.1026C16.8935 56.1569 16.6407 57.2166 17.0252 57.7693C17.1664 57.9873 17.0821 57.9751 16.935 57.856C15.9268 57.0351 14.6285 57.5321 14.6035 58.6405C14.6035 58.6408 14.6035 58.6405 14.6035 58.6405V58.6413Z" fill="black"/>
<path d="M13.7187 61.4689H4.40552V60.5661H13.7187V61.4689Z" fill="black"/>
<path d="M4.40527 57.89C4.40527 58.7591 5.19908 59.4576 6.18502 59.4576H11.9391C12.925 59.4576 13.7184 58.7587 13.7184 57.89V57.3828C13.7184 56.5137 12.925 55.8138 11.9391 55.8138H6.18502C5.19908 55.8138 4.40527 56.5141 4.40527 57.3828V57.89ZM5.2859 57.6277C5.2859 57.1146 5.67943 56.7021 6.17168 56.7021H12.0019C12.4941 56.7021 12.8914 57.1146 12.8914 57.6277C12.8914 58.1408 12.4941 58.5548 12.0019 58.5548H6.17168C5.6798 58.5548 5.2859 58.1408 5.2859 57.6277Z" fill="black"/>
<path d="M75.2814 2.53166L84.5945 2.53166V3.43445L75.2814 3.43445V2.53166Z" fill="black"/>
<path d="M84.5948 6.11045C84.5948 5.24142 83.801 4.54296 82.8151 4.54296H77.061C76.075 4.54296 75.2816 5.24179 75.2816 6.11045V6.61776C75.2816 7.4868 76.075 8.18671 77.061 8.18671H82.8151C83.801 8.18671 84.5948 7.48643 84.5948 6.61776V6.11045ZM83.7142 6.37283C83.7142 6.88591 83.3206 7.29845 82.8284 7.29845H76.9981C76.5059 7.29845 76.1087 6.88591 76.1087 6.37283C76.1087 5.85977 76.5059 5.44568 76.9981 5.44568H82.8284C83.3202 5.44568 83.7142 5.85977 83.7142 6.37283Z" fill="black"/>
</g>
<defs>
<clipPath id="clip0">
<rect width="63.0001" height="88" fill="white" transform="translate(0.5 63.5001) rotate(-90)"/>
</clipPath>
</defs>
</svg>
