<svg width="89" height="64" viewBox="0 0 89 64" fill="none" xmlns="http://www.w3.org/2000/svg">
<g clip-path="url(#clip0)">
<path d="M0.500061 3.51337L0.500061 60.4866C0.500061 62.1509 1.84752 63.5001 3.50969 63.5001L85.4904 63.5001C87.1526 63.5001 88.5001 62.1509 88.5001 60.4866V3.51337C88.5001 1.84909 87.1526 0.49992 85.4904 0.49992L3.50969 0.49992C1.84752 0.49992 0.500061 1.84909 0.500061 3.51337Z" fill="white"/>
<path d="M9.8445 32.0013C9.90457 34.7723 13.0204 36.0148 15.44 33.9626C15.793 33.665 15.9955 33.6343 15.6565 34.1794C14.7337 35.561 15.3404 38.2103 18.1614 38.346C21.6373 38.5136 22.6389 33.6506 18.9428 32.7376C18.5528 32.6894 18.5617 32.372 19.1152 32.4485C20.6176 32.5318 22.0218 33.0016 23.3912 33.6473C23.3912 32.559 23.3912 31.3427 23.3912 30.3531C22.0218 30.9988 20.6176 31.4686 19.1152 31.5519C18.5617 31.6284 18.5528 31.3111 18.9428 31.2629C22.6389 30.3498 21.6373 25.4868 18.1614 25.6544C15.3404 25.79 14.7337 28.4394 15.6565 29.8211C15.9955 30.3661 15.793 30.3354 15.44 30.0378C13.0204 27.9856 9.9046 29.2281 9.8445 31.9991C9.84447 31.9991 9.8445 31.9991 9.8445 32.0019V32.0013Z" fill="black"/>
<path d="M79.39 32.0013C79.33 34.7723 76.2141 36.0148 73.7945 33.9626C73.4416 33.665 73.2391 33.6342 73.5781 34.1793C74.5008 35.561 73.8942 38.2103 71.0731 38.346C67.5972 38.5136 66.5957 33.6506 70.2918 32.7376C70.6818 32.6894 70.6729 32.372 70.1193 32.4485C68.6169 32.5318 67.2127 33.0016 65.8434 33.6473C65.8434 32.559 65.8434 31.3427 65.8434 30.3531C67.2127 30.9988 68.6169 31.4686 70.1193 31.5519C70.6729 31.6284 70.6818 31.3111 70.2918 31.2629C66.5957 30.3498 67.5972 25.4868 71.0731 25.6544C73.8942 25.79 74.5008 28.4394 73.5781 29.8211C73.2391 30.3661 73.4416 30.3354 73.7945 30.0378C76.2141 27.9856 79.3299 29.2281 79.39 31.9991C79.3901 31.9991 79.39 31.9991 79.39 32.0019V32.0013Z" fill="black"/>
<path d="M74.3964 5.35853C74.3714 4.25015 73.0731 3.75313 72.0649 4.574C71.9179 4.69307 71.8335 4.70536 71.9747 4.48732C72.3592 3.93464 72.1065 2.87492 70.931 2.82065C69.4827 2.75362 69.0654 4.69881 70.6055 5.06403C70.768 5.08323 70.7642 5.21026 70.5336 5.17963C69.9076 5.14633 69.3225 4.95843 68.752 4.70014C68.752 5.13934 68.752 5.57855 68.752 6.01774C69.3225 5.75945 69.9076 5.57155 70.5336 5.53825C70.7642 5.50763 70.768 5.63458 70.6055 5.65385C69.0654 6.01908 69.4827 7.96426 70.931 7.89723C72.1065 7.84296 72.3592 6.78324 71.9747 6.23057C71.8335 6.01252 71.9179 6.02481 72.0649 6.14388C73.0731 6.96475 74.3714 6.46772 74.3964 5.35937C74.3964 5.35909 74.3964 5.35937 74.3964 5.35937V5.35853Z" fill="black"/>
<path d="M14.6035 58.6415C14.6284 59.7499 15.9268 60.2469 16.9349 59.426C17.082 59.307 17.1664 59.2947 17.0251 59.5127C16.6407 60.0654 16.8934 61.1251 18.0688 61.1794C19.5171 61.2464 19.9345 59.3012 18.3944 58.936C18.2319 58.9168 18.2356 58.7898 18.4663 58.8204C19.0923 58.8537 19.6773 59.0416 20.2479 59.2999C20.2479 58.8607 20.2479 58.4215 20.2479 57.9823C19.6773 58.2406 19.0923 58.4285 18.4663 58.4618C18.2356 58.4924 18.2319 58.3655 18.3944 58.3462C19.9345 57.981 19.5171 56.0358 18.0688 56.1028C16.8934 56.1571 16.6407 57.2168 17.0251 57.7695C17.1664 57.9875 17.082 57.9752 16.9349 57.8562C15.9268 57.0353 14.6285 57.5323 14.6035 58.6407C14.6035 58.6409 14.6035 58.6407 14.6035 58.6407V58.6415Z" fill="black"/>
<path d="M13.6986 61.4332L13.1243 61.3878C11.3496 61.2445 10.7509 60.8632 8.89825 58.7002C8.0002 57.6501 7.55706 57.3058 7.04299 57.2575C5.83044 57.12 5.452 58.193 5.44645 58.8918C5.43824 59.7975 5.98934 60.8222 7.2703 60.3331L7.57448 61.3494C6.37962 61.5537 5.2587 61.3435 4.76127 60.3926C4.11265 59.1226 4.36694 57.4941 5.38881 56.6719C6.07437 56.1193 7.02306 55.993 7.76553 56.2895C9.66218 57.1556 10.4966 60.0936 12.6912 60.336V57.0888H11.4694V56.132H13.7186L13.6988 61.4332H13.6986Z" fill="black"/>
<path d="M75.3013 2.70877L75.8756 2.75413C77.6503 2.89745 78.249 3.27879 80.1016 5.44175C80.9997 6.49184 81.4428 6.83619 81.9569 6.88445C83.1695 7.02198 83.5479 5.94901 83.5535 5.25017C83.5617 4.34449 83.0106 3.3198 81.7296 3.80893L81.4254 2.79258C82.6203 2.58831 83.7412 2.7985 84.2386 3.74942C84.8872 5.0194 84.633 6.64785 83.6111 7.47008C82.9255 8.0227 81.9769 8.14897 81.2344 7.85252C79.3377 6.98641 78.5032 4.04842 76.3087 3.80602V7.05315H77.5305V8.01001H75.2813L75.3014 2.70877H75.3013Z" fill="black"/>
</g>
<defs>
<clipPath id="clip0">
<rect width="63.0001" height="88" fill="white" transform="translate(0.500061 63.5001) rotate(-90)"/>
</clipPath>
</defs>
</svg>
