<svg width="89" height="64" viewBox="0 0 89 64" fill="none" xmlns="http://www.w3.org/2000/svg">
<g clip-path="url(#clip0)">
<path d="M0.500061 3.51343L0.500061 60.4867C0.500061 62.151 1.84752 63.5001 3.50969 63.5001L85.4904 63.5001C87.1526 63.5001 88.5001 62.151 88.5001 60.4867V3.51343C88.5001 1.84915 87.1526 0.499981 85.4904 0.499981L3.50969 0.499981C1.84752 0.499981 0.500061 1.84915 0.500061 3.51343Z" fill="white"/>
<path d="M9.8445 32.0013C9.9046 34.7723 13.0204 36.0148 15.44 33.9626C15.793 33.665 15.9955 33.6343 15.6565 34.1794C14.7337 35.561 15.3404 38.2103 18.1614 38.346C21.6373 38.5136 22.6389 33.6506 18.9428 32.7376C18.5528 32.6893 18.5617 32.372 19.1152 32.4485C20.6176 32.5318 22.0218 33.0016 23.3912 33.6473C23.3912 32.559 23.3912 31.3427 23.3912 30.3531C22.0218 30.9988 20.6176 31.4686 19.1152 31.5519C18.5617 31.6284 18.5528 31.3111 18.9428 31.2629C22.6389 30.3498 21.6373 25.4868 18.1614 25.6544C15.3404 25.79 14.7337 28.4394 15.6565 29.8211C15.9955 30.3662 15.793 30.3355 15.44 30.0378C13.0204 27.9856 9.9046 29.2281 9.8445 31.999C9.84447 31.999 9.8445 31.999 9.8445 32.0019V32.0013Z" fill="black"/>
<path d="M79.3901 32.0013C79.33 34.7723 76.2141 36.0148 73.7945 33.9626C73.4416 33.665 73.2391 33.6343 73.5781 34.1794C74.5008 35.561 73.8942 38.2103 71.0731 38.346C67.5972 38.5136 66.5957 33.6506 70.2918 32.7376C70.6818 32.6893 70.6729 32.372 70.1193 32.4485C68.6169 32.5318 67.2127 33.0016 65.8434 33.6473C65.8434 32.559 65.8434 31.3427 65.8434 30.3531C67.2127 30.9988 68.6169 31.4686 70.1193 31.5519C70.6729 31.6284 70.6818 31.3111 70.2918 31.2629C66.5957 30.3498 67.5972 25.4868 71.0731 25.6544C73.8942 25.79 74.5008 28.4394 73.5781 29.8211C73.2391 30.3661 73.4416 30.3354 73.7945 30.0378C76.2141 27.9856 79.33 29.2281 79.3901 31.999C79.3901 31.999 79.3901 31.999 79.3901 32.0019V32.0013Z" fill="black"/>
<path d="M37.844 32.0013C37.9041 34.7723 41.0199 36.0148 43.4395 33.9626C43.7925 33.665 43.995 33.6343 43.656 34.1794C42.7332 35.561 43.3398 38.2103 46.1609 38.346C49.6368 38.5136 50.6384 33.6506 46.9422 32.7376C46.5523 32.6893 46.5612 32.372 47.1147 32.4485C48.6171 32.5318 50.0213 33.0016 51.3907 33.6473C51.3907 32.559 51.3907 31.3427 51.3907 30.3531C50.0213 30.9988 48.6171 31.4686 47.1147 31.5519C46.5612 31.6284 46.5523 31.3111 46.9422 31.2629C50.6384 30.3498 49.6368 25.4868 46.1609 25.6544C43.3398 25.79 42.7332 28.4394 43.656 29.8211C43.995 30.3662 43.7925 30.3354 43.4395 30.0378C41.0199 27.9856 37.9041 29.2281 37.844 31.999C37.844 31.999 37.844 31.999 37.844 32.0019V32.0013Z" fill="black"/>
<path d="M74.3964 5.35857C74.3714 4.25022 73.0731 3.7532 72.0649 4.57407C71.9179 4.69316 71.8335 4.70544 71.9747 4.48738C72.3592 3.93472 72.1065 2.87497 70.931 2.82071C69.4827 2.75367 69.0654 4.69886 70.6055 5.06408C70.768 5.08336 70.7642 5.21031 70.5336 5.1797C69.9076 5.14639 69.3225 4.95849 68.752 4.7002C68.752 5.13938 68.752 5.57863 68.752 6.01781C69.3225 5.75952 69.9076 5.57162 70.5336 5.53831C70.7642 5.5077 70.768 5.63465 70.6055 5.65393C69.0654 6.01915 69.4827 7.96431 70.931 7.8973C72.1065 7.84304 72.3592 6.78332 71.9747 6.23066C71.8335 6.0126 71.9179 6.02488 72.0649 6.14394C73.0731 6.96481 74.3714 6.46779 74.3964 5.35944C74.3964 5.35915 74.3964 5.35944 74.3964 5.35944V5.35857Z" fill="black"/>
<path d="M14.6035 58.6416C14.6284 59.7499 15.9268 60.247 16.9349 59.4261C17.082 59.307 17.1664 59.2948 17.0251 59.5128C16.6407 60.0655 16.8934 61.1252 18.0688 61.1795C19.5171 61.2465 19.9345 59.3013 18.3944 58.9361C18.2319 58.9168 18.2356 58.7898 18.4663 58.8205C19.0923 58.8538 19.6773 59.0417 20.2479 59.3C20.2479 58.8608 20.2479 58.4216 20.2479 57.9824C19.6773 58.2406 19.0923 58.4286 18.4663 58.4618C18.2356 58.4925 18.2319 58.3655 18.3944 58.3463C19.9345 57.981 19.5171 56.0358 18.0688 56.1029C16.8934 56.1571 16.6407 57.2168 17.0251 57.7695C17.1664 57.9876 17.082 57.9753 16.9349 57.8562C15.9268 57.0354 14.6285 57.5324 14.6035 58.6407C14.6035 58.641 14.6035 58.6407 14.6035 58.6407V58.6416Z" fill="black"/>
<path d="M11.6771 61.6639L11.1497 60.9469C12.163 60.3246 12.8304 59.6287 12.7158 58.5641C12.6061 56.9669 10.9317 56.305 9.67007 56.6392C8.53815 56.9625 7.98681 58.2851 8.59027 59.3366C8.73327 59.5848 8.85007 59.8243 8.85007 59.8711C8.85007 59.9814 8.3534 60.231 8.2019 60.1969C7.17126 59.4912 5.36564 57.7775 5.36564 57.7775V60.4549H6.57481V61.4825H4.40521V56.2495H5.14137C5.14137 56.2495 6.59546 57.6516 7.39185 58.1149C7.43361 56.9737 8.1568 56.0539 9.30016 55.7237C9.90215 55.531 11.2791 55.6174 11.8725 55.8696C12.8618 56.2909 13.6644 57.4415 13.7106 58.4933C13.8293 60.2593 12.592 61.1962 11.6771 61.6639V61.6639Z" fill="black"/>
<path d="M77.3228 2.33679L77.8502 3.05381C76.8369 3.6761 76.1695 4.37203 76.284 5.43664C76.3938 7.0339 78.0682 7.69571 79.3298 7.36153C80.4617 7.03824 81.013 5.71562 80.4096 4.66411C80.2666 4.41591 80.1498 4.17646 80.1498 4.12963C80.1498 4.01935 80.6465 3.76969 80.798 3.80382C81.8286 4.50953 83.6342 6.22329 83.6342 6.22329V3.54583L82.4251 3.54583V2.51822L84.5947 2.51822V7.75126H83.8585C83.8585 7.75126 82.4044 6.34919 81.608 5.88585C81.5663 7.02701 80.8431 7.94681 79.6997 8.27699C79.0977 8.46967 77.7208 8.38335 77.1273 8.13116C76.1381 7.7099 75.3354 6.55926 75.2892 5.50737C75.1706 3.74139 76.4078 2.80452 77.3228 2.33679V2.33679Z" fill="black"/>
</g>
<defs>
<clipPath id="clip0">
<rect width="63.0001" height="88" fill="white" transform="translate(0.500061 63.5001) rotate(-90)"/>
</clipPath>
</defs>
</svg>
