<svg width="89" height="64" viewBox="0 0 89 64" fill="none" xmlns="http://www.w3.org/2000/svg">
<g clip-path="url(#clip0)">
<path d="M0.500061 3.51339L0.500061 60.4866C0.500061 62.1509 1.84751 63.5001 3.50968 63.5001L85.4905 63.5001C87.1527 63.5001 88.5001 62.1509 88.5001 60.4866V3.51339C88.5001 1.84911 87.1527 0.49995 85.4905 0.49995L3.50968 0.49995C1.84751 0.49995 0.500061 1.84911 0.500061 3.51339Z" fill="white"/>
<path d="M9.84462 17.3915C9.9047 20.1624 13.0206 21.4049 15.4402 19.3528C15.7931 19.0551 15.9956 19.0244 15.6566 19.5695C14.7339 20.9512 15.3404 23.6005 18.1615 23.7361C21.6375 23.9037 22.639 19.0408 18.9429 18.1277C18.5529 18.0795 18.5618 17.7622 19.1153 17.8387C20.6177 17.922 22.0219 18.3917 23.3913 19.0374C23.3913 17.9491 23.3913 16.7328 23.3913 15.7433C22.0219 16.389 20.6177 16.8588 19.1153 16.942C18.5618 17.0186 18.5529 16.7012 18.9429 16.653C22.639 15.7399 21.6375 10.877 18.1615 11.0445C15.3404 11.1802 14.7339 13.8296 15.6566 15.2112C15.9956 15.7563 15.7931 15.7256 15.4402 15.4279C13.0206 13.3758 9.9047 14.6183 9.84462 17.3892C9.84459 17.3892 9.84462 17.3892 9.84462 17.392V17.3915Z" fill="black"/>
<path d="M9.84462 46.6108C9.9047 49.3818 13.0206 50.6243 15.4402 48.5721C15.7931 48.2745 15.9956 48.2438 15.6566 48.7888C14.7339 50.1705 15.3404 52.8198 18.1615 52.9555C21.6375 53.1231 22.639 48.2601 18.9429 47.347C18.5529 47.2988 18.5618 46.9815 19.1153 47.058C20.6177 47.1413 22.0219 47.6111 23.3913 48.2568C23.3913 47.1685 23.3913 45.9522 23.3913 44.9626C22.0219 45.6083 20.6177 46.0781 19.1153 46.1614C18.5618 46.2379 18.5529 45.9205 18.9429 45.8723C22.639 44.9592 21.6375 40.0963 18.1615 40.2639C15.3404 40.3995 14.7339 43.0489 15.6566 44.4305C15.9956 44.9756 15.7931 44.9449 15.4402 44.6473C13.0206 42.5951 9.9047 43.8376 9.84462 46.6085C9.84459 46.6085 9.84462 46.6085 9.84462 46.6114V46.6108Z" fill="black"/>
<path d="M79.3902 17.3915C79.3301 20.1624 76.2143 21.4049 73.7947 19.3528C73.4418 19.0551 73.2392 19.0244 73.5782 19.5695C74.501 20.9512 73.8944 23.6005 71.0733 23.7361C67.5974 23.9037 66.5959 19.0408 70.292 18.1277C70.6819 18.0795 70.6731 17.7622 70.1195 17.8387C68.6171 17.922 67.2129 18.3917 65.8436 19.0374C65.8436 17.9491 65.8436 16.7328 65.8436 15.7433C67.2129 16.389 68.6171 16.8588 70.1195 16.942C70.6731 17.0186 70.6819 16.7012 70.292 16.653C66.5959 15.7399 67.5974 10.877 71.0733 11.0445C73.8944 11.1802 74.501 13.8296 73.5782 15.2112C73.2392 15.7563 73.4418 15.7256 73.7947 15.4279C76.2143 13.3758 79.3301 14.6183 79.3902 17.3892C79.3902 17.3892 79.3902 17.3892 79.3902 17.392V17.3915Z" fill="black"/>
<path d="M79.3902 46.6108C79.3301 49.3818 76.2143 50.6243 73.7947 48.5721C73.4418 48.2745 73.2392 48.2438 73.5782 48.7888C74.501 50.1705 73.8944 52.8198 71.0733 52.9555C67.5974 53.1231 66.5959 48.2601 70.292 47.347C70.6819 47.2988 70.6731 46.9815 70.1195 47.058C68.6171 47.1413 67.2129 47.6111 65.8436 48.2568C65.8436 47.1685 65.8436 45.9522 65.8436 44.9626C67.2129 45.6083 68.6171 46.0781 70.1195 46.1614C70.6731 46.2379 70.6819 45.9205 70.292 45.8723C66.5959 44.9592 67.5974 40.0963 71.0733 40.2639C73.8944 40.3995 74.501 43.0489 73.5782 44.4305C73.2392 44.9756 73.4418 44.9449 73.7947 44.6473C76.2143 42.5951 79.3301 43.8376 79.3902 46.6085C79.3902 46.6085 79.3902 46.6085 79.3902 46.6114V46.6108Z" fill="black"/>
<path d="M74.3965 5.35839C74.3715 4.25001 73.0732 3.75302 72.065 4.57388C71.918 4.69295 71.8336 4.70519 71.9749 4.48716C72.3593 3.93447 72.1066 2.87478 70.9311 2.82049C69.4828 2.75348 69.0655 4.69865 70.6056 5.0639C70.7681 5.08317 70.7644 5.21012 70.5337 5.17948C69.9077 5.1462 69.3226 4.95827 68.7521 4.69998C68.7521 5.13919 68.7521 5.57841 68.7521 6.01762C69.3226 5.75934 69.9077 5.57141 70.5337 5.53813C70.7644 5.50751 70.7681 5.63443 70.6056 5.65371C69.0655 6.01896 69.4828 7.96413 70.9311 7.89711C72.1066 7.84282 72.3593 6.78313 71.9749 6.23045C71.8336 6.01241 71.918 6.02466 72.065 6.14372C73.0732 6.96459 74.3715 6.46761 74.3965 5.35925C74.3965 5.35897 74.3965 5.35925 74.3965 5.35925V5.35839Z" fill="black"/>
<path d="M14.6036 58.6413C14.6286 59.7497 15.9269 60.2467 16.9351 59.4258C17.0822 59.3068 17.1665 59.2945 17.0253 59.5125C16.6408 60.0652 16.8936 61.125 18.069 61.1792C19.5173 61.2462 19.9346 59.301 18.3946 58.9358C18.2321 58.9165 18.2358 58.7896 18.4664 58.8202C19.0924 58.8535 19.6775 59.0414 20.2481 59.2997C20.2481 58.8605 20.2481 58.4213 20.2481 57.9821C19.6775 58.2404 19.0924 58.4283 18.4664 58.4616C18.2358 58.4922 18.2321 58.3653 18.3946 58.346C19.9346 57.9808 19.5173 56.0356 18.069 56.1026C16.8936 56.1569 16.6408 57.2166 17.0253 57.7693C17.1665 57.9873 17.0822 57.9751 16.9351 57.856C15.9269 57.0351 14.6287 57.5321 14.6036 58.6405C14.6036 58.6408 14.6036 58.6405 14.6036 58.6405V58.6413Z" fill="black"/>
<path d="M13.7176 58.5761H12.895V57.8337H11.5381V61.5471H10.5806L4.4054 57.5289L4.40882 56.8725H10.5807V55.7357H11.5382V56.8725L12.8952 56.8941V56.2718H13.7188V58.5762L13.7176 58.5761ZM6.6662 57.8337L10.581 60.3849V57.8337H6.6662Z" fill="black"/>
<path d="M75.2826 5.42451H76.1052V6.16694H77.4621V2.4535H78.4196L84.5948 6.47171L84.5914 7.1281L78.4195 7.1281V8.26489H77.4621V7.1281L76.1051 7.10658V7.72885H75.2814V5.42441L75.2826 5.42451ZM82.334 6.16694L78.4192 3.61572V6.16694H82.334Z" fill="black"/>
</g>
<defs>
<clipPath id="clip0">
<rect width="63.0001" height="88" fill="white" transform="translate(0.500061 63.5001) rotate(-90)"/>
</clipPath>
</defs>
</svg>
