<svg width="89" height="64" viewBox="0 0 89 64" fill="none" xmlns="http://www.w3.org/2000/svg">
<g clip-path="url(#clip0)">
<path d="M0.500061 3.51337L0.500061 60.4866C0.500061 62.1509 1.84752 63.5001 3.50969 63.5001L85.4904 63.5001C87.1526 63.5001 88.5001 62.1509 88.5001 60.4866V3.51337C88.5001 1.84909 87.1526 0.49992 85.4904 0.49992L3.50969 0.49992C1.84752 0.49992 0.500061 1.84909 0.500061 3.51337Z" fill="white"/>
<path d="M9.8445 17.3907C9.9046 20.1617 13.0204 21.4042 15.44 19.352C15.793 19.0544 15.9955 19.0237 15.6565 19.5688C14.7337 20.9504 15.3403 23.5997 18.1614 23.7354C21.6373 23.903 22.6389 19.04 18.9427 18.127C18.5528 18.0787 18.5616 17.7614 19.1152 17.8379C20.6176 17.9212 22.0218 18.391 23.3911 19.0367C23.3911 17.9484 23.3911 16.7321 23.3911 15.7425C22.0218 16.3882 20.6176 16.858 19.1152 16.9413C18.5616 17.0178 18.5528 16.7004 18.9427 16.6522C22.6389 15.7392 21.6373 10.8762 18.1614 11.0438C15.3403 11.1794 14.7337 13.8288 15.6565 15.2105C15.9955 15.7556 15.793 15.7249 15.44 15.4272C13.0204 13.375 9.9046 14.6175 9.8445 17.3884C9.84447 17.3884 9.8445 17.3884 9.8445 17.3913V17.3907Z" fill="black"/>
<path d="M9.8445 46.6101C9.9046 49.381 13.0204 50.6235 15.44 48.5714C15.793 48.2737 15.9955 48.243 15.6565 48.7881C14.7337 50.1698 15.3403 52.8191 18.1614 52.9548C21.6373 53.1223 22.6389 48.2594 18.9427 47.3463C18.5528 47.2981 18.5616 46.9808 19.1152 47.0573C20.6176 47.1406 22.0218 47.6103 23.3911 48.2561C23.3911 47.1677 23.3911 45.9514 23.3911 44.9619C22.0218 45.6076 20.6176 46.0774 19.1152 46.1606C18.5616 46.2371 18.5528 45.9198 18.9427 45.8716C22.6389 44.9585 21.6373 40.0956 18.1614 40.2632C15.3403 40.3988 14.7337 43.0482 15.6565 44.4298C15.9955 44.9749 15.793 44.9442 15.44 44.6466C13.0204 42.5944 9.9046 43.8369 9.8445 46.6078C9.84447 46.6078 9.8445 46.6078 9.8445 46.6106V46.6101Z" fill="black"/>
<path d="M79.39 17.3907C79.33 20.1617 76.2141 21.4042 73.7945 19.352C73.4416 19.0544 73.239 19.0237 73.578 19.5688C74.5008 20.9504 73.8942 23.5997 71.0731 23.7354C67.5972 23.903 66.5957 19.04 70.2918 18.127C70.6818 18.0787 70.6729 17.7614 70.1193 17.8379C68.6169 17.9212 67.2127 18.391 65.8434 19.0367C65.8434 17.9484 65.8434 16.7321 65.8434 15.7425C67.2127 16.3882 68.6169 16.858 70.1193 16.9413C70.6729 17.0178 70.6818 16.7004 70.2918 16.6522C66.5957 15.7392 67.5972 10.8762 71.0731 11.0438C73.8942 11.1794 74.5008 13.8288 73.578 15.2105C73.239 15.7556 73.4416 15.7249 73.7945 15.4272C76.2141 13.375 79.3299 14.6175 79.39 17.3884C79.3901 17.3884 79.39 17.3884 79.39 17.3913V17.3907Z" fill="black"/>
<path d="M79.39 46.6101C79.33 49.381 76.2141 50.6235 73.7945 48.5714C73.4416 48.2737 73.239 48.243 73.578 48.7881C74.5008 50.1698 73.8942 52.8191 71.0731 52.9548C67.5972 53.1223 66.5957 48.2594 70.2918 47.3463C70.6818 47.2981 70.6729 46.9808 70.1193 47.0573C68.6169 47.1406 67.2127 47.6103 65.8434 48.2561C65.8434 47.1677 65.8434 45.9514 65.8434 44.9619C67.2127 45.6076 68.6169 46.0774 70.1193 46.1606C70.6729 46.2371 70.6818 45.9198 70.2918 45.8716C66.5957 44.9585 67.5972 40.0956 71.0731 40.2632C73.8942 40.3988 74.5008 43.0482 73.578 44.4298C73.239 44.9749 73.4416 44.9442 73.7945 44.6466C76.2141 42.5944 79.3299 43.8369 79.39 46.6078C79.3901 46.6078 79.39 46.6078 79.39 46.6106V46.6101Z" fill="black"/>
<path d="M37.8439 32.0003C37.904 34.7713 41.0199 36.0138 43.4395 33.9616C43.7924 33.664 43.9949 33.6333 43.6559 34.1784C42.7332 35.56 43.3398 38.2093 46.1608 38.345C49.6368 38.5126 50.6383 33.6496 46.9422 32.7366C46.5522 32.6884 46.5611 32.3711 47.1147 32.4476C48.617 32.5308 50.0213 33.0006 51.3906 33.6463C51.3906 32.558 51.3906 31.3417 51.3906 30.3522C50.0213 30.9979 48.617 31.4676 47.1147 31.5509C46.5611 31.6274 46.5522 31.3101 46.9422 31.2619C50.6383 30.3488 49.6368 25.4858 46.1608 25.6534C43.3398 25.7891 42.7332 28.4384 43.6559 29.8201C43.9949 30.3652 43.7924 30.3344 43.4395 30.0368C41.0199 27.9846 37.904 29.2272 37.8439 31.9981C37.8439 31.9981 37.844 31.9981 37.8439 32.0009V32.0003Z" fill="black"/>
<path d="M74.3964 5.35766C74.3714 4.2493 73.0731 3.75229 72.0649 4.57318C71.9179 4.69225 71.8335 4.70452 71.9747 4.48646C72.3592 3.9338 72.1064 2.87406 70.931 2.8198C69.4827 2.75275 69.0654 4.69795 70.6055 5.06316C70.7679 5.08244 70.7642 5.2094 70.5336 5.17878C69.9076 5.14547 69.3225 4.95757 68.752 4.69929C68.752 5.13847 68.752 5.57771 68.752 6.01689C69.3225 5.7586 69.9076 5.57071 70.5336 5.5374C70.7642 5.50678 70.7679 5.63374 70.6055 5.65301C69.0654 6.01823 69.4827 7.9634 70.931 7.89638C72.1064 7.84212 72.3592 6.78237 71.9747 6.22971C71.8335 6.01165 71.9179 6.02396 72.0649 6.14303C73.0731 6.96392 74.3713 6.46687 74.3964 5.35852C74.3964 5.35824 74.3964 5.35852 74.3964 5.35852V5.35766Z" fill="black"/>
<path d="M14.6035 58.6406C14.6284 59.749 15.9267 60.246 16.9349 59.4251C17.082 59.3061 17.1664 59.2938 17.0251 59.5118C16.6406 60.0645 16.8934 61.1242 18.0688 61.1785C19.5171 61.2455 19.9344 59.3003 18.3944 58.9351C18.2319 58.9158 18.2356 58.7889 18.4663 58.8195C19.0923 58.8528 19.6774 59.0407 20.2479 59.299C20.2479 58.8598 20.2479 58.4206 20.2479 57.9814C19.6774 58.2397 19.0923 58.4276 18.4663 58.4609C18.2356 58.4915 18.2319 58.3646 18.3944 58.3453C19.9344 57.9801 19.5171 56.0349 18.0688 56.1019C16.8934 56.1562 16.6406 57.2159 17.0251 57.7686C17.1664 57.9866 17.082 57.9743 16.9349 57.8553C15.9267 57.0344 14.6285 57.5314 14.6035 58.6398C14.6035 58.64 14.6035 58.6398 14.6035 58.6398V58.6406Z" fill="black"/>
<path d="M11.3076 61.5761L11.2988 60.6631C11.8609 60.489 12.4323 60.1037 12.5908 59.5804C12.9445 58.1022 12.1029 57.1511 11.1328 56.838C9.95605 56.4581 8.30362 56.8465 7.7171 57.8641C7.23074 58.7074 7.64098 59.9603 8.68136 60.5358L8.28294 61.1751L4.40527 60.8319V56.6551H5.32184V60.0398L6.93728 60.0935C6.41616 59.3648 6.4217 58.2451 6.78722 57.5169C7.4573 56.1377 8.98074 55.4969 10.7762 55.7647C12.562 56.1362 13.5739 56.9555 13.7184 58.8035C13.7374 60.8591 12.2978 61.5848 11.3076 61.5761H11.3076Z" fill="black"/>
<path d="M77.6924 2.42293L77.7011 3.33586C77.139 3.51003 76.5676 3.89539 76.4091 4.41863C76.0553 5.89685 76.8969 6.8479 77.867 7.16104C79.0438 7.54094 80.6962 7.15252 81.2827 6.13489C81.7691 5.29162 81.3589 4.03869 80.3185 3.46324L80.7169 2.82391L84.5946 3.16712V7.3439H83.678V3.95924L82.0626 3.90553C82.5837 4.63415 82.5781 5.75389 82.2126 6.48212C81.5426 7.86131 80.0191 8.50208 78.2237 8.23433C76.4379 7.86276 75.426 7.04345 75.2814 5.19545C75.2625 3.13991 76.7021 2.41423 77.6922 2.42293H77.6924Z" fill="black"/>
</g>
<defs>
<clipPath id="clip0">
<rect width="63.0001" height="88" fill="white" transform="translate(0.500061 63.5001) rotate(-90)"/>
</clipPath>
</defs>
</svg>
