<svg width="89" height="64" viewBox="0 0 89 64" fill="none" xmlns="http://www.w3.org/2000/svg">
<g clip-path="url(#clip0)">
<path d="M0.500046 3.51339L0.500046 60.4866C0.500046 62.1509 1.84749 63.5001 3.50966 63.5001L85.4905 63.5001C87.1526 63.5001 88.5001 62.1509 88.5001 60.4866V3.51339C88.5001 1.84911 87.1526 0.49995 85.4905 0.49995L3.50966 0.49995C1.84749 0.49995 0.500046 1.84911 0.500046 3.51339Z" fill="white"/>
<path d="M9.84466 17.3915C9.90474 20.1624 13.0206 21.4049 15.4402 19.3527C15.7932 19.0551 15.9957 19.0244 15.6567 19.5695C14.7339 20.9512 15.3405 23.6005 18.1615 23.7361C21.6375 23.9037 22.639 19.0407 18.9429 18.1277C18.553 18.0795 18.5619 17.7621 19.1154 17.8386C20.6178 17.9219 22.022 18.3917 23.3913 19.0374C23.3913 17.9491 23.3913 16.7328 23.3913 15.7432C22.022 16.3889 20.6178 16.8587 19.1154 16.942C18.5619 17.0185 18.553 16.7012 18.9429 16.653C22.639 15.7399 21.6375 10.8769 18.1615 11.0445C15.3405 11.1802 14.7339 13.8295 15.6567 15.2112C15.9957 15.7563 15.7932 15.7255 15.4402 15.4279C13.0206 13.3757 9.90474 14.6183 9.84466 17.3892C9.84463 17.3892 9.84466 17.3892 9.84466 17.392V17.3915Z" fill="black"/>
<path d="M9.84466 46.6109C9.90474 49.3818 13.0206 50.6243 15.4402 48.5721C15.7932 48.2745 15.9957 48.2438 15.6567 48.7889C14.7339 50.1706 15.3405 52.8198 18.1615 52.9555C21.6375 53.1231 22.639 48.2601 18.9429 47.3471C18.553 47.2989 18.5619 46.9815 19.1154 47.058C20.6178 47.1413 22.022 47.6111 23.3913 48.2568C23.3913 47.1685 23.3913 45.9522 23.3913 44.9626C22.022 45.6083 20.6178 46.0781 19.1154 46.1614C18.5619 46.2379 18.553 45.9206 18.9429 45.8724C22.639 44.9593 21.6375 40.0963 18.1615 40.2639C15.3405 40.3996 14.7339 43.0489 15.6567 44.4306C15.9957 44.9757 15.7932 44.9449 15.4402 44.6473C13.0206 42.5951 9.90474 43.8376 9.84466 46.6086C9.84463 46.6086 9.84466 46.6086 9.84466 46.6114V46.6109Z" fill="black"/>
<path d="M79.3902 17.3915C79.3301 20.1624 76.2143 21.4049 73.7947 19.3527C73.4418 19.0551 73.2392 19.0244 73.5782 19.5695C74.501 20.9512 73.8944 23.6004 71.0733 23.7361C67.5974 23.9037 66.5959 19.0408 70.292 18.1277C70.6819 18.0795 70.6731 17.7621 70.1195 17.8386C68.6171 17.9219 67.2129 18.3917 65.8436 19.0374C65.8436 17.9491 65.8436 16.7328 65.8436 15.7432C67.2129 16.3889 68.6171 16.8587 70.1195 16.942C70.6731 17.0185 70.6819 16.7012 70.292 16.653C66.5959 15.7399 67.5974 10.8769 71.0733 11.0445C73.8944 11.1802 74.501 13.8295 73.5782 15.2112C73.2392 15.7563 73.4418 15.7255 73.7947 15.4279C76.2143 13.3757 79.3301 14.6183 79.3902 17.3892C79.3902 17.3892 79.3902 17.3892 79.3902 17.392V17.3915Z" fill="black"/>
<path d="M79.3902 46.6109C79.3301 49.3818 76.2143 50.6243 73.7947 48.5721C73.4418 48.2745 73.2392 48.2438 73.5782 48.7889C74.501 50.1706 73.8944 52.8198 71.0733 52.9555C67.5974 53.1231 66.5959 48.2601 70.292 47.3471C70.6819 47.2989 70.6731 46.9815 70.1195 47.058C68.6171 47.1413 67.2129 47.6111 65.8436 48.2568C65.8436 47.1685 65.8436 45.9522 65.8436 44.9626C67.2129 45.6083 68.6171 46.0781 70.1195 46.1614C70.6731 46.2379 70.6819 45.9206 70.292 45.8724C66.5959 44.9593 67.5974 40.0963 71.0733 40.2639C73.8944 40.3996 74.501 43.0489 73.5782 44.4306C73.2392 44.9757 73.4418 44.9449 73.7947 44.6473C76.2143 42.5951 79.3301 43.8376 79.3902 46.6086C79.3902 46.6086 79.3902 46.6086 79.3902 46.6114V46.6109Z" fill="black"/>
<path d="M37.8441 17.3915C37.9042 20.1624 41.0201 21.4049 43.4397 19.3527C43.7926 19.0551 43.9951 19.0244 43.6561 19.5695C42.7334 20.9512 43.34 23.6005 46.161 23.7361C49.637 23.9037 50.6385 19.0408 46.9424 18.1277C46.5524 18.0795 46.5613 17.7621 47.1148 17.8386C48.6172 17.9219 50.0215 18.3917 51.3908 19.0374C51.3908 17.9491 51.3908 16.7328 51.3908 15.7432C50.0215 16.3889 48.6172 16.8587 47.1148 16.942C46.5613 17.0185 46.5524 16.7012 46.9424 16.653C50.6385 15.7399 49.637 10.8769 46.161 11.0445C43.34 11.1802 42.7334 13.8295 43.6561 15.2112C43.9951 15.7563 43.7926 15.7255 43.4397 15.4279C41.0201 13.3757 37.9042 14.6183 37.8441 17.3892C37.8441 17.3892 37.8442 17.3892 37.8441 17.392V17.3915Z" fill="black"/>
<path d="M37.8441 46.6109C37.9042 49.3818 41.0201 50.6243 43.4397 48.5721C43.7926 48.2745 43.9951 48.2438 43.6561 48.7889C42.7334 50.1706 43.34 52.8198 46.161 52.9555C49.637 53.1231 50.6385 48.2601 46.9424 47.3471C46.5524 47.2989 46.5613 46.9815 47.1148 47.058C48.6172 47.1413 50.0215 47.6111 51.3908 48.2568C51.3908 47.1685 51.3908 45.9522 51.3908 44.9626C50.0215 45.6083 48.6172 46.0781 47.1148 46.1614C46.5613 46.2379 46.5524 45.9206 46.9424 45.8724C50.6385 44.9593 49.637 40.0963 46.161 40.2639C43.34 40.3996 42.7334 43.0489 43.6561 44.4306C43.9951 44.9757 43.7926 44.9449 43.4397 44.6473C41.0201 42.5951 37.9042 43.8376 37.8441 46.6086C37.8441 46.6086 37.8442 46.6086 37.8441 46.6114V46.6109Z" fill="black"/>
<path d="M74.3966 5.35839C74.3715 4.25004 73.0733 3.75302 72.0651 4.57392C71.918 4.69298 71.8336 4.70525 71.9749 4.4872C72.3594 3.93454 72.1066 2.87479 70.9312 2.82053C69.4829 2.75348 69.0656 4.69868 70.6056 5.0639C70.7681 5.08317 70.7644 5.21013 70.5338 5.17951C69.9078 5.1462 69.3227 4.95831 68.7521 4.70002C68.7521 5.1392 68.7521 5.57844 68.7521 6.01762C69.3227 5.75934 69.9078 5.57144 70.5338 5.53813C70.7644 5.50751 70.7681 5.63447 70.6056 5.65375C69.0656 6.01896 69.4829 7.96413 70.9312 7.89711C72.1066 7.84285 72.3594 6.7831 71.9749 6.23045C71.8336 6.01239 71.918 6.02469 72.0651 6.14376C73.0733 6.96465 74.3715 6.46761 74.3966 5.35925C74.3966 5.35897 74.3965 5.35925 74.3966 5.35925V5.35839Z" fill="black"/>
<path d="M14.6037 58.6413C14.6286 59.7497 15.9269 60.2467 16.9351 59.4258C17.0822 59.3068 17.1666 59.2945 17.0253 59.5125C16.6408 60.0652 16.8936 61.125 18.069 61.1792C19.5173 61.2462 19.9346 59.301 18.3946 58.9358C18.2321 58.9165 18.2358 58.7896 18.4665 58.8202C19.0925 58.8535 19.6775 59.0414 20.2481 59.2997C20.2481 58.8605 20.2481 58.4213 20.2481 57.9821C19.6775 58.2404 19.0925 58.4283 18.4665 58.4616C18.2358 58.4922 18.2321 58.3653 18.3946 58.346C19.9346 57.9808 19.5173 56.0356 18.069 56.1026C16.8936 56.1569 16.6408 57.2166 17.0253 57.7693C17.1666 57.9873 17.0822 57.9751 16.9351 57.856C15.9269 57.0351 14.6287 57.5321 14.6037 58.6405C14.6037 58.6407 14.6037 58.6405 14.6037 58.6405V58.6413Z" fill="black"/>
<path d="M10.8535 61.3763C10.0696 61.491 8.04327 61.4881 7.44383 61.3945C5.60744 61.1053 4.76704 60.4039 4.4928 59.229C4.22561 58.0878 4.52314 56.4848 6.05795 56.1332L6.07634 57.0871C5.03859 57.6031 5.31578 58.9086 5.76739 59.6441C6.12696 60.2308 7.62853 60.4961 7.72091 60.3825C7.72091 60.3825 6.89901 59.2729 6.95963 58.3981C7.15439 56.5287 8.7757 55.7576 10.3065 55.8229C12.148 55.8824 13.6208 56.4663 13.7187 58.4478C13.6459 60.3317 12.6188 61.1949 10.8534 61.3763H10.8535ZM10.3671 56.7301C9.08953 56.7199 8.13198 57.2997 8.02702 58.3981C7.92133 59.4953 8.99235 60.6024 10.2947 60.5258C11.6026 60.4493 12.7028 59.9431 12.6969 58.6122C12.6912 57.1807 11.2766 56.737 10.3671 56.7301Z" fill="black"/>
<path d="M78.1467 2.62421C78.9305 2.50954 80.9569 2.51247 81.5563 2.60608C83.3927 2.89526 84.2331 3.59662 84.5073 4.77151C84.7745 5.91269 84.477 7.51577 82.9422 7.86738L82.9239 6.91341C83.9616 6.39744 83.6844 5.09193 83.2328 4.35642C82.8733 3.76971 81.3717 3.50448 81.2793 3.61804C81.2793 3.61804 82.1012 4.72761 82.0406 5.60246C81.8459 7.47183 80.2245 8.2429 78.6938 8.17759C76.8522 8.11808 75.3795 7.53425 75.2816 5.55273C75.3544 3.66881 76.3814 2.80561 78.1468 2.62421H78.1467ZM78.633 7.27044C79.9106 7.28064 80.8682 6.70077 80.9732 5.60246C81.0789 4.50519 80.0079 3.39817 78.7055 3.47471C77.3976 3.55128 76.2974 4.05744 76.3033 5.38839C76.3089 6.81983 77.7235 7.26355 78.633 7.27044Z" fill="black"/>
</g>
<defs>
<clipPath id="clip0">
<rect width="63.0001" height="88" fill="white" transform="translate(0.500046 63.5001) rotate(-90)"/>
</clipPath>
</defs>
</svg>
