<svg width="89" height="64" viewBox="0 0 89 64" fill="none" xmlns="http://www.w3.org/2000/svg">
<g clip-path="url(#clip0)">
<path d="M0.500061 3.51339L0.500061 60.4866C0.500061 62.1509 1.84751 63.5001 3.50968 63.5001L85.4905 63.5001C87.1527 63.5001 88.5001 62.1509 88.5001 60.4866V3.51339C88.5001 1.84911 87.1527 0.49995 85.4905 0.49995L3.50968 0.49995C1.84751 0.49995 0.500061 1.84911 0.500061 3.51339Z" fill="white"/>
<path d="M9.84468 17.3915C9.90476 20.1625 13.0206 21.405 15.4402 19.3528C15.7931 19.0552 15.9957 19.0245 15.6567 19.5695C14.7339 20.9512 15.3405 23.6006 18.1616 23.7362C21.6375 23.9038 22.6391 19.0409 18.9429 18.1278C18.553 18.0796 18.5619 17.7622 19.1154 17.8388C20.6178 17.9221 22.022 18.3918 23.3913 19.0375C23.3913 17.9492 23.3913 16.7329 23.3913 15.7434C22.022 16.3891 20.6178 16.8588 19.1154 16.9421C18.5619 17.0186 18.553 16.7013 18.9429 16.6531C22.6391 15.7401 21.6375 10.8771 18.1616 11.0446C15.3405 11.1803 14.7339 13.8296 15.6567 15.2113C15.9957 15.7564 15.7931 15.7257 15.4402 15.428C13.0206 13.3759 9.90476 14.6183 9.84468 17.3893C9.84465 17.3893 9.84468 17.3893 9.84468 17.3921V17.3915Z" fill="black"/>
<path d="M9.84468 46.6109C9.90476 49.3819 13.0206 50.6244 15.4402 48.5722C15.7931 48.2746 15.9957 48.2439 15.6567 48.789C14.7339 50.1706 15.3405 52.8199 18.1616 52.9556C21.6375 53.1232 22.6391 48.2603 18.9429 47.3472C18.553 47.299 18.5619 46.9816 19.1154 47.0582C20.6178 47.1414 22.022 47.6112 23.3913 48.2569C23.3913 47.1685 23.3913 45.9523 23.3913 44.9627C22.022 45.6084 20.6178 46.0782 19.1154 46.1615C18.5619 46.238 18.553 45.9207 18.9429 45.8725C22.6391 44.9594 21.6375 40.0964 18.1616 40.264C15.3405 40.3996 14.7339 43.049 15.6567 44.4307C15.9957 44.9758 15.7931 44.945 15.4402 44.6474C13.0206 42.5952 9.90476 43.8377 9.84468 46.6086C9.84465 46.6086 9.84468 46.6086 9.84468 46.6115V46.6109Z" fill="black"/>
<path d="M79.3902 17.3916C79.3301 20.1625 76.2143 21.405 73.7947 19.3528C73.4418 19.0552 73.2392 19.0245 73.5782 19.5695C74.501 20.9512 73.8944 23.6005 71.0733 23.7363C67.5974 23.9038 66.5959 19.0409 70.292 18.1278C70.6819 18.0796 70.6731 17.7622 70.1195 17.8388C68.6171 17.9221 67.2129 18.3918 65.8436 19.0375C65.8436 17.9492 65.8436 16.7329 65.8436 15.7434C67.2129 16.3891 68.6171 16.8588 70.1195 16.9421C70.6731 17.0186 70.6819 16.7013 70.292 16.6531C66.5959 15.7401 67.5974 10.8771 71.0733 11.0446C73.8944 11.1803 74.501 13.8296 73.5782 15.2113C73.2392 15.7564 73.4418 15.7257 73.7947 15.428C76.2143 13.3759 79.3301 14.6183 79.3902 17.3893C79.3902 17.3893 79.3902 17.3893 79.3902 17.3921V17.3916Z" fill="black"/>
<path d="M79.3902 46.6109C79.3301 49.3819 76.2143 50.6244 73.7947 48.5722C73.4418 48.2746 73.2392 48.2439 73.5782 48.789C74.501 50.1706 73.8944 52.8199 71.0733 52.9556C67.5974 53.1232 66.5959 48.2603 70.292 47.3472C70.6819 47.299 70.6731 46.9816 70.1195 47.0582C68.6171 47.1414 67.2129 47.6112 65.8436 48.2569C65.8436 47.1685 65.8436 45.9523 65.8436 44.9627C67.2129 45.6084 68.6171 46.0782 70.1195 46.1615C70.6731 46.238 70.6819 45.9207 70.292 45.8725C66.5959 44.9594 67.5974 40.0964 71.0733 40.264C73.8944 40.3996 74.501 43.049 73.5782 44.4307C73.2392 44.9758 73.4418 44.945 73.7947 44.6474C76.2143 42.5952 79.3301 43.8377 79.3902 46.6086C79.3902 46.6086 79.3902 46.6086 79.3902 46.6115V46.6109Z" fill="black"/>
<path d="M23.8445 32.0012C23.9046 34.7721 27.0204 36.0146 29.44 33.9625C29.793 33.6648 29.9955 33.6341 29.6565 34.1792C28.7337 35.5609 29.3403 38.2102 32.1614 38.3459C35.6373 38.5134 36.6389 33.6505 32.9427 32.7374C32.5528 32.6892 32.5617 32.3719 33.1152 32.4484C34.6176 32.5317 36.0218 33.0015 37.3912 33.6472C37.3912 32.5589 37.3912 31.3425 37.3912 30.353C36.0218 30.9987 34.6176 31.4685 33.1152 31.5518C32.5617 31.6283 32.5528 31.311 32.9427 31.2628C36.6389 30.3497 35.6373 25.4867 32.1614 25.6543C29.3403 25.7899 28.7337 28.4393 29.6565 29.821C29.9955 30.366 29.793 30.3353 29.44 30.0377C27.0204 27.9855 23.9046 29.228 23.8445 31.999C23.8445 31.999 23.8445 31.999 23.8445 32.0018V32.0012Z" fill="black"/>
<path d="M37.8441 17.3916C37.9042 20.1625 41.02 21.405 43.4397 19.3528C43.7926 19.0552 43.9951 19.0245 43.6561 19.5695C42.7334 20.9512 43.34 23.6006 46.161 23.7363C49.637 23.9038 50.6385 19.0409 46.9424 18.1278C46.5524 18.0796 46.5613 17.7623 47.1148 17.8388C48.6172 17.9221 50.0214 18.3918 51.3908 19.0375C51.3908 17.9492 51.3908 16.7329 51.3908 15.7434C50.0214 16.3891 48.6172 16.8588 47.1148 16.9421C46.5613 17.0186 46.5524 16.7013 46.9424 16.6531C50.6385 15.7401 49.637 10.8771 46.161 11.0446C43.34 11.1803 42.7334 13.8296 43.6561 15.2113C43.9951 15.7564 43.7926 15.7257 43.4397 15.428C41.02 13.3759 37.9042 14.6183 37.8441 17.3893C37.8441 17.3893 37.8441 17.3893 37.8441 17.3921V17.3916Z" fill="black"/>
<path d="M37.8441 46.6109C37.9042 49.3819 41.02 50.6244 43.4397 48.5722C43.7926 48.2746 43.9951 48.2439 43.6561 48.789C42.7334 50.1706 43.34 52.8199 46.161 52.9556C49.637 53.1232 50.6385 48.2603 46.9424 47.3472C46.5524 47.299 46.5613 46.9816 47.1148 47.0582C48.6172 47.1414 50.0214 47.6112 51.3908 48.2569C51.3908 47.1685 51.3908 45.9523 51.3908 44.9627C50.0214 45.6084 48.6172 46.0782 47.1148 46.1615C46.5613 46.238 46.5524 45.9207 46.9424 45.8725C50.6385 44.9594 49.637 40.0964 46.161 40.264C43.34 40.3996 42.7334 43.049 43.6561 44.4307C43.9951 44.9758 43.7926 44.945 43.4397 44.6474C41.02 42.5952 37.9042 43.8377 37.8441 46.6086C37.8441 46.6086 37.8441 46.6086 37.8441 46.6115V46.6109Z" fill="black"/>
<path d="M74.3966 5.35846C74.3716 4.25011 73.0733 3.75302 72.0651 4.57388C71.918 4.69298 71.8337 4.70529 71.9749 4.48723C72.3594 3.93454 72.1066 2.87482 70.9312 2.82056C69.4829 2.75352 69.0656 4.69875 70.6056 5.06396C70.7681 5.08324 70.7644 5.21016 70.5338 5.17955C69.9078 5.14624 69.3227 4.95837 68.7521 4.70005C68.7521 5.13926 68.7521 5.57844 68.7521 6.01762C69.3227 5.75934 69.9078 5.57144 70.5338 5.53813C70.7644 5.50751 70.7681 5.6345 70.6056 5.65378C69.0656 6.019 69.4829 7.96413 70.9312 7.89711C72.1066 7.84285 72.3594 6.78313 71.9749 6.23045C71.8337 6.01241 71.918 6.02473 72.0651 6.14379C73.0733 6.96466 74.3715 6.46764 74.3966 5.35929C74.3966 5.359 74.3966 5.35929 74.3966 5.35929V5.35846Z" fill="black"/>
<path d="M14.6036 58.6414C14.6286 59.7497 15.927 60.2468 16.9351 59.4259C17.0822 59.3068 17.1666 59.2946 17.0253 59.5126C16.6408 60.0653 16.8936 61.125 18.069 61.1793C19.5173 61.2463 19.9346 59.3011 18.3946 58.9359C18.2321 58.9167 18.2358 58.7897 18.4664 58.8203C19.0924 58.8536 19.6775 59.0415 20.2481 59.2998C20.2481 58.8606 20.2481 58.4214 20.2481 57.9821C19.6775 58.2404 19.0924 58.4284 18.4664 58.4617C18.2358 58.4923 18.2321 58.3654 18.3946 58.3461C19.9346 57.9809 19.5173 56.0357 18.069 56.1027C16.8936 56.157 16.6408 57.2166 17.0253 57.7693C17.1666 57.9874 17.0822 57.9751 16.9351 57.856C15.927 57.0352 14.6287 57.5322 14.6036 58.6406V58.6414Z" fill="black"/>
<path d="M13.7177 60.0731C10.4797 59.4606 8.04883 58.8085 5.41058 57.0966V60.5764H6.54621V61.5002H4.4054V56.4105L5.41058 55.7827C7.39545 57.601 13.8116 59.265 13.7177 58.9704V60.0731Z" fill="black"/>
<path d="M75.2825 3.9277C78.5205 4.54021 80.9514 5.19219 83.5896 6.90412V3.4244L82.454 3.4244V2.50058L84.5948 2.50058V7.59027L83.5896 8.21802C81.6048 6.39978 75.1886 4.73574 75.2825 5.03037V3.9277Z" fill="black"/>
</g>
<defs>
<clipPath id="clip0">
<rect width="63.0001" height="88" fill="white" transform="translate(0.500061 63.5001) rotate(-90)"/>
</clipPath>
</defs>
</svg>
