<svg width="88" height="63" viewBox="0 0 88 63" fill="none" xmlns="http://www.w3.org/2000/svg">
<g clip-path="url(#clip0)">
<path d="M0 3.01345L0 59.9867C0 61.651 1.34745 63.0001 3.00962 63.0001L84.9904 63.0001C86.6526 63.0001 88 61.651 88 59.9867V3.01345C88 1.34917 86.6526 1.14441e-05 84.9904 1.14441e-05L3.00962 1.14441e-05C1.34745 1.14441e-05 0 1.34917 0 3.01345Z" fill="white"/>
<path d="M9.34462 16.8915C9.4047 19.6625 12.5205 20.905 14.9402 18.8528C15.2931 18.5552 15.4956 18.5245 15.1566 19.0696C14.2339 20.4513 14.8405 23.1006 17.6615 23.2362C21.1375 23.4038 22.139 18.5409 18.4429 17.6278C18.0529 17.5796 18.0618 17.2622 18.6153 17.3388C20.1177 17.4221 21.5219 17.8918 22.8913 18.5375C22.8913 17.4492 22.8913 16.2329 22.8913 15.2434C21.5219 15.8891 20.1177 16.3588 18.6153 16.4421C18.0618 16.5186 18.0529 16.2013 18.4429 16.1531C22.139 15.2401 21.1375 10.3771 17.6615 10.5446C14.8405 10.6803 14.2339 13.3296 15.1566 14.7113C15.4956 15.2564 15.2931 15.2257 14.9402 14.928C12.5205 12.8759 9.4047 14.1183 9.34462 16.8893C9.34459 16.8893 9.34462 16.8893 9.34462 16.8921V16.8915Z" fill="black"/>
<path d="M9.34462 46.1108C9.4047 48.8817 12.5205 50.1243 14.9402 48.0721C15.2931 47.7745 15.4956 47.7438 15.1566 48.2889C14.2339 49.6705 14.8405 52.3198 17.6615 52.4555C21.1375 52.623 22.139 47.7601 18.4429 46.8471C18.0529 46.7988 18.0618 46.4815 18.6153 46.558C20.1177 46.6413 21.5219 47.111 22.8913 47.7568C22.8913 46.6684 22.8913 45.4521 22.8913 44.4626C21.5219 45.1083 20.1177 45.5781 18.6153 45.6613C18.0618 45.7378 18.0529 45.4206 18.4429 45.3724C22.139 44.4593 21.1375 39.5963 17.6615 39.7639C14.8405 39.8995 14.2339 42.5489 15.1566 43.9306C15.4956 44.4757 15.2931 44.4449 14.9402 44.1473C12.5205 42.0951 9.4047 43.3376 9.34462 46.1085C9.34459 46.1085 9.34462 46.1085 9.34462 46.1113V46.1108Z" fill="black"/>
<path d="M78.8902 16.8916C78.8301 19.6625 75.7142 20.905 73.2946 18.8528C72.9417 18.5552 72.7392 18.5245 73.0782 19.0696C74.001 20.4513 73.3943 23.1005 70.5733 23.2363C67.0973 23.4038 66.0958 18.5409 69.7919 17.6278C70.1819 17.5796 70.173 17.2622 69.6195 17.3388C68.1171 17.4221 66.7128 17.8918 65.3435 18.5375C65.3435 17.4492 65.3435 16.2329 65.3435 15.2434C66.7128 15.8891 68.1171 16.3588 69.6195 16.4421C70.173 16.5186 70.1819 16.2013 69.7919 16.1531C66.0958 15.2401 67.0973 10.3771 70.5733 10.5446C73.3943 10.6803 74.001 13.3296 73.0782 14.7113C72.7392 15.2564 72.9417 15.2257 73.2946 14.928C75.7142 12.8759 78.8301 14.1183 78.8902 16.8893C78.8902 16.8893 78.8902 16.8893 78.8902 16.8921V16.8916Z" fill="black"/>
<path d="M78.8902 46.1108C78.8301 48.8817 75.7142 50.1243 73.2946 48.0721C72.9417 47.7745 72.7392 47.7438 73.0782 48.2889C74.001 49.6705 73.3943 52.3198 70.5733 52.4555C67.0973 52.623 66.0958 47.7601 69.7919 46.8471C70.1819 46.7988 70.173 46.4815 69.6195 46.558C68.1171 46.6413 66.7128 47.111 65.3435 47.7568C65.3435 46.6684 65.3435 45.4521 65.3435 44.4626C66.7128 45.1083 68.1171 45.5781 69.6195 45.6613C70.173 45.7378 70.1819 45.4206 69.7919 45.3724C66.0958 44.4593 67.0973 39.5963 70.5733 39.7639C73.3943 39.8995 74.001 42.5489 73.0782 43.9306C72.7392 44.4757 72.9417 44.4449 73.2946 44.1473C75.7142 42.0951 78.8301 43.3376 78.8902 46.1085C78.8902 46.1085 78.8902 46.1085 78.8902 46.1113V46.1108Z" fill="black"/>
<path d="M23.3444 31.5011C23.4045 34.2721 26.5203 35.5145 28.9399 33.4624C29.2929 33.1648 29.4954 33.1341 29.1564 33.6792C28.2336 35.0608 28.8402 37.7101 31.6613 37.8458C35.1373 38.0134 36.1388 33.1504 32.4426 32.2374C32.0527 32.1892 32.0616 31.8718 32.6151 31.9483C34.1175 32.0316 35.5217 32.5014 36.8911 33.1471C36.8911 32.0588 36.8911 30.8425 36.8911 29.8529C35.5217 30.4986 34.1175 30.9685 32.6151 31.0517C32.0616 31.1282 32.0527 30.8109 32.4426 30.7627C36.1388 29.8496 35.1373 24.9867 31.6613 25.1543C28.8402 25.2899 28.2336 27.9392 29.1564 29.3209C29.4954 29.866 29.2929 29.8352 28.9399 29.5376C26.5203 27.4854 23.4045 28.728 23.3444 31.4989C23.3444 31.4989 23.3444 31.4989 23.3444 31.5017V31.5011Z" fill="black"/>
<path d="M37.3441 16.8916C37.4042 19.6625 40.52 20.905 42.9396 18.8528C43.2926 18.5552 43.4951 18.5245 43.1561 19.0696C42.2333 20.4513 42.8399 23.1006 45.661 23.2363C49.137 23.4038 50.1385 18.5409 46.4423 17.6278C46.0524 17.5796 46.0613 17.2623 46.6148 17.3388C48.1172 17.4221 49.5214 17.8918 50.8908 18.5375C50.8908 17.4492 50.8908 16.2329 50.8908 15.2434C49.5214 15.8891 48.1172 16.3588 46.6148 16.4421C46.0613 16.5186 46.0524 16.2013 46.4423 16.1531C50.1385 15.2401 49.137 10.3771 45.661 10.5446C42.8399 10.6803 42.2333 13.3296 43.1561 14.7113C43.4951 15.2564 43.2926 15.2257 42.9396 14.928C40.52 12.8759 37.4042 14.1183 37.3441 16.8893C37.3441 16.8893 37.3441 16.8893 37.3441 16.8921V16.8916Z" fill="black"/>
<path d="M37.3441 46.1108C37.4042 48.8817 40.52 50.1243 42.9396 48.0721C43.2926 47.7745 43.4951 47.7438 43.1561 48.2889C42.2333 49.6705 42.8399 52.3198 45.661 52.4555C49.137 52.6231 50.1385 47.7601 46.4423 46.8471C46.0524 46.7988 46.0613 46.4815 46.6148 46.558C48.1172 46.6413 49.5214 47.111 50.8908 47.7568C50.8908 46.6684 50.8908 45.4521 50.8908 44.4626C49.5214 45.1083 48.1172 45.5781 46.6148 45.6613C46.0613 45.7378 46.0524 45.4206 46.4423 45.3724C50.1385 44.4593 49.137 39.5963 45.661 39.7639C42.8399 39.8995 42.2333 42.5489 43.1561 43.9306C43.4951 44.4757 43.2926 44.4449 42.9396 44.1473C40.52 42.0951 37.4042 43.3376 37.3441 46.1085C37.3441 46.1085 37.3441 46.1085 37.3441 46.1113V46.1108Z" fill="black"/>
<path d="M64.8905 31.5011C64.8304 34.272 61.7145 35.5146 59.2949 33.4624C58.942 33.1648 58.7395 33.1341 59.0785 33.6792C60.0013 35.0609 59.3946 37.7101 56.5736 37.8458C53.0976 38.0134 52.0961 33.1504 55.7922 32.2374C56.1822 32.1891 56.1733 31.8718 55.6198 31.9483C54.1174 32.0316 52.7132 32.5014 51.3438 33.1471C51.3438 32.0588 51.3438 30.8424 51.3438 29.8529C52.7132 30.4986 54.1174 30.9685 55.6198 31.0517C56.1733 31.1282 56.1822 30.8109 55.7922 30.7627C52.0961 29.8496 53.0976 24.9867 56.5736 25.1543C59.3946 25.2899 60.0013 27.9392 59.0785 29.3209C58.7395 29.866 58.942 29.8352 59.2949 29.5376C61.7145 27.4854 64.8304 28.7279 64.8905 31.4988C64.8905 31.4988 64.8905 31.4988 64.8905 31.5017V31.5011Z" fill="black"/>
<path d="M73.8965 4.8584C73.8715 3.75004 72.5732 3.25295 71.565 4.07382C71.418 4.19291 71.3336 4.20523 71.4749 3.98717C71.8593 3.43451 71.6066 2.37476 70.4311 2.3205C68.9828 2.25346 68.5655 4.19869 70.1056 4.5639C70.2681 4.58318 70.2644 4.7101 70.0337 4.67949C69.4077 4.64618 68.8226 4.45828 68.2521 4.19999C68.2521 4.63917 68.2521 5.07838 68.2521 5.51756C68.8226 5.25928 69.4077 5.07138 70.0337 5.03807C70.2644 5.00745 70.2681 5.13444 70.1056 5.15372C68.5655 5.51894 68.9828 7.46407 70.4311 7.39705C71.6066 7.34279 71.8593 6.28311 71.4749 5.73045C71.3336 5.51239 71.418 5.52467 71.565 5.64373C72.5732 6.4646 73.8715 5.96758 73.8965 4.85923C73.8965 4.85923 73.8965 4.85923 73.8965 4.85923V4.8584Z" fill="black"/>
<path d="M14.1036 58.1413C14.1285 59.2497 15.4269 59.7467 16.4351 58.9258C16.5821 58.8068 16.6665 58.7945 16.5253 59.0125C16.1408 59.5653 16.3936 60.6249 17.569 60.6792C19.0173 60.7462 19.4346 58.8011 17.8946 58.4359C17.7321 58.4166 17.7358 58.2896 17.9664 58.3202C18.5924 58.3535 19.1775 58.5414 19.7481 58.7997C19.7481 58.3605 19.7481 57.9213 19.7481 57.4821C19.1775 57.7404 18.5924 57.9283 17.9664 57.9617C17.7358 57.9922 17.7321 57.8653 17.8946 57.846C19.4346 57.4808 19.0173 55.5356 17.569 55.6027C16.3936 55.6569 16.1408 56.7166 16.5253 57.2693C16.6665 57.4873 16.5821 57.475 16.4351 57.356C15.4269 56.5351 14.1287 57.0322 14.1036 58.1405V58.1413Z" fill="black"/>
<path d="M10.4907 61.1667C9.2404 61.1224 8.77143 60.6703 8.11726 59.7803C7.60505 60.4904 6.84999 60.7897 6.20732 60.7287C4.65105 60.5825 3.87312 59.3808 3.90639 58.0694C3.94113 56.757 4.98145 55.6275 6.11235 55.5393C7.0954 55.4627 7.56996 55.7549 8.08698 56.4523C8.78586 55.6246 9.24485 55.0959 10.4763 55.1155C11.7077 55.135 13.173 56.1826 13.2177 58.0085C13.2624 59.8343 11.7409 61.2121 10.4907 61.1667V61.1667ZM10.4952 56.0697C9.36319 55.9917 8.59967 56.9925 8.58858 58.122C8.57668 59.2218 9.51545 60.2056 10.5318 60.2056C11.6231 60.2056 12.2163 58.9258 12.2189 58.0992C12.2234 57.0944 11.4698 56.1376 10.4952 56.0697ZM6.44583 56.4311C5.49344 56.4096 4.81009 57.2886 4.83744 58.1957C4.86207 59.0023 5.47718 59.8554 6.27396 59.8568C7.27144 59.8568 7.7696 58.8858 7.78882 58.0567C7.80581 57.3042 7.16611 56.4482 6.44583 56.4311V56.4311Z" fill="black"/>
<path d="M77.5095 7.88459C78.7597 7.84034 79.2287 7.38825 79.8829 6.49816C80.3951 7.20827 81.1501 7.50767 81.7928 7.44669C83.3491 7.30047 84.127 6.09866 84.0937 4.78734C84.059 3.4749 83.0187 2.34536 81.8878 2.25719C80.9047 2.18062 80.4302 2.47277 79.9131 3.17015C79.2143 2.34248 78.7553 1.81383 77.5239 1.83341C76.2924 1.85298 74.8271 2.90057 74.7824 4.72643C74.7377 6.55229 76.2592 7.92998 77.5095 7.88459ZM77.5049 2.78769C78.6369 2.70968 79.4005 3.71038 79.4116 4.83994C79.4234 5.93975 78.4847 6.92346 77.4684 6.92346C76.377 6.92346 75.7839 5.64366 75.7813 4.8171C75.7768 3.81236 76.5304 2.85556 77.5049 2.78769V2.78769ZM81.5544 3.14911C82.5067 3.12757 83.1901 4.00651 83.1627 4.91365C83.1379 5.72022 82.523 6.57333 81.7262 6.57478C80.7287 6.57478 80.2305 5.60379 80.2113 4.77467C80.1944 4.02212 80.834 3.16615 81.5544 3.14911V3.14911Z" fill="black"/>
</g>
<defs>
<clipPath id="clip0">
<rect width="63.0001" height="88" fill="white" transform="translate(0 63.0001) rotate(-90)"/>
</clipPath>
</defs>
</svg>
