<svg width="89" height="64" viewBox="0 0 89 64" fill="none" xmlns="http://www.w3.org/2000/svg">
<g clip-path="url(#clip0)">
<path d="M0.5 3.51339L0.5 60.4866C0.5 62.1509 1.84745 63.5001 3.50962 63.5001L85.4904 63.5001C87.1526 63.5001 88.5 62.1509 88.5 60.4866V3.51339C88.5 1.84911 87.1526 0.49995 85.4904 0.49995L3.50962 0.49995C1.84745 0.49995 0.5 1.84911 0.5 3.51339Z" fill="white"/>
<path d="M9.84462 17.3915C9.9047 20.1624 13.0206 21.405 15.4402 19.3528C15.7931 19.0552 15.9956 19.0245 15.6566 19.5696C14.7339 20.9512 15.3404 23.6005 18.1615 23.7362C21.6375 23.9038 22.639 19.0408 18.9429 18.1278C18.5529 18.0795 18.5618 17.7622 19.1153 17.8387C20.6177 17.922 22.0219 18.3917 23.3913 19.0375C23.3913 17.9491 23.3913 16.7328 23.3913 15.7433C22.0219 16.389 20.6177 16.8588 19.1153 16.942C18.5618 17.0185 18.5529 16.7013 18.9429 16.6531C22.639 15.74 21.6375 10.877 18.1615 11.0446C15.3404 11.1802 14.7339 13.8296 15.6566 15.2113C15.9956 15.7564 15.7931 15.7256 15.4402 15.428C13.0206 13.3758 9.9047 14.6183 9.84462 17.3892C9.84459 17.3892 9.84462 17.3892 9.84462 17.392V17.3915Z" fill="black"/>
<path d="M9.84462 46.6107C9.9047 49.3817 13.0206 50.6242 15.4402 48.572C15.7931 48.2744 15.9956 48.2437 15.6566 48.7888C14.7339 50.1705 15.3404 52.8197 18.1615 52.9554C21.6375 53.123 22.639 48.26 18.9429 47.347C18.5529 47.2988 18.5618 46.9815 19.1153 47.058C20.6177 47.1412 22.0219 47.611 23.3913 48.2567C23.3913 47.1684 23.3913 45.9521 23.3913 44.9625C22.0219 45.6082 20.6177 46.078 19.1153 46.1613C18.5618 46.2378 18.5529 45.9205 18.9429 45.8723C22.639 44.9592 21.6375 40.0962 18.1615 40.2638C15.3404 40.3994 14.7339 43.0488 15.6566 44.4305C15.9956 44.9756 15.7931 44.9448 15.4402 44.6472C13.0206 42.595 9.9047 43.8376 9.84462 46.6085C9.84459 46.6085 9.84462 46.6085 9.84462 46.6113V46.6107Z" fill="black"/>
<path d="M79.3902 17.3915C79.3301 20.1624 76.2142 21.405 73.7946 19.3528C73.4417 19.0552 73.2392 19.0245 73.5782 19.5696C74.5009 20.9512 73.8943 23.6005 71.0733 23.7362C67.5973 23.9037 66.5958 19.0408 70.2919 18.1278C70.6819 18.0795 70.673 17.7622 70.1195 17.8387C68.6171 17.922 67.2128 18.3917 65.8435 19.0375C65.8435 17.9491 65.8435 16.7328 65.8435 15.7433C67.2128 16.389 68.6171 16.8588 70.1195 16.942C70.673 17.0185 70.6819 16.7013 70.2919 16.6531C66.5958 15.74 67.5973 10.877 71.0733 11.0446C73.8943 11.1802 74.5009 13.8296 73.5782 15.2113C73.2392 15.7564 73.4417 15.7256 73.7946 15.428C76.2142 13.3758 79.3301 14.6183 79.3902 17.3892C79.3902 17.3892 79.3902 17.3892 79.3902 17.392V17.3915Z" fill="black"/>
<path d="M79.3902 46.6107C79.3301 49.3817 76.2142 50.6242 73.7946 48.572C73.4417 48.2744 73.2392 48.2437 73.5782 48.7888C74.5009 50.1705 73.8943 52.8197 71.0733 52.9554C67.5973 53.123 66.5958 48.26 70.2919 47.347C70.6819 47.2988 70.673 46.9815 70.1195 47.058C68.6171 47.1412 67.2128 47.611 65.8435 48.2567C65.8435 47.1684 65.8435 45.9521 65.8435 44.9625C67.2128 45.6082 68.6171 46.078 70.1195 46.1613C70.673 46.2378 70.6819 45.9205 70.2919 45.8723C66.5958 44.9592 67.5973 40.0962 71.0733 40.2638C73.8943 40.3994 74.5009 43.0488 73.5782 44.4305C73.2392 44.9756 73.4417 44.9448 73.7946 44.6472C76.2142 42.595 79.3301 43.8376 79.3902 46.6085C79.3902 46.6085 79.3902 46.6085 79.3902 46.6113V46.6107Z" fill="black"/>
<path d="M37.8441 32.0011C37.9042 34.7721 41.02 36.0146 43.4397 33.9624C43.7926 33.6647 43.9951 33.6341 43.6561 34.1792C42.7334 35.5608 43.34 38.2102 46.161 38.3458C49.637 38.5134 50.6385 33.6504 46.9424 32.7374C46.5524 32.6892 46.5613 32.3719 47.1148 32.4483C48.6172 32.5316 50.0214 33.0014 51.3908 33.6471C51.3908 32.5588 51.3908 31.3425 51.3908 30.3529C50.0214 30.9986 48.6172 31.4684 47.1148 31.5517C46.5613 31.6282 46.5524 31.3109 46.9424 31.2627C50.6385 30.3496 49.637 25.4866 46.161 25.6542C43.34 25.7898 42.7334 28.4392 43.6561 29.8209C43.9951 30.366 43.7926 30.3352 43.4397 30.0376C41.02 27.9854 37.9042 29.2279 37.8441 31.9988C37.8441 31.9988 37.8441 31.9988 37.8441 32.0017V32.0011Z" fill="black"/>
<path d="M74.3965 5.35839C74.3715 4.25004 73.0732 3.75299 72.065 4.57389C71.918 4.69295 71.8336 4.70523 71.9749 4.48717C72.3593 3.93451 72.1066 2.87476 70.9311 2.8205C69.4828 2.75348 69.0655 4.69871 70.6056 5.0639C70.7681 5.08318 70.7644 5.21007 70.5337 5.17948C69.9077 5.14615 69.3226 4.95825 68.7521 4.69999C68.7521 5.13917 68.7521 5.57838 68.7521 6.01756C69.3226 5.75927 69.9077 5.57138 70.5337 5.53807C70.7644 5.50745 70.7681 5.63441 70.6056 5.65372C69.0655 6.01891 69.4828 7.9641 70.9311 7.89705C72.1066 7.84279 72.3593 6.78314 71.9749 6.23045C71.8336 6.01239 71.918 6.02467 72.065 6.14373C73.0732 6.96463 74.3715 6.46755 74.3965 5.35923C74.3965 5.35923 74.3965 5.35923 74.3965 5.35923V5.35839Z" fill="black"/>
<path d="M28.511 46.6107C28.5711 49.3816 31.6869 50.6242 34.1065 48.572C34.4594 48.2744 34.662 48.2436 34.323 48.7887C33.4002 50.1704 34.0068 52.8197 36.8279 52.9554C40.3038 53.123 41.3053 48.26 37.6092 47.3469C37.2193 47.2987 37.2282 46.9814 37.7817 47.0579C39.2841 47.1412 40.6883 47.611 42.0577 48.2567C42.0577 47.1684 42.0577 45.9521 42.0577 44.9625C40.6883 45.6082 39.2841 46.078 37.7817 46.1613C37.2282 46.2378 37.2193 45.9205 37.6092 45.8723C41.3053 44.9592 40.3038 40.0962 36.8279 40.2638C34.0068 40.3994 33.4002 43.0488 34.323 44.4305C34.662 44.9756 34.4594 44.9448 34.1065 44.6472C31.6869 42.595 28.5711 43.8376 28.511 46.6085C28.511 46.6085 28.511 46.6085 28.511 46.6113V46.6107Z" fill="black"/>
<path d="M60.7239 46.6107C60.6638 49.3817 57.548 50.6242 55.1284 48.572C54.7754 48.2744 54.5729 48.2437 54.9119 48.7888C55.8347 50.1705 55.2281 52.8197 52.407 52.9554C48.9311 53.123 47.9295 48.26 51.6257 47.347C52.0156 47.2988 52.0067 46.9815 51.4532 47.058C49.9508 47.1412 48.5466 47.611 47.1772 48.2567C47.1772 47.1684 47.1772 45.9521 47.1772 44.9625C48.5466 45.6082 49.9508 46.078 51.4532 46.1613C52.0067 46.2378 52.0156 45.9205 51.6257 45.8723C47.9295 44.9592 48.9311 40.0962 52.407 40.2638C55.2281 40.3994 55.8347 43.0488 54.9119 44.4305C54.5729 44.9756 54.7754 44.9448 55.1284 44.6472C57.548 42.595 60.6638 43.8376 60.7239 46.6085C60.7239 46.6085 60.7239 46.6085 60.7239 46.6113V46.6107Z" fill="black"/>
<path d="M28.511 17.3915C28.5711 20.1624 31.6869 21.405 34.1065 19.3528C34.4594 19.0552 34.662 19.0245 34.323 19.5696C33.4002 20.9512 34.0068 23.6005 36.8279 23.7362C40.3038 23.9037 41.3053 19.0408 37.6092 18.1278C37.2193 18.0795 37.2282 17.7622 37.7817 17.8387C39.2841 17.922 40.6883 18.3917 42.0577 19.0375C42.0577 17.9491 42.0577 16.7328 42.0577 15.7433C40.6883 16.389 39.2841 16.8588 37.7817 16.942C37.2282 17.0185 37.2193 16.7013 37.6092 16.6531C41.3053 15.74 40.3038 10.877 36.8279 11.0446C34.0068 11.1802 33.4002 13.8296 34.323 15.2113C34.662 15.7564 34.4594 15.7256 34.1065 15.428C31.6869 13.3758 28.5711 14.6183 28.511 17.3892C28.511 17.3892 28.511 17.3892 28.511 17.392V17.3915Z" fill="black"/>
<path d="M60.7239 17.3915C60.6638 20.1624 57.548 21.405 55.1284 19.3528C54.7754 19.0552 54.5729 19.0245 54.9119 19.5696C55.8347 20.9512 55.2281 23.6005 52.407 23.7362C48.9311 23.9037 47.9295 19.0408 51.6257 18.1278C52.0156 18.0795 52.0067 17.7622 51.4532 17.8387C49.9508 17.922 48.5466 18.3917 47.1772 19.0375C47.1772 17.9491 47.1772 16.7328 47.1772 15.7433C48.5466 16.389 49.9508 16.8588 51.4532 16.942C52.0067 17.0185 52.0156 16.7013 51.6257 16.6531C47.9295 15.74 48.9311 10.877 52.407 11.0446C55.2281 11.1802 55.8347 13.8296 54.9119 15.2113C54.5729 15.7564 54.7754 15.7256 55.1284 15.428C57.548 13.3758 60.6638 14.6183 60.7239 17.3892C60.7239 17.3892 60.7239 17.3892 60.7239 17.392V17.3915Z" fill="black"/>
<path d="M14.6036 58.6413C14.6286 59.7496 15.9269 60.2466 16.9351 59.4258C17.0822 59.3067 17.1665 59.2945 17.0253 59.5125C16.6408 60.0652 16.8936 61.1249 18.069 61.1792C19.5173 61.2462 19.9346 59.301 18.3946 58.9358C18.2321 58.9165 18.2358 58.7896 18.4664 58.8202C19.0924 58.8535 19.6775 59.0414 20.2481 59.2997C20.2481 58.8605 20.2481 58.4212 20.2481 57.982C19.6775 58.2403 19.0924 58.4283 18.4664 58.4616C18.2358 58.4922 18.2321 58.3652 18.3946 58.3459C19.9346 57.9807 19.5173 56.0356 18.069 56.1026C16.8936 56.1569 16.6408 57.2165 17.0253 57.7692C17.1665 57.9872 17.0822 57.975 16.9351 57.8559C15.9269 57.035 14.6287 57.5321 14.6036 58.6404V58.6413Z" fill="black"/>
<path d="M11.9234 61.243L11.6533 60.391C12.5121 60.0692 12.7663 59.42 12.7113 58.7328C12.613 57.4998 11.2346 57.0902 10.0162 56.998C10.5258 57.4784 10.7845 58.2001 10.7583 58.8151C10.6529 60.7811 9.0794 61.2843 7.43233 61.3024C6.04359 61.3562 5.03771 60.7822 4.57579 59.7974C4.34187 59.2756 4.34184 58.0811 4.61899 57.5564C5.25461 56.3518 6.35255 55.9051 8.97409 55.986C11.1307 55.986 13.6425 56.4439 13.6972 58.7556C13.882 60.0905 12.8428 61.1055 11.9234 61.243V61.243ZM9.56015 57.8964C9.3063 57.4955 9.06795 57.2698 8.71135 57.0898C8.41829 56.9425 8.26529 56.8913 7.65923 56.9338C6.09571 57.043 5.20807 57.8623 5.38398 59.0514C5.48375 59.7147 5.85476 60.0775 6.54469 60.2857C7.82072 60.67 9.31333 60.1824 9.65699 59.2694C9.81294 58.8587 9.76822 58.2237 9.56015 57.8964V57.8964Z" fill="black"/>
<path d="M77.0768 2.75762L77.347 3.6096C76.4882 3.93145 76.2339 4.58059 76.289 5.26783C76.3873 6.5008 77.7657 6.91048 78.9841 7.00267C78.4744 6.52224 78.2158 5.80049 78.242 5.18546C78.3473 3.21953 79.9208 2.71631 81.5679 2.69816C82.9566 2.64447 83.9625 3.21847 84.4245 4.20322C84.6584 4.72501 84.6584 5.91952 84.3812 6.4442C83.7456 7.64888 82.6477 8.09551 80.0262 8.0146C77.8695 8.0146 75.3577 7.55669 75.303 5.24499C75.1183 3.91007 76.1574 2.89514 77.0768 2.75762V2.75762ZM79.4401 6.10424C79.6939 6.50518 79.9323 6.73087 80.2889 6.91082C80.5819 7.05815 80.7349 7.10929 81.341 7.06682C82.9045 6.9576 83.7922 6.13831 83.6163 4.94925C83.5165 4.28594 83.1455 3.92315 82.4555 3.71487C81.1795 3.33058 79.6869 3.81829 79.3432 4.73123C79.1873 5.14198 79.232 5.77695 79.4401 6.10424V6.10424Z" fill="black"/>
</g>
<defs>
<clipPath id="clip0">
<rect width="63.0001" height="88" fill="white" transform="translate(0.5 63.5001) rotate(-90)"/>
</clipPath>
</defs>
</svg>
