<svg width="89" height="64" viewBox="0 0 89 64" fill="none" xmlns="http://www.w3.org/2000/svg">
<g clip-path="url(#clip0)">
<path d="M0.5 3.51351L0.5 60.4868C0.5 62.1511 1.84746 63.5002 3.50963 63.5002L85.4907 63.5002C87.1528 63.5002 88.5003 62.1511 88.5003 60.4868V3.51351C88.5003 1.84922 87.1528 0.500057 85.4907 0.500057L3.50963 0.500057C1.84746 0.500057 0.5 1.84922 0.5 3.51351Z" fill="white"/>
<path d="M20.2481 58.6411C19.241 59.251 18.2621 59.8926 17.4259 60.6944C16.5897 59.8926 15.6108 59.251 14.6036 58.6411C15.6108 58.0313 16.5897 57.3896 17.4259 56.5878C18.2621 57.3896 19.241 58.0313 20.2481 58.6411Z" fill="#C8102E"/>
<path d="M74.3967 5.35895C73.3895 5.96883 72.4106 6.61044 71.5744 7.41223C70.7383 6.61044 69.7594 5.96883 68.7522 5.35895C69.7594 4.74909 70.7383 4.10748 71.5744 3.30568C72.4106 4.10748 73.3895 4.74909 74.3967 5.35895Z" fill="#C8102E"/>
<path d="M51.2735 32.0002C48.8563 33.4638 46.507 35.0037 44.5002 36.928C42.4933 35.0037 40.144 33.4638 37.7268 32.0002C40.144 30.5365 42.4933 28.9966 44.5002 27.0723C46.507 28.9966 48.8563 30.5365 51.2735 32.0002Z" fill="#C8102E"/>
<path d="M13.7186 61.4897H12.9223V60.7299L4.40527 59.1113V58.19L12.9223 56.4069V55.7933H13.7186V57.8841H12.9223V57.3199L11.6171 57.5452V59.6544L12.9223 59.8174V59.2531H13.7186V61.4897ZM10.6874 57.7251L6.12878 58.6421L10.6874 59.5009V57.7251Z" fill="#C8102E"/>
<path d="M75.2816 8.20758H76.078V7.44775L84.595 5.82908V4.90779L76.078 3.12474V2.51115H75.2816V4.60192H76.078V4.03768L77.3831 4.263V6.37225L76.078 6.53517V5.97095H75.2816V8.20758ZM78.3129 4.44298L82.8715 5.35991L78.3129 6.21877V4.44298Z" fill="#C8102E"/>
</g>
<defs>
<clipPath id="clip0">
<rect width="63.0002" height="88.0003" fill="white" transform="translate(0.5 63.5002) rotate(-90)"/>
</clipPath>
</defs>
</svg>
