<svg width="89" height="64" viewBox="0 0 89 64" fill="none" xmlns="http://www.w3.org/2000/svg">
<g clip-path="url(#clip0)">
<path d="M0.501221 3.51352L0.501221 60.4868C0.501221 62.1511 1.84868 63.5002 3.51085 63.5002L85.4919 63.5002C87.154 63.5002 88.5015 62.1511 88.5015 60.4868V3.51352C88.5015 1.84923 87.154 0.500057 85.4919 0.500057L3.51085 0.500057C1.84868 0.500057 0.501221 1.84923 0.501221 3.51352Z" fill="white"/>
<path d="M20.2494 58.6415C19.2423 59.2514 18.2634 59.893 17.4272 60.6948C16.591 59.893 15.6122 59.2514 14.605 58.6415C15.6122 58.0317 16.591 57.3901 17.4272 56.5883C18.2634 57.3901 19.2423 58.0317 20.2494 58.6415Z" fill="#C8102E"/>
<path d="M23.2753 17.3909C20.8582 18.8546 18.5089 20.3945 16.502 22.3188C14.4952 20.3945 12.1459 18.8546 9.72864 17.3909C12.1459 15.9272 14.4952 14.3874 16.502 12.4631C18.5089 14.3874 20.8582 15.9272 23.2753 17.3909Z" fill="#C8102E"/>
<path d="M74.3981 5.35944C73.391 5.96929 72.4121 6.61092 71.5759 7.41272C70.7397 6.61092 69.7608 5.96929 68.7537 5.35944C69.7608 4.74958 70.7397 4.10798 71.5759 3.30615C72.4121 4.10798 73.391 4.74958 74.3981 5.35944Z" fill="#C8102E"/>
<path d="M23.2753 46.6103C20.8582 48.074 18.5089 49.6139 16.502 51.5382C14.4952 49.6139 12.1459 48.074 9.72864 46.6103C12.1459 45.1467 14.4952 43.6068 16.502 41.6824C18.5089 43.6068 20.8582 45.1467 23.2753 46.6103Z" fill="#C8102E"/>
<path d="M41.9437 17.3909C39.5265 18.8546 37.1772 20.3945 35.1704 22.3188C33.1635 20.3945 30.8142 18.8546 28.397 17.3909C30.8142 15.9272 33.1635 14.3874 35.1704 12.4631C37.1772 14.3874 39.5265 15.9272 41.9437 17.3909Z" fill="#C8102E"/>
<path d="M41.9437 46.6103C39.5265 48.074 37.1772 49.6139 35.1703 51.5382C33.1635 49.6139 30.8142 48.074 28.397 46.6103C30.8142 45.1467 33.1635 43.6068 35.1703 41.6824C37.1772 43.6068 39.5265 45.1467 41.9437 46.6103Z" fill="#C8102E"/>
<path d="M32.6085 32.0006C30.1913 33.4643 27.842 35.0041 25.8351 36.9285C23.8283 35.0041 21.479 33.4643 19.0618 32.0006C21.479 30.5369 23.8283 28.997 25.8351 27.0727C27.842 28.997 30.1913 30.5369 32.6085 32.0006Z" fill="#C8102E"/>
<path d="M79.2758 46.6103C76.8586 48.074 74.5093 49.6139 72.5025 51.5382C70.4956 49.6139 68.1463 48.074 65.7291 46.6103C68.1463 45.1467 70.4956 43.6068 72.5025 41.6824C74.5093 43.6068 76.8586 45.1467 79.2758 46.6103Z" fill="#C8102E"/>
<path d="M79.2778 17.3909C76.8606 18.8546 74.5113 20.3945 72.5044 22.3188C70.4976 20.3945 68.1483 18.8546 65.7311 17.3909C68.1483 15.9272 70.4976 14.3874 72.5044 12.4631C74.5113 14.3874 76.8606 15.9272 79.2778 17.3909Z" fill="#C8102E"/>
<path d="M60.6076 17.3909C58.1904 18.8546 55.8411 20.3945 53.8343 22.3188C51.8274 20.3945 49.4781 18.8546 47.0609 17.3909C49.4781 15.9272 51.8274 14.3874 53.8343 12.4631C55.8411 14.3874 58.1904 15.9272 60.6076 17.3909Z" fill="#C8102E"/>
<path d="M60.5986 46.6103C58.1814 48.074 55.8321 49.6139 53.8252 51.5382C51.8184 49.6139 49.4691 48.074 47.0519 46.6103C49.4691 45.1467 51.8184 43.6068 53.8252 41.6824C55.8321 43.6068 58.1814 45.1467 60.5986 46.6103Z" fill="#C8102E"/>
<path d="M69.9412 32.0006C67.5241 33.4643 65.1747 35.0041 63.1679 36.9285C61.1611 35.0041 58.8117 33.4643 56.3945 32.0006C58.8117 30.5369 61.1611 28.997 63.1679 27.0727C65.1747 28.997 67.5241 30.5369 69.9412 32.0006Z" fill="#C8102E"/>
<path d="M13.72 61.4683H4.40686V60.5655H13.72V61.4683Z" fill="#C8102E"/>
<path d="M4.40662 57.8894C4.40662 58.7584 5.20039 59.4569 6.18632 59.4569H11.9404C12.9264 59.4569 13.7198 58.7581 13.7198 57.8894V57.3821C13.7198 56.5131 12.9264 55.8132 11.9404 55.8132H6.18632C5.20039 55.8132 4.40662 56.5135 4.40662 57.3821V57.8894ZM5.28724 57.6271C5.28724 57.114 5.6808 56.7014 6.17302 56.7014H12.0033C12.4955 56.7014 12.8928 57.114 12.8928 57.6271C12.8928 58.1401 12.4955 58.5542 12.0033 58.5542H6.17302C5.68116 58.5542 5.28724 58.1401 5.28724 57.6271Z" fill="#C8102E"/>
<path d="M75.2829 2.5332L84.5961 2.5332V3.43599L75.2829 3.43599V2.5332Z" fill="#C8102E"/>
<path d="M84.5963 6.11208C84.5963 5.24303 83.8025 4.54456 82.8166 4.54456L77.0625 4.54456C76.0765 4.54456 75.2831 5.2434 75.2831 6.11208V6.61934C75.2831 7.48836 76.0765 8.18831 77.0625 8.18831H82.8166C83.8025 8.18831 84.5963 7.48799 84.5963 6.61934V6.11208ZM83.7157 6.37439C83.7157 6.88747 83.3221 7.30002 82.8299 7.30002H76.9997C76.5074 7.30002 76.1102 6.88747 76.1102 6.37439C76.1102 5.86134 76.5074 5.44731 76.9997 5.44731H82.8299C83.3218 5.44731 83.7157 5.86134 83.7157 6.37439Z" fill="#C8102E"/>
</g>
<defs>
<clipPath id="clip0">
<rect width="63.0002" height="88.0003" fill="white" transform="translate(0.501221 63.5002) rotate(-90)"/>
</clipPath>
</defs>
</svg>
