<svg width="89" height="64" viewBox="0 0 89 64" fill="none" xmlns="http://www.w3.org/2000/svg">
<g clip-path="url(#clip0)">
<path d="M0.501587 3.51351L0.501587 60.4868C0.501587 62.1511 1.84904 63.5002 3.51122 63.5002L85.4922 63.5002C87.1544 63.5002 88.5019 62.1511 88.5019 60.4868V3.51351C88.5019 1.84922 87.1544 0.500076 85.4922 0.500076L3.51122 0.500076C1.84904 0.500076 0.501587 1.84922 0.501587 3.51351Z" fill="white"/>
<path d="M7.92185 23.8622C7.92185 23.8622 18.29 16.7068 20.1302 14.2801C20.2142 14.1016 19.6413 11.1098 19.6413 11.1098C15.9611 12.6432 12.1536 13.6297 7.88489 12.6346L7.92185 23.8622ZM24.3195 19.8862C25.7153 24.8192 27.0278 29.7428 24.7527 35.0905L30.4091 40.9307C30.5549 40.9792 33.6314 33.8755 33.2714 33.7557C42.6672 37.2384 44.3732 31.8085 34.0378 28.3516C33.4437 23.8264 32.8285 18.3978 29.7061 13.9111C27.3661 17.7948 24.2917 19.8903 24.3195 19.8862V19.8862ZM25.9921 49.5564C24.842 51.426 27.2091 52.8873 28.3911 51.5184C29.0816 51.6793 30.1093 51.7339 30.5608 51.0675C30.9488 50.4551 30.5463 49.313 30.5506 49.1481C30.5509 49.1363 31.7935 49.1185 31.7903 49.2137C31.7843 49.3908 31.2134 50.0594 31.0895 50.4717C30.6707 51.8652 30.3977 53.8419 30.4698 53.8072C30.5906 53.7491 30.9435 54.1377 31.9223 52.5828C32.2858 52.0052 31.8764 50.1803 32.3359 48.7269C32.6159 47.8415 33.0626 47.046 32.8308 46.5653C32.4835 45.2975 30.8231 44.8018 30.8353 44.8887C30.7851 44.931 31.8131 48.7224 31.9935 48.3658L30.5518 48.3773C30.7168 46.8819 29.6304 45.5323 27.7678 47.0019C26.6773 45.9074 24.0781 47.4384 25.9921 49.5563V49.5564ZM32.5858 43.3265C36.3023 47.0042 43.2771 54.5216 43.2771 54.5216L48.4826 54.4411L55.0707 47.0971C48.0771 46.5153 41.5499 42.5507 38.2847 38.7759C37.2917 38.4292 32.9343 42.527 32.5858 43.3265ZM33.8715 17.1235C38.1717 17.6776 44.0361 18.1812 50.5547 25.4586C52.7076 24.1975 54.8988 22.5924 55.9446 20.2824C56.3145 20.1184 49.1887 13.6056 45.8196 9.59894L41.256 9.62016L33.8715 17.1235ZM34.7946 49.9225C34.8883 49.9378 36.0178 50.2064 35.9879 50.2757C36.0494 50.2703 35.7124 49.5304 35.4027 49.4468C35.1312 49.3734 34.7632 49.2038 34.7112 49.1927C33.5484 49.3595 34.3743 49.675 34.7946 49.9225V49.9225ZM37.8009 52.6468C38.441 52.9112 39.6166 53.1586 40.3817 53.0674C41.0355 51.7645 38.3159 51.4104 38.056 51.7608C37.9671 51.9706 37.7947 52.4681 37.8009 52.6468V52.6468ZM50.2702 12.4092C50.8126 12.53 50.9734 12.5045 51.0793 12.2637C51.2646 11.842 51.0408 11.6524 50.1575 11.3137C49.6318 11.1121 48.8407 10.9326 48.5262 11.0951C47.9672 11.8943 49.8606 12.3166 50.2702 12.4092ZM54.8338 35.196C55.683 40.5435 56.2071 45.8944 59.5279 50.1411C59.4717 49.6625 64.317 44.5157 64.9985 44.2493C61.1468 36.3837 64.0562 28.7442 64.0562 28.7442L58.4947 22.9878C58.3894 22.766 55.7123 29.2486 55.2611 30.4699C43.3481 26.055 45.1385 33.0466 54.8338 35.196V35.196ZM53.4737 14.1461C53.7563 14.4958 54.0124 14.6717 54.379 14.9441L54.8242 14.6694L54.0462 13.9658L53.4737 14.1461ZM58.4861 19.1836C58.1508 18.4424 56.8723 15.8113 57.1678 15.6983L58.4478 15.754C58.3157 16.1566 58.7462 18.7544 61.4344 17.252C63.5698 18.1981 64.6712 16.0897 63.2592 14.6127C64.3238 11.5171 61.2188 11.9315 60.7171 12.5702C59.9333 12.0668 58.2643 12.6995 58.2585 13.0144C58.2585 13.0144 58.869 10.3131 58.3869 10.5773C58.1668 10.6978 57.7874 10.8487 57.3856 11.449C56.9225 12.1409 57.0906 13.3563 56.8843 14.3402C56.6637 15.3919 56.2866 16.069 56.2334 16.9529C56.3553 18.2869 57.5293 19.5322 58.4861 19.1836V19.1836ZM68.564 49.2871L69.5612 53.0091C73.4013 51.4553 76.9315 50.8409 81.2354 51.2861L81.2902 40.4838L68.564 49.2871Z" fill="#FFCD00"/>
<path d="M81.2522 39.5875C74.4706 44.3272 68.0197 48.719 60.9098 54.5498C60.9098 54.5498 58.1619 54.545 55.4364 54.5244L81.1854 36.6115L81.2522 39.5875ZM70.3026 29.9921C69.0146 30.1448 67.4732 30.4065 66.1466 30.7828L63.0552 27.5121C65.8176 27.8651 67.937 28.4069 70.3026 29.9921V29.9921ZM60.559 14.3609C61.5336 13.629 62.0747 14.8642 61.6409 15.3306C60.7616 16.2762 59.853 14.8911 60.559 14.3609ZM54.4214 46.7903C54.7701 47.333 45.9228 45.8151 41.3504 41.6482C48.6279 39.1138 52.7082 43.5855 54.4214 46.7903ZM54.3887 26.2336L53.6399 29.001L49.7601 27.698C49.7601 27.698 50.3703 25.0247 51.176 25.2463C53.7987 25.9677 54.3887 26.2336 54.3887 26.2336V26.2336ZM52.8973 39.0446C51.6622 38.2952 50.3006 37.7263 48.9073 37.2025L48.8494 34.4302L52.6944 35.8233L52.8973 39.0446ZM47.4527 22.3657C43.1776 24.5075 36.411 21.9843 34.5485 17.3241C38.8839 17.492 43.2754 18.8339 47.4527 22.3657ZM46.238 36.761C44.7196 36.6667 43.1283 36.8402 41.7181 37.0497C42.4004 34.0956 42.8571 30.8756 43.0197 27.3089L47.1127 26.9685C46.531 30.1361 46.1155 33.3591 46.238 36.761ZM40.0012 29.6856C38.7321 29.3703 37.4897 28.9662 36.2914 28.4154L36.1338 25.0402C36.0678 25.0577 38.3853 26.4802 40.0581 26.821C40.001 27.3585 40.0012 29.6856 40.0012 29.6856V29.6856ZM38.9895 36.0849C38.641 37.07 38.5436 38.417 37.7799 38.9408L34.5246 37.9161L35.458 34.8811L38.9895 36.0849ZM7.9295 27.5676L7.90674 25.1891C7.90674 25.1891 22.5659 13.7607 28.2705 9.47735C28.8512 9.62007 33.772 9.42953 33.772 9.42953C25.2127 15.4966 7.9295 27.5676 7.9295 27.5676V27.5676ZM28.6048 49.6358C27.581 50.6497 26.7699 49.067 27.5483 48.4892C28.1776 48.0221 29.2301 49.0165 28.6048 49.6358ZM25.9797 36.6599C22.5827 36.623 18.5511 34.2201 18.6541 34.245C18.6475 34.2729 21.975 33.9025 23.0221 33.4407C23.2066 33.5653 26.1926 36.5463 25.9797 36.6599V36.6599Z" fill="#C8102E"/>
<path d="M7.36743 55.0383L81.6357 55.0383V8.9603L7.36743 8.9603L7.36743 55.0383ZM7.93148 54.4642L7.93148 34.1914C7.93148 34.1914 8.22347 34.1701 9.48571 34.2184C12.051 34.3061 14.7386 34.4138 17.3538 34.2459C18.2589 34.2177 19.1525 34.2361 20.0481 34.1063C20.9205 33.9799 21.8613 33.9243 22.6739 33.5176C23.1143 33.3542 23.0804 33.3486 23.6573 33.9713C23.9403 34.2768 24.2413 34.5365 24.2945 34.5252C24.3121 34.5215 24.3787 34.539 24.3411 34.492C24.3161 34.4608 24.0923 34.2351 24.0627 34.2101C23.8633 34.0414 24.1191 33.7591 24.3914 32.7961C24.4448 32.6073 24.6232 32.341 24.7709 32.1374C25.9869 30.698 25.6077 28.6724 24.9446 27.1583C24.7564 26.7287 24.7368 26.6233 24.6548 25.9328C24.3508 23.3755 23.2308 20.6433 23.2343 20.649L23.7823 20.3153C23.7823 20.3153 23.7589 20.1898 23.8968 20.1004C26.6816 18.6295 29.864 13.8275 29.7166 13.9129L31.4585 17.0513C31.7569 16.8104 32.0803 16.5309 32.4145 16.2337L32.4259 16.1849L32.4918 16.1658C35.3202 13.6363 39.0908 9.51112 39.0908 9.51112H45.992C47.1169 10.914 48.4064 12.2979 49.6656 13.5315C50.0175 13.8861 50.2183 14.1364 50.2249 14.0017C50.176 13.6815 50.4927 13.4053 50.7123 13.1447C50.8967 12.9797 50.8797 13.0192 51.1316 13.2096C51.3087 13.3434 51.3599 13.3928 51.4878 13.3933C51.7354 13.3886 51.9014 13.3899 52.0871 13.6098C52.2589 13.7464 52.3692 13.8245 52.5729 13.8491C52.7762 13.8736 52.9067 13.8722 53.0866 14.0116C53.137 14.248 53.4818 14.2702 53.6362 14.2285C53.8823 13.981 54.1488 14.0943 54.0929 14.0713C54.6073 14.544 55.0532 15.0401 54.334 14.7233C54.0662 14.5804 53.844 14.5307 53.844 14.5307C53.844 14.5307 54.0803 14.7583 54.1919 14.8774C54.3611 15.0597 54.2619 15.1264 53.7367 15.1318C53.3393 15.1552 52.7846 15.3223 52.6786 15.3887C52.6194 15.4258 52.7221 15.4319 53.1048 15.4148C53.6081 15.3919 53.7541 15.3325 54.2567 15.5093C54.9356 15.7481 55.0318 15.9179 55.0084 15.53C54.9861 15.1625 54.9819 14.8519 55.2018 14.6912C55.2759 14.637 55.4028 14.5671 55.4776 14.4186C55.6432 14.1163 55.8274 13.876 56.0105 13.708C56.603 13.1645 57.1323 13.3201 56.7731 14.3709C56.5841 14.9241 56.3458 14.5622 56.4009 13.9675C56.4352 13.6023 56.2999 13.5404 56.2029 13.8565C56.0939 14.4446 56.0278 14.5395 56.4901 14.9273C56.3285 16.556 55.4156 17.4705 54.672 17.91C54.361 18.0938 54.2788 18.1481 54.1027 18.02C54.3301 18.6887 55.4681 19.5118 55.9991 20.0849C55.0406 21.7699 53.3122 23.8506 51.3483 25.0401C52.4606 25.6315 54.4849 26.3264 54.4848 26.3264L53.7445 28.9706L53.8 29.0018L54.5548 26.3882L55.4294 26.6431C55.5239 26.6707 56.5191 27.0749 56.5191 27.0749L58.429 22.9923C59.0485 23.3455 59.2596 23.9727 59.9314 24.0757L54.5185 18.4156C54.5185 18.4156 55.6041 17.6854 55.8503 17.4137C56.0812 17.159 56.137 17.0797 56.206 17.3769C56.4014 18.7068 57.4113 19.7389 58.7654 19.379C58.9161 19.3209 58.8606 19.204 58.7017 18.9518C57.9 18.0688 57.1576 15.9105 57.346 15.8368L58.2081 15.828C58.2418 18.1517 59.9543 17.9135 60.8728 17.7434C60.8927 17.7434 61.482 18.4156 61.482 18.4156C61.6069 18.178 61.736 17.9454 61.89 17.7257C63.0324 17.93 64.6879 16.9588 63.8403 15.0514C64.0099 14.8865 64.1806 14.7308 64.3934 14.549C64.1669 14.3538 63.6329 14.129 63.6329 14.129C64.0626 13.1816 63.1006 11.2154 60.8972 12.2209L60.3674 11.667L60.0309 12.1991C59.4707 12.2129 58.9704 12.2993 58.4824 12.633C58.4824 12.633 58.7108 11.7387 58.7494 11.0768C58.7864 10.6682 58.7969 10.3235 58.5492 10.3579C58.4763 10.368 58.1197 10.429 58.0028 10.469C57.4256 10.6663 57.0017 11.6905 56.9458 12.6849C56.9367 12.8471 56.9418 13.0219 56.8996 13.0566C56.8204 13.1216 56.7078 13.0052 56.7265 12.8983C56.8214 12.3537 56.4181 11.8299 55.9048 11.7356C55.8148 11.7169 55.6497 11.6055 55.4745 11.4459C55.1635 11.1625 55.1721 11.14 54.7228 11.1454C54.4109 11.1491 54.3414 11.0947 54.1323 10.9512C53.8342 10.766 53.4455 10.68 53.0431 10.7732C52.9156 10.8026 52.7351 10.9231 52.4173 10.8204C51.9005 10.6534 51.4274 11.0203 51.1581 11.5014C51.3582 11.782 51.1991 12.2045 51.0461 12.5282C50.9921 12.6379 48.188 12.1562 48.4385 11.1588C48.5393 10.993 49.0266 10.9231 49.0352 10.9356C49.0352 10.8897 48.7484 10.8651 48.5577 10.9298C48.3579 10.9974 48.1675 11.1519 48.2238 11.4494C48.2675 11.6801 48.5743 11.9466 48.7283 12.0671C49.3234 12.5329 49.7037 12.538 50.3369 12.6936C50.6362 12.7684 50.6186 12.7767 50.2949 13.1899C50.0626 13.4864 49.9884 13.6305 49.8522 13.5273C49.791 13.4809 49.5976 13.2885 49.5976 13.2885L46.1149 9.51167L81.1074 9.51167L81.1074 30.0944L76.5085 29.9516C73.3572 29.5685 66.7396 30.2421 66.1172 30.752C65.6742 30.3587 64.6059 29.1384 64.5578 29.2057L64.4619 29.3676L65.057 30.0128L64.5733 31.6064C64.1027 32.2862 63.6672 32.9798 63.482 33.6994C63.1797 34.8744 64.1434 37.1373 64.1534 37.1393C64.4218 40.7547 65.893 43.6503 65.8818 43.6097C65.7369 43.7672 65.2746 43.9754 65.2773 43.9809C62.6774 45.8445 61.2207 47.6767 59.4435 50.1798L57.6881 47.0092L49.819 54.5225L43.4295 54.5883L32.9988 43.7053C32.8187 43.6411 35.4118 40.2329 37.522 38.9639C36.4905 38.7206 35.5539 38.2675 34.5411 37.8899C34.4484 37.8504 35.3286 35.7242 35.3659 35.0936C35.3715 34.9993 35.2721 34.9234 35.2721 34.9234L34.3576 37.7291L32.71 37.1554C32.71 37.1554 32.2627 36.9558 32.1885 37.1815C31.7738 38.4604 31.0424 39.6604 30.4196 40.8836C30.4196 40.8836 29.7832 40.3124 29.755 40.3038C29.7285 40.2955 29.3865 40.0643 29.2687 40.1195C29.8739 40.7417 34.595 45.8196 34.595 45.8196C33.7848 45.964 33.5013 46.1907 33.0014 46.6844C32.9884 46.4154 32.7218 45.9944 32.5441 45.751C32.0007 45.0069 31.0313 44.6019 30.4647 44.6994C30.6925 45.4137 30.9593 46.059 31.1221 46.9538C31.2136 47.4565 31.4414 47.9332 31.6856 48.2224L30.7815 48.267C30.7918 48.2641 30.993 47.0631 30.1843 46.5063C29.4874 46.0265 28.6894 46.2233 28.2827 46.3335C28.1924 46.321 28.2026 46.3478 28.0115 46.1409C27.8705 45.9881 27.6881 45.75 27.6881 45.75C27.6368 45.7399 27.4024 46.3706 27.1883 46.4772C25.5128 46.3093 24.8662 47.6449 25.1639 48.7752C25.2277 48.9865 25.2676 49.0872 24.9871 49.3384C24.9453 49.3759 24.6257 49.6774 24.6257 49.6774C24.6257 49.6774 24.9337 49.8101 25.0685 49.8783C25.5066 50.1 25.3747 50.1609 25.3982 50.6387C25.4577 51.8493 26.4375 52.3898 27.6404 52.1119C27.9227 52.0467 27.879 52.076 28.236 52.2609C28.4184 52.3553 28.6513 52.5095 28.6513 52.5095C28.6513 52.5095 28.7745 52.2875 28.8416 52.1379C28.9409 51.9163 29.0571 51.9044 29.2786 51.9053C29.7667 51.8744 30.0937 51.7679 30.5129 51.488C30.5348 52.4363 30.4458 53.1635 30.1599 54.0221C31.4836 53.8907 31.9764 52.9173 32.1703 51.7252C32.1703 51.7252 32.2877 51.8505 32.3399 51.9821C32.4209 52.261 32.6663 52.4353 32.8863 52.4327C33.0964 52.4728 33.3075 52.6089 33.4197 52.7338C33.5808 52.9194 33.8077 53.0716 34.2466 52.9985C34.5647 53.0171 34.6566 53.0937 34.778 53.1869C35.0219 53.374 35.2641 53.4376 35.5847 53.3909C35.7338 53.3691 36.0535 53.3228 36.3836 53.3535C36.9337 53.4049 37.1399 53.2086 37.5272 52.959C37.7781 52.7974 37.7848 52.8314 37.9668 52.8687C38.404 52.9585 38.6287 53.0521 38.9612 53.149C39.7052 53.3659 40.2691 53.3742 40.4143 53.1968C40.6331 52.9295 40.5673 52.627 40.5237 52.4862C40.1973 51.4315 39.1592 51.6141 38.4625 51.5586C38.2833 51.5284 38.1974 51.4673 38.2058 51.408C38.5557 51.1098 38.7578 50.7945 38.9783 50.3885C40.4104 51.7922 41.287 52.691 42.8493 54.4654L7.93148 54.4642ZM7.93148 33.881V33.0344C8.26504 33.213 9.30656 33.8799 9.02742 33.9402L7.93148 33.881ZM7.93148 32.7048V32.2111C9.0775 32.6929 9.77045 33.3674 10.4645 34.0066L9.72729 33.9848C9.77349 33.9651 8.69661 33.0275 7.93148 32.7048ZM7.93148 31.855V31.3676C7.93148 31.3676 8.16146 31.3535 8.32237 31.4117C9.51733 31.781 11.7858 34.0731 11.4459 34.0071L10.8606 34.0305C10.8857 34.0406 9.17317 32.3087 7.93148 31.855V31.855ZM7.93148 31.0193V30.4867C10.9665 28.7445 12.0287 25.6263 12.2333 24.8417L12.9011 24.3854C12.1788 28.062 9.81302 30.0309 8.34984 30.9554C8.23602 31.0274 7.93148 31.0193 7.93148 31.0193V31.0193ZM7.93148 30.1156V29.5529C9.87272 28.3869 10.9411 26.2952 11.167 25.571C11.3804 25.3778 11.7706 25.1692 11.857 25.0882C11.3268 27.0408 9.63795 29.2283 7.93148 30.1156ZM7.93148 29.2606V28.7467C8.82975 28.1258 9.48562 27.1526 9.91548 26.6045C10.1471 26.3097 10.62 25.9208 10.7139 25.9572C10.3271 27.1778 8.93651 28.6055 7.93148 29.2606V29.2606ZM7.93148 28.4747V27.7979C8.35059 27.509 8.69107 27.2466 9.1197 26.9429C9.20141 26.8863 9.29809 26.8519 9.33485 26.8661C9.45389 26.9122 9.36558 27.0494 9.02846 27.4288C8.47547 28.0511 7.93148 28.4747 7.93148 28.4747ZM7.93148 27.5835L7.93148 12.8363C12.0439 13.2111 15.2241 13.2767 19.4892 11.1482C19.8934 11.5327 20.008 14.4291 20.4866 15.3419C20.6015 15.3587 20.8003 15.1073 20.8003 15.1073C20.3561 14.1524 19.9506 10.4288 19.9506 10.4288C17.2258 11.9881 11.9509 13.2716 7.93148 12.3058V9.51105H27.7772C27.7772 9.51105 31.5496 9.47806 33.7033 9.39841C31.8495 10.8294 29.3105 12.6727 27.3884 13.9118C25.2683 15.4152 22.781 17.0887 20.4478 18.8073C19.7126 19.314 18.759 20.0362 17.9002 20.6257C16.5739 21.5512 15.5445 22.3168 14.1168 23.2766C12.6385 24.3016 11.2972 25.2844 9.58058 26.5027C8.1196 27.5355 7.93148 27.5835 7.93148 27.5835V27.5835ZM8.51315 31.1397L9.0549 30.8008C10.4137 31.6228 11.6376 32.6536 12.6025 34.0284L11.8927 34.0356C10.7665 32.4754 9.63452 31.8012 8.51315 31.1396V31.1397ZM9.29804 30.591C10.6215 29.611 12.6695 27.4991 13.2816 24.1118C13.2816 24.1118 13.4559 23.9195 13.8389 23.639C14.3247 23.283 14.3439 23.2774 15.1401 23.2304C16.5973 23.1989 18.5752 22.7267 19.8194 22.2576C20.1288 22.3157 20.2862 22.3698 21.074 22.9517C24.3568 25.3761 27.4618 30.5411 23.2239 33.0858C21.8662 33.9344 19.2631 34.0171 17.64 34.0709C17.64 34.0709 17.5257 34.0547 17.4948 34.0486C17.2002 33.9874 17.2468 33.9033 17.373 33.4439C17.5734 32.9782 17.4115 32.4932 17.2771 32.0003C17.0499 31.4392 17.2249 31.3927 17.7312 31.9339C17.9063 32.121 18.1739 32.3499 18.161 32.3258C18.1481 32.3019 18.0194 31.9869 17.9132 31.8477C17.5832 31.4153 17.7097 31.3132 18.0729 31.4735C19.6135 32.1533 19.6746 32.274 20.1025 31.3178C20.1917 31.1184 20.2913 30.9826 20.3892 30.8708C21.006 30.217 20.6739 30.4518 20.3908 30.6346C19.9475 30.9159 19.7135 30.6617 19.988 30.1867C20.1714 29.8694 20.3189 29.4526 20.2487 29.2259C20.1051 28.7858 19.6222 28.6515 19.0906 28.782C18.7965 28.8865 18.2768 29.4875 18.8205 29.3488C18.8042 28.9876 19.3183 28.6756 19.666 28.9897C19.9863 29.2266 19.813 29.6492 19.3835 30.2972C19.1136 30.6553 19.2517 31.0901 19.5836 31.0732C19.8064 31.0618 19.755 31.3769 19.4711 31.5814C19.3134 31.695 18.8596 31.6178 18.4296 31.4044C15.7217 30.0608 13.0961 31.1934 13.8363 33.5202C13.9178 33.7761 13.9836 34.0071 13.9836 34.0071L12.9478 34.0196C12.0145 32.6836 10.5263 31.2668 9.29807 30.5916L9.29804 30.591ZM13.5014 27.4117C13.4787 28.1084 13.6586 28.763 14.1593 29.231C14.5838 29.5819 14.9618 29.4578 14.5813 28.6876C14.2714 28.0603 14.2349 27.9733 14.2101 27.2897C14.1749 26.3194 14.4842 25.4485 15.1469 24.3709C15.5861 23.6567 15.6196 23.5526 15.3444 23.7464C14.5835 24.143 13.5515 25.8789 13.5014 27.4117V27.4117ZM14.2371 33.0764C14.2368 32.891 14.2465 32.689 14.2863 32.5262C14.4563 31.8528 14.902 31.2062 15.0867 31.3188C15.1532 31.3593 15.1658 31.3986 15.121 31.4844C14.877 31.977 14.4783 32.762 14.9649 33.8971C15.0186 34.0222 14.9352 34.0918 14.784 34.0912C14.4904 34.0912 14.256 33.5972 14.2371 33.0764V33.0764ZM14.6274 26.9746C14.6217 27.4789 14.7919 28.0132 15.1448 28.6144C15.3539 29.0158 15.4653 29.1534 15.3719 29.324C15.1487 29.7313 15.3237 29.6455 15.7731 29.3925C16.0903 29.2139 16.1553 29.2154 16.3496 29.2419C16.5608 29.2707 16.5692 29.2667 16.795 29.0618C17.2996 28.6787 17.7865 28.2977 18.1693 27.7241C18.2887 27.5453 18.4243 27.3062 18.4249 27.2881C18.4267 27.231 18.3807 27.2529 18.2808 27.3551C17.5725 28.0896 16.938 28.6688 17.2076 27.9209C17.4923 27.0499 17.1374 26.2216 16.9059 25.5424C16.8203 25.2656 16.7482 24.9746 16.7483 24.9024C16.7488 24.2751 16.4869 24.127 16.0878 24.5281C15.1344 25.3763 14.6369 26.134 14.6274 26.9746V26.9746ZM14.8078 26.9674C14.8151 26.437 15.0109 25.8725 15.4305 25.3946C15.6902 25.114 15.8315 24.9663 15.8991 24.9943C15.9717 25.0244 15.8489 25.2403 15.6555 25.6022C15.2663 26.3304 15.1744 27.1557 15.473 28.1872C15.7048 28.988 15.3369 28.7515 14.9908 27.8592C14.867 27.5912 14.8035 27.2857 14.8078 26.9674ZM14.9053 32.872C14.8955 32.2603 15.0965 31.6234 15.4647 31.1974C15.7216 30.9002 15.7816 31.1172 15.5813 31.6002C15.2784 32.3308 15.23 32.9468 15.5113 33.5463C15.5996 33.7344 15.7047 33.9515 15.699 34.0108C15.631 34.1111 15.4335 34.1537 15.2936 34.0669C15.0565 33.8259 14.9129 33.3478 14.9053 32.872ZM15.1158 22.7903C15.1176 22.7455 15.1889 22.6776 15.3304 22.577C15.5879 22.394 15.7152 22.3874 16.1661 22.5391C16.7166 22.7243 16.6272 22.7983 15.8592 22.8448C15.3609 22.875 15.1121 22.876 15.1158 22.7903V22.7903ZM15.9458 22.1835C15.9358 22.1137 16.0589 22.0325 16.3139 21.9022C16.4918 21.8113 16.5451 21.8326 17.3782 22.1165C17.7268 22.2354 18.0046 22.3471 18.007 22.3501C18.076 22.4375 18.0699 22.4265 18.022 22.4638C17.7627 22.6663 17.2569 22.6516 16.6508 22.4774C16.1915 22.3453 15.9585 22.2734 15.9458 22.1836L15.9458 22.1835ZM16.0085 27.6957C16.0066 27.6736 16.0365 27.5379 16.0365 27.5379C17.2704 27.552 17.0218 26.5997 16.1454 26.4737C16.1454 26.4737 16.1212 26.2392 16.1796 26.2033C16.3631 26.0905 16.8913 26.3524 17.064 26.7442C17.192 27.0301 17.1606 27.4189 16.9463 27.651C16.8256 27.716 16.3671 27.9125 16.177 27.8758C16.066 27.8301 16.0142 27.7618 16.0085 27.6957V27.6957ZM16.148 32.0415C16.1529 31.9657 16.187 31.9341 16.2879 31.9216C16.6953 31.8729 17.1379 32.2796 17.162 32.8066C17.2192 33.3166 16.8229 33.5921 16.4362 33.5764C16.1422 33.5764 16.1053 33.3225 16.3377 33.2945C17.0087 33.2136 17.0473 32.6416 16.6768 32.3804C16.5315 32.2816 16.1739 32.3041 16.1516 32.1328C16.1481 32.0968 16.1463 32.0667 16.148 32.0415V32.0415ZM16.1526 28.2625C16.1521 28.2527 16.1521 28.2437 16.1526 28.234C16.1574 28.1406 16.1828 28.0725 16.2962 28.0357L16.923 27.8317C17.1028 27.9817 16.7387 28.5522 16.4652 28.5511C16.2764 28.5511 16.1599 28.4084 16.1526 28.2625ZM16.2879 25.8701C16.2863 25.8295 16.3015 25.7751 16.3289 25.6951C16.4972 25.169 16.5791 25.1548 16.7416 25.6048C16.9353 26.1414 16.9603 26.1762 16.585 26.0502C16.3756 25.9799 16.2916 25.9594 16.2879 25.8701V25.8701ZM16.347 31.4466C16.3712 31.0566 16.7021 31.0236 16.8126 31.3666C17.0385 31.8774 17.0236 32.0499 16.6902 31.852C16.4541 31.7447 16.3515 31.6486 16.347 31.4466ZM16.4663 33.8863C16.466 33.8398 16.4838 33.7865 16.5264 33.7295C16.7038 33.6709 16.8402 33.5717 17.0236 33.4933C17.1032 33.5734 17.1022 33.7646 17.0054 33.8863C16.8114 34.1303 16.4688 34.0887 16.4663 33.8863V33.8863ZM16.8483 21.625C16.8494 21.4735 17.0896 21.3192 17.2688 21.2689C17.9502 21.7981 19.2227 21.7148 19.6069 21.8378C19.9195 21.9445 19.6497 21.9789 18.8401 22.2733C18.5133 22.3921 16.8886 21.7936 16.8525 21.6551C16.8498 21.6453 16.8483 21.6349 16.8484 21.625H16.8483ZM17.5467 21.0836C17.6141 20.9658 17.7692 20.8061 18.0127 20.7778C18.1541 20.7614 18.3417 20.831 18.5275 20.8759C18.9693 20.9828 19.8041 21.1276 20.5753 21.1796C20.9035 21.2017 21.1989 21.2003 21.2275 21.2149C21.5402 21.3742 20.6988 21.7098 20.0289 21.681C19.494 21.5767 17.6201 21.5183 17.5467 21.0836V21.0836ZM18.3046 20.5957C18.2879 20.5374 18.3427 20.456 18.5083 20.3361C18.6125 20.2614 18.6923 20.2143 18.7821 20.1913C18.9381 20.1512 19.1244 20.1849 19.5219 20.2764C20.5753 20.5192 21.7109 20.4836 22.8766 20.3252C23.1218 20.2919 22.9988 20.4617 22.5764 20.7187C22.3422 20.8612 22.0212 20.9527 21.6422 20.9964C20.8136 21.0859 19.6905 20.9132 18.8044 20.7664C18.5593 20.7258 18.3325 20.6927 18.3046 20.5957V20.5957ZM19.1496 19.9333L19.6629 19.5082C19.6629 19.5082 20.8438 19.6899 21.4737 19.6888C21.7097 19.7184 24.2757 19.4776 24.4832 19.3991C24.1899 19.6603 24.0175 19.7825 23.649 20.0688C23.6544 20.1013 21.1212 20.3489 20.1523 20.1778C19.5662 20.0743 19.1496 19.9333 19.1496 19.9333V19.9333ZM20.1699 19.2663C20.1672 19.1949 20.248 19.1046 20.4084 18.9907C20.553 18.8878 20.6719 18.8374 20.8521 18.8318C20.9835 18.8278 21.0849 18.8926 21.3192 18.8946C22.7149 18.9069 24.0318 18.7187 25.3018 18.4819C25.7561 18.3984 25.5711 18.5609 25.2836 18.8297C25.0204 19.0761 24.92 19.0807 24.5459 19.2123C24.4712 19.2386 21.8974 19.5005 21.7029 19.4983C20.9031 19.489 20.4577 19.4662 20.2658 19.3743C20.2031 19.3442 20.1714 19.309 20.1699 19.2663V19.2663ZM20.2782 22.102C21.1839 21.6855 22.1106 21.3107 22.9746 20.8111C22.9746 20.8111 23.2295 21.3054 23.1399 21.435C22.5688 21.6439 21.0399 22.3979 20.7692 22.4109C20.6802 22.3976 20.2782 22.102 20.2782 22.102ZM21.0299 29.9459C21.0383 30.0094 21.0706 30.0687 21.1383 30.1214C21.3139 30.2706 21.2407 30.4483 21.0823 30.8081C21.0256 30.9925 21.1014 30.9638 21.2601 31.2685C21.3832 31.5049 21.3864 31.588 21.3851 31.7445C21.3832 31.951 21.3105 32.0253 21.4561 32.0259C21.5366 32.0259 21.901 32.0384 22.0891 32.0871C22.3451 32.1535 22.4578 32.2113 22.5023 32.1748C22.5987 32.0698 22.5399 31.9815 22.3255 31.7601C21.9698 31.3928 22.0719 31.1451 22.2042 30.736C22.3546 30.2706 22.4098 30.1742 22.2607 29.7486C22.0494 29.1457 22.0494 28.7829 22.2026 28.5428C22.4668 28.129 22.451 28.0038 21.7288 28.1743C21.496 28.2292 21.135 28.2334 21.0725 28.2672C21.0016 28.3056 21.2035 28.4104 21.2778 28.5205C21.4197 28.7309 21.4175 28.8401 21.2617 29.3147C21.1924 29.5255 21.0049 29.7553 21.0299 29.9459V29.9459ZM21.1544 22.6154C21.1457 22.571 21.1669 22.5265 21.2327 22.4893C21.6664 22.3057 23.1159 21.5747 23.2778 21.5969C23.406 21.7393 23.4992 21.9299 23.3846 22.0429C22.7162 22.4083 22.3556 22.5178 21.6054 22.8147C21.4709 22.8812 21.1803 22.7486 21.1544 22.6154V22.6154ZM21.1793 18.5639C21.172 18.5122 21.2798 18.404 21.3876 18.3236C21.7233 18.0733 21.7647 18.0585 22.1243 18.0506C23.4285 18.0219 24.9636 17.8581 26.1473 17.4915C26.3803 17.4194 26.6635 17.2825 26.702 17.2974C26.8816 17.4203 26.4007 17.9907 25.6693 18.1627C24.7405 18.4 23.7713 18.5389 23.1404 18.6143C22.0309 18.7098 21.2371 18.7089 21.1793 18.5639V18.5639ZM21.7661 23.066C21.7616 23.022 21.7967 22.9816 21.8983 22.9487C22.3053 22.7381 23.0078 22.4732 23.4292 22.2946C23.6122 22.2132 23.7563 22.6292 23.6941 22.7249C23.5696 22.8913 23.2193 22.9703 23.0093 23.0795C22.2477 23.427 22.232 23.489 21.9947 23.2965C21.8916 23.2223 21.7736 23.1393 21.7661 23.066V23.066ZM22.3654 17.7391C22.3654 17.7085 22.3956 17.6688 22.4603 17.6187C22.7205 17.3991 22.9191 17.25 23.1119 17.1925C23.2519 17.1509 23.357 17.184 23.6106 17.1692C24.275 17.1299 25.1816 16.9558 27.0374 16.4627C27.2184 16.4146 27.4328 16.3497 27.491 16.3578C27.8318 16.4055 27.2793 16.9036 26.7088 17.0487C26.0611 17.217 25.2344 17.524 24.4697 17.6145C23.2557 17.8008 22.3653 17.9042 22.3654 17.7391V17.7391ZM22.4271 23.6572C22.4498 23.5377 22.6637 23.474 22.8564 23.3878C23.8261 22.9732 23.8242 22.9404 23.901 23.2014C23.9821 23.4774 23.9558 23.4941 23.2954 23.8181C22.8136 24.0546 22.7527 24.1016 22.579 23.9027C22.4893 23.8268 22.4435 23.7644 22.4297 23.7122C22.4245 23.6925 22.4239 23.6743 22.427 23.6572H22.4271ZM22.6251 29.1616C22.6262 29.2088 22.7315 29.3474 22.7869 29.487C22.9228 29.8295 22.932 30.4379 22.8201 30.8086C22.5557 31.4656 22.8989 31.2807 23.1078 30.6996C23.2598 30.2487 23.1422 29.3555 22.8605 29.2171C22.7703 29.1319 22.6239 29.1009 22.6251 29.1616ZM23.1016 24.2713C23.0945 24.2317 23.1032 24.1954 23.1347 24.167C23.7081 23.7969 23.9372 23.6855 23.9818 23.7481C24.0411 23.8072 24.152 24.1005 24.0928 24.2209C24.0185 24.3722 23.6643 24.5038 23.3867 24.5703C23.285 24.5355 23.1228 24.3899 23.1016 24.2713ZM23.3763 33.4368C23.3768 33.2713 23.9566 32.8413 24.0612 32.9286C24.1149 32.9528 24.0638 33.1139 23.959 33.4907C23.9126 33.6166 23.8754 33.901 23.6926 33.811C23.6095 33.7662 23.3761 33.5026 23.3763 33.4368V33.4368ZM23.5661 24.8708C23.5639 24.8565 23.5653 24.8432 23.5707 24.8314C23.6213 24.7749 24.0663 24.5928 24.1711 24.564C24.2702 24.601 24.293 24.8801 24.2856 24.9985C24.0731 25.1005 23.9717 25.1269 23.831 25.1553C23.7571 25.1216 23.5803 24.9711 23.5661 24.8708V24.8708ZM23.6122 16.865V16.8623C23.6143 16.8033 23.7177 16.701 23.9352 16.5493C24.3462 16.2625 24.3164 16.3014 25.2981 16.0956C26.4115 15.862 27.2045 15.5826 28.3418 15.3004C28.5305 15.2964 28.4803 15.3731 28.3527 15.5823C28.1441 15.9239 27.9126 16.0358 27.3091 16.1434C26.3122 16.327 25.3897 16.7151 24.212 16.8639C23.8242 16.9421 23.6111 16.9487 23.6122 16.8639V16.865ZM24.0098 25.4714C24.003 25.2697 24.3145 25.2968 24.3649 25.3546C24.4937 25.502 24.4552 25.9083 24.4624 25.978C24.2171 26.134 24.0181 25.6029 24.0098 25.4714V25.4714ZM25.0695 15.8398C25.0777 15.7805 25.3029 15.6213 25.7227 15.3233C26.126 15.0371 26.06 15.0996 26.7238 14.9283C27.6411 14.6859 28.3027 14.285 29.1469 14.05C29.2434 14.05 29.231 14.1665 29.1853 14.2779C29.0941 14.4948 28.9405 14.6885 28.7897 14.8722C28.6536 14.9979 28.4807 14.9973 27.2007 15.3685C26.7389 15.5025 26.6187 15.537 25.9171 15.7043C25.3304 15.8442 25.0602 15.9071 25.0695 15.8398V15.8398ZM27.8099 46.8779C29.6056 45.9046 30.4016 46.2651 30.6503 48.3588C30.629 48.51 31.5703 48.3671 31.991 48.3713C31.3894 47.3222 31.2489 46.0538 30.8712 44.8846C31.893 45.2029 33.0511 45.7618 32.8728 47.4541C31.5026 49.2631 32.3259 51.305 31.7696 52.7176C31.4827 53.4859 30.627 53.7793 30.4803 53.7885C30.5728 52.8671 30.7706 51.8269 30.7058 50.934C29.9526 51.9093 28.9107 51.6243 28.4341 51.4869C27.0377 52.6479 25.3712 51.676 25.7461 50.0173C25.785 49.846 25.9519 49.5081 25.9519 49.5081C24.301 47.6151 26.1868 46.0578 27.8099 46.8779V46.8779ZM26.9363 14.5265C26.93 14.4603 27.1033 14.3141 27.5144 14.0209C28.7338 13.1515 29.868 12.3988 29.9318 12.4102C30.1418 12.4478 29.7738 13.3537 29.473 13.5823C29.1303 13.8428 27.366 14.5753 27.0856 14.5743C26.9921 14.5743 26.9396 14.561 26.9363 14.5265V14.5265ZM32.1589 49.9368C32.2255 49.4846 32.2642 49.358 32.4415 49.3628C32.5919 49.3241 32.6117 50.4603 32.5 50.6143C32.4109 50.7373 32.2156 50.579 32.1688 50.4575C32.1192 50.2794 32.1422 50.1109 32.1589 49.9368V49.9368ZM32.3772 18.7264C35.4239 24.9921 43.3574 27.541 49.4473 24.3559L49.7667 24.7966C43.2894 27.9381 36.3481 25.6012 32.8427 20.497C32.6955 20.2903 32.5817 19.8334 32.4404 19.6208C32.4404 19.6208 32.9168 21.7029 33.1932 22.4078C33.1883 22.5507 33.3367 22.9708 33.8272 23.422C34.1936 23.8165 35.8986 25.0499 35.9579 25.0105L36.0901 28.2879L36.2114 28.2848L36.1368 25.068C41.604 28.3803 46.8062 27.5669 50.4468 25.5217L50.5158 25.4474C49.9062 24.3437 48.7639 23.2122 47.7541 22.4435C41.7328 24.3027 37.0036 22.3061 34.3052 17.0949C34.2233 17.0898 34.0645 17.1063 33.9268 17.1234L33.5747 17.4878C36.146 23.2761 42.5026 25.5931 48.2845 23.2356L48.7096 23.6249C42.7462 26.5753 35.3025 23.4404 33.133 17.9441L32.9132 18.1714C35.7176 24.1337 42.8207 26.7262 48.8781 23.7973L49.2057 24.1669C42.5748 27.4983 35.1472 24.0065 32.5819 18.514L32.3772 18.7264ZM32.3829 50.9242C32.3829 50.9242 32.7369 50.9659 32.8578 50.8411C33.1104 50.7838 33.0827 50.8754 33.0314 51.0897C32.9053 51.6175 33.2064 51.2058 33.4493 50.7741C33.6886 50.3489 33.6806 50.4061 33.9164 50.7773C34.0749 51.0267 34.1346 51.0008 34.2549 50.9673C34.4335 50.9176 34.3144 50.8833 34.2191 50.7799C34.0191 50.5628 33.969 50.3894 33.9698 50.1964C33.9708 49.9067 34.2037 49.8773 34.385 49.9286C34.7657 50.0438 34.7451 50.435 34.6505 50.7555C34.4957 51.2799 33.5842 52.136 33.0475 52.1228C32.5667 52.1592 32.3609 51.5032 32.3829 50.9242V50.9242ZM32.3974 48.88C32.3953 48.7763 32.4727 48.6441 32.5001 48.5675C32.5749 48.3643 32.6754 48.1086 32.7935 47.8273C32.9173 47.4387 33.1188 47.0447 33.2886 46.7907C33.8054 46.0173 34.8391 46.0648 34.9418 46.1206L38.7382 50.1165C38.7382 50.1165 38.6277 50.342 38.5189 50.5546C38.1753 51.2264 37.9938 51.3879 37.8035 51.015C37.7112 50.8342 37.5129 50.7756 37.3188 50.7498C37.0587 50.7151 37.1029 50.7288 36.9844 50.5738C36.7782 50.3038 36.6932 50.2907 36.3504 50.2893C36.1235 50.2893 36.019 50.2651 35.8765 50.1829C35.4866 49.9819 35.1882 50.0683 34.7961 49.9078C34.5769 49.6869 33.9847 49.5827 34.1507 49.3877C34.3523 49.1952 34.6275 49.2688 34.7713 49.2579C34.7357 49.2222 34.6596 49.0617 34.652 49.0285C34.6329 48.9448 34.6616 48.861 34.793 48.8395C35.1647 48.8686 35.5592 48.8462 35.9123 48.7798C36.9388 48.4831 36.7945 48.5255 35.9424 48.6428C35.4835 48.7059 35.1034 48.7121 34.6738 48.5265C34.3674 48.3511 34.3072 48.3419 34.1564 48.7222C34.1004 48.8636 34.0018 49.1043 33.9039 49.1541C33.7842 49.215 33.6216 49.3961 33.5659 49.6322C33.4306 50.2062 32.8745 50.5404 32.7919 50.4575C32.7378 50.4032 32.8085 50.1719 32.8137 50.0256C32.8324 49.5016 32.8057 49.3905 32.6058 49.1582C32.4994 49.0346 32.4043 48.9789 32.3974 48.8805V48.88ZM33.1154 21.3675C37.4692 26.7357 44.5119 27.6765 49.9465 24.9985L50.3115 25.462C43.9367 28.8276 37.0597 26.5669 33.2989 22.4321L33.1154 21.3675ZM33.6344 52.3594C33.6255 52.2647 33.7645 52.1611 34.1683 51.7843C34.4403 51.5304 34.6769 51.2661 34.7562 51.1271C34.9076 50.8118 34.8442 50.8802 35.0942 51.1433C35.4031 51.4119 35.6575 51.2635 35.5028 51.5846C35.1097 52.4198 33.9516 53.0066 33.6727 52.4634C33.6517 52.4224 33.6373 52.3911 33.6344 52.3596V52.3594ZM34.8521 52.7747C34.8505 52.7545 34.8535 52.7322 34.8589 52.7103C34.8841 52.6073 35.0781 52.4827 35.2135 52.3485C35.5882 51.9773 35.7548 51.8048 35.8864 51.5081C36.0157 51.2165 36.047 51.2084 36.2752 51.4137C36.3582 51.4883 36.4581 51.5332 36.5137 51.5507C36.5692 51.5682 36.6395 51.5725 36.6516 51.6353C36.7142 51.9605 36.0572 53.0411 35.6039 53.0836C35.1799 53.0486 34.865 52.9418 34.8521 52.7747V52.7747ZM34.9781 50.4845C34.9733 50.297 35.1405 50.187 35.412 50.1881C35.6001 50.1881 35.6767 50.2946 35.7573 50.5094C35.9296 50.9684 35.6003 51.2513 35.2368 50.9304C35.084 50.7955 34.9814 50.6128 34.9781 50.4845V50.4845ZM36.0834 50.7648C36.0847 50.4186 36.3773 50.3184 36.6298 50.5722C36.867 50.8107 36.8683 51.2916 36.608 51.2906C36.4039 51.2906 36.0825 50.9852 36.0834 50.7648H36.0834ZM36.4333 52.9117C36.5027 52.6774 36.9147 52.1072 36.9632 51.8564C37.102 51.8431 37.1401 52.0101 37.4012 51.7734C37.5198 51.6659 37.6007 51.6566 37.6506 51.75C37.8034 52.036 37.3204 53.027 36.8232 53.0934C36.5804 53.1256 36.442 53.045 36.4333 52.9117V52.9117ZM37.0285 51.6187C37.0427 51.2778 37.0529 50.8924 37.2161 50.933C37.3345 50.9624 37.6474 51.0842 37.5889 51.2403C37.5605 51.3161 37.4846 51.39 37.4339 51.4427C37.259 51.6246 37.0262 51.6727 37.0285 51.6187ZM37.8414 52.6781C37.7383 52.4693 37.9471 51.8046 38.1109 51.7396C38.7936 51.469 40.2774 51.8251 40.4252 52.4456C40.4819 52.6836 40.5686 52.9604 40.1432 53.1432C40.1405 53.1687 37.8832 52.7656 37.8414 52.6781ZM38.2364 38.5061C38.3429 38.6525 38.358 38.6712 38.4433 38.7278C39.3445 37.7348 48.7584 34.1273 55.617 41.645L56.0966 43.2407C50.4151 36.0228 42.349 37.2234 38.8694 39.171C38.9116 39.3771 39.0981 39.4576 39.1421 39.4898C42.5353 37.29 52.115 36.4678 56.7462 45.1223C56.7494 45.1194 56.7858 45.0833 56.7866 45.0829C56.8039 45.0741 56.85 45.0271 56.8836 44.989C56.759 44.9738 55.812 41.0845 55.7881 41.359C52.5757 37.7338 44.9141 34.577 38.2364 38.5061V38.5061ZM39.4049 39.8106C39.594 39.9901 39.5667 40.0072 39.6802 40.0691C45.8276 36.9455 53.3874 39.8456 56.2438 45.6103C56.3506 45.5062 56.3787 45.4791 56.4631 45.3975C52.8751 38.7858 45.2676 36.9205 39.4049 39.8106ZM39.9285 40.3214C40.0189 40.4584 40.0185 40.4769 40.1639 40.5518C45.4136 37.9572 52.6979 39.9912 55.687 46.1512C55.7397 46.0996 55.8244 46.0181 55.9271 45.9176C52.058 38.7373 44.7013 38.072 39.9285 40.3214V40.3214ZM40.5553 40.9172C40.8802 41.1611 41.3355 41.6517 41.3355 41.6517C41.9255 40.8765 50.6053 39.0354 54.4485 46.8353C54.7271 46.839 54.9715 47.0699 55.3065 46.554C52.7412 40.9052 45.9225 38.4474 40.5553 40.9172H40.5553ZM51.2851 12.5794C51.2997 12.3715 51.363 12.1848 51.3883 11.9918C51.4794 11.2902 51.9924 10.8348 52.3043 11.1483C52.4068 11.2514 52.3479 11.3953 52.1244 11.8511C52.0217 12.0606 51.9252 12.0944 51.6936 12.1377C51.4159 12.1896 51.388 12.2448 51.6034 12.3152C51.8211 12.3863 51.9561 12.4629 51.901 12.7024C51.7442 13.3752 51.2799 13.1212 51.2851 12.5794ZM52.1726 13.0508C52.1907 12.6973 52.4337 12.7251 52.6574 12.9718C52.8334 13.2038 52.8673 13.3627 52.7352 13.4935C52.5036 13.7227 52.1547 13.4043 52.1726 13.0508ZM52.3282 12.1911C52.3282 11.9683 52.4301 11.6842 52.7113 11.3466C53.047 10.9436 53.8599 10.8515 54.0006 11.2215C54.0595 11.3765 54.0006 11.4009 53.687 11.7312C53.4747 11.954 53.2831 12.1956 53.1696 12.4336C52.9378 12.9193 52.8499 12.9813 52.6921 12.6532C52.6566 12.584 52.5732 12.4947 52.5075 12.4538C52.3722 12.3695 52.3289 12.3436 52.3282 12.1911V12.1911ZM53.111 13.3944C53.1357 13.053 53.5408 13.0083 53.6901 13.3118C53.7612 13.3995 53.6565 13.6831 53.7352 13.6986C53.8732 13.6776 53.8151 13.8166 53.7652 13.8434C53.7067 13.8904 53.6231 13.9012 53.5558 13.901C53.3318 13.8957 53.0819 13.6429 53.111 13.3944ZM53.4091 12.7663C53.4091 12.753 53.409 12.7367 53.4117 12.7159C53.4144 12.6515 53.4528 12.5653 53.5253 12.4304C53.9736 11.6116 54.6765 11.2112 55.0733 11.4883C55.3335 11.6701 55.2339 11.9662 54.8649 12.1917C54.657 12.3187 54.3912 12.6561 54.1966 13.0388C53.9738 13.4772 53.9418 13.4863 53.7897 13.1696C53.7272 13.0397 53.6391 12.9425 53.5268 12.8789C53.4291 12.8237 53.4117 12.8065 53.4102 12.7663H53.4091ZM54.3205 13.6C54.3284 13.446 54.383 13.2965 54.5356 13.2553C54.7353 13.2013 54.8533 13.5835 54.8586 13.8927C54.8615 14.0502 54.8921 14.2321 54.7814 14.2794C54.6775 14.3238 54.4861 14.1715 54.4392 14.1081C54.3511 13.9827 54.3433 13.8777 54.3267 13.7515C54.3209 13.7031 54.3179 13.6513 54.3206 13.6H54.3205ZM54.6953 12.8592C54.7291 12.7023 55.0015 12.5375 55.0851 12.4538C55.7034 11.8352 56.0382 11.906 56.29 12.308C56.4618 12.5822 56.5043 13.0222 56.362 13.1665C56.1578 13.3997 55.924 13.3936 55.8488 13.1359C55.7972 12.8955 55.7006 12.9855 55.6435 13.2101C55.4153 14.0123 54.9884 14.505 55.081 13.6332C55.1076 13.383 54.9127 13.1406 54.757 13.0098C54.6994 12.9625 54.684 12.9115 54.6953 12.8592V12.8592ZM55.3231 54.6382L81.1074 36.6218V51.1801C77.0064 50.6674 72.4551 51.6965 69.4854 53.0576C69.2335 51.5762 68.8406 50.1648 68.4506 48.7523L68.0779 49.0394C68.753 50.7247 69 52.2794 69.1676 53.7433C72.483 51.8002 77.0533 51.1066 81.1074 51.6893V54.4643L61.09 54.4643L55.3231 54.6382ZM56.1977 16.729C56.5826 15.4818 57.1871 14.2941 57.093 13.1385C57.0967 12.5021 57.1998 11.8512 57.5316 11.2345C57.7284 10.8182 58.4668 10.6017 58.4668 10.6017C58.8093 11.2547 58.1946 13.2875 58.1946 13.2875C59.0248 11.9975 60.557 12.4523 60.7453 12.7284C63.0015 10.9472 64.1563 13.7164 63.3452 14.595C64.6409 15.8958 63.5554 18.1274 61.4198 17.2678C61.4198 17.2678 58.2915 18.9017 58.5005 15.6799C58.5005 15.6799 57.2363 15.6243 57.1785 15.7152C57.0907 16.7959 58.0215 18.0929 58.5959 19.1713C56.9135 19.4947 56.4559 17.8901 56.1977 16.729V16.729ZM59.1605 51.4116C59.1504 51.1567 59.6 50.521 59.9381 50.4435C60.0073 50.4278 60.4231 50.2626 60.8096 50.0775C60.8809 50.0738 62.0141 49.448 61.9154 49.723C61.1701 50.2702 59.9012 51.2477 59.2828 51.4936C59.2005 51.4936 59.1633 51.483 59.1605 51.4116ZM59.8754 50.0817C59.8825 49.9394 60.1924 49.5583 60.2937 49.4614C60.481 49.4272 60.9707 49.2377 61.2933 49.0882C62.134 48.6985 63.4521 48.0956 63.8273 48.2182C63.9512 48.2587 64.0112 48.2588 64.0035 48.2744C63.6785 48.5529 63.2111 48.8181 62.871 49.0782C62.8426 49.0928 62.8249 49.0729 62.5675 49.14C61.3449 49.4088 60.7028 49.8431 59.9884 50.1253C59.9045 50.1505 59.873 50.129 59.8754 50.0817V50.0817ZM60.4804 49.1141C60.5173 49.0616 61.0218 48.346 61.0942 48.2737C61.9983 48.02 64.8946 47.0063 65.4121 47.2688C65.3404 47.3602 64.8736 47.7467 64.6329 47.8003C63.2479 47.9172 62.2514 48.3557 61.2191 48.826C60.908 48.9583 60.597 49.0621 60.4804 49.1141V49.1141ZM61.4975 47.7686C61.6083 47.5421 61.862 47.3076 62.0885 47.1748C62.2423 47.0861 62.4232 47.0404 62.8039 46.9568C63.9857 46.6975 65.1838 46.2028 66.4448 46.4253C66.6334 46.564 66.2061 46.8659 65.7849 46.9091C64.3884 47.052 63.719 47.1749 62.0766 47.6648C61.758 47.7598 61.5085 47.8318 61.4975 47.7686V47.7686ZM62.581 46.6194C62.5837 46.571 62.6732 46.4718 62.8288 46.3064C63.1315 45.9847 63.2428 45.9392 63.7449 45.9373C64.4829 45.9269 65.3259 45.6815 66.071 45.6435C66.5009 45.6215 67.6132 45.5434 67.6792 45.6098C67.8086 45.7034 67.3373 46.1184 66.6149 46.0863C65.7465 46.0334 65.0928 46.0767 63.5904 46.446C62.896 46.6167 62.5992 46.7027 62.5821 46.6288V46.6194L62.581 46.6194ZM63.6262 45.6284C63.6405 45.5092 64.0579 45.217 64.4396 45.085C64.7934 44.9638 65.2428 45.0035 65.6242 44.9152C66.9311 44.717 68.2404 44.7292 68.6362 44.7819C68.8333 44.8082 68.7532 44.9348 68.5652 45.1084C68.2918 45.3607 68.2858 45.3257 67.5268 45.3227C66.8763 45.3198 65.2691 45.4641 64.9424 45.5304C64.3384 45.6529 63.7619 45.704 63.663 45.6752C63.6352 45.6672 63.6235 45.6507 63.6262 45.6284ZM63.7506 34.3389C63.7506 34.1657 63.7615 33.9923 63.7822 33.8188C63.9898 32.5184 64.8797 31.479 66.3448 30.8834C67.8345 30.3083 69.8672 30.1665 71.7359 30.0772C72.1829 30.0833 72.0702 30.2673 71.7924 30.7489C71.5347 31.2752 71.6091 31.387 71.7857 32.1551C71.8957 32.6344 71.5688 32.5912 71.0268 31.8026C70.8512 31.5342 70.6165 31.2219 70.5814 31.3246C70.5636 31.3766 70.6284 31.6166 70.7691 31.7902C71.3959 32.5638 71.5486 32.7738 70.9391 32.5507C70.7851 32.4943 70.3578 32.3151 70.1532 32.2402C69.3875 31.96 69.0599 32.2831 68.5751 33.2348C68.4538 33.473 68.2511 33.6292 68.6747 33.3916C69.0211 33.1972 69.3009 33.5994 68.8955 34.097C68.6138 34.4428 68.8016 35.1377 69.1532 35.362C69.4937 35.5793 70.1288 35.4628 70.3347 35.0345C70.4976 34.6571 70.38 34.5163 70.1262 34.8813C69.7999 35.3508 69.2496 35.2596 69.2517 34.7324C69.2517 34.6022 69.3978 34.3721 69.7146 33.7908C69.9403 33.3748 69.8447 33.0785 69.5078 33.0781C69.2823 33.0781 69.3007 32.9488 69.4362 32.6752C69.6188 32.3067 69.7843 32.3472 70.2948 32.5419C70.6512 32.6732 71.0565 32.7386 71.429 32.859C72.6831 33.1694 74.1031 33.2107 74.5458 32.8672C75.7232 31.9544 75.5986 30.9851 74.8206 30.155L76.1099 30.1903C76.791 31.0367 77.2552 32.0257 79.7798 33.5524C79.1093 34.0848 76.3688 36.3691 75.7496 40.0321L74.6189 40.8564C74.5488 40.8424 70.4141 41.4723 69.0065 41.8842C69.0065 41.8842 68.3163 41.4311 67.8079 41.0194C65.9035 39.4776 63.7413 36.9377 63.7507 34.3388L63.7506 34.3389ZM64.6693 38.3068C64.6772 38.1786 64.8243 38.1817 64.9559 38.5959C65.0007 38.7368 64.7193 38.7826 64.6656 38.7059C64.6497 38.5698 64.6624 38.4227 64.6693 38.3068H64.6693ZM64.7392 39.2328C64.7355 39.1682 64.7366 39.1188 64.7926 39.0761C65.0459 38.8788 65.1992 38.7988 65.338 38.9785C65.5373 39.2166 65.487 39.4334 65.1083 39.5655C64.8387 39.6505 64.7539 39.4501 64.7392 39.2328V39.2328ZM64.7448 44.7777C64.8754 44.5948 65.2269 44.3715 65.5473 44.1532C66.2812 44.0291 67.0431 44.0345 67.816 43.9809C68.6289 43.9245 69.3089 44.0003 69.5542 44.1189C69.8477 44.2401 69.6448 44.4857 69.2432 44.5467C69.1467 44.5613 68.1498 44.4809 67.6024 44.4808C66.6607 44.4808 65.4984 44.7212 64.7448 44.7777V44.7777ZM64.992 39.9556C65.1185 39.7741 65.5116 39.5964 65.7527 39.5215C65.8272 39.535 65.8901 39.6004 66.0057 39.7431C66.1357 39.8846 66.1274 39.9293 65.8776 40.0872C65.4897 40.3349 65.2344 40.4509 65.1005 40.4023C64.9549 40.2456 64.8935 40.0969 64.992 39.9556V39.9556ZM65.0114 31.3085C65.0415 30.9536 65.2043 30.6028 65.2861 30.2574L65.7967 30.7847C65.535 30.9415 65.2731 31.1197 65.0114 31.3085V31.3085ZM65.214 41.0855C65.2026 40.9813 65.2077 40.8224 65.2778 40.7548C65.5319 40.5601 66.1963 40.2207 66.4432 40.2388C66.5273 40.2885 66.602 40.3654 66.6491 40.447C66.6666 40.5117 66.5533 40.5704 66.1638 40.7901C65.4867 41.172 65.2954 41.2837 65.214 41.0855ZM65.4342 41.5251C65.6192 41.3115 66.6501 40.8173 66.9164 40.7885C66.9962 40.7944 67.0654 40.8176 67.1191 40.8648C67.4645 41.1853 67.4093 41.1042 66.4249 41.5812C65.6154 41.984 65.5352 42.0904 65.4441 41.8241C65.4016 41.7179 65.3634 41.6069 65.4343 41.5251H65.4342ZM65.6988 42.2907C65.6961 42.1509 65.9312 42.1117 66.465 41.8391C67.4743 41.3828 67.6143 41.2115 67.7222 41.3149C67.8831 41.4422 67.9965 41.5168 67.801 41.6378C67.3524 41.9129 66.7802 42.1856 66.2778 42.4418C65.9028 42.6469 65.8569 42.6655 65.7651 42.5337C65.7125 42.4581 65.6996 42.3454 65.6988 42.2907V42.2907ZM65.9471 33.6542C65.9444 33.8656 65.963 34.0586 65.9855 34.1458C66.0338 34.3172 66.2523 35.0068 66.2919 34.5844C66.2998 34.4991 66.2459 34.2827 66.2354 34.1308C66.2058 33.7039 66.2862 32.8163 66.2042 32.8481C66.0121 32.8987 65.9512 33.3019 65.9471 33.6542ZM66.4862 42.6671C67.7335 42.0015 68.1996 41.6574 68.3982 41.7727C68.518 41.8675 68.6688 42.0141 68.633 42.1008C68.5754 42.2403 68.1645 42.4262 67.2338 42.8903C66.272 43.37 66.2 43.4198 66.0752 43.1732C65.9016 42.8592 66.2514 42.7924 66.4862 42.6671V42.6671ZM66.2343 43.7655C66.225 43.6755 66.4438 43.5837 66.5231 43.5355C67.0087 43.2374 66.9445 43.2767 68.5252 43.2801C69.5089 43.2831 70.1365 43.4082 70.3786 43.5724C70.5053 43.6583 70.4307 43.8101 70.1826 43.8854C70.0691 43.9198 69.9008 43.8217 69.7212 43.8033C68.5375 43.6873 67.3546 43.7682 66.2343 43.7655ZM66.4406 35.9828C66.4406 36.0147 66.4504 36.0375 66.4702 36.0451C66.5488 36.0756 66.6724 36.013 66.9103 35.8468C67.109 35.708 67.2694 35.742 67.5366 35.743C67.9145 35.7459 67.942 35.7172 67.7512 35.457C67.5821 35.2263 67.5712 35.2079 67.8513 34.7962C68.0174 34.552 68.0362 34.2444 67.8539 34.0451C67.7246 33.9047 67.7831 33.8559 67.8322 33.6677C67.9462 33.463 67.9635 33.4048 67.7497 32.9654C67.6182 32.6688 67.5991 32.657 67.6922 32.4806C67.9664 32.1702 67.8672 32.1241 67.5087 32.166C67.3835 32.166 67.1499 32.1291 66.998 32.0923C66.3602 31.9379 66.3531 32.1879 66.7595 32.5185C66.9169 32.6465 66.985 32.9318 66.858 33.2016C66.6761 33.5879 66.7497 34.1911 66.8249 34.6369C66.9138 35.1642 66.7681 35.4081 66.5869 35.62C66.5099 35.71 66.4392 35.8872 66.4417 35.9828H66.4406ZM67.8051 42.9194C67.7908 42.8533 67.9869 42.752 68.4023 42.6037C68.9385 42.4124 70.8022 42.7467 71.1075 42.9479C71.2677 43.0544 71.3658 43.1227 71.0691 43.3414C70.9387 43.4283 70.8969 43.3605 70.5305 43.2744C69.9729 43.1432 69.0708 43.0327 68.6512 43.0258C68.1066 43.0228 67.8213 42.9942 67.8051 42.9194ZM69.6128 42.2472C69.6163 42.1996 69.7239 42.144 69.9363 42.068C70.2282 41.9605 70.7904 42.0129 71.221 42.1542C71.4718 42.2361 71.7391 42.3137 71.9634 42.4532C72.0892 42.5008 72.0455 42.7443 71.7664 42.8114C71.5898 42.8538 71.3703 42.7073 71.0893 42.6364C70.8071 42.5652 70.4483 42.4842 70.2676 42.4439C69.8266 42.3696 69.608 42.3166 69.6128 42.2472ZM70.4387 37.0438C70.4387 37.0497 70.4387 37.0553 70.4413 37.059C70.4387 37.059 70.4443 37.0627 70.4456 37.0643C70.4567 37.0752 71.023 36.5571 71.1812 36.418C71.2429 36.3453 72.0041 35.7203 71.8293 36.1087C71.4221 37.0885 71.6216 38.2353 72.3042 38.9413C72.3897 39.0298 72.3015 39.103 72.2824 39.3706C72.2414 39.919 72.4594 40.1184 72.7303 39.7848C72.7718 39.7338 72.7903 39.6274 72.8568 39.5793C72.9178 39.5351 73.0274 39.5482 73.058 39.5253C74.4691 38.4649 74.7439 36.5008 73.8221 35.2678C73.7061 35.1127 73.6654 35.0256 73.7086 34.881C73.7942 34.5942 73.5531 34.5685 73.2166 34.8219C73.0699 34.9324 72.9009 35.0688 72.8521 34.9895C72.7171 34.8329 72.4962 34.7557 72.4136 35.0279C72.3566 35.2157 72.1474 35.426 71.8552 35.5315C71.5139 35.6546 70.4653 36.8621 70.4404 37.0451L70.4387 37.0438ZM71.0504 41.862C71.0433 41.8097 71.117 41.7798 71.1303 41.7732C71.4192 41.6305 72.475 41.6528 72.8307 41.8713C72.9875 42.0022 72.6956 42.3014 72.3963 42.2565C72.1686 42.2223 71.1473 41.9724 71.0893 41.9217C71.0638 41.8993 71.0528 41.8794 71.0504 41.862V41.862ZM71.9084 37.1586C71.9058 36.9651 71.9936 36.7005 72.1842 36.49C72.2873 36.3762 72.7335 36.1767 72.9085 36.2595C72.9974 36.2827 72.9925 36.5218 72.9271 36.5434C72.0263 36.6748 71.8954 37.4033 72.7363 37.6346C72.7363 37.6346 72.8643 37.7846 72.6181 37.8038C72.1406 37.7519 71.9121 37.5279 71.9084 37.1586H71.9084ZM71.9846 31.2929C71.9804 31.0614 72.0971 30.841 72.345 30.7276C72.5178 30.6486 72.6631 30.6397 72.7389 30.671C72.7956 30.6944 72.7711 30.7723 72.7711 30.7723C71.7546 31.142 72.2245 31.6453 72.7867 31.8276C72.7867 31.8276 72.8459 32.0178 72.7841 32.0415C72.7233 32.0651 72.609 32.0508 72.4507 31.975C72.1486 31.8306 71.9885 31.5553 71.9836 31.2929H71.9846ZM72.05 36.2393C72.0428 36.1084 72.1491 35.8841 72.3185 35.7166C72.4905 35.5463 72.5933 35.5297 72.7208 35.6672C72.7976 35.7499 72.8733 36.0437 72.7399 36.1007L72.1609 36.3478C72.1058 36.3712 72.0531 36.2988 72.0499 36.2393H72.05ZM72.0769 38.0208C72.0769 37.8742 72.1109 37.8435 72.6477 38.0737C72.7624 38.1229 72.5959 38.713 72.3745 38.6006C72.1983 38.4317 72.0766 38.1674 72.0769 38.0208ZM72.1526 31.9792C72.1717 32.032 72.7374 32.2548 72.7374 32.2548C72.7119 32.4655 72.7416 32.7179 72.5689 32.7635C72.4057 32.8065 72.306 32.7214 72.192 32.4245C72.114 32.2518 72.0996 31.9938 72.1526 31.9792V31.9792ZM72.2647 30.3777C72.3526 30.1563 72.5369 30.102 72.6348 30.1306C72.7089 30.1524 72.7177 30.2645 72.6524 30.3325C72.5766 30.4114 72.4282 30.4894 72.3335 30.5007C72.2252 30.5137 72.2519 30.4098 72.2647 30.3777V30.3777ZM72.7877 41.5173C72.9174 41.4486 73.6521 41.3246 73.6332 41.4696C73.5969 41.6103 73.3749 41.6759 73.1755 41.7005C73.1344 41.7056 72.7925 41.5802 72.7877 41.5173ZM73.1796 39.0568C73.1703 38.9918 73.2282 38.8276 73.3662 38.584C73.7545 37.7822 73.8094 36.9602 73.614 36.0872C73.4831 35.5837 73.4061 35.455 73.4928 35.3838C73.6399 35.263 73.7871 35.454 74.0267 36.1651C74.2894 36.9448 74.2452 37.7538 73.4928 38.8176C73.2905 39.1034 73.1916 39.1406 73.1796 39.0568V39.0568ZM73.3279 30.2273C73.3324 30.1998 73.3491 30.177 73.3823 30.1592C73.6292 30.0273 73.8897 30.4706 73.9292 30.7043C74.0357 31.334 73.9808 31.9408 73.6882 32.4344C73.437 32.771 73.2575 32.6317 73.4512 32.2568C73.6596 31.8537 73.6979 31.0335 73.4875 30.5984C73.4085 30.4349 73.314 30.3096 73.3279 30.2273ZM73.8427 40.1153C73.8527 40.16 73.9663 40.0847 74.1361 39.9284C75.3702 38.8316 76.0394 36.2147 74.7675 34.7438C74.3342 34.2831 74.1393 34.3536 74.4855 35.0802C74.7853 36.2872 75.0674 37.8626 74.092 39.6906C73.9067 39.9434 73.8339 40.0758 73.8427 40.1153V40.1153ZM73.8557 32.5989C73.853 32.5925 73.8557 32.5697 73.8583 32.5601C73.8636 32.4931 73.9265 32.3763 74.0436 32.1141C74.2482 31.656 74.1648 30.8685 74.0686 30.6218C73.843 30.0433 74.127 29.9201 74.4325 30.4717C74.8055 31.0863 74.6595 31.9347 74.179 32.4297C74.0413 32.583 73.8703 32.6662 73.8565 32.5989H73.8557ZM76.0626 39.8358C76.2604 37.6759 78.5264 34.2989 81.1074 33.0279V33.865C79.0762 35.142 77.3241 37.1068 76.7142 39.4384C76.6431 39.5306 76.1526 39.8853 76.0626 39.8358V39.8358ZM76.5471 30.3381H77.2492C77.5466 30.7 78.7355 32.0878 80.4609 33.0718C80.3703 33.1418 80.1662 33.2416 80.0216 33.3708C78.1962 32.3325 77.1518 31.2859 76.5471 30.3381ZM77.0937 38.99C77.0596 38.4945 78.9128 35.27 81.1074 34.1844V34.7552C79.5131 35.9765 78.3556 37.334 77.9382 38.5388C77.6285 38.8318 77.1073 39.1762 77.0937 38.99V38.99ZM77.6143 30.3381H78.5546C79.3074 31.1095 80.182 31.6775 81.1074 32.1189V32.7174C81.1186 32.6999 80.959 32.83 80.7254 32.896C79.5816 32.2435 78.5762 31.5108 77.6143 30.3381ZM78.383 38.147C78.383 37.8579 80.0789 35.559 81.1074 35.2343V35.8142C80.4141 36.3034 79.6297 37.0297 79.2327 37.6969C78.8931 37.9702 78.4739 38.3004 78.4058 38.1772C78.3902 38.1772 78.383 38.1662 78.383 38.147H78.383ZM78.9979 30.3381C79.0021 30.332 79.012 30.3354 79.0285 30.3381H79.802C80.1917 30.6737 80.5202 31.003 81.1074 31.3712V31.8649C80.1946 31.4431 78.9377 30.4328 78.9979 30.3381V30.3381ZM80.1052 37.0003C80.1052 36.9942 80.1052 36.9862 80.1084 36.9763C80.1557 36.7975 80.898 36.1447 81.1074 36.1655V36.4593C80.8987 36.6243 80.5554 36.8199 80.3417 36.9359C80.2235 36.9994 80.1133 37.043 80.1053 37.0002L80.1052 37.0003ZM80.2805 30.3381H81.1074V31.026C81.0976 31.0794 80.4127 30.5954 80.239 30.3381H80.2805Z" fill="#004C97"/>
<path d="M7.79664 20.264C7.7969 22.7743 7.81116 25.2654 7.83656 27.7445L34.091 9.28643L28.2588 9.27076L20.5955 15.194C20.1787 13.846 19.8911 12.1999 19.7753 10.9038C16.0758 12.5685 12.6011 13.4011 7.83915 12.6676C7.80968 15.2237 7.79628 17.7536 7.79664 20.2639V20.264ZM7.96098 12.975C9.64207 13.1196 11.5168 13.3095 13.5988 13.0051C13.2472 13.9657 13.8482 14.1913 13.9114 14.3506C13.5075 14.5313 12.8085 15.2012 13.6299 15.9593C14.057 16.3534 14.8602 16.1619 15.2225 15.2471C15.3031 16.2946 14.4058 16.839 13.4801 17.0229C13.1168 17.5891 12.7576 18.184 11.4837 18.2406L11.5319 17.9505C12.4207 18.047 12.8737 17.1254 12.4495 16.5863C12.1818 16.2377 11.7683 16.2007 11.1265 16.3382C11.069 16.0582 10.7942 15.4023 9.94965 15.5756C8.78366 15.815 8.92049 17.0096 9.68733 17.5554C9.12434 18.0091 9.0194 18.8409 9.89366 19.1745C10.3807 19.3603 10.9279 18.9367 11.0337 18.4555C11.2391 19.524 9.762 20.0626 8.76246 20.1223L7.97498 20.5651C7.95825 17.6766 7.96126 16.4134 7.96099 12.975H7.96098ZM7.99001 27.444L7.99267 25.3002L28.2889 9.65394L33.342 9.62124L7.99001 27.444ZM7.99267 22.0237L7.99733 21.6822C9.78377 21.4144 11.0767 20.3891 11.7061 18.6362C13.1656 18.5452 15.1484 17.8434 15.8183 15.1796C17.4663 15.2581 19.0412 14.2018 19.7961 13.0711C19.7961 13.0711 19.8717 13.3765 19.8946 13.6151C18.6863 15.1352 16.1729 15.6603 16.1729 15.6603C15.9993 16.1431 15.094 18.6104 11.787 19.1246C11.5809 20.2307 9.78897 21.969 7.99318 22.0237H7.99267ZM7.99733 23.4024V22.2007C9.43645 22.0781 11.1801 21.1954 11.9985 19.2492C14.3333 18.7918 15.383 17.8613 16.3445 15.7994C17.7045 15.487 19.3993 14.6677 19.9496 13.818L20.0543 14.292L7.99733 23.4024ZM10.1991 17.5352C10.1991 17.2636 10.4199 17.0436 10.6921 17.0436C10.9643 17.0436 11.1841 17.2636 11.1841 17.5352C11.1841 17.8067 10.9643 18.0273 10.6921 18.0273C10.4199 18.0273 10.1991 17.8067 10.1991 17.5352ZM12.8897 34.1116C12.9609 34.0832 18.6815 40.8289 29.4445 40.1724L29.6633 40.3681L29.74 40.3141C29.9934 40.5369 30.1968 40.7521 30.444 40.9952C31.3377 39.5963 32.3136 37.158 32.288 37.1503L33.37 37.6165L34.3135 34.7018L35.3426 35.0927C35.3426 35.0927 34.6684 37.1203 34.3876 37.9606C35.3091 38.3752 36.2826 38.6258 37.241 38.9277C37.3183 38.9561 37.2808 39.0225 37.1311 39.126C34.5429 40.6398 32.6753 43.7489 32.8604 43.6441L43.3486 54.671L49.8299 54.7462L57.7141 47.1147C57.7141 47.1147 58.8036 49.3233 59.5182 50.3683C60.183 49.5557 60.6947 48.6361 61.3233 47.8284C62.5047 46.1574 64.2417 45.0297 65.4178 43.9467C62.8792 38.8391 63.0203 33.6949 64.5614 29.2525C65.1073 29.7701 65.5802 30.3478 66.1722 30.8814C69.5686 29.5901 76.3142 30.0034 76.4976 30.0685C73.7446 27.3801 67.841 23.3813 59.5291 23.9147L58.3922 22.7831C58.3339 22.8039 56.8267 25.6125 56.4984 26.7832L55.4652 26.4598L54.5869 29.2639L53.7668 28.9509L54.5777 26.1582C53.2762 25.6294 51.4531 25.0692 51.4531 25.0692C53.1258 23.9539 54.6471 22.7244 56.1951 20.1939L45.6799 9.23037L38.9187 9.30096L31.4357 16.7659L29.8126 13.6587C29.5712 13.9572 29.3426 14.3903 29.1008 14.6974C29.0835 14.7194 29.0312 14.6354 29.0142 14.6574C28.9541 14.7354 28.9053 14.7928 28.8499 14.8723C28.8374 14.8901 28.9183 14.946 28.9058 14.9636C28.1647 16.018 27.4354 17.0728 26.5486 17.9027C26.5263 17.9237 26.4341 17.8921 26.4117 17.9131C25.9498 18.3444 25.52 18.7742 25.0654 19.2128C24.8595 19.4163 24.3707 19.7522 24.3707 19.7522L24.2095 19.7713L23.6148 20.2426C24.5124 21.7606 26.765 28.2327 24.2706 34.4951L23.0777 33.3048C22.3115 33.6216 21.4566 33.8274 20.7562 33.9091C17.9476 34.2366 12.8897 34.111 12.8897 34.111V34.1116ZM14.4802 14.3703C14.4802 14.0838 14.7135 13.8513 15.0007 13.8513C15.288 13.8513 15.5212 14.0838 15.5212 14.3703C15.5212 14.6569 15.288 14.8884 15.0007 14.8884C14.7135 14.8884 14.4802 14.6569 14.4802 14.3703ZM15.0992 12.7466C16.3928 12.4824 18.2712 11.9007 19.5374 11.3218L19.6142 12.0116C19.2484 12.5732 18.7148 13.1666 17.9578 13.2289C17.9695 14.7474 15.5814 15.1923 15.868 14.6377C16.6837 14.7084 17.0051 14.1245 16.9251 13.5517C16.8562 13.0587 16.1741 12.6322 15.4206 13.219C15.3189 12.9582 15.2419 12.8308 15.0992 12.7466V12.7466ZM18.9246 34.2668C20.579 34.1663 21.7855 33.843 23.0352 33.5406L25.8736 36.5409C23.2831 36.3069 20.9677 35.5474 18.9246 34.2668ZM24.3738 19.8763L24.9212 19.4958C27.4738 23.8319 27.6546 31.2327 25.5024 35.7415L24.9311 35.143C26.7258 31.1783 26.8593 24.7227 24.3738 19.8763V19.8763ZM25.2256 48.0386C25.2204 48.4754 25.3873 48.9801 25.7953 49.5144C24.8869 51.5036 27.0105 52.8064 28.417 51.5762C29.4293 51.7583 29.6182 51.8954 30.6431 51.1355C30.7461 51.9428 30.5342 52.9627 30.4005 53.8295C31.8996 53.6831 32.2486 51.5411 32.0838 50.6496C31.8747 49.6871 32.3521 48.7795 32.3632 48.7399C32.5216 48.174 32.7947 47.8223 32.9262 47.2642C33.0514 46.2138 32.2167 45.002 30.754 44.8156C30.9153 45.4448 31.1426 46.1358 31.2771 46.7487C31.4248 47.349 31.5706 47.8016 31.9293 48.2587L30.6908 48.2971C30.8394 45.1809 27.8696 46.537 27.742 46.7134C26.5703 46.1345 25.2408 46.8306 25.2256 48.0381V48.0386ZM25.3189 19.7143L26.9529 19.0369L27.5652 20.8376L25.9653 21.298L25.3189 19.7143ZM25.3681 48.1684C25.3785 47.1092 26.4967 46.1623 27.7487 47.1795C29.4922 45.2076 31.3603 47.7344 30.0635 48.9377C31.5341 50.5396 29.9978 52.2417 28.3962 51.3468C26.8636 53.0552 24.8083 50.9479 26.1323 49.5087C25.5876 49.1551 25.3635 48.6498 25.3681 48.1684V48.1684ZM25.9664 35.8713C25.9664 35.6178 26.1725 35.4124 26.4267 35.4124C26.6809 35.4124 26.8871 35.6178 26.8871 35.8713C26.8871 36.1249 26.6809 36.3307 26.4267 36.3307C26.1725 36.3307 25.9664 36.1249 25.9664 35.8713ZM25.9954 47.5715C25.9912 47.5813 25.9923 47.5924 26.0006 47.6042C26.3062 48.0379 26.7661 48.289 27.1354 48.6771C26.9655 49.1952 27.0807 49.5768 27.2972 49.9182C27.0219 50.4395 26.8102 50.5802 26.5615 51.0955C26.4806 51.2631 26.671 51.2714 26.7212 51.2217C27.0954 50.8514 27.2516 50.5053 27.5735 50.0838C27.9633 50.1241 28.28 50.0607 28.5751 49.9136C29.1257 50.2034 29.2809 50.478 29.8717 50.7275C29.9619 50.7656 30.013 50.6826 29.9582 50.6169C29.5952 50.1813 29.2555 49.9733 28.7814 49.6125C28.9739 49.0581 28.8571 48.8637 28.7332 48.5162C28.9973 48.1724 29.2539 47.8997 29.5041 47.4619C29.5823 47.3251 29.3784 47.3181 29.3745 47.3228C29.1081 47.6476 28.8466 48.0092 28.53 48.3226C27.826 48.1342 27.594 48.3255 27.3661 48.4705C26.9798 48.2015 26.6456 47.8488 26.0965 47.518C26.0659 47.5228 26.0082 47.5422 25.9954 47.5715V47.5715ZM26.1007 34.8357L26.6061 33.2136L28.2967 33.5712L27.7378 35.2998L26.1007 34.8357ZM26.5159 23.0987L28.165 22.6466L28.6145 24.3336L26.8638 24.6103L26.5159 23.0987ZM26.5434 21.9142C26.5434 21.6605 26.7491 21.4553 27.0032 21.4553C27.2574 21.4553 27.4636 21.6605 27.4636 21.9142C27.4636 22.1677 27.2574 22.3736 27.0032 22.3736C26.7491 22.3736 26.5434 22.1677 26.5434 21.9142ZM26.602 18.0787L27.868 16.6605L28.6648 18.2349L27.0157 18.9928L26.602 18.0787ZM26.968 31.4529L27.1624 29.8048L28.9375 29.8717L28.684 31.7628L26.968 31.4529ZM26.9866 37.1695L27.7933 35.3356L29.6451 35.9964L28.8369 37.8745L26.9866 37.1695ZM27.1302 32.4428C27.2363 31.767 28.0359 31.9488 28.051 32.4428C28.051 32.6964 27.8448 32.9021 27.5906 32.9021C27.3364 32.9021 27.1302 32.6964 27.1302 32.4428ZM27.1334 26.5148L28.9095 26.289L29.0137 27.9999L27.2085 28.0368L27.1334 26.5148ZM27.2853 49.1713C27.2853 48.8034 27.5828 48.5042 27.9514 48.5042C28.3201 48.5042 28.6197 48.8034 28.6197 49.1713C28.6197 49.539 28.3201 49.8357 27.9514 49.8357C27.5828 49.8357 27.2853 49.539 27.2853 49.1713ZM27.3355 25.3381C27.3355 25.0845 27.5417 24.8792 27.7959 24.8792C28.0501 24.8792 28.2557 25.0845 28.2557 25.3381C28.2557 25.5917 28.0501 25.7974 27.7959 25.7974C27.5417 25.7974 27.3355 25.5917 27.3355 25.3381ZM27.4848 28.8959C27.4848 28.6423 27.691 28.4365 27.9452 28.4365C28.1994 28.4365 28.405 28.6423 28.405 28.8959C28.405 29.1495 28.1994 29.3552 27.9452 29.3552C27.691 29.3552 27.4848 29.1495 27.4848 28.8959ZM27.5984 20.8386L29.4243 20.1721L30.0282 22.0414L28.1531 22.5703L27.5984 20.8386ZM27.6108 49.1604C27.6108 49.3548 27.7682 49.5123 27.9623 49.5123C28.1564 49.5123 28.3138 49.3548 28.3138 49.1604C28.3138 48.9662 28.1564 48.8084 27.9623 48.8084C27.7682 48.8084 27.6108 48.9662 27.6108 49.1604ZM27.6476 19.5274C27.6476 19.2739 27.8538 19.068 28.108 19.068C28.3622 19.068 28.5684 19.2739 28.5684 19.5274C28.5684 19.781 28.3622 19.9863 28.108 19.9863C27.8538 19.9863 27.6476 19.781 27.6476 19.5274ZM28.1655 16.2951L29.0215 15.0882L29.3558 15.6862C28.9795 15.8431 28.5333 16.1195 28.1655 16.2951ZM28.3314 33.5603L28.7187 31.7773L30.5912 32.0498L30.2024 33.9953L28.3314 33.5603ZM28.4341 38.8638L28.8804 37.917L30.4409 38.5415L29.6228 40.0728L28.4341 38.8638ZM28.5352 34.6307C28.5352 34.3771 28.7414 34.1718 28.9955 34.1718C29.2497 34.1718 29.4559 34.3771 29.4559 34.6307C29.4559 34.8842 29.2497 35.0896 28.9955 35.0896C28.7414 35.0896 28.5352 34.8842 28.5352 34.6307ZM28.6378 24.3326L30.5104 24.0144L30.7939 26.0253L28.8846 26.1499L28.6378 24.3326ZM28.6736 16.8022C28.6736 16.5487 28.8798 16.3439 29.134 16.3439C29.3881 16.3439 29.5943 16.5487 29.5943 16.8022C29.5943 17.0558 29.3881 17.2616 29.134 17.2616C28.8798 17.2616 28.6736 17.0558 28.6736 16.8022ZM28.6876 18.2287L30.3377 17.5637L31.1625 19.5311L29.5108 20.1135L28.6876 18.2287ZM28.8063 23.2461C28.8063 22.9925 29.0125 22.7873 29.2667 22.7873C29.5208 22.7873 29.727 22.9925 29.727 23.2461C29.727 23.4997 29.5208 23.7055 29.2667 23.7055C29.0125 23.7055 28.8063 23.4997 28.8063 23.2461ZM28.994 29.8904L29.0282 28.0082L30.9215 28.03L30.8639 30.0918L28.994 29.8904ZM29.1256 14.8323L29.641 14.0921C34.554 21.7136 35.1627 32.4198 30.3268 40.7751C30.3268 40.7751 29.9861 40.4331 29.7861 40.2389C34.3049 32.7068 33.6705 21.7111 29.1256 14.8323ZM29.3392 30.9115C29.3392 30.6579 29.5454 30.4526 29.7996 30.4526C30.0538 30.4526 30.26 30.6579 30.2599 30.9115C30.2599 31.165 30.0538 31.3708 29.7996 31.3708C29.5454 31.3708 29.3392 31.165 29.3392 30.9115ZM29.4434 27.0464C29.4434 26.7928 29.6496 26.587 29.9038 26.587C30.158 26.587 30.3642 26.7928 30.3642 27.0464C30.3642 27.2999 30.158 27.5052 29.9038 27.5052C29.6496 27.5052 29.4434 27.2999 29.4434 27.0464ZM29.6969 36.013L30.2667 34.0472L31.8225 34.3821L31.2009 36.5383L29.6969 36.013ZM29.7078 37.3144C29.7078 37.0607 29.914 36.855 30.1682 36.855C30.4224 36.855 30.628 37.0607 30.628 37.3144C30.628 37.5679 30.4224 37.7727 30.1682 37.7727C29.914 37.7727 29.7078 37.5679 29.7078 37.3144ZM30.0391 22.0424L31.7857 21.5726L32.2512 23.7465L30.5337 24.0087L30.0391 22.0424ZM30.2926 20.794C30.2926 20.5404 30.4988 20.3346 30.753 20.3346C31.0071 20.3346 31.2133 20.5404 31.2133 20.794C31.2133 21.0475 31.0071 21.2529 30.753 21.2529C30.4988 21.2529 30.2926 21.0475 30.2926 20.794ZM30.5637 49.1957L31.7883 49.2005C31.4903 49.561 31.1735 49.9682 30.853 50.385C30.8756 49.9598 30.7578 49.5646 30.5637 49.1963V49.1957ZM30.5938 53.6702C30.5938 53.571 30.6745 53.3389 30.6736 53.0623C30.6707 52.1771 30.9476 50.5241 31.3502 50.035C31.4839 49.872 31.6023 49.628 31.8183 49.4952C31.9213 49.4952 31.9244 49.6408 31.7914 49.8544C31.5362 50.2642 31.3085 50.9459 31.1817 51.8586C31.1589 52.0235 31.1655 52.0445 31.2434 52.0449C31.3396 52.0449 31.3955 51.8928 31.4746 51.4122C31.5769 50.7901 31.6385 50.6577 31.6763 50.5199C31.7777 50.1504 31.9131 50.3867 31.9495 50.7669C32.0952 52.3189 31.4258 53.4805 30.6612 53.7143C30.611 53.7332 30.5943 53.7143 30.5938 53.6702V53.6702ZM30.6213 32.0508L30.8748 30.0986L32.513 30.1873L32.2678 32.3244L30.6213 32.0508ZM30.6794 48.8723C30.6846 48.8013 30.7122 48.7346 30.7639 48.6548C30.9999 48.2905 31.8463 48.5485 32.0858 48.7342C32.2204 48.8544 32.1491 49.1359 31.9599 49.1344C31.7899 49.0919 30.9804 49.152 30.7296 49.1153C30.691 49.0186 30.6741 48.9434 30.6794 48.8724V48.8723ZM30.8364 26.0279L32.5255 25.9272L32.6224 28.0575L30.964 28.0411L30.8364 26.0279ZM30.95 33.2146C30.95 32.9611 31.1562 32.7563 31.4103 32.7563C31.6645 32.7563 31.8707 32.9611 31.8707 33.2146C31.8707 33.4683 31.6645 33.6745 31.4103 33.6745C31.1562 33.6745 30.95 33.4683 30.95 33.2146ZM30.9733 45.0845C32.2126 45.0059 33.0537 46.9047 32.6732 47.6151C32.5047 47.9296 32.4009 47.7991 32.2745 47.1754C32.0604 46.3684 31.8518 45.8362 31.7006 45.8356C31.6079 45.8356 31.6195 45.9583 31.7421 46.2872C31.9127 46.7937 31.9858 47.3199 32.2035 47.8035C32.3681 48.165 32.4258 48.3057 32.3269 48.3869C32.1195 48.5572 31.5961 47.7542 31.457 46.921C31.3526 46.296 31.0184 45.6656 30.9733 45.0845V45.0845ZM31.1283 24.8532C31.1283 24.5996 31.3345 24.3944 31.5887 24.3944C31.8428 24.3944 32.0485 24.5996 32.0485 24.8532C32.0485 25.1069 31.8428 25.3121 31.5887 25.3121C31.3345 25.3121 31.1283 25.1069 31.1283 24.8532ZM31.4653 29.1232C31.4653 28.8696 31.6715 28.6633 31.9256 28.6633C32.1798 28.6633 32.3855 28.8696 32.3855 29.1232C32.3855 29.3768 32.1798 29.5821 31.9256 29.5821C31.6715 29.5821 31.4653 29.3768 31.4653 29.1232ZM32.2471 18.8931C35.18 15.8205 38.5566 12.4524 41.334 9.67418C42.7872 9.67817 45.6939 9.68667 45.6939 9.68667L55.8011 20.2952C54.6255 22.2162 53.1557 23.8422 50.5453 25.3396C50.3993 25.1708 50.2721 24.9574 50.1124 24.8294L50.4784 25.4476C47.3409 27.4045 41.0895 28.2343 36.0782 24.9104L36.2016 28.2688L35.0554 27.7212L34.8552 24.0648L33.2652 22.5864C33.2652 22.5864 33.1783 22.1176 33.0885 21.7294C32.9993 21.3443 32.7739 20.5586 32.5871 19.9822C32.4004 19.4058 32.247 18.9152 32.2471 18.8931V18.8931ZM33.0594 43.6939C33.0594 43.6939 34.78 40.5366 38.225 38.7834C43.112 44.4506 48.8026 46.5859 54.7259 47.0679C51.8337 50.1525 50.2341 51.7117 47.4254 54.4986L43.234 54.3979L33.0594 43.6939ZM33.6058 31.7737C35.3567 32.5906 37.275 33.2937 39.3303 33.9232L39.07 34.8015C39.07 34.8015 38.8315 34.2332 38.6807 33.9803L37.944 34.436L37.5879 33.5712L36.9632 34.0831L36.4535 33.2058L35.9019 33.6444L35.4991 32.8404L34.9237 33.3397L34.4524 32.4967L33.9019 32.9364L33.6058 31.7737ZM33.6105 31.5048C33.6105 31.5048 33.6323 31.3916 33.6587 31.2587C33.6465 31.2268 34.1176 31.4171 34.1341 31.3968C34.1974 31.0899 34.18 31.072 34.2077 30.98L33.723 30.7464L33.7956 30.3623C35.5478 31.1367 37.465 31.9652 39.5403 32.4407L39.4459 32.8928C39.4459 32.8928 39.008 32.7608 38.9498 32.7604C38.9386 32.8135 38.8313 33.0682 38.7994 33.1472C38.8679 33.1742 39.3744 33.3356 39.3744 33.3356L39.365 33.6932C37.0991 33.1073 34.5862 32.0863 33.6105 31.5048V31.5048ZM33.6779 30.0332L34.3436 29.2312L34.6982 30.1406L35.327 29.6698L35.6764 30.6343L36.3296 30.0809L36.6832 31.0355L37.4733 30.4661L37.8087 31.4596L38.5034 30.8326L38.9238 31.7285L39.4568 31.1918C39.4568 31.1918 39.6413 31.7507 39.6496 31.783C39.6727 31.8729 39.5802 32.2491 39.5802 32.2491C37.558 31.6825 35.5081 30.9827 33.6779 30.0332V30.0332ZM34.0149 49.5461C34.159 49.7675 34.4726 49.6409 34.7407 49.9188C34.7887 49.9631 34.8994 49.9662 34.9957 49.9836C35.0689 49.9969 35.9434 50.2172 35.9434 50.2172C35.9434 50.2172 35.8767 50.1613 35.5976 50.0734C35.3595 49.9984 34.9074 49.9334 34.8319 49.8928C34.7692 49.688 34.0994 49.6567 34.1911 49.449C34.2441 49.329 34.3537 49.3522 34.6106 49.4199C35.1238 49.5677 35.3401 49.6259 34.99 49.3722C34.5327 48.9932 34.1199 48.9556 34.0325 49.3825C34.0238 49.4275 34.0162 49.5199 34.0154 49.546L34.0149 49.5461ZM34.2052 43.8154L43.5357 53.7278L47.0175 53.7584L50.523 50.3081L52.9021 47.8595C47.5735 46.9708 42.4903 44.932 38.0912 39.9119C36.8513 40.6811 35.2892 41.9987 34.2052 43.8154ZM34.3011 17.0945C37.0453 22.919 42.6732 24.2592 47.7681 22.4556C44.1895 19.6799 40.8275 17.5005 34.3011 17.0945ZM34.5862 37.8246L35.4395 35.1799L38.8445 36.176L38.1198 38.5576L37.5173 38.801L34.5862 37.8246ZM34.6748 17.3878C39.2284 17.6409 43.676 19.3534 47.1657 22.3336C43.439 23.8405 37.4804 22.9345 34.6748 17.3878ZM34.6997 31.6345L35.1233 31.8007L35.227 31.4342L34.7967 31.279L34.6997 31.6345ZM35.6998 32L36.1295 32.1505L36.2571 31.7752L35.82 31.6345L35.6998 32ZM35.778 16.3968C42.0943 17.2121 47.8419 20.6155 50.7708 24.2116C52.6343 23.0657 53.8325 21.7183 54.8332 20.3491L45.1055 10.2197L41.8607 10.2587L35.778 16.3968ZM35.9735 43.4421C35.9507 43.0936 36.8153 42.9943 37.4546 43.1665C37.6855 43.2287 37.803 43.2506 37.803 43.2506C37.803 43.2506 37.6945 43.1339 37.5256 42.826C36.5304 40.8356 38.0437 41.4771 38.6034 42.4149C38.7153 42.6245 38.8481 42.84 38.8481 42.84C38.8481 42.84 38.8935 42.6416 38.9337 42.4258C39.1853 41.2178 39.8941 41.4748 39.7839 42.7346C39.7677 42.9209 39.7315 43.14 39.7419 43.14C39.7523 43.14 40.0183 43.0642 40.2386 42.977C41.3109 42.5523 41.3947 43.3446 40.7129 43.8657C40.618 43.9383 40.3557 44.1024 40.3557 44.1024C40.3557 44.1024 40.5545 44.1541 40.7461 44.1855C42.4268 44.6357 42.3839 45.7462 40.6787 45.3316C40.5024 45.2797 40.1867 45.2169 40.1867 45.2169C40.1867 45.2169 40.3383 45.4662 40.4599 45.7381C41.1038 47.1766 40.4413 47.4103 39.4723 46.1035C39.1966 45.7317 39.0882 45.6052 39.0882 45.6052C39.0704 45.8366 39.035 46.0505 38.9876 46.239C38.7253 47.2814 38.1003 47.5589 38.1296 45.8886C38.1347 45.6419 38.1514 45.3913 38.1514 45.3913C38.1514 45.3913 37.7921 45.4735 37.5215 45.5605C36.2686 45.9635 36.1197 45.1508 37.2421 44.4658C37.4807 44.32 37.4821 44.2789 37.4821 44.2789C36.8312 44.1863 36.0137 43.8764 35.9735 43.4421H35.9735ZM36.2083 25.2509C37.4407 25.9466 38.6654 26.5536 39.9431 26.8429L39.8964 29.5494C38.7636 29.3621 37.585 28.8836 36.339 28.3124C36.3088 27.2107 36.2611 26.2172 36.2083 25.2509V25.2509ZM36.7542 32.3971L37.2079 32.5528L37.3286 32.1604L36.8869 32.0176L36.7542 32.3971ZM37.605 52.6377C38.3604 52.9277 39.2013 53.025 39.8757 53.1859C40.2665 53.2538 40.4296 53.1857 40.5169 52.9507C40.6413 52.6182 40.4717 52.1384 40.0867 51.87C39.8695 51.7187 39.4212 51.608 38.6294 51.585L37.9238 51.559C37.8472 51.9703 37.737 52.2514 37.605 52.6371V52.6377ZM37.7035 32.763L38.1198 32.8928L38.2608 32.5139L37.8403 32.3696L37.7035 32.763ZM37.8595 15.2362C37.8709 14.7763 37.9126 14.6902 38.1597 14.2733L38.9897 13.4682C39.1922 13.6791 39.4769 13.8118 39.7927 13.8118C40.4068 13.8118 40.9052 13.3145 40.9052 12.702C40.9052 12.3985 40.5838 11.9229 40.5838 11.9229L41.9084 10.648C42.2188 11.4499 41.615 12.0424 41.0691 12.4741C41.6113 12.5167 43.3479 12.9155 43.4891 13.7313C43.3846 14.356 40.8977 13.7199 40.955 13.7133C41.4102 14.1427 41.8946 16.2357 41.3863 16.0891C40.3768 15.7979 39.9878 14.2322 39.8124 14.0263C39.3106 14.8584 37.9189 15.9131 37.8595 15.2373V15.2362ZM37.8927 52.5365C37.9113 52.2714 37.9432 52.0896 38.0187 51.9094C38.0412 51.8255 38.1112 51.8217 38.1773 51.8124C38.4754 51.8094 39.3504 51.7366 39.3593 52.0122C39.3529 52.3184 39.4186 52.6058 39.5729 52.8075C39.697 52.9696 39.6078 53.023 39.2898 52.9793C38.9818 52.9369 38.3342 52.7845 38.0721 52.7187C37.9639 52.7083 37.8878 52.622 37.8927 52.5365V52.5365ZM37.9041 44.2664C37.9041 44.879 38.402 45.3757 39.0161 45.3757C39.6302 45.3757 40.1286 44.879 40.1286 44.2664C40.1286 43.6539 39.6302 43.1566 39.0161 43.1566C38.402 43.1566 37.9041 43.6539 37.9041 44.2664ZM38.2929 44.2664C38.2929 43.8683 38.617 43.5444 39.0161 43.5444C39.4152 43.5444 39.7383 43.8683 39.7383 44.2664C39.7383 44.6646 39.4152 44.9875 39.0161 44.9875C38.617 44.9875 38.2929 44.6646 38.2929 44.2664ZM38.3064 38.5415C42.7069 35.9985 48.7472 36.2929 53.1411 39.291L52.915 36.068L53.7419 36.4916L54.0779 39.9279C54.5596 40.453 55.1101 40.9309 55.6253 41.4473L55.8078 41.4524C56.082 42.6304 56.3974 43.8094 56.8312 45.0102C56.2073 45.644 54.9599 46.8363 54.9286 46.8285L54.5253 46.7517C50.3454 38.5792 41.9626 40.9699 41.2733 41.5453C40.1679 40.5716 39.1255 39.5013 38.3064 38.5413V38.5415ZM38.8238 44.2784C38.8238 44.3286 38.8437 44.3768 38.8792 44.4123C38.9147 44.4479 38.9628 44.4678 39.013 44.4679C39.0379 44.4679 39.0626 44.4631 39.0856 44.4536C39.1086 44.4441 39.1295 44.4301 39.1471 44.4125C39.1648 44.3949 39.1787 44.374 39.1883 44.351C39.1978 44.328 39.2027 44.3033 39.2027 44.2784C39.2027 44.2535 39.1978 44.2288 39.1883 44.2058C39.1787 44.1828 39.1648 44.1618 39.1471 44.1442C39.1295 44.1266 39.1086 44.1127 39.0856 44.1032C39.0626 44.0937 39.0379 44.0889 39.013 44.0889C38.9628 44.0889 38.9147 44.1089 38.8792 44.1444C38.8437 44.18 38.8238 44.2281 38.8238 44.2784V44.2784ZM39.1063 15.8601C39.1063 15.5291 39.3759 15.2616 39.7077 15.2616C40.0395 15.2616 40.3091 15.5291 40.3091 15.8601C40.3091 16.1911 40.0395 16.4596 39.7077 16.4596C39.3759 16.4596 39.1063 16.1911 39.1063 15.8601ZM39.2681 13.1956L39.659 12.8167C39.6767 12.8378 39.6989 12.8548 39.7238 12.8665C39.7488 12.8781 39.776 12.8842 39.8036 12.8842C39.8538 12.8842 39.9019 12.8642 39.9374 12.8287C39.9729 12.7932 39.9928 12.745 39.9928 12.6947C39.9928 12.6682 39.9872 12.6419 39.9764 12.6177C39.9656 12.5935 39.9498 12.5718 39.9301 12.5541L40.3049 12.1912C40.4339 12.3216 40.5149 12.5007 40.5149 12.6984C40.5149 13.0965 40.1918 13.4199 39.7927 13.4199C39.5868 13.4199 39.3998 13.3336 39.2681 13.1956V13.1956ZM39.3972 47.6882C39.3972 47.3572 39.6651 47.0903 39.997 47.0903C40.3288 47.0903 40.5983 47.3572 40.5983 47.6882C40.5983 48.0192 40.3288 48.2883 39.997 48.2883C39.6651 48.2883 39.3972 48.0192 39.3972 47.6882ZM39.6294 52.3091C39.626 52.2511 39.6321 52.1966 39.6491 52.1487C39.7432 51.868 40.0062 51.9335 40.2375 52.2962C40.3872 52.5308 40.4198 52.7459 40.3091 52.9523C40.1254 53.2945 39.6529 52.7157 39.6294 52.3091V52.3091ZM41.1199 47.5154L44.6223 51.1267C44.0404 50.8994 43.4602 50.891 42.8789 50.8739C42.9912 49.7872 42.4384 49.3321 41.3008 49.491C41.3428 48.7891 41.2685 48.0618 41.1199 47.5154ZM41.5201 41.7292C46.3064 40.0547 51.3714 41.5088 54.3049 46.7461C49.7185 46.5305 45.3338 44.6105 41.5201 41.7292ZM41.939 36.9588C42.6932 34.0847 43.045 30.8133 43.0474 27.4165C44.3431 27.391 45.7134 27.3289 47.0361 27.064C46.2773 29.9576 45.9245 33.1889 45.9868 36.7195C44.6174 36.573 43.0637 36.8077 41.939 36.9588ZM42.6471 15.6462L46.2346 18.7073L44.276 18.5785C44.4076 17.5477 43.8623 17.1809 42.7856 17.3327C42.8553 16.7704 42.7565 16.2085 42.6471 15.6462V15.6462ZM42.8457 45.3866L44.2786 45.6285C44.2951 46.2393 44.5128 46.8387 45.88 46.8307L45.8577 48.6563L42.8457 45.3866ZM43.1101 11.7038C43.1101 11.3728 43.3797 11.1048 43.7115 11.1048C44.0433 11.1048 44.3128 11.3728 44.3128 11.7038C44.3128 12.0348 44.0433 12.3033 43.7115 12.3033C43.3797 12.3033 43.1101 12.0348 43.1101 11.7038ZM43.2926 48.1632C43.2926 47.8322 43.5621 47.5632 43.894 47.5632C44.2258 47.5632 44.4938 47.8322 44.4938 48.1632C44.4938 48.4942 44.2258 48.7622 43.894 48.7622C43.5621 48.7622 43.2926 48.4942 43.2926 48.1632ZM43.9089 13.0404L46.0785 13.3607C46.0051 14.1946 46.1337 14.8902 47.6043 14.6761C47.5351 15.3816 47.7024 16.3616 47.7593 17.0182L43.9089 13.0404ZM44.3019 16.0293C44.3019 15.6983 44.5714 15.4298 44.9033 15.4298C45.2351 15.4298 45.5031 15.6983 45.5031 16.0293C45.5031 16.3603 45.2351 16.6294 44.9033 16.6294C44.5714 16.6294 44.3019 16.3603 44.3019 16.0293ZM44.7674 52.5573C44.7674 52.2263 45.037 51.9572 45.3688 51.9572C45.7006 51.9572 45.9686 52.2263 45.9686 52.5573C45.9686 52.8883 45.7006 53.1552 45.3688 53.1552C45.037 53.1552 44.7674 52.8883 44.7674 52.5573ZM45.4787 50.5692C45.651 49.8036 47.4397 50.157 47.9262 50.3293C47.9395 50.3424 46.7974 48.1942 47.3015 48.0661C48.312 47.9822 49.0164 49.845 49.0164 49.845C49.0164 49.845 50.11 48.5897 50.7972 48.5541C51.2419 48.5509 51.1596 49.079 50.5961 49.7646C50.3075 50.0576 50.0911 50.284 49.8905 50.4856C49.6865 50.2501 49.3844 50.102 49.0481 50.102C48.434 50.102 47.936 50.5982 47.936 51.2108C47.936 51.5491 48.088 51.8523 48.3275 52.0558C48.1739 52.2148 47.9951 52.3949 47.766 52.6367C47.3948 53.0327 47.0997 53.3105 46.9661 53.2705C46.5973 52.7479 47.5882 51.7084 47.6784 51.6156C47.4852 51.6935 45.5815 51.1189 45.4787 50.5692V50.5692ZM47.0086 19.0623C47.0086 18.4978 48.1683 18.7697 48.7318 18.944C48.7318 18.944 48.4913 18.637 48.4275 18.5012C47.9623 17.5102 48.4889 17.1409 49.0999 17.6406C49.4142 17.8806 49.4841 18.2078 49.7479 18.4737C49.7929 17.7996 49.9071 17.2478 50.4944 16.8791C51.0147 17.1633 50.8741 18.0918 50.6946 18.8189C51.1998 18.3931 52.5312 18.2019 52.5464 18.728C52.404 19.2596 51.8115 19.5189 51.3862 19.7268C51.8603 19.8974 52.3676 20.0626 52.7201 20.4426C53.0695 20.8194 52.7798 21.0127 52.1876 20.9933C51.9521 20.9856 51.2493 20.8132 51.2493 20.8132C52.0048 23.0455 50.9826 22.8787 50.0875 21.1366C49.5746 22.2097 49.1128 22.8622 49.0081 21.0369C48.9643 21.0852 47.9846 21.4035 47.7551 21.063C47.5419 20.7461 48.2743 20.0707 48.3098 20.0383C47.6138 19.8356 47.009 19.6108 47.0086 19.0624V19.0623ZM48.3166 51.2087C48.3166 50.8105 48.6407 50.4866 49.0398 50.4866C49.2692 50.4866 49.4732 50.5943 49.6054 50.7607C49.4272 50.9389 49.3456 51.0211 49.2166 51.1495C49.1989 51.126 49.1761 51.1069 49.1498 51.0937C49.1235 51.0806 49.0945 51.0737 49.0652 51.0737C49.015 51.0737 48.9669 51.0937 48.9314 51.1292C48.8959 51.1648 48.876 51.2129 48.8759 51.2632C48.876 51.2925 48.8829 51.3214 48.8961 51.3476C48.9092 51.3738 48.9282 51.3966 48.9516 51.4142C48.8461 51.5197 48.7005 51.6639 48.5919 51.7745C48.4242 51.6423 48.3166 51.4381 48.3166 51.2087V51.2087ZM48.3612 11.2647C48.3967 11.6534 48.7423 11.8951 49.0439 12.0749C49.105 12.1114 49.1269 12.1792 49.2077 12.2042C49.7276 12.3653 50.3501 12.5058 51.1254 12.592C51.2269 12.3456 51.3984 11.7901 51.3063 11.5444C51.2773 11.4753 51.0978 11.4967 51.0388 11.4733C50.6441 11.3272 48.2963 10.3949 48.3612 11.2647V11.2647ZM48.4819 11.3773C48.4719 11.2761 48.5189 11.1854 48.6608 11.1271C48.898 11.0296 49.1559 11.343 49.1543 11.7484C49.1543 11.9896 49.1871 12.0681 48.9776 11.9607C48.8023 11.8729 48.504 11.5999 48.4819 11.3773ZM48.4934 16.5666C48.4934 16.2356 48.7629 15.9665 49.0947 15.9665C49.4266 15.9665 49.6946 16.2356 49.6946 16.5666C49.6946 16.8976 49.4266 17.1656 49.0947 17.1656C48.7629 17.1656 48.4934 16.8976 48.4934 16.5666ZM48.5359 48.185C48.5359 47.854 48.8039 47.585 49.1357 47.585C49.4675 47.585 49.737 47.854 49.737 48.185C49.737 48.516 49.4675 48.7835 49.1357 48.7835C48.8039 48.7835 48.5359 48.516 48.5359 48.185ZM48.7795 19.828C48.7795 20.4405 49.2774 20.9373 49.8916 20.9373C50.5056 20.9373 51.0041 20.4405 51.0041 19.828C51.0041 19.2154 50.5056 18.7182 49.8916 18.7182C49.2774 18.7182 48.7795 19.2154 48.7795 19.828ZM48.9288 34.6556C50.2104 34.9473 51.4354 35.3962 52.6475 35.9632C52.7121 37.0328 52.7624 38.1884 52.8709 38.951C50.6411 37.681 50.1168 37.6505 48.9356 37.1804L48.9288 34.6556ZM49.1098 32.8175C49.1453 32.5172 49.1909 32.1883 49.2482 31.8915C51.1745 32.4374 53.152 33.1588 55.0555 34.0908L54.968 34.6556L54.6367 34.9224L54.2779 34.0265L53.5625 34.7252L53.212 33.5676L52.508 34.2798L52.2219 33.1363L51.4764 33.7483L51.0751 32.722L50.2316 33.374L49.9299 32.2808L49.1098 32.8175ZM49.1684 19.828C49.1684 19.4298 49.4924 19.1065 49.8916 19.1065C50.2907 19.1065 50.6137 19.4298 50.6137 19.828C50.6137 20.2261 50.2907 20.5485 49.8916 20.5485C49.4924 20.5485 49.1684 20.2261 49.1684 19.828ZM49.2783 31.6865L49.34 31.3044L49.7495 31.4228L49.8423 30.9878L49.4001 30.8471C49.4001 30.8471 49.4323 30.4981 49.4602 30.4609C51.3198 30.916 55.212 32.5249 55.1914 32.5455L55.1297 32.9598L54.7367 32.8502L54.6817 33.2359C54.6817 33.2359 54.9605 33.3685 55.1043 33.4217L55.0701 33.8329C52.7908 32.8365 51.0413 32.1582 49.2783 31.6865V31.6865ZM49.426 11.4344C49.4234 11.1288 49.5824 11.1471 50.1601 11.3685C50.7028 11.5766 50.9203 11.6547 50.9906 11.7557C51.1619 11.9966 51.0186 12.5156 50.7687 12.4736C49.9578 12.3371 49.6118 12.2884 49.5017 12.0796C49.4588 11.8621 49.427 11.6502 49.426 11.4344V11.4344ZM49.4934 30.1531L49.6863 29.1585L50.1824 29.9901L50.8014 29.4617L51.2384 30.4837L51.8818 29.8634L52.2861 30.8502L52.9943 30.2501L53.4272 31.2738L54.0327 30.5767L54.3966 31.7275L55.068 31.2914L55.3106 31.7243L55.2271 32.259C53.1533 31.3722 51.4473 30.8019 49.4934 30.1531V30.1531ZM49.6987 19.8243C49.6987 19.8493 49.7036 19.8739 49.7132 19.897C49.7227 19.92 49.7367 19.9409 49.7543 19.9585C49.7719 19.9761 49.7928 19.99 49.8158 19.9995C49.8389 20.009 49.8635 20.0139 49.8884 20.0138C49.9386 20.0138 49.9867 19.9938 50.0222 19.9583C50.0577 19.9228 50.0776 19.8746 50.0776 19.8243C50.0776 19.7741 50.0577 19.7259 50.0222 19.6904C49.9867 19.6549 49.9386 19.6349 49.8884 19.6349C49.8635 19.6348 49.8389 19.6397 49.8158 19.6492C49.7928 19.6587 49.7719 19.6726 49.7543 19.6902C49.7367 19.7078 49.7227 19.7287 49.7132 19.7517C49.7036 19.7748 49.6987 19.7994 49.6987 19.8243V19.8243ZM49.989 27.7087L50.5204 25.7606L51.2177 25.3713L54.3121 26.2849L53.5475 28.8813L49.989 27.7087ZM50.2876 31.5811L50.7957 31.7664L50.8849 31.3376L50.3617 31.1726L50.2876 31.5811ZM51.4546 31.9579L51.9626 32.1438L52.0425 31.741L51.5287 31.5505L51.4546 31.9579ZM52.4806 32.3379L52.986 32.5279L53.0669 32.136L52.5599 31.9486L52.4806 32.3379ZM53.4106 14.0324C53.4106 14.0324 53.555 14.2312 53.619 14.2836C53.735 14.2403 53.9137 14.1144 54.0306 14.1331C54.1186 14.1504 54.1895 14.2477 54.3464 14.3947C54.7744 14.7615 54.7274 14.8911 54.2707 14.6782C54.1271 14.6081 53.9943 14.5764 53.9943 14.5764C54.1134 14.6612 54.2542 14.725 54.366 14.7825C54.5996 14.9035 54.8202 15.0171 54.8202 15.0171C54.901 14.7835 55.0754 14.6276 55.1882 14.4767C55.1882 14.4767 54.9809 14.4005 54.7829 14.3475C54.5066 14.2735 54.3931 14.1274 54.2981 13.9483C54.2381 13.8354 54.1291 13.7272 54.1291 13.7272C53.9277 13.9242 53.6395 13.9474 53.4106 14.0324ZM53.5355 32.7438L54.0737 32.9447L54.1696 32.5538L53.62 32.3369L53.5355 32.7438ZM54.8886 54.7883C57.0321 54.8239 58.4434 54.7534 60.7551 54.8282L68.2764 49.0389L68.5802 49.9416C68.5802 49.9416 68.6849 49.9519 68.6984 50.0008C69.0394 51.2379 69.3791 53.244 69.3791 53.244C72.7952 51.7516 77.0668 50.7834 81.3339 51.4511L81.2945 36.4683L54.8886 54.7883ZM55.3298 35.6533C55.3651 31.2973 56.4648 26.9778 58.5212 23.1003L59.0401 23.6168C54.9059 31.2367 54.9221 41.7314 59.9277 49.3898L59.4689 50.0137C56.6169 45.5732 55.2898 40.5901 55.3298 35.6533V35.6533ZM55.6403 54.5085L81.0368 36.8731L81.0669 38.9443L60.6758 54.4929L55.6403 54.5085ZM56.0997 16.6616C56.4414 18.5226 57.2047 19.4316 58.4595 19.285C58.961 19.2517 58.4314 18.6772 58.4305 18.6772C58.4305 18.6771 57.6094 17.6686 57.2226 15.7039L58.3745 15.7682C58.3655 18.1945 60.2972 18.0623 61.3015 17.3644C61.7659 17.6087 63.3873 18.1432 64.004 16.3833C64.1793 15.5055 63.4645 14.5758 63.4276 14.6044C64.1953 12.9852 62.908 11.1059 60.6784 12.5712C59.706 12.0202 58.9843 12.4086 58.3636 12.9345C58.4644 12.2042 58.6883 11.4876 58.6897 10.4725C57.6407 10.4696 57.1722 11.3373 57.0297 13.1448C57.2108 14.4249 56.0906 16.6616 56.0997 16.6616V16.6616ZM56.2173 36.1843V35.9232L58.009 36.0078L58.0997 37.9772L56.3148 38.1049C56.2679 37.4268 56.2184 36.797 56.2163 36.1843H56.2173ZM56.265 33.8246L56.5227 31.7119L58.1977 32.0322L57.9883 33.9777L56.265 33.8246ZM56.2852 16.7C56.3051 16.5252 56.5078 16.5806 56.5548 16.8199C56.6293 17.1997 57.1978 18.1741 57.3454 18.1747C57.4405 18.1747 57.427 18.1269 57.236 17.7703C56.9818 17.2631 56.8107 16.7718 56.5921 16.2453C56.444 15.9179 56.5465 15.7551 56.8264 15.8731C57.0115 15.9511 57.0257 15.9827 57.2671 16.7415C57.4977 17.5559 57.8131 17.9342 58.1919 18.6305C58.4248 19.079 58.4253 19.1699 58.1121 19.1687C56.8158 19.1169 56.3962 17.6277 56.2852 16.7ZM56.5019 34.9733C56.5019 34.7092 56.7167 34.4957 56.9814 34.4957C57.2462 34.4957 57.461 34.7092 57.461 34.9733C57.461 35.2374 57.2462 35.4519 56.9814 35.4519C56.7167 35.4519 56.5019 35.2374 56.5019 34.9733ZM56.6294 40.1999L58.2552 40.0427L58.7539 41.9788L57.0748 42.4216C56.8929 41.6809 56.7649 40.9406 56.6294 40.1999ZM56.7528 15.2585C56.8338 14.7278 58.0522 14.7702 58.2635 15.0415C58.5651 15.4592 57.9346 15.7159 57.0981 15.5294C56.8466 15.477 56.7586 15.3798 56.7528 15.2585ZM56.8186 39.1016C56.8186 38.8375 57.033 38.6235 57.2977 38.6235C57.5625 38.6235 57.7772 38.8375 57.7772 39.1016C57.7772 39.3656 57.5625 39.5796 57.2977 39.5796C57.033 39.5796 56.8186 39.3656 56.8186 39.1016ZM56.9581 29.6433L57.5569 27.4549L59.2552 27.9901L58.6756 30.0441L56.9581 29.6433ZM56.9913 30.8352C56.9913 30.571 57.2055 30.3566 57.4703 30.3566C57.735 30.3566 57.9498 30.571 57.9498 30.8352C57.9498 31.0992 57.735 31.3132 57.4703 31.3132C57.2055 31.3132 56.9913 31.0992 56.9913 30.8352ZM57.1334 12.9294C57.1432 11.9864 57.6176 10.7427 58.3485 10.7404C58.5562 10.7595 58.2804 12.7158 57.9156 13.6192C57.7863 13.9398 57.3926 14.3305 57.2282 14.3298C57.1304 14.3298 57.1371 14.1384 57.2325 14.0604C57.3874 13.9333 57.5492 13.4829 57.8105 12.4482C58.0112 11.6534 58.019 11.574 57.8981 11.5735C57.6667 11.7001 57.5228 12.863 57.3336 13.4401C57.1766 13.9141 57.1428 13.1219 57.1335 12.9294H57.1334ZM57.5118 14.5941C57.6236 14.3562 57.846 14.2711 57.9633 14.1399C58.0408 14.303 58.1194 14.3756 58.1391 14.6397C57.9641 14.635 57.7554 14.682 57.5118 14.5941ZM57.6429 43.2594C57.6429 42.9954 57.8577 42.7803 58.1225 42.7803C58.3872 42.7803 58.602 42.9954 58.602 43.2594C58.602 43.5235 58.3872 43.737 58.1225 43.737C57.8577 43.737 57.6429 43.5235 57.6429 43.2594ZM57.7788 44.5462L59.4387 44.0297L60.2454 45.8798L58.6005 46.5354C58.2634 45.8958 58.0187 45.1965 57.7788 44.5462V44.5462ZM58.0499 35.9917C58.0499 35.9917 58.0526 34.5176 58.0576 34.0088L59.9312 34.1282L59.9458 35.9668L58.0499 35.9917ZM58.1525 37.9606L60.0235 37.8578L60.262 39.629L58.3801 39.9788L58.1525 37.9606ZM58.1687 26.765C58.1687 26.5009 58.3836 26.2859 58.6483 26.2859C58.9131 26.2859 59.1273 26.5009 59.1273 26.765C59.1273 27.0291 58.9131 27.2426 58.6483 27.2426C58.3836 27.2426 58.1687 27.0291 58.1687 26.765ZM58.2123 13.952C58.217 12.8737 59.4606 11.8458 60.7629 12.9112C62.1107 11.1637 64.3762 13.064 63.0559 14.6086C65.2307 16.8173 62.2776 18.0516 61.4944 17.1376C59.2709 18.4874 57.8659 16.8287 58.8468 15.1178C58.3988 14.8028 58.2105 14.3739 58.2123 13.952ZM58.2657 32L58.6985 30.0576L60.5493 30.4484L60.1631 32.3462L58.2657 32ZM58.3113 25.5706L59.1957 23.7943L60.5245 25.1714L60.0138 26.1951L58.3113 25.5706ZM58.5207 36.9588C58.5207 36.6947 58.7356 36.4807 59.0003 36.4807C59.2651 36.4807 59.4793 36.6947 59.4793 36.9588C59.4793 37.2229 59.2651 37.4374 59.0003 37.4374C58.7356 37.4374 58.5207 37.2229 58.5207 36.9588ZM58.5809 33.1207C58.5809 32.8566 58.7957 32.6421 59.0604 32.6421C59.3252 32.6421 59.54 32.8566 59.54 33.1207C59.4295 33.8245 58.5966 33.6352 58.5809 33.1207ZM58.851 41.9674L60.7012 41.5345L61.3109 43.3342L59.5083 43.9773L58.851 41.9674ZM58.9821 40.7315C58.9821 40.4674 59.1969 40.2534 59.4617 40.2534C59.7265 40.2534 59.9412 40.4674 59.9412 40.7315C59.9412 40.9956 59.7265 41.2096 59.4617 41.2096C59.1969 41.2096 58.9821 40.9956 58.9821 40.7315ZM59.1444 13.4272C59.1444 13.4754 59.1693 13.5344 59.2315 13.5834C59.5593 13.8413 59.888 14.1327 60.203 14.4077C60.018 14.8554 60.0915 15.2894 60.2911 15.5798C59.9821 15.9696 59.6857 16.2811 59.428 16.7182C59.3884 16.7853 59.4373 16.8621 59.4959 16.822C59.8971 16.548 60.1239 16.1311 60.5151 15.7911C60.9437 15.9234 61.2792 15.9219 61.6396 15.6691C61.9559 15.8565 62.3501 16.2397 62.7941 16.4747C62.9609 16.563 62.9382 16.3713 62.9284 16.3584C62.6403 15.9789 62.256 15.7946 61.9117 15.3753C62.0327 14.928 62.1422 14.6804 61.7723 14.2333C61.9674 13.8106 62.2644 13.5663 62.5406 13.0929C62.6314 12.9373 62.4341 12.89 62.3643 12.9589C61.9635 13.3549 61.8027 13.6207 61.4638 14.036C61.3081 13.9415 60.7553 13.8743 60.3767 14.198C60.0067 13.901 59.8604 13.765 59.3222 13.3701C59.2207 13.2956 59.1458 13.3467 59.1444 13.4272V13.4272ZM59.3056 27.9724L60.0439 26.2195L61.8806 26.8465L61.1875 28.5398L59.3056 27.9724ZM59.429 47.261C59.429 46.9969 59.6433 46.7824 59.9081 46.7824C60.1729 46.7824 60.3876 46.9969 60.3876 47.261C60.3876 47.5251 60.1729 47.7391 59.9081 47.7391C59.6433 47.7391 59.429 47.5251 59.429 47.261ZM59.4783 29.3277C59.4783 29.0636 59.6925 28.8497 59.9573 28.8497C60.222 28.8497 60.4368 29.0636 60.4368 29.3277C60.4368 29.5919 60.222 29.8063 59.9573 29.8063C59.6925 29.8063 59.4783 29.5919 59.4783 29.3277ZM59.6094 48.4856L61.0341 47.9115L60.0589 49.2164L59.6094 48.4856ZM59.9765 34.0992L60.1833 32.353L61.8516 32.6291L61.7147 34.135L59.9765 34.0992ZM59.9812 36.0052L61.6957 36.0222L61.7672 37.6812L60.0549 37.8219L59.9812 36.0052ZM60.2933 44.5395C60.2933 44.2754 60.5075 44.0614 60.7724 44.0614C61.0371 44.0614 61.2519 44.2754 61.2519 44.5395C61.2519 44.8036 61.0371 45.0175 60.7724 45.0176C60.5075 45.0176 60.2933 44.8036 60.2933 44.5395ZM60.3276 45.8621L62.0508 45.1873L62.5573 46.2338L61.2265 47.6369L60.3276 45.8621ZM60.3493 39.6186L61.9896 39.3486L62.4178 41.0782L60.7495 41.4982L60.3493 39.6186ZM60.3658 14.8951C60.3658 14.5186 60.6717 14.2136 61.0491 14.2136C61.4265 14.2136 61.7329 14.5186 61.7329 14.8951C61.7329 15.2716 61.4265 15.5772 61.0491 15.5772C60.6717 15.5772 60.3658 15.2716 60.3658 14.8951ZM60.4176 35.1352C60.4176 34.8711 60.6324 34.6567 60.8972 34.6567C61.1619 34.6567 61.3767 34.8711 61.3767 35.1352C61.3767 35.3993 61.1619 35.6133 60.8972 35.6133C60.6324 35.6133 60.4176 35.3993 60.4176 35.1352ZM60.5944 30.424L61.1932 28.5792L62.6738 29.1995L62.2409 30.7926L60.5944 30.424ZM60.6561 38.5986C60.6561 38.3345 60.8709 38.1205 61.1356 38.1205C61.4004 38.1205 61.6147 38.3345 61.6147 38.5986C61.6147 38.8627 61.4004 39.0761 61.1356 39.0761C60.8709 39.0761 60.6562 38.8627 60.6561 38.5986ZM60.6898 14.8988C60.6898 15.0931 60.8472 15.2507 61.0413 15.2507C61.2354 15.2507 61.3927 15.0931 61.3927 14.8988C61.3928 14.7044 61.2354 14.5468 61.0413 14.5468C60.8472 14.5468 60.6898 14.7044 60.6898 14.8988ZM60.8329 31.5847C60.8329 31.3206 61.0472 31.1072 61.3119 31.1072C61.5767 31.1072 61.7914 31.3206 61.7914 31.5847C61.7914 31.8489 61.5767 32.0633 61.3119 32.0633C61.0472 32.0633 60.8329 31.8489 60.8329 31.5847ZM61.3943 43.2973L62.8599 42.662L63.6122 44.3973L62.1175 45.153L61.3943 43.2973ZM61.482 42.0671C61.482 41.803 61.6968 41.5895 61.9615 41.5895C62.2263 41.5895 62.441 41.803 62.441 42.0671C62.441 42.3312 62.2263 42.5462 61.9615 42.5462C61.6968 42.5462 61.482 42.3312 61.482 42.0671ZM61.9242 35.6746C61.9183 32.8258 62.5154 30.2538 63.3721 28.1894L63.9502 28.804C61.6435 35.5 62.6825 39.8797 64.6568 44.3703L64.0953 44.8234C62.5389 41.6494 61.9301 38.5233 61.9242 35.6746ZM61.9422 28.0996C61.9422 27.8355 62.157 27.6215 62.4218 27.6215C62.6865 27.6215 62.9008 27.8355 62.9008 28.0996C62.9008 28.3637 62.6865 28.5771 62.4218 28.5771C62.157 28.5771 61.9422 28.3637 61.9422 28.0996ZM62.9905 45.5491H62.9931C63.0159 45.1649 63.7343 45.1281 63.5271 45.3072L63.0284 45.7349C62.9985 45.6655 62.9868 45.604 62.99 45.5491H62.9905ZM63.2911 27.649C63.8361 27.6631 67.4888 28.1772 70.0001 29.9148C68.7299 30.0203 67.2115 30.3269 66.1979 30.6685C66.1979 30.6685 64.4658 28.7988 63.2911 27.649ZM68.8264 49.8777L81.0497 40.8353L81.0431 41.7847C78.7467 42.1652 77.5601 43.4902 76.932 45.029C74.9995 45.1525 73.2515 46.3504 72.6369 48.3106C71.3446 48.4383 70.0736 49.02 69.0032 50.4788L68.8264 49.8777ZM69.1073 50.7752C70.4359 49.0443 70.7585 48.9594 72.8073 48.4632C73.6435 45.9883 75.4893 45.3666 77.0558 45.2065C77.696 43.5767 79.0653 42.241 81.0362 42.0084L81.0389 42.5057C78.8027 42.8605 77.9107 44.2645 77.4929 45.749C74.336 45.6334 73.3512 48.082 73.2029 48.9372C70.9291 48.8869 69.9907 50.3545 69.2276 51.3016C69.1804 51.1169 69.1463 50.9396 69.1074 50.7752H69.1073ZM69.4329 52.2209C69.6752 51.4812 70.7081 50.9203 71.1836 50.9772C71.3069 50.0016 72.2524 48.9769 73.2371 49.2019C73.2788 49.2741 73.2874 49.3881 73.1744 49.5009C71.264 49.2394 72.2095 52.0839 73.5917 50.9471L73.9245 51.4558C72.0126 51.8645 70.9296 52.3676 69.5485 52.9139C69.4958 52.7146 69.4329 52.2209 69.4329 52.2209ZM73.4382 49.8653C73.4382 49.6126 73.6437 49.409 73.897 49.409C74.1503 49.409 74.3558 49.6126 74.3558 49.8653C74.3558 50.118 74.1503 50.3226 73.897 50.3226C73.6437 50.3226 73.4382 50.118 73.4382 49.8653ZM73.6591 48.6932C73.6137 48.0324 74.8412 47.3912 75.5005 47.4225C75.8086 46.3362 76.9108 45.9847 77.3119 46.0204L77.3068 46.2587C75.5602 46.6406 76.5102 48.6257 77.903 47.7967C78.2963 48.8583 79.2783 48.7747 79.6667 48.4622C80.2027 48.0308 80.1864 46.9314 79.3614 46.5961C80.6996 45.564 79.1976 44.1397 77.9502 45.396C78.3301 44.3671 79.7121 44.2021 80.1436 44.3568C80.3069 43.8792 81.0666 43.3292 81.0623 43.4027L81.065 51.1111C81.065 51.1111 77.9467 50.7385 75.593 51.135C75.7167 50.6221 75.8406 50.2779 75.1461 49.6878C75.9388 48.7328 75.3405 48.0467 74.6557 48.0963C74.1767 48.1697 73.9392 48.4162 73.6862 48.8256C73.6714 48.7816 73.6624 48.7373 73.6593 48.6932L73.6591 48.6932ZM77.6971 46.5629C77.6971 46.3025 77.9089 46.0915 78.1699 46.0915C78.4309 46.0915 78.6427 46.3025 78.6427 46.5629C78.6427 46.8232 78.4309 47.0337 78.1699 47.0337C77.9089 47.0337 77.6971 46.8232 77.6971 46.5629Z" fill="black"/>
<path d="M20.2497 58.5222C19.2425 59.132 18.2637 59.7736 17.4275 60.5754C16.5913 59.7736 15.6124 59.132 14.6052 58.5222C15.6124 57.9123 16.5913 57.2707 17.4275 56.4689C18.2637 57.2707 19.2425 57.9123 20.2497 58.5222Z" fill="#C8102E"/>
<path d="M74.3982 5.47784C73.3911 6.0877 72.4122 6.72933 71.576 7.53113C70.7398 6.72933 69.761 6.0877 68.7538 5.47784C69.761 4.86799 70.7398 4.22639 71.576 3.42456C72.4122 4.22639 73.3911 4.86799 74.3982 5.47784Z" fill="#C8102E"/>
<path d="M23.2756 46.5445C20.8584 48.0082 18.5091 49.5481 16.5022 51.4724C14.4954 49.5481 12.1461 48.0082 9.72888 46.5445C12.1461 45.0809 14.4954 43.5411 16.5022 41.6167C18.5091 43.5411 20.8584 45.0809 23.2756 46.5445Z" fill="#C8102E"/>
<path d="M79.278 17.4557C76.8608 18.9193 74.5115 20.4592 72.5047 22.3835C70.4978 20.4592 68.1485 18.9193 65.7313 17.4557C68.1485 15.992 70.4978 14.4521 72.5047 12.5278C74.5115 14.4521 76.8608 15.992 79.278 17.4557Z" fill="#C8102E"/>
<path d="M10.6384 60.5736V61.3519H9.57738V60.5736C9.57738 60.5736 9.00565 60.5677 7.9971 60.5453C5.84732 60.497 5.5136 60.4434 4.92191 59.8211C3.75261 58.5921 4.70536 56.534 6.46376 56.5583C8.94543 56.5939 11.3114 56.5682 11.6466 56.6407C12.2368 56.7695 12.27 56.7825 12.378 56.7299C12.5945 56.6222 12.6884 55.6925 12.6278 55.6925H13.6729C13.728 56.4026 13.6614 56.6976 13.2557 57.2658C13.5979 57.6203 13.9416 58.7002 13.5373 59.559C13.2298 60.2122 12.4356 60.7072 10.6384 60.5736V60.5736ZM12.4907 57.9429C11.9334 58.3286 11.1728 58.9778 10.9026 59.5884C11.5435 59.6265 12.0808 59.5712 12.3698 59.3461C12.8299 58.9876 12.9353 58.4081 12.4907 57.9429V57.9429ZM6.36103 57.6229C5.5502 57.9092 5.27523 58.6447 5.78264 59.1821C6.09828 59.518 6.43051 59.5718 8.2351 59.579C9.34825 59.5832 9.81611 59.5832 9.81611 59.5832C10.1554 58.5371 11.3749 57.5593 11.3591 57.5676L7.99267 57.5422C7.44646 57.5219 6.89948 57.549 6.36103 57.6227V57.6229Z" fill="#C8102E"/>
<path d="M78.365 3.42647V2.64815H79.426V3.42647C79.426 3.42647 79.9978 3.43241 81.0063 3.45479C83.1561 3.50305 83.4898 3.55672 84.0815 4.17902C85.2508 5.40799 84.2981 7.46607 82.5397 7.44174C80.058 7.40618 77.692 7.43188 77.3568 7.3594C76.7666 7.23057 76.7334 7.2175 76.6255 7.2701C76.4089 7.37786 76.315 8.3075 76.3756 8.3075H75.3305C75.2754 7.59739 75.3421 7.30238 75.7477 6.73418C75.4055 6.37968 75.0618 5.29984 75.4661 4.44098C75.7736 3.78783 76.5678 3.29292 78.365 3.42647V3.42647ZM76.5127 6.05708C77.0701 5.67137 77.8306 5.02224 78.1008 4.41156C77.4599 4.37346 76.9226 4.42877 76.6336 4.65396C76.1735 5.01244 76.0682 5.59192 76.5127 6.05708V6.05708ZM82.6424 6.37713C83.4532 6.09085 83.7282 5.3554 83.2208 4.81802C82.9052 4.48203 82.5729 4.42832 80.7683 4.42107C79.6552 4.41684 79.1873 4.4168 79.1873 4.4168C78.848 5.46292 77.6285 6.44082 77.6443 6.43246L81.0108 6.45782C81.557 6.47814 82.104 6.45104 82.6424 6.37727V6.37713Z" fill="#C8102E"/>
</g>
<defs>
<clipPath id="clip0">
<rect width="63.0002" height="88.0003" fill="white" transform="translate(0.501587 63.5002) rotate(-90)"/>
</clipPath>
</defs>
</svg>
