<svg width="89" height="64" viewBox="0 0 89 64" fill="none" xmlns="http://www.w3.org/2000/svg">
<g clip-path="url(#clip0)">
<path d="M88.5021 60.4869V3.51356C88.5021 1.84927 87.1546 0.500122 85.4924 0.500122L3.51142 0.500122C1.84925 0.500122 0.501793 1.84927 0.501793 3.51356V60.4869C0.501793 62.1511 1.84925 63.5003 3.51142 63.5003L85.4924 63.5003C87.1546 63.5003 88.5021 62.1511 88.5021 60.4869Z" fill="white"/>
<path d="M7.36658 55.0398L81.6348 55.0398V8.96592C59.2338 8.98984 31.7644 8.94971 7.36658 8.96592L7.36658 55.0398ZM7.98817 42.0414C7.99377 33.9132 7.99849 26.2182 8.03742 17.8417C9.8208 18.5897 13.0369 20.6292 15.6183 21.9072C16.4127 21.5981 16.5477 21.9796 16.736 21.8195C17.1775 21.5606 17.7967 21.7478 17.9362 22.295C18.1891 24.6633 17.5368 27.1923 16.7355 29.2808C15.5102 32.4745 15.1788 35.1673 15.4649 38.4047C15.4649 38.4047 15.4357 38.6708 14.808 38.7909C11.5244 39.8579 10.1498 41.0273 7.98817 42.0414V42.0414ZM8.07785 54.4517V42.4396C8.07785 42.4396 9.08259 41.8735 11.3963 40.6892C12.3758 40.1878 12.7917 39.7641 13.5674 39.7206C14.023 39.7659 14.5402 39.5562 14.7484 39.1849C14.8183 39.0602 14.7339 38.8515 14.9288 38.9212C15.1433 38.9979 15.4735 38.7627 15.5437 38.6985C15.6678 38.6253 15.6981 38.6709 16.1601 38.6632C16.6065 38.6555 16.793 38.6322 17.13 38.5371C17.9818 38.2966 18.4074 38.2432 18.8491 38.3808C19.9694 38.7383 20.8286 39.111 21.8731 39.5929C22.4844 39.8732 22.7231 39.8304 23.1671 38.9705C23.4995 38.3267 23.496 38.241 23.9815 38.3222C24.209 38.3602 24.3526 38.3958 24.4626 38.3482C24.5296 38.3193 24.6235 38.212 24.6772 38.1495C24.7495 38.0654 24.8987 38.0911 25.0095 38.177C25.1183 38.2613 25.2734 38.262 25.5326 38.177C26.1983 37.9047 27.1313 38.6627 27.4627 39.5188C26.5824 39.7652 26.2747 41.0146 26.8424 41.74C27.3378 42.373 27.9132 42.4759 28.6817 42.3079C29.6151 43.8487 30.7118 45.528 31.5396 47.1836C31.1289 47.384 30.7782 47.4508 30.3358 47.5775C29.9565 47.6871 29.9278 47.6729 29.1896 47.6321C28.5224 47.5952 28.3671 47.5752 28.3243 47.7312C28.2261 48.6194 28.5422 48.8219 29.1186 48.9921C29.3732 49.0656 29.3212 49.2075 29.214 49.2952C28.5955 49.6332 27.9527 50.0608 27.513 50.3417C26.9517 50.6926 26.6723 51.2837 26.9376 51.5932C27.1557 51.6583 27.1625 51.7118 27.0729 52.104C26.9642 52.5795 27.2322 52.8504 27.584 52.8961C27.7244 52.9144 27.7185 52.8127 27.8572 53.0674C28.3275 53.6991 28.9693 53.4584 29.356 53.3638C29.3356 53.372 29.5161 53.6336 29.8781 53.6394C31.7575 53.6696 34.4645 52.0499 34.3946 52.0863L35.8197 54.4523L8.07785 54.4517ZM8.07785 17.3564L8.07785 9.66565H9.47241L13.3559 13.4492H16.2129C15.7019 15.4784 13.4164 16.3158 11.8333 16.4802C15.282 20.2381 20.4744 20.1453 23.7316 16.5944C22.0839 16.1853 19.6283 14.5837 19.6418 13.4492H29.918L27.6442 15.7057L27.6793 20.3035C26.7792 19.5189 24.7348 19.9403 23.6263 20.3673C21.5407 21.1708 18.1284 22.3194 18.0782 22.2321C18.0782 22.2321 17.9071 21.5704 17.4852 21.5106C16.8597 21.422 16.9063 21.6919 16.3415 21.303C16.2145 21.2155 15.9748 21.2716 15.7842 21.3653C15.6445 21.427 15.4341 21.4858 15.2705 21.3706L8.07785 17.3564ZM9.61342 9.4087L33.3162 9.41694C35.2407 9.696 37.2085 9.57377 39.15 9.58979L40.1527 11.4813L30.8034 18.5741C30.8034 18.5741 30.3808 18.2895 30.3058 18.1573C29.9654 18.3085 30.8139 18.811 30.9507 18.8539C34.1563 16.2808 40.4331 11.4974 40.4331 11.4974L39.3875 9.50518C41.3128 9.49695 43.2682 9.54855 45.1767 9.56436C47.1869 13.0443 50.4378 15.1182 53.7675 16.6094C54.2194 17.9896 54.861 19.4382 55.4373 20.8243L58.4504 18.8284L58.8791 19.619C45.373 28.4973 35.8731 24.6897 27.9666 17.6013L27.9443 16.2953L30.7884 13.2514L13.5089 13.3075C12.1808 12.0402 10.9822 10.6333 9.61342 9.40863V9.4087ZM12.5 16.7112C12.7021 16.6541 13.1973 16.5329 13.1833 16.5196C15.3671 18.6067 18.9473 19.5895 22.6165 16.5684C22.6025 16.5841 22.8813 16.6358 23.1945 16.7195C20.0041 19.9679 15.0034 19.4864 12.5 16.7112V16.7112ZM13.4129 16.3971C15.0218 15.855 16.0258 14.5263 16.0258 14.5263C17.1431 15.0271 18.3102 15.3254 19.7838 14.3888C20.5756 15.2601 21.4454 15.9823 22.4838 16.3836C19.066 19.3118 15.5014 18.3718 13.4129 16.3972V16.3971ZM15.5136 35.9624C15.5214 34.5793 15.6767 32.9905 16.0807 31.9452C19.309 31.5175 24.0987 29.2506 25.3372 29.5414C24.4576 30.1215 24.6902 32.5543 27.1491 31.8217C27.1491 31.8217 27.4492 32.0206 27.8531 32.4166C28.8946 33.4376 29.0669 33.6894 28.1496 33.2045C27.4444 32.8318 26.5239 32.3566 26.3455 32.346C26.2034 32.3375 26.1708 32.4475 26.2843 32.5334C26.3685 32.597 26.5732 32.6729 26.7286 32.7389C28.1612 33.3474 29.4525 34.3874 29.7635 35.1044C29.8436 35.289 29.7581 35.2798 29.6007 35.1521C28.5452 34.3086 27.5692 33.6641 26.2952 33.2061C26.1639 33.1856 26.1088 33.3712 26.2335 33.4303C27.9011 34.2216 28.2797 34.458 29.4545 35.4304C29.9163 35.8126 30.1495 36.1683 30.1243 36.4524C30.1025 36.6982 30.0616 36.6253 29.8179 36.3979C29.6318 36.2243 29.3732 35.9679 28.8479 35.5529C27.9217 34.8209 26.4144 34.0849 26.4933 34.3559C26.3678 34.4026 26.7683 34.6335 27.1506 34.8287C28.0538 35.3637 29.2472 35.9315 30.032 37.202C30.1425 37.4673 30.2059 37.7576 30.2088 38.0138C30.2096 38.3641 30.1053 38.1598 29.5722 37.3956C29.0517 36.6496 27.4061 35.42 26.7955 35.2772C26.5182 35.2124 26.4966 35.387 26.8774 35.584C28.6283 36.4898 30.2281 38.2033 30.157 39.772C30.1221 40.5405 29.9135 40.9557 29.8221 40.3196C29.6068 38.5758 28.6068 37.2724 26.6135 36.1317C26.5688 36.1317 26.5711 36.2349 26.6478 36.3543C27.9315 37.3985 29.6818 38.6751 29.5442 40.7416C29.4539 42.2323 27.5341 42.5327 26.9464 41.2851C26.4362 40.2022 27.8265 39.2274 28.5405 40.139C28.6883 40.3114 28.6025 40.5908 28.6025 40.5908C28.6025 40.5908 28.6113 40.4932 28.4665 40.3145C27.9302 39.6525 26.8786 40.4042 27.2761 41.1964C27.4631 41.64 28.1019 41.8195 28.5841 41.4284C29.6566 40.5585 28.841 38.6847 27.1081 37.379C26.9258 37.2421 26.53 37.1239 26.5726 37.2394C26.6566 37.442 26.8163 37.5645 26.9961 37.6837C27.6461 38.1498 27.9723 38.5076 28.3217 39.1387C28.4505 39.3713 28.5023 39.6281 28.5023 39.6281C28.3917 39.4766 28.1352 39.4231 27.8925 39.3926C27.8925 39.3926 27.763 39.2632 27.6877 39.147C27.1634 38.3374 26.4103 37.8581 25.9443 37.8384C25.604 37.824 25.1593 38.0717 25.0681 37.8031C24.8518 37.3477 25.0283 36.1056 25.459 35.7704C25.7688 35.5292 25.5892 35.4356 25.0858 35.6167C24.7533 35.7363 24.5655 35.7311 24.5995 35.9116C24.7209 36.1397 24.6925 36.2964 24.4491 36.739C24.3318 36.9523 24.2226 37.3308 24.1692 37.5612C24.0717 37.9813 24.1125 38.0693 23.9297 38.06C23.8736 38.0571 23.7163 38.076 23.6171 38.0637C23.0663 37.9956 22.879 38.4532 22.517 39.0765C22.3054 39.4407 22.0874 39.2966 21.0395 38.8751C20.5654 38.656 19.9278 38.4691 19.4463 38.1987C18.9055 37.946 18.3135 37.9242 17.6386 38.0871C16.3861 38.3894 15.7493 38.6068 15.6365 38.068C15.5573 37.5479 15.5089 36.7925 15.5136 35.9626V35.9624ZM16.117 14.4532C16.3863 13.9559 16.4111 13.7344 16.511 13.4492H19.3271C19.3949 13.8311 19.5546 14.1399 19.6366 14.3514C18.443 15.3161 16.6979 14.9293 16.117 14.4521V14.4532ZM16.1502 31.585L16.2964 31.0986C19.4135 30.61 22.3173 29.1367 25.1827 28.6622C27.3739 28.1638 28.5942 30.7546 26.7048 31.623C26.2051 31.8526 25.5681 31.5867 25.2703 31.0022C24.7876 30.0543 26.0719 29.0338 26.7789 29.7818C27.3148 30.3488 26.9179 31.1873 26.232 31.0048C25.7855 30.887 25.7569 30.2137 26.2076 30.1026C26.3576 30.0721 26.5074 29.9974 26.4249 29.9438C25.6017 29.5952 25.2161 30.7668 25.9821 31.2534C26.5961 31.542 27.387 30.9927 27.2367 30.1841C27.0306 29.0754 25.4312 28.9731 23.7772 29.4204C20.9262 30.1913 18.372 31.4312 16.1502 31.5852L16.1502 31.585ZM16.4208 30.7425L16.6038 30.2359C19.0849 29.6869 21.6473 28.7674 23.8343 28.1653C25.3183 27.7594 27.019 27.3052 27.7422 28.9081L27.7328 29.369C27.7328 29.369 27.6583 29.2314 27.3062 28.9029C25.6362 27.0856 20.9217 30.0338 16.6287 30.714C16.5827 30.7214 16.4208 30.7425 16.4208 30.7425H16.4208ZM16.5738 36.0746C16.5541 36.8896 16.8019 37.6753 17.157 37.6131C17.404 37.5699 17.463 37.3892 17.3825 36.7566C17.1103 35.3635 17.683 34.0228 18.3198 33.0052C18.4935 32.731 18.6026 32.5901 18.6055 32.5308C18.6076 32.4845 18.5462 32.4602 18.4743 32.5172C17.4955 33.2935 16.6108 34.7658 16.5738 36.0745V36.0746ZM16.7049 29.8243L16.9154 29.3052C19.5295 28.8336 22.2401 27.6697 24.5912 27.1089C25.9717 26.7792 26.8441 26.873 27.596 27.6348C27.7442 27.8257 27.7603 27.8741 27.7603 27.8741V28.3336C26.776 27.1729 25.3235 27.4309 23.8462 27.8607C21.1212 28.6535 16.7183 29.9577 16.7049 29.8243V29.8243ZM17.0616 28.9257L17.2628 28.4586C19.52 27.9775 19.5716 27.8579 23.1863 26.6973C24.2735 26.3482 25.23 26.026 26.1366 26.09C26.653 26.1046 27.6756 26.5526 27.7572 27.0248L27.7603 27.3129C26.4948 26.2048 24.7632 26.6963 23.319 27.1795C20.633 28.059 19.2158 28.4858 17.0616 28.9257V28.9257ZM17.3649 28.0874L17.5702 27.5154C19.874 26.9397 22.1131 26.2193 23.953 25.6096C24.6945 25.3639 25.4699 25.146 26.12 25.1686C26.9881 25.2847 27.2227 25.432 27.737 25.9462L27.7437 26.3916C27.7437 26.3916 26.7753 25.8365 26.2361 25.7858C25.1789 25.6863 24.3046 26.0223 23.1111 26.4009C20.1948 27.3259 19.2578 27.7969 17.3649 28.0875V28.0874ZM17.6899 27.1634L17.8351 26.6781C19.8572 26.0387 21.9235 25.4633 23.6715 24.8302C24.6188 24.4987 25.3566 24.3377 25.9847 24.3604C26.8513 24.4304 27.213 24.6768 27.6955 25.0544L27.6996 25.4837C27.2411 25.1425 26.5519 24.9196 26.0599 24.9091C25.3392 24.8987 24.6359 25.1269 23.8872 25.345C21.4582 26.0522 19.8463 26.7719 17.6899 27.1634V27.1634ZM17.9263 36.591C17.9526 36.7114 18.0187 36.8083 18.1436 36.7852C18.2213 36.7708 18.2887 36.6373 18.2503 36.4929C17.8493 35.1692 18.7419 34.0209 19.267 32.9876C19.3064 32.9362 19.3249 32.8745 19.323 32.8324C19.3203 32.7782 19.2837 32.7561 19.2125 32.8246C18.4467 34.1476 17.6137 35.0175 17.9263 36.591V36.591ZM17.9186 26.3085L18.0222 25.791C19.9997 25.1488 22.1066 24.4927 23.9229 23.8247C25.029 23.4179 26.9209 23.2578 27.7396 24.1699L27.7256 24.6604C27.2786 24.3059 26.5824 24.0981 25.9629 24.079C25.2303 24.0602 24.5103 24.2319 23.7643 24.4948C21.5835 25.2635 19.7084 25.843 17.9186 26.3085H17.9186ZM18.0881 25.3861L18.1534 24.9008C20.2206 24.5319 22.1682 23.5744 23.9131 23.0217C24.7298 22.7362 25.7341 22.5381 26.5016 22.6401C27.043 22.7121 27.7533 23.252 27.7639 23.3518C27.7645 23.355 27.7637 23.3579 27.7629 23.36L27.7598 23.6876C27.7525 23.6754 26.7245 23.1986 26.1008 23.1644C25.3939 23.1255 24.6238 23.2957 23.8638 23.5288C21.7779 24.2331 19.9024 24.9438 18.0881 25.386L18.0881 25.3861ZM18.1296 37.3468C18.1606 37.4296 18.3791 37.3808 18.6822 37.2311C18.9365 37.1054 18.9974 36.9956 19.1908 37.0572C19.6318 37.1977 19.7194 36.9972 19.3287 36.7348C19.0228 36.5382 19.0299 36.516 19.423 36.3299C19.9139 36.0833 20.1405 36.1993 19.8206 36.5734C19.5783 36.8569 19.7583 36.9293 19.9503 37.0395C20.2026 37.1845 20.4293 37.1624 20.4096 36.9035C20.3983 36.7546 20.4669 36.6156 20.5952 36.4986C20.8466 36.2694 21.162 35.8302 21.2359 35.4091C21.2386 35.2717 21.1055 35.3163 20.8782 35.6401C20.3504 36.4118 20.2551 36.4774 20.2675 35.7294C20.2788 35.5398 20.1436 35.2431 20.0871 35.0748C19.7596 34.0985 19.7857 34.0511 19.8958 33.584C19.9323 33.4283 19.9978 33.2702 19.9352 33.2019C19.8385 33.0965 19.7745 32.9783 19.6304 33.1111C19.5253 33.2079 19.445 33.3878 19.3188 33.6068C18.6657 34.7405 18.5093 34.8439 18.4743 36.1768C18.4703 36.3294 18.55 36.4074 18.551 36.4971C18.5537 36.7148 18.4999 36.8289 18.298 37.0489C18.1594 37.1999 18.1109 37.2971 18.1296 37.3468V37.3468ZM18.1534 22.5192C19.9677 22.0045 21.8007 21.3167 23.4708 20.7252C24.8492 20.2759 26.8926 19.5883 27.7722 20.8597L27.7639 21.2002C26.9304 20.5802 26.2132 20.4967 25.1734 20.7164C22.028 21.4452 20.2183 22.8295 18.185 22.9817L18.1534 22.5192ZM18.1767 24.662L18.2068 24.0925C20.3442 23.7068 21.8954 22.5928 24.5035 21.9768C25.6374 21.6669 26.9475 21.4658 27.7452 22.5514V22.8779C27.7452 22.8779 26.8435 22.3653 26.3144 22.3328C25.3627 22.2745 24.3357 22.6415 23.2179 22.9755C21.4967 23.4897 19.8487 24.3588 18.1767 24.662V24.662ZM18.2068 23.8397L18.2135 23.3316C20.7364 22.7692 22.5375 21.5997 25.317 20.9889C26.4741 20.7716 27.1898 20.9578 27.7437 21.6778L27.7339 22.0297C27.7339 22.0297 27.6381 21.9769 27.4062 21.8423C26.237 21.2001 25.1572 21.5521 23.9453 21.8742C21.6809 22.476 19.885 23.5789 18.2068 23.8397H18.2068ZM19.2695 35.2378C19.4943 35.3235 19.8056 35.3971 19.9067 35.6956C19.9272 35.7561 19.8803 35.7978 19.8616 35.7922C19.6999 35.7951 19.3694 35.6844 19.1959 35.5939C19.1187 35.5649 19.1091 35.5149 19.0948 35.4454C19.077 35.2286 19.086 35.1855 19.2695 35.2378V35.2378ZM19.2751 34.7515C19.3461 34.6014 19.5563 34.4657 19.6262 34.5635C19.6993 34.6942 19.792 34.9202 19.7957 35.1355C19.8028 35.2301 19.7633 35.2336 19.677 35.1957C19.539 35.1318 19.414 35.0133 19.2974 34.9352C19.217 34.8812 19.2645 34.774 19.2751 34.7515ZM21.5807 36.8392C21.5895 36.9595 21.6996 36.9627 21.8591 36.7026C22.0778 36.346 22.653 36.5218 22.6466 36.9539C22.6437 37.1428 22.5609 37.2715 22.2049 37.7517C21.9118 38.1469 21.8887 38.519 22.2857 38.6035C22.5226 38.6539 22.6277 38.5753 22.5657 38.3237C22.5383 38.2125 22.6039 38.1471 22.7093 37.9962C22.899 37.6713 23.1775 37.3525 23.0971 36.9975C22.8642 36.1567 22.03 35.9817 21.6859 36.5272C21.6068 36.6526 21.5754 36.767 21.5807 36.8392ZM22.8036 34.8506C22.8731 34.9009 22.9792 34.8445 23.0058 34.6616C23.1804 34.133 23.8061 33.9439 24.0686 34.4213C24.206 34.6819 24.1175 35.0985 23.7435 35.6006C23.0754 36.4978 23.0333 37.5972 23.7093 37.4538C23.8733 37.4189 23.8957 37.3489 23.9856 36.6917C24.0587 36.158 24.2286 35.9174 24.3548 35.6847C24.5537 35.318 24.6361 34.9949 24.628 34.7213C24.5558 33.4639 23.014 33.5846 22.7528 34.3637C22.6865 34.5405 22.7441 34.6977 22.8036 34.8506V34.8506ZM27.2476 51.1358C27.2411 50.8687 27.4532 50.7465 27.6343 50.6167C28.3127 50.1313 28.9847 49.7821 29.7552 49.2868L30.4753 49.3532C30.4753 49.3532 30.4469 49.483 30.482 49.5557C30.5509 49.6983 30.7759 49.7827 31.0751 49.864C31.3352 49.9943 31.9272 50.7633 32.2452 51.0574C32.2811 51.1117 32.3404 51.1569 32.3763 51.1576C32.4928 51.1546 32.4145 50.8245 32.1627 50.6063C31.8765 50.2857 31.9749 50.1486 32.3405 50.1589C32.7921 50.1273 32.566 49.8534 32.1249 49.8396C31.7764 49.8044 31.564 49.684 31.369 49.4415C31.001 48.9838 31.094 49.0599 30.5831 49.0812C29.692 49.1183 28.9595 48.7765 29.4452 48.5528C29.6177 48.4734 29.8133 48.3805 29.822 48.1806C29.8283 48.0391 29.9677 47.9689 30.3125 47.891C30.8703 47.7752 31.2295 47.6135 31.7433 47.4658L34.1633 51.7151C33.3001 52.4553 31.8612 52.9905 30.9237 53.2666C30.4567 53.4029 29.9236 53.4194 29.8495 53.2977C29.7764 53.1776 29.8546 53.1219 30.1336 53.1446C30.3661 53.1635 30.5463 53.1699 30.5437 53.0709C30.4691 52.7837 30.9069 52.7726 31.0098 52.802C31.0785 52.8217 31.1269 52.857 31.1642 52.8726C31.3338 52.9434 31.3107 52.7585 31.313 52.5669C31.3089 52.3974 31.4123 52.3538 31.5738 52.3618C31.753 52.3571 31.7181 52.1208 31.5821 51.9865C31.4578 51.8639 31.3117 51.8899 31.2093 52.0561C31.0623 52.2948 30.7006 52.5205 29.4545 53.0766C28.731 53.3995 28.2175 53.3036 28.2232 52.9188C28.2312 52.652 28.9663 52.3411 29.5079 52.0898C29.6478 52.0249 29.8042 52.1879 29.8796 52.245C30.0744 52.3927 30.1361 52.3701 30.1393 52.1511C30.1423 51.946 30.1239 51.8589 30.3783 51.7353C30.4741 51.6887 30.6203 51.6551 30.7132 51.6715C30.9938 51.7772 31.0616 51.5598 30.9538 51.3491C30.8425 51.0836 30.6043 51.086 30.2145 51.4908C29.7843 51.7516 29.8142 51.6833 29.5245 51.4363C29.4222 51.3847 29.3591 51.4156 29.3575 51.5246C29.4537 51.8378 28.8862 52.1789 28.6919 52.0857C28.6083 51.9897 28.3061 51.7276 28.3642 51.9814C28.5053 52.4971 27.7456 52.8109 27.4881 52.5072C27.2596 52.0541 27.3308 51.9468 28.7328 51.2489C29.1682 51.0322 29.6362 50.7712 29.6841 50.7392C29.7321 50.7071 29.8605 50.6932 29.9641 50.6945C30.2178 50.7249 30.2753 50.6172 30.1746 50.3981C30.135 50.2336 29.9989 50.0849 29.8697 50.2933C29.4476 50.5366 29.3801 50.6227 29.273 50.489C29.0294 50.1847 29.039 50.3169 28.9708 50.6577C28.9204 50.8245 28.8339 50.9092 28.7302 50.9551C28.3327 51.1312 27.7719 51.4433 27.6576 51.4742C27.366 51.5774 27.2349 51.3909 27.2476 51.1358V51.1358ZM27.4404 31.6478C27.6727 31.1007 27.8927 30.6152 28.103 30.1788C30.7759 31.5323 31.7381 33.1207 32.9243 35.9131L34.1182 35.6536C33.0041 32.6794 31.6703 30.7869 29.0786 29.2943C29.1045 27.4832 29.1567 20.1474 29.1336 20.1397C32.5555 23.132 37.7165 25.491 41.7406 25.7489C42.5244 25.8122 42.1475 25.7032 42.3814 26.0479L43.0309 26.5899L42.3912 27.0155C42.3912 27.0155 41.9967 27.3232 42.3254 27.518C47.9369 28.0637 54.336 27.4863 58.7962 24.7975C58.8279 25.2745 58.8409 25.7499 58.5691 26.2068C56.1741 27.2584 53.2155 27.8781 50.9976 28.1471C48.1903 28.4876 45.0239 28.4398 42.3352 28.0931L42.3104 28.2722C45.8047 28.7963 49.5211 28.6188 52.7695 28.1378C54.4642 27.8909 57.1149 27.0959 58.3384 26.5494C58.6765 26.3984 58.7637 26.281 58.8138 26.4243C59.0911 29.7009 60.1903 31.2068 61.9456 32.3839C61.6372 32.8685 61.2574 33.4618 61.0669 34.1477C58.396 32.6731 56.9648 30.3014 56.4058 28.3168C56.0639 28.3844 55.7233 28.4322 55.5135 28.7612C55.5652 28.7498 56.1722 28.6047 56.2969 28.6366C56.9989 31.3705 59.6921 33.7768 61.0809 34.3922L61.212 46.4074C52.6197 37.5005 40.5269 37.1454 30.3908 44.4126L29.8998 43.5769C38.335 37.9771 46.4623 38.0342 51.9048 39.7138C55.7636 40.9047 58.7113 43.0415 60.3961 44.6654C60.3961 44.6654 60.4861 38.151 60.366 34.9087C59.6413 34.4377 59.0495 33.9997 58.3654 33.3665C58.3654 33.3665 59.9654 35.0141 60.2431 34.9715C60.2458 37.9763 60.4193 41.075 60.2089 44.0757C55.9827 40.5642 51.6197 38.8332 47.5153 38.5329C46.9815 38.5218 47.2802 38.4894 47.084 38.3139L46.2187 37.7595L47.1177 37.3152C47.2158 37.0131 47.0577 36.4191 47.1493 36.1669C41.6068 34.9315 34.9154 36.18 30.5499 37.8057C30.269 36.9205 30.5334 35.9466 29.99 34.8749C29.9126 34.8075 29.8048 34.6855 29.7293 34.5474C29.2419 33.2132 27.4144 31.6478 27.4404 31.6478H27.4404ZM27.499 40.874C27.499 40.6128 27.7118 40.4011 27.9744 40.4011C28.237 40.4011 28.4503 40.6128 28.4503 40.874C28.4503 41.1352 28.237 41.3469 27.9744 41.3469C27.7118 41.3469 27.499 41.1352 27.499 40.874ZM28.0387 29.8269L28.0387 17.972C32.9668 22.5266 37.1298 24.6133 42.7614 24.9418C48.1246 25.2545 53.023 23.8977 58.9165 19.7769L59.4831 20.6287C48.7768 27.6683 37.4058 27.3537 28.7862 19.4971L28.8013 29.437C31.312 30.7023 32.8422 32.8097 33.7849 35.5067L32.9964 35.7418C31.9957 32.6423 30.3369 31.0741 28.0387 29.8269V29.8269ZM28.7002 47.9252C28.76 47.7887 29.4839 47.8664 29.4846 48.0514C29.4851 48.254 28.8717 48.5177 28.7494 48.3597C28.6394 48.2175 28.6378 48.0674 28.7002 47.9252ZM29.0216 42.18C29.2391 42.0581 29.3579 41.894 29.5094 41.744C29.4918 41.9874 29.3693 42.2742 29.2487 42.4972C29.1578 42.3462 29.1328 42.2804 29.0216 42.18V42.18ZM30.0927 41.5249L30.6572 40.0575L32.2436 40.3212L31.6505 41.8021L30.0927 41.5249ZM30.6951 37.9282C35.8026 35.9522 42.0946 35.5213 47.0389 36.2936L47.0197 36.8085C38.6416 35.9639 34.4024 37.6238 30.7158 39.0925C30.7158 39.0925 30.568 39.089 30.5245 39.0396C30.3777 38.6443 30.3892 38.2336 30.6951 37.9282V37.9282ZM30.497 44.6124C44.1816 34.852 55.8838 41.0736 61.3557 46.762L61.4184 47.9263C60.5452 46.967 59.6404 46.1966 58.6759 45.3869C55.3622 47.7831 51.77 50.446 48.9 52.6852C48.9 52.6852 49.3615 53.4603 49.419 53.4571C49.4493 53.4542 49.6022 53.3949 49.5683 53.3808C49.4886 53.3476 49.1541 52.7532 49.1541 52.7532L58.5064 45.6667C58.5064 45.6667 58.9689 46.051 59.1145 46.1697C59.2965 46.7203 61.2047 48.2524 61.1654 48.3275C60.2406 49.528 56.3203 53.1481 55.1185 54.5425L44.2373 54.56C43.8019 54.4157 42.1243 50.5563 35.8648 47.8301C35.0923 46.4593 34.677 44.9404 34.0052 43.528C34.0052 43.528 33.4367 43.8873 33.281 44.0631C33.7498 43.8473 33.8389 43.8093 34.0389 44.2983L38.2205 54.4993L37.376 54.4802C36.5803 53.4574 31.6594 46.6929 30.497 44.6124V44.6124ZM30.8088 50.4675C31.0428 50.8183 31.8516 51.5799 31.9237 51.617C32.0971 51.706 32.1328 51.6138 32.0917 51.58C31.7746 51.1628 31.4189 50.7781 31.1461 50.3233C31.0448 50.1528 30.7832 49.9534 30.7132 49.9522C30.6201 50.0205 30.7062 50.3137 30.8088 50.4675V50.4675ZM32.5687 40.1893L33.1659 38.8683L34.7372 39.2067L34.113 40.4925L32.5687 40.1893ZM35.0488 39.1605L35.8741 38.0004L37.1437 38.548L36.3951 39.6469L35.0488 39.1605ZM35.8389 42.5548C38.8319 43.7507 40.8346 44.7328 44.0211 47.0677C45.9137 45.6303 51.3735 41.5098 51.3169 41.363L51.3143 41.3603C45.7607 39.5836 40.4563 40.1171 35.8388 42.5548L35.8389 42.5548ZM36.082 48.1043C36.0848 48.0908 38.0357 48.9968 40.0215 50.5466C41.7898 51.9266 43.7834 54.3562 43.7671 54.3634L42.7463 54.4273L43.1196 54.1771L42.7655 53.7177L42.3378 54.0385L42.652 54.4392L42.2409 54.4642C40.3906 51.9182 38.2652 50.8197 36.6709 49.7867L36.4755 49.3273L36.6424 48.8046L36.1872 48.5487L36.082 48.1043ZM36.7202 49.5162L37.1671 49.7389L37.4335 49.2229L36.9649 48.9535L36.7202 49.5162ZM36.7705 50.1236C38.7966 51.306 40.677 52.7006 42.1698 54.6583L38.5404 54.6801L36.7705 50.1236ZM37.3843 49.8531L37.8586 50.1225L38.1443 49.6143L37.6756 49.3449L37.3843 49.8531ZM37.5455 38.5153L38.3667 37.4429L39.5311 37.9661L38.8302 39.0396L37.5455 38.5153ZM37.6357 22.8805C43.194 24.7258 48.4034 24.0406 53.2206 21.8735C50.4765 20.5873 47.6462 19.3215 45.508 17.2723L37.6357 22.8805ZM38.0593 50.2461L38.5295 50.5367L38.8312 50.0478L38.3765 49.7555L38.0593 50.2461ZM38.3325 42.4152C41.8757 41.2907 45.3576 40.7833 49.1406 41.854L43.904 45.8894C42.2883 44.5395 40.3844 43.418 38.3325 42.4152ZM38.7524 50.7023L39.2071 51.0221L39.5254 50.5326L39.0857 50.2175L38.7524 50.7023ZM39.4041 51.1716L39.8292 51.5069L40.1817 51.0517L39.7581 50.7163L39.4041 51.1716ZM39.8577 37.9012L40.7198 37.0068L41.8635 37.6713L40.9443 38.5303L39.8577 37.9012ZM40.0832 51.7228L40.485 52.0847L40.866 51.6471L40.4642 51.2853L40.0832 51.7228ZM40.2501 22.3775L45.3317 18.3774C47.1612 19.843 48.8937 20.8159 50.5808 21.7686C46.7303 23.3703 43.2588 23.2292 40.2501 22.3775V22.3775ZM40.6929 52.2746L41.0796 52.651L41.4772 52.2393L41.0905 51.863L40.6929 52.2746ZM41.3046 52.8591L41.667 53.2599L42.0646 52.8861L41.7053 52.4854L41.3046 52.8591ZM41.5032 42.7302L44.0336 44.5875L46.6329 42.4816C46.6329 42.3506 43.1861 42.2367 41.5032 42.7302ZM41.8541 53.469L42.1973 53.8838L42.611 53.5261L42.2683 53.1104L41.8541 53.469ZM42.0973 37.7268L43.0252 36.9378L43.9543 37.6251L43.0688 38.3481L42.0973 37.7268ZM42.6836 21.765C44.1549 21.9928 45.8627 22.0439 48.0866 21.4945L45.4017 19.6476L42.6836 21.765ZM43.2357 26.6174L44.27 25.9675L45.2062 26.6906L44.2181 27.3768L43.2357 26.6174ZM44.3218 37.6417L45.1777 36.9674L46.0642 37.6796L45.2254 38.3004L44.3218 37.6417ZM45.3908 26.6428L46.2052 25.9228L47.1985 26.6537L46.3074 27.4121L45.3908 26.6428ZM45.4033 9.64696C45.675 9.63952 45.7241 9.63897 45.854 9.63924L45.9915 9.83286L46.3156 9.64079C46.481 9.64345 46.6082 9.64477 47.0057 9.64689C48.208 11.1404 49.2738 12.6741 52.6778 14.4256L52.9355 14.9581L52.8409 14.9264L52.6083 15.4151L53.094 15.6651L53.1598 15.4948C53.314 15.7635 53.2835 15.7657 53.543 16.2903C53.543 16.2903 52.6207 15.8954 52.0785 15.6067C49.6663 14.2261 47.2646 12.4381 45.4033 9.64709V9.64696ZM46.1752 10.083L46.492 10.519L46.9305 10.2039L46.6138 9.76739L46.1752 10.083ZM46.7133 10.803L47.055 11.2203L47.4759 10.8819L47.1343 10.4635L46.7133 10.803ZM47.2338 11.4321L47.6004 11.8292L47.9995 11.4648L47.633 11.0682L47.2338 11.4321ZM47.2654 9.51355L50.6175 9.43621L52.5715 14.0561C50.2871 13.04 48.5296 11.5152 47.2654 9.51355V9.51355ZM47.4852 26.6703L48.3313 25.7505L49.4724 26.336L48.6076 27.2423L47.4852 26.6703ZM47.845 12.083L48.2359 12.4552L48.6102 12.0669L48.2193 11.6942L47.845 12.083ZM48.5008 12.6945L48.912 13.0423L49.2619 12.6332L48.8508 12.2855L48.5008 12.6945ZM49.1665 13.2489L49.5942 13.5806L49.9275 13.1565L49.4998 12.8248L49.1665 13.2489ZM49.7622 26.2857L50.6243 25.2491L51.7913 25.8751L50.8265 26.8862L49.7622 26.2857ZM49.814 13.7451L50.2625 14.0478L50.5667 13.6034L50.1199 13.3008L49.814 13.7451ZM50.4838 14.1921L50.9442 14.4744L51.2283 14.0166L50.7679 13.7342L50.4838 14.1921ZM50.9374 9.5883H51.7462C51.7462 9.5883 54.591 17.2169 56.1611 19.961C56.1611 19.961 56.062 20.0276 55.526 20.3801C54.0808 16.7504 52.172 12.9525 50.9374 9.5883V9.5883ZM51.1505 14.6104L51.6192 14.8793L51.8898 14.4137L51.4211 14.1443L51.1505 14.6104ZM51.883 15.0143L52.3517 15.2832L52.6223 14.817L52.1537 14.5481L51.883 15.0143ZM52.0603 25.7759L52.838 24.6521L54.1843 25.1702L53.3668 26.2857L52.0603 25.7759ZM53.3476 9.66565L80.9577 9.66565V21.9238L75.8145 24.7435C75.4141 24.6604 75.1317 24.785 74.8813 24.9226C74.7589 24.9973 74.5915 25.0526 74.437 25.0695C74.1826 25.0974 74.1823 25.0974 73.8465 25.4676C73.776 25.5454 73.7327 25.5603 73.6594 25.5314C73.348 25.4089 72.7113 25.4807 71.9512 25.723C70.9912 26.0291 71.0039 26.1081 69.7199 25.5382C69.4517 25.4193 69.0935 25.2754 68.7644 25.1208C67.3111 24.4171 66.917 24.3087 66.1423 25.5164C65.9241 25.8564 65.7348 25.9564 65.3003 25.8714C64.9585 25.8046 64.7403 25.7907 64.5476 25.954C64.4226 26.0599 64.4019 26.156 64.3055 26.1294C64.2399 26.1114 63.9556 26.0324 63.7166 26.0588C63.0724 26.1299 62.1309 25.3864 61.7911 24.715C61.7667 24.6665 61.735 24.5674 61.735 24.5674C61.735 24.5674 61.8567 24.5161 61.9472 24.4647C63.1789 23.7653 62.6797 22.0244 61.2105 21.9088C60.822 21.8783 60.671 21.9314 60.671 21.9314C59.3988 19.8091 58.5312 18.4833 57.6584 16.9717C58.812 16.3126 59.835 16.5451 60.8336 16.6827C61.0072 16.6694 61.0383 16.5221 61.041 16.2996C61.0455 15.9229 60.6613 15.3809 60.3033 15.263C59.9988 15.1628 59.8016 15.0985 59.803 15.0076C59.8056 14.9162 59.9271 14.8717 60.366 14.6448C61.2791 14.1726 61.395 14.0995 61.9254 13.658C62.3484 13.3059 62.4043 13.0059 62.0892 12.6608C61.8701 12.4209 62.0604 12.4285 62.1711 12.2243C62.4124 11.8718 62.1966 11.3419 61.857 11.3289C61.5721 11.318 61.3579 11.3158 61.3391 11.0288C61.3181 10.7093 60.9033 10.5703 60.3115 10.6603C60.0001 10.7076 59.9502 10.7171 59.8362 10.6224C59.4639 10.3133 59.2066 10.2728 58.6868 10.4428C57.2052 10.9274 56.2076 11.6298 54.8603 12.2897C54.8603 12.2897 53.9036 10.6607 53.3476 9.66571V9.66565ZM54.5011 25.0248L55.272 23.655L56.7464 24.0505L56.0413 25.4079L54.5011 25.0248ZM58.6961 10.7002C59.3337 10.4082 59.7556 10.6935 59.2415 11.0708C59.0417 11.2174 58.9143 11.1424 58.5282 11.0708C58.4583 11.0575 58.4852 11.1224 58.4654 11.2437C58.4861 11.4345 58.3145 11.5263 58.0237 11.5193C57.6072 11.3988 57.8324 11.5655 57.8532 11.6444C57.8505 11.7954 57.7597 11.8287 57.5867 11.9133C57.3428 11.9661 57.4133 12.0731 57.5742 12.2289C57.7073 12.3576 57.7043 12.3577 58.0159 12.0981C58.5045 11.6497 59.6073 11.0283 60.2789 10.8673C60.4641 10.8229 60.6116 10.8389 60.7102 10.8726C61.1689 11.0752 61.171 11.3572 60.5303 11.6647C60.4213 11.7171 60.2455 11.8202 60.1394 11.8932C59.9675 12.0114 59.8198 12.0846 59.5463 12.0806C59.3172 11.9896 59.3122 11.9749 59.2809 12.0536C59.2034 12.2486 58.8493 12.595 58.5323 12.6105C58.2102 12.6265 58.039 12.6809 58.23 12.9329C58.4479 13.2202 58.536 13.0977 58.8153 12.8145C59.1706 12.5177 59.4781 12.4998 59.7345 12.6759C59.8206 12.7048 59.8452 12.6927 59.8346 12.5835C59.801 12.2388 60.24 11.9038 60.5738 12.1434C60.7694 12.2537 60.8199 12.2405 60.8253 12.0847C60.8282 12.0035 60.8123 11.8694 60.8497 11.8034C61.0418 11.7015 61.3106 11.4887 61.5304 11.4908C61.8386 11.591 61.9634 11.7465 61.9622 11.9108V11.9135C61.9591 12.0999 61.7947 12.2974 61.5548 12.4387C60.9988 12.7663 60.0642 13.1647 59.549 13.4188C59.4191 13.4828 59.3032 13.4851 59.2416 13.481C58.9395 13.501 58.8256 13.6018 58.9616 13.78C59.0954 13.9553 59.3192 14.1989 59.3551 13.9135C59.5725 13.6266 59.8917 13.4664 60.0861 13.644C60.2292 13.7748 60.3218 13.7239 60.3277 13.6185C60.3335 13.2165 61.5362 12.6172 61.7953 12.8996C62.1449 13.2807 61.7123 13.7024 59.9222 14.5996C59.1317 14.9949 58.2666 15.0133 58.6951 14.6743C58.8031 14.5592 58.7468 14.5826 58.4064 14.4475C58.1505 14.346 58.0295 14.2626 57.6552 13.8755C57.1993 13.4041 56.8388 13.1183 56.7599 13.1078C56.6089 13.0876 56.7501 13.3624 57.0129 13.563C57.4529 14.011 57.5702 14.0275 56.9868 14.0234C56.4593 14.0197 56.3627 13.9928 56.3663 14.0873C56.3719 14.2346 56.7892 14.3134 57.2927 14.3821C57.7463 14.4643 57.9751 14.6985 58.2275 15.0886C58.2967 15.1957 58.3448 15.1974 58.5447 15.1768C59.1855 15.1048 60.3799 15.4671 60.0844 15.6321C60.018 15.6552 59.8625 15.7272 59.7537 15.7655C59.5851 15.7963 59.3947 15.9017 59.382 16.0629C59.2312 16.2632 59.1497 16.2629 58.5976 16.3323C58.2197 16.3955 57.8727 16.5485 57.499 16.6282C57.499 16.6282 55.839 13.9745 55.0439 12.5874C56.1886 11.8071 57.5737 11.2067 58.6961 10.7002ZM55.5286 54.5415L59.0855 50.9432C59.0855 50.9432 63.6747 50.8727 65.5507 50.8762C67.4268 50.8799 69.3026 50.9071 69.6515 50.8996C70.0003 50.8919 71.4847 50.9185 73.0088 50.9297C76.2016 50.9534 75.8074 50.6628 76.42 51.2531L79.4751 54.5021L55.5286 54.5415ZM56.8583 24.0271L57.6645 22.2882L59.3602 22.6126L58.5717 24.2732L56.8583 24.0271ZM57.2446 12.8907C57.8136 13.3192 58.0558 13.9062 58.5733 14.2668C58.669 14.3228 58.7082 14.2639 58.707 14.1786C58.707 14.1037 58.6213 13.913 58.3861 13.6553C57.952 13.1795 57.2388 12.5527 57.103 12.5507C57.0354 12.6704 57.1364 12.8093 57.2446 12.8907V12.8907ZM58.9217 26.2488C58.936 25.75 59.0476 25.9264 59.3411 26.3807C59.9693 27.3531 61.7754 28.7178 62.4143 28.9382C62.5653 28.9903 62.6518 28.9318 62.6413 28.8359C61.3542 28.0359 59.9378 26.9793 59.3452 25.7505C59.0258 25.0883 58.9629 24.253 59.1648 23.8423C59.3128 23.5414 59.3638 23.6168 59.3986 24.1507C59.526 25.4355 60.739 26.9412 62.0223 27.6867C62.7329 28.1231 62.5698 27.8165 61.8844 27.3181C60.7146 26.4674 59.593 24.7786 59.6817 23.7313C59.7447 22.672 60.5698 22.0622 61.2774 22.1984C61.7054 22.2808 62.142 22.5829 62.267 23.1753C62.4812 24.1898 60.8652 24.8539 60.5604 23.9254C60.4825 23.6879 60.5843 23.4197 60.5843 23.4197C60.7867 24.3942 61.86 23.9294 61.8829 23.4048C61.8985 23.0444 61.6891 22.6156 61.1193 22.5976C60.6945 22.6083 60.2789 22.9559 60.269 23.6535C60.2574 24.4804 60.8559 25.7493 61.9581 26.5193C62.8004 27.0657 62.5159 26.5628 61.9538 26.1554C61.4579 25.796 60.764 24.6759 60.7894 24.5874C60.9589 24.6156 61.0895 24.6715 61.3608 24.6268C61.2621 24.6446 62.4805 26.3733 63.3873 26.2696C64.0455 26.2033 64.2467 26.2989 64.2385 26.9803C64.2324 27.4897 64.0526 28.137 63.8175 28.3252C63.585 28.5193 63.5122 28.7365 63.9042 28.6403C64.5403 28.4841 64.6448 28.6715 64.5242 28.305C64.4409 28.052 64.6454 27.8277 64.8264 27.5741C65.0256 27.2951 65.1107 26.942 65.0955 26.5209C65.0841 26.2063 65.1029 26.0642 65.4013 26.1144C65.6118 26.1498 65.8036 26.1901 65.9416 26.1296C66.1659 26.031 66.3973 25.6372 66.7269 25.1922C67.1162 24.6666 67.1394 24.7637 69.7349 25.8835C70.8246 26.3537 71.048 26.356 71.8526 26.074C73.1241 25.6285 73.6337 25.5584 73.8112 26.3932C73.8658 26.8659 73.8924 27.3532 73.8915 27.8472C73.8889 29.3293 73.646 30.8748 73.2166 32.2917C68.6733 33.1854 65.6189 34.755 63.8399 34.7484C64.4162 34.102 64.5871 33.0941 63.6621 32.4141C63.0964 31.9838 62.3097 32.417 61.9798 32.1966C61.3646 31.7792 60.2272 30.7051 60.2648 30.5252C60.2922 30.3944 60.3497 30.4157 61.0601 30.8761C61.7999 31.3555 62.4707 31.7231 62.6345 31.5649C62.7041 31.4977 62.5571 31.4618 61.9321 31.1039C60.4651 30.264 59.558 29.5257 59.6759 29.2332C59.7311 29.0962 59.8528 29.1667 60.679 29.7886C61.6122 30.491 62.1959 30.6863 62.4541 30.6165C62.6526 30.5629 62.3317 30.4539 61.7584 30.1623C61.1516 29.8517 60.4756 29.2901 59.8262 28.8361C59.5913 28.6921 59.4554 28.5074 59.3482 28.2708C59.2718 28.0955 59.1469 27.8163 59.1678 27.6541C59.1787 27.5708 59.2278 27.6284 59.34 27.7424C60.2679 28.6384 61.3023 29.4085 62.2955 29.8457C62.4257 29.9132 62.611 29.8168 62.4743 29.7061C61.288 29.0357 59.8083 28.1023 59.1554 27.0888C59.0074 26.7928 58.924 26.5317 58.9217 26.2489V26.2488ZM59.4479 50.6997L61.5698 48.5082L61.5086 43.811C62.7722 44.5853 63.7757 44.6028 64.9602 44.1017C66.8954 43.2571 71.3128 41.9539 71.298 42.0539C71.298 42.0539 71.3933 42.091 71.4172 42.1977C71.5045 42.587 71.8825 42.8347 72.3369 42.7235C72.4832 42.7022 72.4486 42.7033 72.6386 42.8024C73.2945 43.1846 74.0067 42.7292 74.0067 42.7292L80.9577 46.8461V54.4517H79.7731L75.9565 50.6997H73.0948C73.6417 49.266 75.6513 48.0962 77.1821 47.7025C74.5089 44.0995 68.5799 43.9306 65.5684 47.864C66.8765 47.8962 69.4473 48.943 69.638 50.6997H59.4479ZM59.6635 22.4932C59.7113 22.1907 59.945 21.3809 60.127 21.7608L60.2908 22.1029C60.1196 22.3271 59.8916 22.4105 59.6635 22.4932ZM60.112 15.8536C60.2053 15.8377 60.2963 15.8369 60.3115 15.8132C60.4063 15.6656 60.6825 15.9123 60.6791 16.1417C60.6791 16.3997 60.0318 16.3578 59.8471 16.2258C59.557 16.0186 59.9452 15.8823 60.112 15.8536V15.8536ZM60.7377 23.2989C60.7377 23.0482 60.9423 22.8452 61.1944 22.8452C61.4465 22.8452 61.6506 23.0482 61.6506 23.2989C61.6506 23.5495 61.4465 23.7525 61.1944 23.7525C60.9423 23.7525 60.7377 23.5495 60.7377 23.2989ZM62.3282 32.5744C62.9438 32.3127 63.6847 32.5138 63.9379 33.2196C64.3764 34.4413 62.8084 35.3365 62.3256 34.1384C62.0759 33.5187 62.526 32.9295 63.0499 33.2087C63.4171 33.4044 63.3774 33.9552 62.998 34.0854C62.5942 34.1915 62.7847 34.3672 63.0582 34.292C63.9293 34.0648 63.7238 32.9518 62.9213 32.8625C61.9269 32.8625 61.6936 33.9452 62.252 34.591C62.6983 35.0914 63.5046 35.1437 64.2044 35.0187C65.658 34.8469 67.5434 34.0288 69.695 33.448C70.7694 33.158 72.0503 32.7379 73.155 32.5879L73.0311 33.0213C73.0311 33.0248 68.3836 34.3748 66.1148 35.148C64.2674 35.7356 61.9938 36.2494 61.5024 34.1005C61.3555 33.4584 61.8794 32.7651 62.3282 32.5744ZM61.4552 35.421H61.4677V34.8262C61.4677 34.8262 61.5041 34.8232 61.6999 35.0841C62.7831 36.5244 65.1699 35.6649 67.0044 35.121C69.9343 34.1733 72.9321 33.3262 72.9284 33.3379L72.6972 33.9344C70.7931 34.2611 67.1537 35.8014 64.4372 36.345C62.8045 36.4964 62.3251 36.5207 61.4552 35.421H61.4552ZM61.4578 38.2557L61.4687 37.8477C64.3963 39.4051 67.4256 37.0447 71.9113 36.113L71.7407 36.6684C68.415 37.4229 62.9651 40.3227 61.4578 38.2557ZM61.4687 38.9051V38.7338C62.5602 39.4528 63.937 39.3173 65.4248 38.9337C67.4256 38.4178 69.6268 37.4156 71.6013 37.0816C71.5058 37.2523 71.4601 37.4962 71.4059 37.6822C68.8912 38.267 66.418 39.3359 64.0759 39.8223C62.7936 39.9861 61.8335 39.7063 61.4687 38.9051V38.9051ZM61.4687 37.4294V36.9606C62.1254 37.3792 62.702 37.5518 63.588 37.4891C66.5707 37.3066 69.4655 35.7938 72.2136 35.2471L72.0223 35.7636C68.7398 36.3582 63.8352 39.306 61.4687 37.4294ZM61.4753 36.4156V35.9033C62.0231 36.4509 62.1811 36.8163 64.0851 36.6632C66.5304 36.4208 69.5859 34.8165 72.608 34.2536L72.3939 34.8137C72.3939 34.8137 71.9545 34.9615 71.7033 35.0146C69.2726 35.5594 66.5391 37.0416 63.6957 37.215C62.764 37.2541 61.8954 37.0948 61.4753 36.4156V36.4156ZM61.537 41.6106V41.2737C62.3618 41.962 63.486 41.928 64.6947 41.6334C66.6924 41.1465 69.1012 39.9689 71.1025 39.6754L71.0574 40.1649C68.9122 40.6548 66.8269 41.6076 64.6813 42.2262C64.197 42.3414 63.605 42.442 63.1695 42.4017C62.2566 42.3171 61.537 41.9408 61.537 41.6106V41.6106ZM61.5447 40.3985C62.4339 41.0602 63.3601 41.1545 64.5578 40.8522C67.0163 40.2317 69.162 39.2925 71.2019 38.8288L71.1133 39.3033C69.135 39.8588 66.6828 40.8023 64.6403 41.3702C63.3841 41.7195 61.837 41.5789 61.552 40.7993L61.5447 40.3985ZM61.5479 42.9654C61.9925 43.4381 62.7409 43.6003 63.5169 43.525C65.7098 43.3122 68.7514 41.7689 71.0874 41.2098L71.1994 41.7559C69.1486 42.2351 66.0198 43.3853 64.9395 43.7985C63.8362 44.3483 62.2023 44.1833 61.5557 43.3568L61.5479 42.9654ZM61.5532 42.1894C61.5532 42.1312 62.5043 42.7433 63.319 42.6908C63.7536 42.7065 64.2196 42.6592 64.6798 42.5361C66.891 41.7671 68.895 41.0094 71.0025 40.4214L71.0259 40.916C68.4039 41.5929 66.0544 42.9023 63.5673 43.2208C62.8559 43.2928 62.161 43.1744 61.56 42.5865L61.5532 42.1894ZM61.5559 39.9734V39.4787C62.1116 40.0197 62.9822 40.2638 64.0106 40.0845C65.0604 39.9014 66.7264 39.3619 68.1917 38.9145C69.8904 38.3958 71.3271 37.9782 71.3391 38.0258L71.253 38.5859C66.3862 39.6389 63.3618 41.9506 61.5559 39.9734ZM64.7121 29.2647C64.7235 29.7342 64.9748 30.1888 65.3502 30.3013C65.8084 30.4386 66.6447 30.3276 66.6447 29.4137C66.6447 29.1017 66.411 28.9046 66.3409 29.2953C66.089 30.6907 64.6343 29.7552 65.3839 28.771C66.1889 27.8842 66.1832 26.698 65.612 26.6838C65.4683 26.6809 65.4633 26.6886 65.4233 26.8987C65.3294 27.393 65.1031 28.1307 64.9599 28.4134C64.8756 28.5796 64.7971 28.7545 64.7851 28.8022C64.7312 28.9499 64.7083 29.1082 64.7121 29.2647V29.2647ZM66.0299 47.6345C69.2677 44.0849 73.911 44.7417 76.6052 47.47L76.0271 47.6683C75.1579 46.1604 70.3168 44.3155 66.7624 47.702L66.0299 47.6345ZM66.2419 26.9947C66.2549 27.6439 66.8589 28.1665 67.4949 27.7599C67.655 27.6575 67.7952 27.4042 67.7889 27.2937C67.7889 27.2778 67.7841 27.2646 67.778 27.2543C67.7568 27.2189 67.6138 27.2993 67.4524 27.4162C66.7201 27.956 66.5031 27.2087 66.8951 26.6797C67.2879 26.1774 67.251 25.4019 66.8391 25.5138C66.694 25.5532 66.623 25.5139 66.6188 25.7951C66.6151 26.0443 66.6013 26.1088 66.4467 26.3334C66.299 26.5482 66.2376 26.7783 66.2419 26.9947V26.9947ZM67.0113 47.7851C69.7261 45.1127 73.6619 45.7075 75.9219 47.728C74.8479 48.2455 73.897 48.8344 73.3148 49.6372C72.277 49.2049 71.1322 49.0189 69.5883 49.7514C69.3049 49.2376 68.5526 48.5238 67.0113 47.7851ZM68.0849 29.1666C68.0764 29.4631 68.2708 29.3377 68.4037 28.9927C68.5339 28.6548 68.8952 28.2354 68.9953 28.2369C69.0721 28.2369 69.0266 28.3444 69.1949 28.9532C69.2678 29.2174 69.4313 29.5889 69.5038 29.7454C69.6235 30.0038 69.6222 30.016 69.6101 30.4207C69.5894 31.1099 69.613 31.2148 69.9735 30.7316C70.7021 29.7552 71.1768 28.4523 70.8745 27.7614C70.7829 27.5519 70.839 27.5567 70.9264 27.4053C71.0406 27.2075 71.0923 27.046 71.0918 26.9392C71.0918 26.7353 70.9027 26.7319 70.6159 27.0575C70.4404 27.2568 70.499 27.2412 70.3877 27.2299C69.9126 27.1815 69.4777 27.2559 69.9668 27.45C70.0974 27.5018 70.2448 27.578 70.2265 27.654C70.182 27.7975 69.9165 27.7248 69.7822 27.7941C69.5455 27.9113 69.4877 27.7867 69.5609 27.5019C69.6136 27.2969 69.5022 27.2849 69.3602 27.1577C69.1116 26.935 68.9631 26.9718 69.0404 27.3145C69.0531 27.371 69.0369 27.4186 69.0268 27.4624C69.0021 27.5694 68.934 27.6672 68.7386 27.9218C68.4875 28.249 68.1526 28.7124 68.1015 29.0129C68.0911 29.0731 68.0861 29.1242 68.085 29.1666H68.0849ZM69.5349 28.5229C69.5318 28.4713 69.5349 28.4149 69.5583 28.3957C69.6512 28.3321 70.0958 28.5485 70.1581 28.6724C70.1945 28.7414 70.1379 28.8083 70.1089 28.8557C70.0847 28.8951 70.0201 28.8719 69.9658 28.8416C69.8227 28.7619 69.5474 28.6215 69.5474 28.6215C69.5474 28.6215 69.5381 28.5744 69.5349 28.5229L69.5349 28.5229ZM69.5909 28.8619L69.9698 29.0659C70.0503 29.1091 70.0798 29.1283 70.0803 29.1624C70.0803 29.1829 70.0702 29.2083 70.0543 29.2481C69.9839 29.4253 69.8394 29.7329 69.7277 29.6C69.5943 29.3827 69.5492 28.9301 69.5909 28.8619V28.8619ZM69.8439 49.9403C71.5198 48.9794 73.1848 49.7717 73.1043 49.8355L72.7808 50.6997L70.0829 50.6997L69.8439 49.9403ZM70.0331 31.1889C70.0379 31.2522 70.0815 31.2842 70.169 31.2507C70.239 31.2239 70.5382 30.8401 70.7294 30.5006C71.1707 29.7746 71.55 29.0997 71.5573 28.3251C71.56 28.067 71.5207 27.7969 71.4293 27.5112C71.3181 27.2187 71.0858 27.2547 71.1338 27.5263C71.1499 27.6184 71.1791 27.7813 71.198 27.8892C71.3149 28.5558 71.0734 29.3774 70.4671 30.373C70.3206 30.6134 70.1798 30.875 70.1311 30.9398C70.0625 31.0313 70.0283 31.1257 70.0331 31.189V31.1889ZM70.8849 31.7298C70.9027 31.888 71.197 31.693 71.4852 31.2196C72.2327 29.9921 72.7851 28.7506 72.7316 27.533C72.692 26.6328 72.6251 26.4853 72.4284 26.4824C72.0577 26.4771 71.8931 26.6282 71.984 27.465C72.0628 28.1893 71.9495 29.2384 71.6367 29.9613C71.2799 30.7859 71.196 30.9819 71.0426 31.2782C70.9222 31.5107 70.8769 31.6579 70.885 31.7298H70.8849ZM73.8767 30.5603C74.1265 29.0322 74.1193 27.2141 74.0289 25.6263C74.0108 25.3265 74.743 25.3088 74.743 25.3088C76.962 25.0979 78.7989 23.5339 81.2145 22.4512C80.9975 30.4028 81.232 38.4037 81.1694 46.4142C81.1694 46.4142 76.0713 43.5039 74.4667 42.6218C74.1139 42.4286 73.8644 42.4087 73.7181 42.5127C73.4917 42.6738 73.1085 42.6604 72.8871 42.48C72.7971 42.2842 72.6364 42.3627 72.4526 42.4479C71.9639 42.5903 71.6256 42.2224 71.4687 41.8374C70.7924 37.8615 73.2003 34.2483 73.8767 30.5603V30.5603Z" fill="#004C97"/>
<path d="M7.98307 17.9359C7.98307 17.9359 14.1614 21.0978 15.7837 22.2201C16.429 28.2034 13.3749 26.9364 13.4023 39.3032L8.0627 41.9915L7.98307 17.9359ZM14.1359 12.405L31.2253 12.3195L30.4706 13.1261L13.5372 13.3172L10.0664 9.71261L11.0832 9.69284L14.1359 12.405ZM16.0595 14.5867C17.7973 15.4452 19.9194 14.4868 19.9185 14.4869C19.795 14.9848 22.4432 16.3726 22.3668 16.4959C19.7476 18.6197 15.8448 18.9878 13.4261 16.3929C15.1073 15.7379 16.0595 14.5951 16.0595 14.5867V14.5867ZM27.9824 16.1719C29.6409 17.7856 30.9326 19.0653 32.7885 20.3443C32.9394 20.4491 41.7699 13.536 41.9246 13.6435C43.1099 14.7099 43.9808 16.1395 45.412 17.2517C45.412 17.2517 37.9487 22.9211 38.0143 23.0515C40.3499 23.6259 42.4644 24.0466 44.9058 23.937C51.1519 23.5871 54.9757 20.9328 54.9005 20.9123C45.9078 18.6573 40.1061 9.04723 41.0887 9.45719L45.0991 9.44727C44.8984 9.5522 47.6701 13.9922 53.6009 16.4813C53.9428 16.6249 55.326 20.8398 55.3784 20.8101C55.8434 20.6301 58.4913 18.7688 58.4913 18.7688C58.4913 18.7688 58.8435 19.5207 58.8423 19.6042C55.8254 22.0169 51.851 23.8375 48.0664 24.457C43.9901 25.2087 36.327 25.6946 27.9579 17.5665L27.9824 16.1719ZM38.528 40.5389C42.4978 39.267 46.6079 39.3017 49.4776 39.8865C54.6776 40.7789 58.4009 44.0468 61.2401 46.6679L61.2014 47.8196C59.4619 45.8623 57.7779 44.61 56.2877 43.8722L47.3715 50.6554L48.2118 54.5218C48.2118 54.5218 44.2232 54.4052 44.2232 54.5252C41.7219 51.5203 39.4581 49.3608 35.8139 47.8106C35.4606 46.8604 34.0949 43.7105 34.0949 43.7105C35.3461 42.7722 44.3943 48.0573 44.0081 47.0341C44.3949 46.5677 51.4 41.404 51.3855 41.3033C44.0567 38.9229 36.3603 41.245 30.9848 45.4328C30.6751 44.9575 30.434 44.5273 30.5066 44.5667C33.0092 42.7729 35.9972 41.2012 38.528 40.539L38.528 40.5389ZM42.2025 28.147C41.7847 28.4154 51.1466 29.6222 58.6405 26.4504C58.8705 26.7522 59.3739 29.3689 59.3739 29.3689L57.1301 30.0731L56.3701 28.2881L55.3183 28.6176C55.9942 30.0033 56.992 33.0041 60.0755 34.85C60.0755 34.85 60.1529 43.8192 60.1369 44.0102C60.1212 44.1962 58.179 42.1808 54.2471 40.2695C52.4512 39.3964 50.1275 38.7018 47.4011 38.5571C46.8624 38.5285 49.9339 36.5049 49.9339 36.5049C52.5292 37.0093 55.084 38.3582 57.639 39.7025C57.639 39.7025 57.7569 37.6399 57.7145 36.199C55.252 33.9582 53.9541 32.5532 52.7781 29.1746C48.8809 29.9483 48.4986 27.7608 47.264 36.2673C42.2402 35.3026 36.2207 35.7297 30.495 37.7849C30.3446 35.8158 30.2391 35.7316 29.9603 34.7072L32.0482 33.9972L32.9371 35.9184L34.1155 35.6077C34.115 35.6001 32.8277 31.3682 29.1154 29.2954L29.1047 20.0257C33.0056 23.6006 36.8639 25.0588 41.9649 25.8352C41.8281 26.5937 42.2025 28.147 42.2025 28.147H42.2025ZM75.8811 50.9446C76.8619 52.1102 79.416 54.4494 79.416 54.4494L78.1074 54.4799L75.3309 51.825L58.1883 51.8518L59.0539 50.9536L75.8811 50.9446ZM69.6068 49.7176C69.3778 49.2395 68.251 48.2865 66.985 47.8322C69.7484 44.7564 74.8269 46.0231 75.8842 47.7068C74.7752 48.1954 73.3052 49.6102 73.336 49.5774C72.1749 49.2523 70.997 49.0031 69.6068 49.7176V49.7176ZM81.1149 22.4849L81.073 46.2066C78.3938 44.8534 76.228 43.612 73.5904 42.1738C72.6826 41.4255 76.5219 25.2261 76.1395 25.1501L81.1149 22.4849Z" fill="#FFCD00"/>
<path d="M11.3954 9.66227L33.9044 9.504L31.2703 12.2005L13.9845 12.3605L11.3954 9.66227ZM15.7572 22.035C16.0283 21.4783 16.7333 22.0157 17.3031 21.688C18.4502 22.0422 17.8999 24.986 17.4983 26.7908C16.3281 31.2852 14.8121 32.3002 15.3751 38.496C15.2886 38.5468 13.6537 39.1782 13.4815 39.136C12.4249 33.8037 16.3617 26.9993 15.7572 22.035V22.035ZM27.4127 31.6455C27.822 31.0837 27.8979 30.5564 27.9868 30.0352C29.6043 30.9497 31.0785 32.0572 32.0009 33.9068L29.8595 34.7676C29.2971 33.6797 28.6276 32.6117 27.4127 31.6455V31.6455ZM32.9738 20.412C32.9738 20.412 31.6617 19.6139 31.0235 18.8606C34.043 16.6213 40.4721 11.6139 40.4721 11.6139L39.3901 9.48898C39.3901 9.48898 40.6347 9.48048 40.7218 9.5286C43.6958 15.2677 49.3168 19.2057 54.5804 20.9398C54.5804 20.9398 53.6322 21.8638 53.2311 21.7423C49.0791 20.1905 44.9154 17.537 41.7927 13.6348L32.9738 20.412ZM39.0992 27.5698L39.0888 34.8152L36.556 35.136C35.6211 32.3616 33.7112 30.072 31.5022 27.9311L31.5624 24.4945C34.0449 25.6212 36.5633 27.1865 39.0991 27.5698H39.0992ZM49.7703 54.3944C49.0562 54.6288 48.2858 54.3916 48.3181 54.4827C44.0019 45.8041 34.5286 43.3241 34.5286 43.3241C34.5286 43.3241 35.8403 42.5001 36.0433 42.5377C46.0834 47.0297 46.3824 50.0352 47.4728 50.6125L56.3642 43.7805L58.4778 45.3259L48.8886 52.6538C49.2259 53.3821 49.5085 53.7973 49.7703 54.3944V54.3944ZM36.7813 50.1153C39.4428 51.5869 40.99 53.1052 42.0544 54.6175L38.5419 54.5441L36.7813 50.1153ZM47.2277 9.54128L50.6355 9.57904L52.5701 14.0493C49.8607 12.8133 48.4086 11.1355 47.2277 9.54128ZM50.2916 29.457L52.6885 29.1926C53.8788 31.9063 55.4709 34.3039 57.6499 36.2393C57.7503 38.3186 57.6087 39.7388 57.637 39.7275C57.6412 39.7312 54.8514 37.8658 50.2501 36.5539L50.2916 29.457ZM75.4692 51.9408L77.9791 54.4109L55.5362 54.4888L57.9543 52.0077L75.4692 51.9408ZM57.2303 30.2317L59.4511 29.4479C59.9157 30.6807 60.9277 31.6141 61.9299 32.4835C61.2037 33.122 61.0596 34.1853 61.1111 34.1724C58.6887 32.6339 57.8869 31.3357 57.2303 30.2317V30.2317ZM74.0487 25.6007C74.0487 25.6007 74.2281 25.2924 74.4809 25.3263C74.8084 25.4283 75.5496 24.997 75.5496 24.9969C77.1545 30.2572 72.6383 37.9171 73.5882 42.4633C73.269 42.4254 72.8883 42.4778 72.5873 42.3489C71.9475 42.4921 71.9269 42.5932 71.5363 41.972C70.6275 38.778 72.5654 35.412 73.4918 32.2922C74.2979 29.747 74.0926 27.6797 74.0487 25.6007V25.6007Z" fill="#C8102E"/>
<path d="M7.83423 17.5639L7.88037 42.2853L13.4767 39.314C13.4848 39.3207 14.4002 39.5516 14.5105 39.0763C14.5459 38.9236 14.6886 38.8363 14.8252 38.8053C15.2145 38.8441 15.3799 38.6684 15.581 38.5204C15.2472 36.1703 15.4137 34.1292 15.7951 32.4429C16.9306 28.6546 18.6344 25.6285 17.9564 22.244C17.8169 21.6973 17.3264 21.4677 16.8849 21.6491C16.6843 21.7315 16.6825 21.8568 16.5598 21.7098C16.3693 21.5457 15.9282 21.4587 15.7677 21.6392C15.6449 21.8523 15.8566 21.9067 15.4421 21.6823L7.83423 17.5639ZM8.09914 18.0643L11.8567 20.0887C11.795 21.2854 12.9532 21.2427 12.9816 21.1902C12.4103 21.9859 13.8307 22.8414 14.2378 21.6771C15.2386 22.6281 14.3138 24.0387 14.2419 23.9544C14.5005 22.5972 12.9759 22.5233 12.7271 23.4078C11.0461 22.1911 10.3936 25.3772 12.4679 24.7927C12.1754 26.4071 14.0225 26.1152 14.0055 24.9147C14.6938 25.1955 14.1727 27.4115 13.6613 27.3159C13.5015 25.8177 12.1288 26.4165 12.1273 27.0647C10.6357 25.498 9.26028 28.6331 11.5088 28.5498C11.2429 29.8076 12.922 29.9556 13.0325 28.7465C13.6589 29.1894 13.2642 30.771 12.5477 31.2096C12.3812 29.9614 11.2784 30.0392 11.1003 31.016C9.51517 29.7781 8.92939 32.825 10.7721 32.5083C10.3947 33.6001 11.8594 34.1989 12.2781 32.7845C13.1461 34.2334 11.8524 35.8067 11.8261 35.6363C11.9244 33.9829 10.2581 34.3121 10.3486 35.5086C8.61844 34.7474 8.52208 37.764 10.3164 36.9989C10.2914 38.3557 11.8729 38.2366 11.9785 36.9366C12.5786 37.7552 12.6312 38.6782 12.0697 39.272C11.7425 38.0348 10.2961 38.5492 10.6964 39.7937C9.48643 39.9088 9.74332 40.8868 9.77987 40.9087L8.13751 41.7844L8.09914 18.0643ZM9.45274 9.30789L13.512 13.3557L30.3535 13.3033C29.5409 14.1622 28.674 14.8974 27.8775 15.8805L27.891 17.5639C32.3863 21.9589 36.2334 24.3661 43.1228 24.8944C47.7317 25.2478 53.5278 23.725 59.1446 19.6864L58.5422 18.7002L55.5893 20.6488L53.7494 16.5211C50.2641 14.8772 47.0479 12.9285 45.2058 9.36395L40.6945 9.34377L40.6011 9.28141L39.1848 9.32865L40.1325 11.0957C39.3564 11.6228 37.1049 13.317 34.926 14.9721C32.6176 16.7257 30.4613 18.3815 30.4613 18.3815L30.5494 18.4967L30.2674 18.2657L39.9251 10.9296C39.9251 10.9296 39.3545 9.77111 39.1641 9.43039L34.2634 9.47665L34.2733 9.2783L9.45274 9.30789ZM10.1391 9.76935L11.0417 9.74327L13.9133 12.4783C19.5871 12.4815 25.2609 12.4634 30.9346 12.4446L30.2659 13.1173L13.4918 13.2092L10.1391 9.76935ZM10.3797 36.1336C10.4065 35.9003 10.6766 35.7222 10.951 35.8881C11.5619 36.2574 12.0733 35.9794 12.5457 35.0809C13.2114 33.8146 12.4656 31.7458 11.4839 32.1714C11.1704 32.4439 10.9496 32.1914 10.9608 31.832C10.9736 31.4249 11.2471 31.2871 11.5399 31.548C11.9138 31.8737 12.2928 31.7883 12.7245 31.4089C14.3532 30.2719 13.7074 27.971 12.2802 28.2757C11.9256 28.4092 11.783 28.0294 11.9407 27.6347C12.0409 27.3835 12.4312 27.4206 12.569 27.6954C12.6012 28.0117 13.0618 28.0565 13.3575 28.0188C13.7877 27.9638 14.2115 27.3332 14.4363 26.7091C14.5991 26.2574 14.6343 25.8376 14.6038 25.5064C14.5395 24.8073 14.0621 24.417 13.3466 24.5321C12.9245 24.6 12.4867 24.4828 12.7188 23.9902C12.8458 23.7205 13.1526 23.7881 13.4353 24.0634C14.3859 25.0314 15.5428 23.0822 14.7458 21.9055C14.5809 21.706 14.5525 21.5603 14.5525 21.5603C16.3998 22.2983 14.6695 24.6091 14.5939 24.5876C15.9595 27.0231 14.0742 28.051 13.7702 28.4029C14.244 30.532 14.0109 30.9494 12.7204 32.1372C13.7686 34.2692 12.8771 35.3024 12.3134 36.1923C13.2945 37.2363 13.3216 38.5603 12.8292 39.2502C12.6122 39.3794 12.337 39.5584 12.2548 39.5731C12.1908 39.5845 12.2651 39.4871 12.4378 39.2471C13.3388 37.995 12.2166 35.9169 11.0288 36.4721C10.7087 36.6216 10.5713 36.598 10.4429 36.3745C10.3889 36.2951 10.3707 36.2114 10.3797 36.1336V36.1336ZM11.0153 40.1176C11.0245 39.7481 11.6031 39.6581 11.7359 39.8523C11.5795 39.9269 11.0357 40.2228 11.0215 40.1949C11.0167 40.1678 11.0147 40.1422 11.0153 40.1176H11.0153ZM11.6286 9.77402L33.7362 9.62453L31.2752 12.0933L14.1051 12.2293L11.6286 9.77402ZM12.5705 36.157C12.7509 35.9882 12.9309 35.6685 13.1113 35.3841L13.0252 36.7249C12.9039 36.5476 12.7915 36.3739 12.5705 36.157ZM12.9791 32.1772C13.2153 31.9609 13.4194 31.7524 13.611 31.5293L13.3108 32.7627L12.9791 32.1772ZM13.1683 20.9104C13.1524 20.8537 13.2527 20.8697 13.5011 20.9873C13.6214 21.0427 13.7186 21.0954 13.7173 21.1373C13.6313 21.2418 13.3961 21.1697 13.3155 21.0849C13.2292 21.0047 13.1778 20.9445 13.1683 20.9104V20.9104ZM13.3404 16.3602C16.7549 19.7085 20.7563 18.1144 22.6907 16.4121C21.3354 16.0375 19.9236 14.2584 19.8902 14.2797C18.6877 15.0456 16.9432 14.9795 16.0357 14.3518C16.0551 14.3555 14.9109 15.7265 14.3166 15.9189C13.9351 16.054 13.6754 16.0826 13.3404 16.3602V16.3602ZM13.5317 16.4354L13.8915 16.219C16.715 18.6349 20.1837 17.6109 21.8259 16.2033L22.3366 16.4618C18.2803 19.7129 14.5674 17.5696 13.5317 16.4352V16.4354ZM13.6032 37.8788C13.5733 35.2593 13.7712 32.3338 14.6432 30.1278C15.3807 27.6565 16.807 25.3791 15.8516 21.9777C15.853 21.8801 15.9985 21.8292 16.1326 21.8349C16.2638 21.8405 16.3693 21.889 16.453 21.9979C17.58 26.4405 15.1661 28.8193 14.4954 32.3682C14.1903 34.123 14.0075 36.4262 14.1258 37.9317C14.2131 38.7948 14.1854 38.9768 13.8236 38.9714C13.5969 38.968 13.6021 38.9927 13.6032 37.8788V37.8788ZM14.0268 28.4475L14.8428 27.7951L14.286 29.2656C14.2187 28.9265 14.1225 28.6878 14.0268 28.4475ZM14.2964 16.1723C14.2919 16.1526 14.3035 16.1295 14.3415 16.0887C14.5794 15.8819 14.5991 16.4441 14.3467 16.2325C14.3212 16.2077 14.3008 16.1919 14.2964 16.1723H14.2964ZM14.624 37.1707C14.5784 33.6794 15.3064 30.729 16.3011 28.5436C17.1239 26.3631 17.3993 24.3606 17.1565 22.7781C17.0232 21.9091 17.002 21.7812 17.2369 21.7846C17.9687 21.9528 17.9001 22.8914 17.9041 23.5754C17.9156 25.4909 17.3456 27.6439 16.6728 29.1358C15.3213 32.1329 14.9379 35.0662 15.3151 38.0714C15.3368 38.2151 15.3167 38.3639 15.2021 38.4711C14.8974 38.7436 14.7066 38.5583 14.6432 37.8762C14.6331 37.6387 14.627 37.4035 14.624 37.1707H14.624ZM14.7687 16.0233C14.7755 15.8838 14.8395 15.718 14.9263 15.6521C15.1496 15.4827 15.7699 15.6994 15.7666 15.9252C15.764 16.0987 14.9738 16.3454 14.8252 16.219C14.7811 16.1815 14.7645 16.107 14.7687 16.0233V16.0233ZM14.8977 24.5965C15.1231 24.3358 15.3423 24.0398 15.553 23.6922C15.56 24.3813 15.4859 25.0681 15.3768 25.6995C15.2416 25.336 15.1171 24.974 14.8977 24.5965ZM15.004 16.5854C15.0059 16.5249 15.1079 16.4755 15.3114 16.4173C15.7463 16.2928 15.7947 16.3047 15.8584 16.5517C15.8935 16.6971 15.9697 16.8202 15.988 16.9623C15.9864 17.1103 15.7663 17.0629 15.2995 16.8206C15.1011 16.7176 15.0022 16.646 15.004 16.5854V16.5854ZM15.4706 15.337L16.0517 14.6617C17.1326 15.1158 18.286 15.3405 19.7548 14.5761L20.4174 15.2815C18.4381 16.2604 16.892 16.1989 15.4706 15.337V15.337ZM16.0523 16.2366C16.0528 16.1071 16.0956 16.0162 16.2145 15.9947C16.533 16.048 17.0832 16.2071 17.0445 16.382C16.9847 16.6528 16.2607 17.1086 16.1451 16.7105C16.0939 16.5343 16.0518 16.3662 16.0523 16.2366V16.2366ZM16.2555 13.9547L17.8901 14.4131L19.5729 13.9096L19.4972 13.6547L17.8875 14.1364L16.327 13.6988L16.2555 13.9547ZM16.5396 17.2457C16.5336 17.0754 17.0391 16.6201 17.1959 16.6254C17.2749 16.6382 17.5914 17.1203 17.72 17.3116C17.7915 17.4042 17.7547 17.3982 17.6708 17.3994C17.4314 17.4028 16.8131 17.3837 16.5759 17.2992C16.5516 17.2886 16.5404 17.27 16.5396 17.2457ZM17.4624 16.3259C17.4731 16.2321 17.6053 16.2416 18.0078 16.2475C18.311 16.252 18.5078 16.234 18.5148 16.314C18.5202 16.3762 18.4039 16.5571 18.2685 16.7339C17.9253 17.1818 17.6901 17.0824 17.5241 16.5735C17.4953 16.4853 17.4729 16.4204 17.465 16.3726C17.462 16.3548 17.4609 16.3393 17.4623 16.3259H17.4624ZM18.1856 17.2867C18.2005 17.2268 18.2619 17.1416 18.367 17.0235C18.6701 16.6833 18.7423 16.6245 18.9917 16.9363C19.0647 17.0277 19.1636 17.1494 19.1638 17.2068C19.1644 17.3331 18.9244 17.3912 18.5106 17.4066C18.265 17.4159 18.1607 17.3867 18.1856 17.2867ZM18.8232 16.2864C18.8152 16.1463 18.9711 16.0723 19.4656 15.9594C19.7926 15.8866 19.924 15.8373 19.9202 15.9272C19.9239 16.1012 19.8793 16.2664 19.8373 16.4038C19.6361 17.0618 19.196 17.0833 18.8797 16.4526C18.847 16.3873 18.8259 16.3332 18.8232 16.2864ZM19.9301 16.9519C19.9306 16.8485 20.0462 16.3992 20.1981 16.2678C20.3504 16.2858 20.7378 16.4278 20.842 16.5533C20.8291 16.7177 20.309 16.9515 19.9373 16.9732C19.9325 16.9732 19.93 16.9668 19.9301 16.9519H19.9301ZM20.166 15.853C20.161 15.8241 20.1704 15.7959 20.1976 15.77C20.3207 15.7074 20.4272 15.634 20.5548 15.5763C20.7069 15.5087 20.7808 15.5532 20.9322 15.7082C21.1288 15.9205 21.1443 16.0908 21.0234 16.2475C20.9265 16.3055 20.2004 16.0555 20.166 15.853ZM21.3023 16.1645L21.335 16.0015L21.547 16.1105C21.4812 16.1323 21.29 16.2584 21.3023 16.1645V16.1645ZM27.2637 31.6197C28.7781 32.8074 29.7676 34.7558 29.7443 34.7684L29.9273 34.8338C29.9273 34.8338 30.0492 35.1909 30.1093 35.505C30.1286 35.6058 30.1679 35.8122 30.2161 35.9493C30.2907 36.1613 30.3698 36.2665 30.3416 36.5935C30.2761 37.2743 30.4748 37.9575 30.4784 37.9431C36.0999 35.9163 41.1747 35.4368 47.0695 36.2286C47.0637 36.9754 47.0353 38.6128 47.0353 38.6128C48.6915 38.7775 50.3488 38.9862 51.9126 39.4921C53.9204 40.1416 55.7868 40.9249 57.4934 42.1861C58.5652 42.8983 59.3278 43.5201 60.3323 44.2562L60.3105 34.9096C58.2199 33.6726 56.4739 31.2895 55.7463 29.3741C55.5001 28.7222 55.5366 28.6298 55.8448 28.5218C56.3956 28.3288 56.372 28.3384 56.5183 28.8483C57.4063 31.3513 58.9872 32.8979 61.0016 34.1881C61.2139 34.3252 61.3034 34.3545 61.3391 34.2945C61.2066 33.4567 61.7498 32.9393 62.1484 32.4325C61.3779 31.8991 60.3613 31.0037 60.0601 30.3048C60.0514 30.1137 59.8776 29.8152 59.7092 29.685C59.4963 29.5205 59.524 29.3769 59.5397 29.1945C59.5428 28.9774 59.4948 28.6472 59.2898 28.1999C59.1736 27.9465 59.1474 27.8307 59.1285 27.4592C59.1397 27.1282 59.0099 26.8123 58.9181 26.5326C58.8225 26.2081 58.7297 26.3236 58.3089 26.5098C55.8668 27.457 53.0214 28.1359 50.7037 28.3832C48.0446 28.6609 44.82 28.5765 42.3576 28.2067C42.3514 27.3 42.3981 26.7308 42.3819 25.7758C37.0569 25.1245 32.8287 23.3571 29.0258 19.825L29.0009 29.3736C31.9351 30.4676 34.1734 35.4598 34.0084 35.6239L32.9373 35.8871C32.9373 35.8871 32.4215 32.2958 27.8386 29.8771C27.9891 30.1245 27.8845 31.025 27.2637 31.6197H27.2637ZM27.4778 31.5958C27.9433 30.9657 27.992 30.5953 28.0973 30.2067C30.1055 31.2786 31.1602 32.5443 31.8932 33.8756L29.8205 34.6635C29.3766 33.5747 28.4263 32.4457 27.4778 31.5958ZM27.9869 16.304C32.9956 21.4984 37.2819 23.7965 42.9372 23.9777C49.4413 24.1861 53.7673 22.2109 58.3773 18.8839L58.7838 19.5977C54.526 22.7889 48.7491 25.0699 43.0497 24.6883C36.4222 24.3228 32.6028 21.8243 28.0133 17.4362L27.9869 16.304ZM29.1471 22.6099L29.1502 20.2672L31.3732 21.9792L31.3105 24.0504L29.1471 22.6099ZM29.1658 29.2843L29.1704 22.9831L31.3654 24.3899L31.3841 28.12C33.5843 29.923 35.3391 32.1475 36.3459 35.0794C36.3459 35.0794 34.2896 35.4413 34.14 35.5221C32.8682 32.1733 30.994 30.2136 29.1658 29.2843V29.2843ZM29.2306 24.8544L30.213 25.7104L31.0715 25.046L30.2078 24.1096L29.2306 24.8544ZM29.3166 26.8571L30.3198 27.6253L31.115 26.8083L30.2773 26.0203L29.3166 26.8571ZM29.369 29.1182L30.6682 29.2868L31.2929 28.1439L30.0274 28.0094L29.369 29.1182ZM29.5027 22.4464L30.7641 23.2635L30.8076 22.2699L29.5053 21.32L29.5027 22.4464ZM30.0668 34.9111L32.0762 34.1782C32.1955 34.3787 32.2826 34.5884 32.3297 34.8094L30.213 35.4224L30.0668 34.9111ZM30.3136 35.6581L32.4101 35.0523C32.5386 35.2994 32.6018 35.5466 32.6822 35.7936L30.4546 36.4642L30.3136 35.6581ZM30.3908 44.6076L30.9103 45.488L30.8195 45.6224L36.0997 54.7495L37.7032 54.7543L33.2333 44.1603C33.4582 43.9501 33.7092 43.8265 33.9861 43.6495L35.8005 47.8946C39.3226 49.1708 42.2409 52.0471 44.2882 54.7293C47.7846 54.7163 55.1045 54.6998 55.1045 54.6998L61.4972 48.3166C60.7446 47.498 59.9706 46.7722 59.1306 46.0461L49.4294 53.375L49.0043 52.7252L58.6552 45.4736C58.7289 45.5345 58.7974 45.5982 58.8698 45.6599C58.7057 45.7874 56.8104 47.26 54.6058 48.9546C52.3079 50.7208 49.8476 52.5922 49.2588 52.9759L49.3604 53.1327C49.9816 52.7278 52.4209 50.8691 54.7194 49.1025C56.9396 47.396 58.8745 45.8924 59.0135 45.7845C59.9029 46.5559 60.707 47.3744 61.5102 48.1936L61.489 46.7365C60.438 45.7129 53.5711 38.2998 43.199 39.5482C38.7627 40.0821 34.9249 41.3142 30.3908 44.6077L30.3908 44.6076ZM30.424 36.798C34.3325 35.4343 39.8971 34.3505 47.0555 35.4531C47.0555 35.4531 47.0626 35.848 47.0586 36.0251C41.4081 34.8911 35.4089 35.9315 30.5214 37.681L30.424 36.798ZM30.5396 44.6268C39.301 38.1253 52.2617 36.9489 61.2059 46.8828L61.167 47.7335C60.489 47.0044 59.7966 46.3391 59.0943 45.7221L59.1648 45.6676L59.0503 45.5202C59.0503 45.5202 58.9528 45.5954 58.9507 45.597C50.1626 37.9865 39.6481 38.975 30.9782 45.352L30.5396 44.6268ZM30.5826 18.5237C30.59 18.5181 32.735 16.8712 35.039 15.1211C37.2059 13.475 39.4584 11.7822 40.2217 11.2612L40.3565 11.513L30.8818 18.7682L30.5826 18.5237ZM31.1125 18.8891L40.387 11.7595L41.6935 13.5581L32.8466 20.2574L31.1125 18.8891ZM31.1151 30.5493L32.3681 30.5913L32.5434 29.4592L31.2069 29.4733L31.1151 30.5493ZM31.6133 24.2351L31.6439 23.5588L32.2546 24.449L32.9887 23.878L32.3889 22.9639L31.647 23.4731L31.6755 22.1375L33.1074 23.0574C33.0937 23.0486 33.0504 25.0267 33.0504 25.0267L31.6133 24.2351ZM31.6548 24.6177C31.644 24.6925 36.7565 27.3868 38.9754 27.6969L39.0097 34.7263L36.6228 35.0015C35.7731 32.6776 34.3313 30.1724 31.6807 27.9809C31.7054 27.6064 31.6548 24.6177 31.6548 24.6177H31.6548ZM32.4164 31.8511L33.5859 32.0754L33.8047 31.0642L32.6413 30.8644L32.4164 31.8511ZM33.1307 20.4459L41.9128 13.8379L42.3944 14.5252L33.8529 20.9493L33.1307 20.4459ZM33.336 25.1913L33.3905 23.2063L35.0619 24.0555L35.037 26.0078L33.336 25.1913ZM33.4382 33.4691L34.6378 33.6134L34.925 32.5727L33.6621 32.4175L33.4382 33.4691ZM33.4449 24.5538L34.0722 25.482L34.91 24.8856L34.2827 23.9205L33.4449 24.5538ZM34.1614 34.9028L35.234 35.2574L35.7638 34.2727L34.7653 33.9612L34.1614 34.9028ZM34.3703 44.1908C34.7328 43.8983 36.3782 44.364 35.3278 44.9149C35.1142 45.0345 34.8037 45.1921 34.8037 45.1921L34.6984 44.9103C35.4793 44.6831 35.1891 44.4742 34.4999 44.4498C34.4143 44.2597 34.4009 44.2393 34.3703 44.1908V44.1908ZM34.8498 43.2326L35.9515 42.6439C45.1683 46.3632 47.8865 51.3764 49.7301 54.4074L48.4382 54.4173C44.3951 46.3117 34.8497 43.2762 34.8498 43.2325V43.2326ZM34.9276 45.515C35.2435 45.3624 35.5714 45.1012 35.9136 45.0379C36.0632 45.013 36.1179 45.088 36.2107 45.2523C36.4304 45.6985 36.5673 46.1947 36.3776 46.5537C36.2005 46.6606 35.2106 46.2246 35.2106 46.2246L34.9276 45.515ZM35.1407 21.3957C35.1591 21.1185 35.3225 20.7383 35.5839 20.4163C36.0731 19.8139 36.7281 19.5551 38.0158 19.484C38.8436 19.4383 39.012 19.3772 38.6706 19.1377C37.9092 18.7072 38.2816 17.6765 39.0859 17.5478C39.5117 17.4757 39.8192 17.8489 39.4332 17.9693C38.631 18.2888 38.8237 19.0709 39.6204 18.9436C40.146 18.8597 40.4361 18.3366 40.7287 17.3033C41.0805 16.0612 41.5079 15.6917 42.5323 15.4497C42.9858 15.3425 43.2232 15.3598 43.4603 15.5981C43.5775 15.7159 43.6967 15.8654 43.6967 15.8654C43.6967 15.8654 43.0071 16.0313 42.6879 16.1006C42.1014 16.2236 42.1339 17.0439 42.7454 16.9514C43.1024 16.8974 43.095 16.8849 43.087 17.063C43.0453 17.9099 41.7028 17.7627 41.8065 16.7868C41.7821 16.5832 41.6982 16.5564 41.6261 16.7287C41.5545 16.8999 41.3852 17.5558 41.3856 17.6568C41.3892 18.7187 39.7476 20.2505 38.2906 20.2128C37.3377 20.1883 36.6523 20.5093 36.5746 20.8378C36.5129 21.0989 36.7515 21.4779 37.0433 21.4451C37.4458 21.3998 37.3199 21.725 37.0308 21.9123C36.6314 22.1981 36.0551 21.8294 36.1002 21.1486C36.0434 20.859 35.8585 21.3618 35.7503 21.7342C35.7309 22.0721 35.3127 21.7866 35.2381 21.7239C35.1824 21.6761 35.1508 21.6011 35.1417 21.5079C35.1382 21.473 35.138 21.4354 35.1406 21.3958L35.1407 21.3957ZM35.2941 26.1371L35.2993 24.1464L36.9816 24.7838L36.9624 26.7973L35.2941 26.1371ZM35.3848 46.5952C39.6444 48.1336 43.2928 51.4236 45.1587 54.4334L44.21 54.4459C43.7424 53.8104 40.8023 49.7755 35.853 47.6879L35.3848 46.5952ZM35.4134 25.4722L36.0541 26.3961L36.7581 25.685L36.1443 24.7205L35.4134 25.4722ZM35.9644 44.2624C35.9644 44.1497 36.0563 44.0584 36.1697 44.0584C36.2831 44.0584 36.3745 44.1497 36.3745 44.2624C36.3745 44.3752 36.2831 44.4659 36.1697 44.4659C36.0563 44.4659 35.9644 44.3752 35.9644 44.2624ZM36.1428 42.5152C40.8118 40.5302 45.3569 39.8034 51.2221 41.353L43.9456 46.9284C41.8179 45.265 39.3735 43.6058 36.1428 42.5152ZM36.4186 44.9518C36.4334 44.8448 36.5538 44.8357 36.8421 44.8672C37.5364 44.9429 38.2991 45.4042 38.3238 45.6873C38.332 45.7817 38.1474 45.9076 37.9884 45.9448C37.7952 45.99 37.3083 46.3228 37.0749 46.5324C36.7814 46.7959 36.7403 46.7822 36.7099 46.4047C36.6739 45.9551 36.5852 45.5158 36.4927 45.2627C36.439 45.1156 36.4097 45.016 36.4186 44.9518V44.9518ZM36.6052 49.9033L38.5047 54.7993L42.3623 54.7858C39.9355 51.4465 36.99 50.1637 36.6052 49.9033V49.9033ZM36.8509 45.4667C36.8712 45.6602 37.0399 46.0092 37.161 46.0346C37.2333 46.029 37.6521 45.7901 37.6711 45.6463C37.6328 45.4028 37.0775 45.3004 36.8872 45.3426C36.8536 45.3549 36.8442 45.4022 36.8509 45.4667ZM36.9173 50.2926C39.2995 51.6949 40.7719 53.0683 41.8605 54.4298L38.6732 54.4801L36.9173 50.2926ZM36.9189 22.4885L44.5822 16.6959L45.1245 17.2379L37.865 22.8622L36.9189 22.4885ZM37.1491 46.9378C37.1429 46.5926 38.4564 46.0122 38.6929 46.1898C38.824 46.2786 38.766 46.9649 38.7131 47.3307C38.643 47.6909 38.6362 47.7443 38.3373 47.623C37.9407 47.4609 37.2252 47.0954 37.1682 47.0032C37.1554 46.9825 37.1495 46.9608 37.1491 46.9378V46.9378ZM37.2071 26.9152L37.2465 24.8404L39.0574 25.3419L39.0449 27.4722L37.2071 26.9152ZM37.2937 26.0742L37.9822 27.0854L38.7873 26.2876L38.1123 25.3107L37.2937 26.0742ZM38.1942 23.0029L45.5138 17.4081C47.944 19.5546 50.7263 20.9976 53.1362 21.8801C48.5893 23.9518 43.3901 24.4445 38.1942 23.0029ZM38.6556 45.5809C38.6556 45.4681 38.747 45.3769 38.8604 45.3769C38.9738 45.3769 39.0657 45.4681 39.0657 45.5809C39.0657 45.6937 38.9738 45.7849 38.8604 45.7849C38.747 45.7849 38.6556 45.6937 38.6556 45.5809ZM38.9184 47.8477C38.9121 47.7893 38.9277 47.7004 38.9703 47.6012C39.1598 47.1602 38.9586 46.137 39.0563 46.1099C39.275 45.9572 39.8715 46.1861 40.2845 46.6175C40.4862 46.8282 40.6174 47.021 40.6194 47.1324C40.6212 47.244 40.4664 47.2646 40.2 47.3474C39.7587 47.4818 39.3512 47.7333 38.9962 47.9126C38.9529 47.9344 38.9248 47.9063 38.9184 47.8477ZM39.3508 48.1628C39.3067 47.9898 39.6789 47.7891 40.2326 47.6178C40.7437 47.4597 40.8723 47.5396 40.8765 47.84C40.8944 47.9938 40.8918 48.0999 40.891 48.2329C40.8867 49.0001 40.8388 49.2563 40.4597 49.0333C40.0897 48.7357 39.7381 48.5597 39.3959 48.235C39.3719 48.2116 39.3571 48.1875 39.3508 48.1628V48.1628ZM39.3752 46.8055C39.3738 46.9312 39.438 47.0804 39.5255 47.1459C39.6626 47.2177 39.9258 47.1871 40.0331 46.9835C40.0956 46.8647 39.6057 46.5362 39.4576 46.6274C39.4001 46.6628 39.376 46.73 39.3752 46.8055V46.8055ZM39.3944 27.4737L39.4415 25.4243L41.5904 25.7965L39.3944 27.4737ZM39.582 9.65048L40.6433 9.63744C44.3809 16.1672 48.7962 18.8449 54.3949 21.0848L53.3239 21.7067C47.524 19.4416 43.2131 15.9159 40.3934 11.1402C40.3963 11.1375 40.4055 11.1317 40.4084 11.1298L40.3073 10.9725C40.306 10.9725 40.3015 10.9768 40.3001 10.9776C40.0491 10.5449 39.8088 10.1032 39.582 9.65029V9.65048ZM41.001 47.0042C41.001 46.8915 41.0923 46.8002 41.2057 46.8002C41.3191 46.8002 41.4105 46.8915 41.4105 47.0042C41.4105 47.117 41.3191 47.2077 41.2057 47.2077C41.0923 47.2077 41.001 47.117 41.001 47.0042ZM41.0056 49.2732C40.9934 49.1909 41.0775 48.997 41.1088 48.7105C41.1509 48.3252 41.0862 47.7119 41.1933 47.5602C41.2797 47.494 41.5076 47.5551 41.7646 47.6785C42.1263 47.8525 42.4345 48.1688 42.5744 48.4047C42.8519 49.0022 42.499 48.8632 42.142 48.9596C41.9339 49.0158 41.6688 49.1011 41.481 49.1662C41.1263 49.3261 41.0179 49.3554 41.0056 49.2732V49.2732ZM41.3763 49.664C41.3616 49.5097 41.5751 49.3985 41.9694 49.2971C42.6282 49.0956 42.881 49.0497 42.8237 49.5535C42.8224 49.6935 42.8171 49.8917 42.7688 50.1244C42.6463 50.7138 42.5938 50.7832 42.1773 50.4292C42.0229 50.2979 41.79 50.1026 41.6594 49.9957C41.4763 49.865 41.3851 49.7566 41.3763 49.664V49.664ZM41.4173 9.63536L41.9906 9.63965C42.1596 10.1211 42.5628 10.4276 42.6921 9.61895L43.1436 9.60591C43.0089 9.9757 42.8096 10.2934 42.6791 10.6747C42.5945 10.9221 42.3953 10.8542 42.1125 10.5979C41.7732 10.3121 41.6063 10.0316 41.4173 9.63549V9.63536ZM41.4981 48.2869C41.4931 48.3788 41.5028 48.4782 41.5266 48.5428C41.6 48.7416 42.085 48.6061 42.0839 48.4099C42.0333 48.2269 41.6923 47.9637 41.5583 48.0767C41.5233 48.1105 41.5032 48.195 41.4981 48.2869V48.2869ZM42.1783 11.4537C42.1783 11.3409 42.2702 11.2497 42.3836 11.2497C42.497 11.2497 42.5884 11.3409 42.5884 11.4537C42.5884 11.5665 42.497 11.6573 42.3836 11.6573C42.2702 11.6573 42.1783 11.5665 42.1783 11.4537ZM42.3312 28.6702C42.3409 28.5112 42.381 28.3349 42.381 28.3349C42.3574 28.4054 45.4786 28.6485 47.4393 28.6292C51.173 28.5924 54.8664 27.9627 58.5667 26.5057C58.7376 26.7834 58.8248 27.4685 58.8248 27.4685C56.0189 28.3881 53.0005 29.203 50.1371 29.303C47.0185 29.3925 45.1383 29.4373 42.3971 28.9189C42.3613 28.912 42.3426 28.8721 42.3343 28.8161C42.3282 28.7741 42.328 28.7232 42.3312 28.6702V28.6702ZM42.3955 33.207V30.9677H43.8824V29.3684L45.5771 29.4976V30.9677H47.0639V33.207H45.5771V34.9589L43.8824 34.8229V33.207H42.3955ZM42.8211 50.8901C42.8106 50.8361 42.837 50.7523 42.8974 50.6383C43.0173 50.4171 43.108 49.8314 43.0829 49.5145C43.0545 49.154 43.1517 49.1645 43.4562 49.27C43.9958 49.4571 44.5763 50.1809 44.5765 50.5226C44.5765 50.6365 44.5168 50.7095 44.3743 50.7074C44.1923 50.7045 43.405 50.8347 43.1882 50.9072C42.9577 50.9862 42.8387 50.98 42.8211 50.8902V50.8901ZM42.873 10.9964C42.8652 10.8 43.0018 10.467 43.2551 10.0227C43.4758 9.63533 43.6108 9.56311 43.746 9.75638C43.946 10.084 44.7199 11.0434 44.6724 11.2197C44.4717 11.4531 43.2031 11.407 42.93 11.1465C42.8943 11.1124 42.8756 11.0619 42.873 10.9964V10.9964ZM42.9285 48.5911C42.9285 48.4783 43.0198 48.3871 43.1332 48.3871C43.2466 48.3871 43.3385 48.4783 43.3385 48.5911C43.3385 48.7038 43.2466 48.7951 43.1332 48.7951C43.0198 48.7951 42.9285 48.7038 42.9285 48.5911ZM42.9487 11.6536C42.9524 11.527 43.0192 11.4766 43.153 11.5109C43.7113 11.654 44.5926 11.5228 44.7958 11.5565C44.6156 12.0957 44.3689 12.4795 44.3064 13.01C44.2842 13.1697 44.2545 13.2107 44.1136 13.1372C43.6515 12.8962 43.1675 12.4417 43.0093 11.9619C42.9669 11.8333 42.9465 11.7296 42.9487 11.6536V11.6536ZM43.1296 51.3183C43.1341 51.1431 43.4243 51.0221 43.9192 50.9737C44.423 50.9244 44.71 51 44.645 51.4004C44.6476 51.5217 44.6264 51.6721 44.5848 51.853C44.4265 52.5539 44.2654 52.7102 43.788 52.1125C43.6115 51.8916 43.3924 51.6574 43.3085 51.5893C43.1846 51.4888 43.1276 51.398 43.1296 51.3183V51.3183ZM43.3966 50.1312C43.3928 50.2416 43.4082 50.3477 43.437 50.3788C43.5256 50.4743 43.9372 50.4299 43.9866 50.3502C44.0563 50.1465 43.623 49.7351 43.4713 49.8571C43.4233 49.9061 43.4004 50.0208 43.3966 50.1312V50.1312ZM43.6086 12.0538C43.6131 12.1138 43.6538 12.1979 43.731 12.3072C43.9136 12.5657 44.0282 12.555 44.2038 12.2635C44.3305 12.1167 44.3453 11.9495 44.2722 11.908C44.1932 11.8631 44.013 11.8746 43.7035 11.9428C43.6358 11.9576 43.6042 11.9938 43.6086 12.0538ZM43.858 13.5857C43.858 13.4729 43.9494 13.3816 44.0628 13.3816C44.1762 13.3816 44.2681 13.4729 44.2681 13.5857C44.2681 13.6984 44.1762 13.7891 44.0628 13.7891C43.9494 13.7891 43.858 13.6984 43.858 13.5857ZM44.0026 32.9682H45.4838V31.1852H44.0026V32.9682ZM44.0063 9.64062L45.0234 9.62304C47.9951 14.5264 53.5617 16.6461 53.5634 16.6457L53.9989 17.7887C50.1689 16.1905 46.8275 14.0069 44.0063 9.64068V9.64062ZM44.2276 46.9788L51.4524 41.4672L52.3648 41.8129L44.8026 47.5477L44.2276 46.9788ZM44.5397 52.6539C44.54 52.6086 44.5749 52.5378 44.6356 52.4307C44.7395 52.2484 44.9092 51.8777 44.9441 51.4767C44.9727 51.1481 45.1088 51.1241 45.3267 51.2259C45.8094 51.5161 46.0379 52.0652 46.1894 52.504C46.2721 52.7438 45.5423 52.6169 44.8612 52.7131C44.6346 52.7338 44.5393 52.7296 44.5397 52.6539V52.6539ZM44.6009 12.8449C44.6393 12.375 44.9044 11.7421 45.137 11.7455C45.2378 11.7455 46.135 12.8024 46.1334 12.9171C46.1296 13.1769 44.7688 13.4646 44.6476 13.2311C44.6004 13.1402 44.5881 13.0016 44.6009 12.8449V12.8449ZM44.6984 13.7979C44.6896 13.6627 44.7895 13.6108 45.0276 13.6251C45.2859 13.6278 45.7349 13.5161 46.0551 13.3708C46.3041 13.2577 46.4708 13.1287 46.4745 13.2524C46.4769 13.3266 46.3781 13.5547 46.3216 13.7569C46.2366 14.0609 46.1999 14.3005 46.1945 14.5776C46.1837 15.1342 46.1887 15.207 45.7285 14.9674C45.3969 14.7948 44.9589 14.4062 44.8254 14.1343C44.7479 13.99 44.7036 13.879 44.6984 13.7979V13.7979ZM44.7181 53.1186C44.6988 52.9593 44.8717 52.9056 45.3075 52.8928C45.9604 52.8696 46.3131 52.9395 46.3205 53.2867C46.3239 53.4445 46.2265 53.7152 46.1059 53.962C45.786 54.6166 45.7123 54.5989 45.0794 53.7118C44.8644 53.4301 44.7331 53.2424 44.7181 53.1186ZM44.9457 50.6113C44.9457 50.4986 45.037 50.4074 45.1504 50.4073C45.2638 50.4073 45.3557 50.4986 45.3557 50.6113C45.3557 50.7241 45.2638 50.8148 45.1504 50.8148C45.037 50.8148 44.9457 50.7241 44.9457 50.6113ZM45.1245 52.2392C45.1322 52.3074 45.1815 52.3384 45.3008 52.3274C45.7281 52.2827 45.7729 52.2998 45.5361 51.9184C45.4018 51.7053 45.3051 51.6185 45.1986 51.9277C45.1513 52.0653 45.1169 52.1709 45.1245 52.2392V52.2392ZM45.3272 14.0487C45.3168 14.126 45.3622 14.2127 45.4651 14.3015C45.7534 14.5499 45.8849 14.4976 45.9607 14.14C45.9924 13.9909 45.9821 13.8705 45.9602 13.7714C45.9239 13.6073 45.7101 13.7714 45.5237 13.8519C45.4036 13.9035 45.3376 13.9713 45.3272 14.0487H45.3272ZM45.8726 48.6072C45.8828 48.5073 46.0662 48.4774 46.2765 48.466C47.4023 48.4048 47.5761 46.8296 46.5792 47.3811C46.2574 47.5623 46.1322 47.4492 46.2962 47.1247C46.5551 46.6122 47.1687 46.4425 47.4517 46.9394C47.6893 47.5301 47.7406 47.3304 47.9971 46.5755C48.5492 44.9686 49.5619 44.2788 51.4913 44.1944C52.3708 44.2253 52.6843 44.1058 52.8044 43.6946C52.9144 43.318 52.4332 42.8916 52.1797 43.162C52.042 43.3088 51.9173 43.4288 51.8412 43.3509C51.5974 43.1012 51.993 42.4763 52.4177 42.4825C52.6953 42.4865 52.7527 42.591 53.0792 43.0042C53.1698 43.1188 53.3401 43.0214 53.3426 42.8536C53.1379 42.222 53.9782 42.2663 54.0056 42.606C53.9736 43.7686 52.699 44.9911 51.6483 44.8672C50.908 44.7798 50.3587 44.9211 50.6618 45.1215C51.3316 45.5644 50.8865 46.8691 50.0822 46.8573C49.6541 46.8512 49.5834 46.5668 49.9697 46.4037C50.5406 46.1625 50.555 45.4852 49.9567 45.3852C49.3958 45.2915 48.9835 45.7639 48.5243 47.0276C48.175 48.5084 46.7981 49.4572 46.0732 48.8735C45.9228 48.7524 45.8664 48.6671 45.8725 48.6072H45.8726ZM45.8819 15.6074C45.8819 15.4947 45.9749 15.404 46.0883 15.404C46.2017 15.404 46.293 15.4947 46.293 15.6074C46.293 15.7202 46.2017 15.813 46.0883 15.813C45.9749 15.813 45.8819 15.7202 45.8819 15.6074ZM46.2246 54.4048C46.3193 54.0891 46.4536 53.8938 46.574 53.5338C46.6485 53.3132 46.7018 53.1827 46.9354 53.3775C47.3014 53.6828 47.5303 54.0104 47.7571 54.3825L47.2858 54.3852C47.0208 53.7905 46.7762 53.8483 46.6409 54.3982L46.2246 54.4048ZM46.4226 14.3803C46.439 13.9569 46.5754 13.6291 46.729 13.4808C46.6967 13.4377 47.9245 14.4593 48.0406 14.6467C47.6728 15.0702 47.0117 15.1278 46.5103 15.1123C46.4578 14.9215 46.4308 14.7383 46.4232 14.5672C46.4203 14.5031 46.4203 14.4408 46.4226 14.3803V14.3803ZM46.5357 15.4901C46.5304 15.3937 46.6315 15.3808 46.9053 15.3547C47.4373 15.3106 47.9554 15.0418 48.3641 14.9249C48.3341 15.3065 48.2075 15.7422 48.2117 16.1468C48.2219 16.6284 48.2546 16.7698 48.0749 16.7671C47.5912 16.7727 46.9046 16.3228 46.6456 15.7735C46.5802 15.6349 46.5388 15.547 46.5357 15.4891V15.4901ZM46.5388 52.6467C46.5388 52.5339 46.6307 52.4426 46.7441 52.4427C46.8575 52.4426 46.9488 52.5339 46.9488 52.6467C46.9488 52.7594 46.8575 52.8507 46.7441 52.8507C46.6307 52.8507 46.5388 52.7594 46.5388 52.6467ZM46.9291 9.29387C48.448 11.5591 50.6367 13.343 52.8024 14.3134L50.6934 9.32138L46.9291 9.29387ZM46.9582 49.8633L55.4536 43.3478L56.1467 43.8212L47.4559 50.4883L46.9582 49.8633ZM47.2288 15.8769C47.2338 15.9275 47.2664 15.9815 47.3273 16.0383C47.5445 16.2409 47.7172 16.2684 47.8099 16.1406C47.8858 15.9528 47.896 15.814 47.897 15.6049C47.8839 15.4142 47.7687 15.5148 47.4341 15.6562C47.2893 15.7174 47.2204 15.7925 47.2288 15.8769V15.8769ZM47.3833 9.62187L50.5783 9.63387L52.3861 13.9033C50.5194 13.0469 48.6683 11.4615 47.3833 9.62187V9.62187ZM47.5212 38.4845L50.0532 36.7009L50.0402 38.8095L47.5212 38.4845ZM47.6456 50.724L56.3764 44.0071L58.2391 45.4215L48.9479 52.4671L47.6456 50.724ZM47.9141 17.2296C47.9141 17.1169 48.0055 17.0256 48.1189 17.0256C48.2323 17.0256 48.3237 17.1169 48.3237 17.2296C48.3237 17.3424 48.2323 17.4336 48.1189 17.4336C48.0055 17.4336 47.9141 17.3424 47.9141 17.2296ZM48.4232 16.369C48.428 15.9385 48.5269 15.277 48.6254 15.1818C48.7396 15.0509 49.2296 15.4742 49.5741 15.7118C49.7184 15.8343 50.1094 15.9699 49.9365 16.1562C49.625 16.4885 48.532 16.9081 48.4533 16.6929C48.4304 16.6303 48.4216 16.5125 48.4232 16.369V16.369ZM48.6151 17.1902C48.6319 17.029 48.8276 16.9373 49.1941 16.8776C49.4061 16.8431 49.7663 16.6216 50.0506 16.4266C50.3682 16.2087 50.4188 16.2986 50.2911 16.8507C50.216 17.2361 50.3076 17.7116 50.3253 18.0679C50.3006 18.416 49.186 18.0873 48.7794 17.5634C48.6592 17.4085 48.6049 17.2869 48.6151 17.1902V17.1902ZM49.2553 17.3687C49.2632 17.4217 49.3031 17.4838 49.373 17.5639C49.6321 17.861 49.9129 17.7359 49.8992 17.3298C49.8883 17.0087 49.8444 16.9875 49.4964 17.1398C49.3189 17.2175 49.2422 17.2804 49.2553 17.3687V17.3687ZM50.1916 18.709C50.1916 18.5962 50.2845 18.5055 50.3979 18.5055C50.5113 18.5055 50.6032 18.5962 50.6032 18.709C50.6032 18.8218 50.5113 18.9146 50.3979 18.9146C50.2845 18.9146 50.1916 18.8218 50.1916 18.709ZM50.3419 29.5095C51.1049 29.4965 51.8678 29.3984 52.6308 29.2853C53.7318 32.2769 55.3773 34.594 57.5527 36.2981L57.5707 39.5102C55.7573 38.5406 53.6893 37.2029 50.3475 36.4518L50.3419 29.5095ZM50.356 38.8598L50.3876 36.7534L52.0372 37.3093L52.0149 39.3202L50.356 38.8598ZM50.4602 17.145C50.4575 16.831 50.5346 16.4349 50.68 16.479C50.9598 16.5841 52.1118 17.2781 52.1108 17.3433C52.1082 17.5281 51.4635 17.9472 51.0009 18.0648C50.6578 18.152 50.5855 18.0595 50.4887 17.4123C50.4701 17.3453 50.4609 17.2497 50.4602 17.145ZM50.5504 38.0023L51.1663 38.9943L51.9356 38.198L51.284 37.2616L50.5504 38.0023ZM50.9475 18.4915C50.9417 18.3813 51.0354 18.3015 51.2617 18.2533C51.4492 18.2132 51.8462 18.0169 52.1658 17.7695C52.5375 17.4817 52.5464 17.4846 52.5727 17.905C52.5656 18.3691 52.7899 18.7501 52.834 19.1123C52.8494 19.6042 51.5141 19.3613 51.0584 18.7224C50.9906 18.6346 50.951 18.5577 50.9475 18.4915ZM51.3799 9.40132L56.069 20.2735L58.392 18.7054L52.9305 9.39042L51.3799 9.40132ZM51.7469 18.56C51.7363 18.6575 51.8196 18.7428 51.9973 18.8191C52.1707 18.8934 52.2634 18.8267 52.2664 18.626C52.2717 18.2631 52.1013 18.1545 51.8677 18.3706C51.7939 18.4388 51.7533 18.5016 51.7469 18.56ZM52.3877 39.4848L52.4028 37.3976L53.9332 38.0459L53.8979 40.0096L52.3877 39.4848ZM52.4971 38.4959L53.0108 39.5829L53.7827 38.9663L53.2156 37.9846L52.4971 38.4959ZM52.8128 17.8468C52.8252 17.6379 52.9573 17.6061 53.2871 17.759C53.9366 18.0601 54.2857 18.1788 54.2872 18.3784C54.2872 18.5336 54.0942 18.7218 53.7185 18.9343C53.1752 19.2416 53.1398 19.2317 52.9834 18.7267C52.8926 18.3858 52.8281 18.1248 52.8143 17.947C52.8114 17.9099 52.8109 17.8767 52.8117 17.8468H52.8128ZM52.8128 19.8675C52.8128 19.7548 52.9062 19.6641 53.0196 19.6641C53.133 19.6641 53.2244 19.7548 53.2244 19.8675C53.2244 19.9803 53.133 20.0732 53.0196 20.0732C52.9062 20.0732 52.8128 19.9803 52.8128 19.8675ZM52.933 29.2485L53.8222 29.0688L53.5235 30.1688L54.6153 30.4013L54.9554 29.3045L53.8278 29.0678L55.2359 28.7839C55.2359 28.7839 56.149 32.5499 60.0562 34.989L60.0272 41.122L57.8902 39.7739L57.8435 36.1388C55.1467 33.9635 53.8308 31.6271 52.933 29.2485V29.2485ZM53.4064 19.457C53.4181 19.3956 53.4645 19.3369 53.5443 19.2634C53.6541 19.1622 54.4059 18.7038 54.4059 18.7038L54.6039 19.0952C53.8398 19.5704 54.2093 19.5699 54.8606 19.7498L55.0695 20.2061C55.0809 20.2626 53.721 20.0216 53.4759 19.6672C53.4173 19.5825 53.3945 19.5185 53.4064 19.457V19.457ZM54.1985 40.1752L54.2286 38.171L55.9218 39.0041L55.9093 41.027L54.1985 40.1752ZM54.2235 39.546L54.8984 40.387C54.9128 40.4048 55.7839 39.7718 55.7839 39.7718L55.0198 38.8598L54.2235 39.546ZM54.2571 31.8127L55.4915 32.0224L55.7207 30.923L54.5703 30.6433L54.2571 31.8127ZM55.1867 33.3565L56.5927 33.5646L56.8057 32.5306L55.6227 32.2316L55.1867 33.3565ZM55.2024 54.7048C55.2024 54.7048 71.8578 54.6695 79.9005 54.6213L75.9766 50.8179L59.0942 50.8326L55.2024 54.7048ZM55.6612 54.3825L57.9443 52.1115L75.5183 52.1115L77.8066 54.3825L55.6612 54.3825ZM56.2101 41.1931L56.2269 39.1547L57.6038 39.8995L57.5706 42.0086L56.2101 41.1931ZM56.3102 40.442L56.6939 41.4391L57.4741 40.7939L56.9494 39.8886L56.3102 40.442ZM56.5243 28.4729L58.8583 27.7364L58.99 28.3427L56.7473 29.1441L56.5243 28.4729ZM56.7488 33.7276L56.7789 34.9615L58.0101 34.8717L57.95 33.6882L56.7488 33.7276ZM56.8385 29.358L59.1024 28.665L59.3373 29.263L57.1698 30.0406L56.8385 29.358ZM57.3015 30.2716L59.4182 29.5231C60.2772 31.3577 61.1378 31.8483 61.8397 32.4984C61.3874 32.9185 61.1228 33.4168 61.0367 34.0728C59.382 33.0243 58.0881 31.7437 57.3015 30.2716ZM57.8997 42.2749L57.9079 40.0615L60.0449 41.5014L60.0502 43.925L57.8997 42.2749ZM57.9443 36.0796L59.1439 36.24L59.7101 35.1271L58.3067 34.9817L57.9443 36.0796ZM58.0179 37.4604L58.9267 38.2592L59.8505 37.4277L58.9132 36.5852L58.0179 37.4604ZM58.0822 39.1479L58.9542 40.0324L59.8723 39.3353L58.9801 38.4819L58.0822 39.1479ZM58.3663 51.6942L59.0506 51.0334L75.7495 51.0334L79.2867 54.382H78.3152L75.5266 51.6937L58.3663 51.6942ZM58.3854 42.2095L59.6327 43.0483L59.6577 41.8061L58.4046 41.0094L58.3854 42.2095ZM66.8398 47.8394C67.8768 48.2987 69.1975 48.9133 69.6175 49.908C71.0971 49.1675 72.5761 49.2638 73.387 49.7891C74.0902 49.0379 74.9325 48.2667 76.144 47.7881C74.0364 45.4144 69.7073 45.0328 66.8398 47.8394V47.8394ZM67.0358 47.7818C69.0205 45.9105 73.2155 45.0911 75.7391 47.7683L75.3342 47.9318C72.7325 45.8178 69.3172 46.4702 67.4946 48.0014L67.0358 47.7818ZM68.2225 48.2641C68.219 48.2404 68.2195 48.2178 68.2251 48.1971C68.2543 48.059 68.4512 47.9983 68.7088 48.1338C68.9519 48.2184 69.1563 48.4158 69.1365 48.5807C69.1102 48.7816 68.6491 48.7466 68.377 48.5033C68.2823 48.4187 68.2342 48.3354 68.2236 48.2641H68.2225ZM68.4957 47.7045C68.4882 47.6171 68.6308 47.5173 68.9726 47.3536C69.3391 47.1781 69.5732 47.1057 69.5818 47.23C69.516 47.5215 69.4113 47.7948 69.1717 47.9978C69.0306 48.1173 68.7572 47.9598 68.5517 47.7896C68.5177 47.7615 68.4982 47.7336 68.4957 47.7045V47.7045ZM69.1204 48.9944C69.2875 48.5978 72.5533 47.7252 73.8774 48.9145L73.3492 49.5405C72.4447 49.1948 71.2962 48.9682 69.6481 49.6625C69.6431 49.5854 69.1966 49.1356 69.1204 48.9944ZM69.4641 48.1686C69.4678 47.9272 69.6191 47.5348 69.7912 47.4263C69.9801 47.3071 70.5433 47.6526 70.6922 47.9012C70.7608 47.9896 70.7313 48.0638 70.7084 48.0896C70.604 48.2334 69.6159 48.4301 69.514 48.3435C69.4777 48.3126 69.463 48.249 69.4642 48.1686H69.4641ZM69.7606 50.3191L69.8368 50.574L71.446 50.0923L73.007 50.5304L73.0785 50.2745L71.4439 49.8156L69.7606 50.3191ZM70.1256 47.0779C70.1094 46.9637 70.2814 46.8985 70.6793 46.8714C70.913 46.8554 71.0944 46.8381 71.1044 46.9082C71.1121 46.9627 70.9983 47.1329 70.9022 47.2939C70.7351 47.5739 70.6616 47.5802 70.3501 47.339C70.2128 47.2328 70.1353 47.1465 70.1256 47.0779ZM70.8851 47.9775C70.9 47.7608 71.0385 47.3143 71.3169 47.2394C71.5546 47.1131 71.9337 47.617 71.9276 47.9121C71.9276 47.9668 71.9136 48.0144 71.8856 48.0492L70.911 48.0953C70.889 48.0953 70.8801 48.0498 70.885 47.9775H70.8851ZM71.2713 40.266C71.2617 41.9356 71.6982 42.8218 72.4865 42.5043C72.6916 42.301 72.7691 42.4398 72.8924 42.5272C73.2554 42.8806 73.5196 42.6835 73.9215 42.468C73.9215 42.468 78.8913 45.2343 81.3676 46.616L81.4303 22.2128L79.6107 23.1737L79.4971 23.0075C79.0588 23.2691 78.5658 23.4917 78.1311 23.7592L78.1534 23.9518C77.5452 24.2674 77.3202 24.3953 76.5997 24.8082V24.6219C76.2794 24.7179 76.0664 24.9641 75.8366 24.9692C75.5506 24.9721 75.2603 24.8983 75.0667 25.073C74.8374 25.2799 74.7739 25.305 74.6395 25.2624C74.2826 25.1495 73.8876 25.4708 73.923 25.7971C74.2321 28.0967 73.9517 30.435 73.2579 32.7829C72.5604 35.1433 71.4869 37.2034 71.3019 39.504C71.282 39.7733 71.2716 40.0275 71.2703 40.266L71.2713 40.266ZM71.3906 40.5733C71.3198 37.5031 72.6373 35.3961 73.4062 32.8031C74.14 30.3285 74.3702 28.5256 74.0827 25.754C74.1113 25.4123 74.3141 25.417 74.513 25.414C74.9116 28.3865 74.6141 31.12 73.4658 34.1408C72.3616 37.0648 71.2598 40.2845 72.248 42.3974C72.248 42.3974 71.8275 42.4104 71.7083 42.169C71.7083 42.169 71.5269 41.9461 71.4238 41.2004C71.406 40.9867 71.3953 40.778 71.3906 40.5733V40.5733ZM71.6129 46.9487C71.6129 46.835 71.8292 46.8249 72.2646 46.8807C72.6089 46.9248 72.835 46.9859 72.8343 47.079C72.8343 47.1611 72.6338 47.2901 72.3724 47.4486C72.1685 47.5722 72.0915 47.5467 71.8436 47.2731C71.6901 47.1221 71.6127 47.0169 71.6129 46.9487ZM72.177 48.0336C72.1714 47.9485 72.6759 47.3549 72.9365 47.4143C73.2666 47.5353 73.1963 47.9489 73.1853 48.2023L72.1853 48.0435C72.1802 48.0435 72.1773 48.0392 72.1771 48.0336L72.177 48.0336ZM72.3942 40.5681C72.3916 40.4681 72.3916 40.3667 72.3942 40.2639C72.4397 38.4545 73.2138 36.2358 73.8328 34.568C75.2802 30.6686 75.1963 27.6339 75.0309 25.4659C75.0685 25.2751 75.5693 25.1233 75.5727 25.4291C75.6176 29.4834 76.1263 28.8282 74.2667 35.1307C73.544 37.5802 72.4174 39.542 73.4212 42.374L72.867 42.3876C72.5488 41.8947 72.4096 41.2681 72.3937 40.5682L72.3942 40.5681ZM73.2921 47.2269C73.3014 47.1221 73.4062 47.1417 73.654 47.2307C73.9239 47.3274 74.0561 47.414 74.0583 47.5078C74.061 47.5807 73.9831 47.6575 73.8292 47.7471C73.5335 47.9195 73.4764 47.8968 73.3683 47.5623C73.3151 47.3976 73.2865 47.2899 73.2921 47.227V47.2269ZM73.5664 48.3388C73.5664 48.3388 73.8559 48.0256 74.1403 47.867C74.4164 47.76 74.491 48.0816 74.5177 48.3943L74.1335 48.6933L73.5664 48.3388ZM73.6944 40.0542C73.6872 39.5038 73.7307 38.9177 73.963 38.3361L74.4166 39.6649L73.7136 40.591C73.7051 40.4169 73.6969 40.2377 73.6945 40.0542H73.6944ZM73.9754 41.4454C73.9299 40.4046 74.7281 39.6745 74.7644 39.7044C73.9108 38.2333 74.091 36.929 75.525 35.8268C75.3653 35.5402 74.9892 33.4881 76.6241 32.0069C75.8699 30.5122 76.1861 29.1227 77.0294 27.888C76.1633 26.9756 76.0266 26.0136 76.4426 25.0143L77.0409 24.7184C77.069 24.7931 76.4405 25.1155 76.7334 26.6795C76.8318 27.2047 77.7192 28.1079 78.1518 27.602C78.4813 27.3703 78.6301 27.3636 78.8299 27.5682C79.0267 27.7694 78.925 28.1129 78.7278 28.229C78.5853 28.3093 78.388 28.2745 78.227 28.1454C77.5414 27.5958 76.3501 29.3223 76.5571 30.5643C76.7147 31.5097 77.2856 32.3156 77.72 31.9679C78.0738 31.6848 78.4316 31.8697 78.4292 32.2098C78.4265 32.5596 78.1473 32.8405 77.764 32.5374C76.9115 31.863 75.9112 32.8915 75.8904 34.4642C75.8759 35.5764 76.1512 35.9464 76.9481 35.8865C77.3212 35.8583 77.4243 35.9314 77.481 36.1896C77.5714 36.6021 77.096 36.8104 76.7334 36.4684C75.9504 35.7299 74.7994 36.5692 74.7251 37.9659C74.6979 38.477 74.7248 38.5777 75.0485 39.1479C75.3015 39.5936 75.6838 39.7509 75.9807 39.5325C76.3628 39.2515 76.8193 39.6302 76.6313 40.0677C76.4969 40.3804 76.2557 40.5345 75.8469 40.1887C75.3098 39.7343 74.8987 39.9609 74.568 40.8245C74.3586 41.3715 74.3761 41.753 74.5114 42.0693C74.5967 42.2686 74.7289 42.4422 74.88 42.6149C74.5075 42.4003 74.1615 42.21 74.1615 42.21C74.0414 41.9422 73.9859 41.6855 73.9754 41.4454V41.4454ZM74.3901 36.4886C74.5807 35.8845 74.7926 35.2972 75.0558 34.7507L75.2482 35.6841L74.3901 36.4886ZM74.7173 41.5684C74.7146 41.508 74.7146 41.4462 74.7199 41.3836C74.739 41.083 74.8385 40.7664 75.0714 40.5297C74.9408 41.4996 76.2311 41.8431 76.5178 40.6584C77.6854 42.2203 79.4334 39.2902 77.0181 39.2554C77.2621 37.8776 75.4311 38.0564 75.2886 38.9304C74.793 38.4833 74.7794 37.169 75.8242 36.4819C75.2137 37.6506 76.789 38.283 77.2301 37.069C78.5515 38.5674 79.7697 35.633 77.6345 35.7017C78.2936 34.5958 76.6134 33.8354 76.3555 35.3119C76.0532 35.2277 76.0508 33.2944 76.8325 32.8037C76.5179 34.1746 78.1962 34.2377 78.3328 33.0279C79.8826 34.2423 80.6666 31.1598 78.5516 31.6772C79.0252 30.4863 77.5324 30.0362 77.0528 31.1961C76.8152 31.2605 76.613 29.3179 77.4701 28.638C77.6954 30.131 79.1506 29.6083 79.0342 28.6412C79.0342 28.6412 79.0757 28.655 79.2172 28.7097C80.6779 29.1663 80.8003 26.7117 79.2514 27.0517C79.1089 27.1062 78.9186 27.166 78.9186 27.166C79.0573 26.4892 78.78 26.0757 78.1415 26.1246C77.2937 26.2932 77.3568 26.7385 77.5256 27.3082C77.2745 27.5471 76.435 25.9338 77.1845 24.9209C77.543 26.1614 79.0051 25.5333 78.8077 24.4952C79.2743 24.4523 79.9285 23.948 79.6092 23.2904L80.9856 22.5944L80.9829 46.1649L77.4779 44.1457C77.6745 43.0664 76.7617 42.813 76.6333 42.7966C76.9947 41.3949 75.1668 41.6102 75.0433 42.3133C74.8984 42.3381 74.7342 41.9912 74.7167 41.5685L74.7173 41.5684ZM74.7245 47.9339C74.7141 47.8249 74.7295 47.718 74.7851 47.7611L75.0365 47.9625L74.8178 48.1197C74.7704 48.1539 74.7347 48.0429 74.7245 47.9339ZM75.4886 42.9964C75.664 42.8404 76.0364 42.7951 76.0464 43.2668L75.4886 42.9964ZM75.7618 32.5363L76.0304 31.2641L76.3528 31.9311L75.7618 32.5363ZM76.2782 28.6012L76.2858 27.3107L76.7338 27.8802L76.2782 28.6012ZM77.609 24.4531C77.6036 24.442 77.6175 24.4248 77.6598 24.4008C77.7493 24.35 78.1494 24.085 78.1616 24.0976C78.1719 24.2208 78.0439 24.3433 77.9428 24.3982C77.8154 24.4636 77.6248 24.4868 77.609 24.4536V24.4531Z" fill="#100F08"/>
<path d="M65.7281 17.4557C68.1453 15.992 70.4946 14.4522 72.5014 12.5278C74.5083 14.4522 76.8576 15.992 79.2748 17.4557C76.8576 18.9194 74.5083 20.4593 72.5014 22.3836C70.4946 20.4593 68.1453 18.9194 65.7281 17.4557Z" fill="#C8102E"/>
<path d="M68.754 5.47809C69.7611 4.86823 70.74 4.2266 71.5762 3.4248C72.4124 4.2266 73.3913 4.86823 74.3984 5.47809C73.3913 6.08794 72.4124 6.72955 71.5762 7.53137C70.74 6.72955 69.7611 6.08794 68.754 5.47809Z" fill="#C8102E"/>
<path d="M23.2723 46.5447C20.8551 45.081 18.5058 43.5412 16.499 41.6168C14.4921 43.5412 12.1428 45.081 9.72563 46.5447C12.1428 48.0084 14.4921 49.5482 16.499 51.4726C18.5058 49.5482 20.8551 48.0084 23.2723 46.5447Z" fill="#C8102E"/>
<path d="M20.2499 58.5225C19.2427 57.9127 18.2638 57.271 17.4276 56.4692C16.5914 57.271 15.6126 57.9127 14.6054 58.5225C15.6126 59.1324 16.5914 59.774 17.4276 60.5758C18.2638 59.774 19.2427 59.1324 20.2499 58.5225Z" fill="#C8102E"/>
<path d="M76.3093 5.70308V6.63994L79.7482 5.26362L78.2956 4.21211L76.3093 4.21941V4.95783H75.285V2.35547H76.3093V3.21289L83.7048 3.21289L83.7014 2.35547H84.5968V4.99594H83.6711V4.2673L80.0667 4.25179L83.7014 6.55671V5.74311H84.5968V8.55239H83.7014V7.81107L80.7311 5.9133L76.3078 7.77152V8.59628L75.2834 8.60055V5.71183L76.3093 5.70308H76.3093Z" fill="#C8102E"/>
<path d="M12.6946 58.2974V57.3605L9.25569 58.7368L10.7084 59.7884L12.6946 59.781V59.0426H13.7189V61.6451H12.6946V60.7876H5.29909L5.30248 61.6451H4.4071V59.0045H5.33279V59.7332L8.93723 59.7487L5.30248 57.4438V58.2573H4.4071V55.4481H5.30248V56.1894L8.27279 58.0872L12.6961 56.2289V55.4042L13.7205 55.3999V58.2886L12.6946 58.2974H12.6946Z" fill="#C8102E"/>
</g>
<defs>
<clipPath id="clip0">
<rect width="63.0002" height="88.0003" fill="white" transform="translate(0.501831 63.5002) rotate(-90)"/>
</clipPath>
</defs>
</svg>
