<svg width="89" height="64" viewBox="0 0 89 64" fill="none" xmlns="http://www.w3.org/2000/svg">
<g clip-path="url(#clip0)">
<path d="M0.501343 3.51351L0.501343 60.4868C0.501343 62.1511 1.8488 63.5002 3.51097 63.5002L85.492 63.5002C87.1542 63.5002 88.5016 62.1511 88.5016 60.4868V3.51351C88.5016 1.84922 87.1542 0.500057 85.492 0.500057L3.51097 0.500057C1.8488 0.500057 0.501343 1.84922 0.501343 3.51351Z" fill="white"/>
<path d="M23.2753 32.0001C20.8582 33.4638 18.5089 35.0036 16.502 36.928C14.4952 35.0036 12.1459 33.4638 9.72864 32.0001C12.1459 30.5364 14.4952 28.9966 16.502 27.0722C18.5089 28.9966 20.8582 30.5364 23.2753 32.0001Z" fill="#C8102E"/>
<path d="M20.2494 58.6412C19.2423 59.251 18.2634 59.8927 17.4272 60.6945C16.591 59.8927 15.6122 59.251 14.605 58.6412C15.6122 58.0313 16.591 57.3897 17.4272 56.5879C18.2634 57.3897 19.2423 58.0313 20.2494 58.6412Z" fill="#C8102E"/>
<path d="M74.398 5.35895C73.3909 5.96881 72.412 6.61042 71.5758 7.41223C70.7396 6.61042 69.7607 5.96881 68.7535 5.35895C69.7607 4.74909 70.7396 4.10747 71.5758 3.30567C72.412 4.10747 73.3909 4.74909 74.398 5.35895Z" fill="#C8102E"/>
<path d="M79.2744 32.0001C76.8572 33.4638 74.5079 35.0036 72.501 36.928C70.4942 35.0036 68.1449 33.4638 65.7277 32.0001C68.1449 30.5364 70.4942 28.9966 72.501 27.0722C74.5079 28.9966 76.8572 30.5364 79.2744 32.0001Z" fill="#C8102E"/>
<path d="M13.7 61.2922L13.1257 61.2469C11.351 61.1036 10.7523 60.7222 8.89963 58.5593C8.00154 57.5092 7.55842 57.1648 7.04435 57.1165C5.83178 56.979 5.45335 58.052 5.44779 58.7508C5.4396 59.6565 5.9907 60.6812 7.27165 60.1921L7.57581 61.2084C6.38096 61.4127 5.26005 61.2025 4.76261 60.2516C4.114 58.9816 4.36828 57.3531 5.39016 56.5309C6.07571 55.9783 7.0244 55.852 7.76687 56.1485C9.66352 57.0146 10.498 59.9526 12.6926 60.195V56.9478H11.4707V55.991H13.72L13.6999 61.2922H13.7Z" fill="#C8102E"/>
<path d="M75.3029 2.70877L75.8772 2.75414C77.6519 2.89745 78.2506 3.27879 80.1033 5.44175C81.0014 6.49185 81.4445 6.83618 81.9586 6.88444C83.1711 7.02197 83.5496 5.94903 83.5551 5.25019C83.5633 4.3445 83.0122 3.31981 81.7313 3.80893L81.4271 2.79259C82.6219 2.58831 83.7429 2.79851 84.2403 3.74943C84.8889 5.01941 84.6346 6.64786 83.6128 7.47009C82.9272 8.02271 81.9785 8.14898 81.2361 7.85253C79.3394 6.98642 78.5049 4.04842 76.3104 3.80602V7.05317H77.5322V8.01001H75.283L75.303 2.70877H75.3029Z" fill="#C8102E"/>
</g>
<defs>
<clipPath id="clip0">
<rect width="63.0002" height="88.0003" fill="white" transform="translate(0.501343 63.5002) rotate(-90)"/>
</clipPath>
</defs>
</svg>
