<svg width="89" height="64" viewBox="0 0 89 64" fill="none" xmlns="http://www.w3.org/2000/svg">
<g clip-path="url(#clip0)">
<path d="M0.501587 3.51351L0.501587 60.4868C0.501587 62.1511 1.84904 63.5002 3.51122 63.5002L85.4922 63.5002C87.1544 63.5002 88.5019 62.1511 88.5019 60.4868V3.51351C88.5019 1.84922 87.1544 0.500042 85.4922 0.500042L3.51122 0.500042C1.84904 0.500042 0.501587 1.84922 0.501587 3.51351Z" fill="white"/>
<path d="M23.2756 32.0001C20.8584 33.4637 18.5091 35.0036 16.5022 36.928C14.4954 35.0036 12.1461 33.4637 9.72888 32.0001C12.1461 30.5364 14.4954 28.9966 16.5022 27.0722C18.5091 28.9966 20.8584 30.5364 23.2756 32.0001Z" fill="#C8102E"/>
<path d="M20.2497 58.6411C19.2425 59.2509 18.2637 59.8925 17.4275 60.6943C16.5913 59.8925 15.6124 59.2509 14.6052 58.6411C15.6124 58.0312 16.5913 57.3896 17.4275 56.5878C18.2637 57.3896 19.2425 58.0312 20.2497 58.6411Z" fill="#C8102E"/>
<path d="M74.3982 5.35895C73.3911 5.9688 72.4122 6.61044 71.576 7.41223C70.7398 6.61044 69.761 5.9688 68.7538 5.35895C69.761 4.74909 70.7398 4.10749 71.576 3.30567C72.4122 4.10749 73.3911 4.74909 74.3982 5.35895Z" fill="#C8102E"/>
<path d="M51.2751 32.0001C48.8579 33.4637 46.5086 35.0036 44.5017 36.928C42.4949 35.0036 40.1456 33.4637 37.7284 32.0001C40.1456 30.5364 42.4949 28.9966 44.5017 27.0722C46.5086 28.9966 48.8579 30.5364 51.2751 32.0001Z" fill="#C8102E"/>
<path d="M79.2746 32.0001C76.8574 33.4637 74.5081 35.0036 72.5013 36.928C70.4944 35.0036 68.1451 33.4637 65.7279 32.0001C68.1451 30.5364 70.4944 28.9966 72.5013 27.0722C74.5081 28.9966 76.8574 30.5364 79.2746 32.0001Z" fill="#C8102E"/>
<path d="M11.6788 61.6642L11.1515 60.9472C12.1648 60.3249 12.8322 59.629 12.7176 58.5644C12.6078 56.9671 10.9334 56.3053 9.67183 56.6394C8.53994 56.9627 7.98859 58.2853 8.59204 59.3369C8.73504 59.5851 8.85183 59.8245 8.85183 59.8714C8.85183 59.9816 8.35517 60.2313 8.20365 60.1972C7.17299 59.4914 5.36742 57.7777 5.36742 57.7777V60.4552H6.57657V61.4827H4.40698V56.2498H5.1431C5.1431 56.2498 6.59726 57.6518 7.39361 58.1152C7.43538 56.974 8.15857 56.0542 9.30192 55.724C9.90393 55.5313 11.2808 55.6176 11.8743 55.8698C12.8636 56.2911 13.6662 57.4417 13.7124 58.4936C13.831 60.2596 12.5938 61.1965 11.6788 61.6642V61.6642Z" fill="#C8102E"/>
<path d="M77.3247 2.33672L77.8521 3.05375C76.8388 3.67602 76.1714 4.37195 76.2859 5.43656C76.3957 7.03382 78.0701 7.69565 79.3317 7.36147C80.4636 7.03819 81.015 5.71559 80.4115 4.66406C80.2685 4.41587 80.1517 4.17641 80.1517 4.12959C80.1517 4.01929 80.6484 3.76963 80.7999 3.80375C81.8306 4.50947 83.6361 6.22321 83.6361 6.22321V3.54574L82.427 3.54574V2.51817L84.5966 2.51817V7.75118H83.8604C83.8604 7.75118 82.4063 6.34912 81.6099 5.88576C81.5682 7.02693 80.845 7.94674 79.7016 8.27694C79.0996 8.46962 77.7227 8.38327 77.1292 8.13108C76.14 7.70983 75.3373 6.55919 75.2911 5.50732C75.1725 3.74131 76.4097 2.80445 77.3247 2.33672V2.33672Z" fill="#C8102E"/>
</g>
<defs>
<clipPath id="clip0">
<rect width="63.0002" height="88.0003" fill="white" transform="translate(0.501587 63.5002) rotate(-90)"/>
</clipPath>
</defs>
</svg>
