<svg width="89" height="64" viewBox="0 0 89 64" fill="none" xmlns="http://www.w3.org/2000/svg">
<g clip-path="url(#clip0)">
<path d="M0.5 3.51351L0.5 60.4868C0.5 62.1511 1.84746 63.5002 3.50963 63.5002L85.4907 63.5002C87.1528 63.5002 88.5003 62.1511 88.5003 60.4868V3.51351C88.5003 1.84922 87.1528 0.500042 85.4907 0.500042L3.50963 0.500042C1.84746 0.500042 0.5 1.84922 0.5 3.51351Z" fill="white"/>
<path d="M20.2481 58.6411C19.241 59.251 18.2621 59.8926 17.4259 60.6945C16.5897 59.8926 15.6108 59.251 14.6036 58.6411C15.6108 58.0313 16.5897 57.3897 17.4259 56.5879C18.2621 57.3897 19.241 58.0313 20.2481 58.6411Z" fill="#C8102E"/>
<path d="M23.274 17.3905C20.8568 18.8542 18.5075 20.394 16.5006 22.3184C14.4938 20.394 12.1445 18.8542 9.72729 17.3905C12.1445 15.9268 14.4938 14.3869 16.5006 12.4626C18.5075 14.3869 20.8568 15.9268 23.274 17.3905Z" fill="#C8102E"/>
<path d="M74.3967 5.35895C73.3895 5.9688 72.4106 6.61041 71.5744 7.41223C70.7383 6.61041 69.7594 5.9688 68.7522 5.35895C69.7594 4.74909 70.7383 4.10746 71.5744 3.30567C72.4106 4.10746 73.3895 4.74909 74.3967 5.35895Z" fill="#C8102E"/>
<path d="M23.274 46.6098C20.8568 48.0735 18.5075 49.6134 16.5006 51.5377C14.4938 49.6134 12.1445 48.0735 9.72729 46.6098C12.1445 45.1462 14.4938 43.6063 16.5006 41.682C18.5075 43.6063 20.8568 45.1462 23.274 46.6098Z" fill="#C8102E"/>
<path d="M79.2745 46.6098C76.8573 48.0735 74.508 49.6134 72.5011 51.5377C70.4943 49.6134 68.145 48.0735 65.7278 46.6098C68.145 45.1462 70.4943 43.6063 72.5011 41.682C74.508 43.6063 76.8573 45.1462 79.2745 46.6098Z" fill="#C8102E"/>
<path d="M79.2764 17.3905C76.8593 18.8542 74.51 20.394 72.5031 22.3184C70.4963 20.394 68.1469 18.8542 65.7297 17.3905C68.1469 15.9268 70.4963 14.3869 72.5031 12.4626C74.51 14.3869 76.8593 15.9268 79.2764 17.3905Z" fill="#C8102E"/>
<path d="M13.7175 58.5762H12.8949V57.8338H11.538V61.5472H10.5805L4.40527 57.529L4.40866 56.8726H10.5806V55.7359H11.5381V56.8726L12.895 56.8941V56.2718H13.7187V58.5763L13.7175 58.5762ZM6.66608 57.8338L10.5809 60.385V57.8338H6.66608Z" fill="#C8102E"/>
<path d="M75.2828 5.42475H76.1054V6.16714H77.4623V2.45372H78.4197L84.595 6.47192L84.5916 7.12832L78.4197 7.12832V8.26514H77.4622V7.12832L76.1053 7.10689V7.72915H75.2816V5.42472L75.2828 5.42475ZM82.3342 6.16714L78.4194 3.61593V6.16714H82.3342Z" fill="#C8102E"/>
</g>
<defs>
<clipPath id="clip0">
<rect width="63.0002" height="88.0003" fill="white" transform="translate(0.5 63.5002) rotate(-90)"/>
</clipPath>
</defs>
</svg>
