<svg width="89" height="64" viewBox="0 0 89 64" fill="none" xmlns="http://www.w3.org/2000/svg">
<g clip-path="url(#clip0)">
<path d="M0.5 3.51351L0.5 60.4868C0.5 62.1511 1.84746 63.5002 3.50963 63.5002L85.4907 63.5002C87.1528 63.5002 88.5003 62.1511 88.5003 60.4868V3.51351C88.5003 1.84922 87.1528 0.500042 85.4907 0.500042L3.50963 0.500042C1.84746 0.500042 0.5 1.84922 0.5 3.51351Z" fill="white"/>
<path d="M20.2481 58.6412C19.241 59.251 18.2621 59.8927 17.4259 60.6945C16.5897 59.8927 15.6108 59.251 14.6036 58.6412C15.6108 58.0313 16.5897 57.3897 17.4259 56.5879C18.2621 57.3897 19.241 58.0313 20.2481 58.6412Z" fill="#C8102E"/>
<path d="M23.274 17.3905C20.8568 18.8541 18.5075 20.394 16.5006 22.3184C14.4938 20.394 12.1445 18.8541 9.72729 17.3905C12.1445 15.9268 14.4938 14.3869 16.5006 12.4626C18.5075 14.3869 20.8568 15.9268 23.274 17.3905Z" fill="#C8102E"/>
<path d="M74.3967 5.35895C73.3895 5.9688 72.4106 6.61044 71.5744 7.41223C70.7383 6.61044 69.7594 5.9688 68.7522 5.35895C69.7594 4.74909 70.7383 4.10749 71.5744 3.30567C72.4106 4.10749 73.3895 4.74909 74.3967 5.35895Z" fill="#C8102E"/>
<path d="M23.274 46.6098C20.8568 48.0735 18.5075 49.6134 16.5006 51.5377C14.4938 49.6134 12.1445 48.0735 9.72729 46.6098C12.1445 45.1462 14.4938 43.6063 16.5006 41.682C18.5075 43.6063 20.8568 45.1462 23.274 46.6098Z" fill="#C8102E"/>
<path d="M51.2735 32.0002C48.8563 33.4639 46.507 35.0038 44.5002 36.9281C42.4933 35.0038 40.144 33.4639 37.7268 32.0002C40.144 30.5365 42.4933 28.9967 44.5002 27.0723C46.507 28.9967 48.8563 30.5365 51.2735 32.0002Z" fill="#C8102E"/>
<path d="M79.2745 46.6098C76.8573 48.0735 74.508 49.6134 72.5011 51.5377C70.4943 49.6134 68.145 48.0735 65.7278 46.6098C68.145 45.1462 70.4943 43.6063 72.5011 41.682C74.508 43.6063 76.8573 45.1462 79.2745 46.6098Z" fill="#C8102E"/>
<path d="M79.2764 17.3905C76.8593 18.8541 74.51 20.394 72.5031 22.3184C70.4963 20.394 68.1469 18.8541 65.7297 17.3905C68.1469 15.9268 70.4963 14.3869 72.5031 12.4626C74.51 14.3869 76.8593 15.9268 79.2764 17.3905Z" fill="#C8102E"/>
<path d="M11.3076 61.5771L11.2989 60.6642C11.861 60.49 12.4324 60.1046 12.591 59.5814C12.9446 58.1032 12.1031 57.1521 11.1329 56.839C9.95619 56.4591 8.30377 56.8474 7.71725 57.8651C7.23087 58.7084 7.64111 59.9613 8.6815 60.5368L8.28308 61.1761L4.4054 60.8329V56.6561H5.32197V60.0408L6.93742 60.0945C6.41632 59.3659 6.42185 58.2461 6.78739 57.5179C7.45744 56.1387 8.98085 55.4979 10.7763 55.7657C12.5621 56.1372 13.5741 56.9566 13.7186 58.8046C13.7375 60.8601 12.2979 61.5858 11.3078 61.5771H11.3076Z" fill="#C8102E"/>
<path d="M77.6927 2.42389L77.7015 3.33684C77.1393 3.511 76.568 3.89633 76.4094 4.41957C76.0557 5.8978 76.8973 6.84886 77.8674 7.16201C79.0442 7.54191 80.6966 7.15355 81.2831 6.13585C81.7695 5.2926 81.3593 4.03966 80.3189 3.46421L80.7173 2.82486L84.595 3.1681V7.34484H83.6784V3.9602L82.0629 3.90649C82.5841 4.6351 82.5785 5.75486 82.213 6.48308C81.543 7.86228 80.0195 8.50307 78.2241 8.2353C76.4382 7.86375 75.4263 7.04444 75.2818 5.19644C75.2629 3.1409 76.7025 2.41517 77.6926 2.42389H77.6927Z" fill="#C8102E"/>
</g>
<defs>
<clipPath id="clip0">
<rect width="63.0002" height="88.0003" fill="white" transform="translate(0.5 63.5002) rotate(-90)"/>
</clipPath>
</defs>
</svg>
