<svg width="89" height="64" viewBox="0 0 89 64" fill="none" xmlns="http://www.w3.org/2000/svg">
<g clip-path="url(#clip0)">
<path d="M0.5 3.51351L0.5 60.4868C0.5 62.1511 1.84746 63.5002 3.50963 63.5002L85.4907 63.5002C87.1528 63.5002 88.5003 62.1511 88.5003 60.4868V3.51351C88.5003 1.84922 87.1528 0.500042 85.4907 0.500042L3.50963 0.500042C1.84746 0.500042 0.5 1.84922 0.5 3.51351Z" fill="white"/>
<path d="M20.2481 58.6411C19.241 59.251 18.2621 59.8927 17.4259 60.6945C16.5897 59.8927 15.6108 59.251 14.6036 58.6411C15.6108 58.0313 16.5897 57.3897 17.4259 56.5879C18.2621 57.3897 19.241 58.0313 20.2481 58.6411Z" fill="#C8102E"/>
<path d="M23.274 17.3905C20.8568 18.8541 18.5075 20.394 16.5006 22.3184C14.4938 20.394 12.1445 18.8541 9.72729 17.3905C12.1445 15.9268 14.4938 14.3869 16.5006 12.4626C18.5075 14.3869 20.8568 15.9268 23.274 17.3905Z" fill="#C8102E"/>
<path d="M74.3967 5.35895C73.3895 5.9688 72.4106 6.61044 71.5744 7.41223C70.7383 6.61044 69.7594 5.9688 68.7522 5.35895C69.7594 4.74909 70.7383 4.10749 71.5744 3.30567C72.4106 4.10749 73.3895 4.74909 74.3967 5.35895Z" fill="#C8102E"/>
<path d="M23.274 46.6098C20.8568 48.0735 18.5075 49.6134 16.5006 51.5377C14.4938 49.6134 12.1445 48.0735 9.72729 46.6098C12.1445 45.1461 14.4938 43.6063 16.5006 41.682C18.5075 43.6063 20.8568 45.1461 23.274 46.6098Z" fill="#C8102E"/>
<path d="M51.2644 46.6098C48.8472 48.0735 46.4979 49.6134 44.491 51.5377C42.4842 49.6134 40.1349 48.0735 37.7177 46.6098C40.1349 45.1461 42.4842 43.6063 44.491 41.682C46.4979 43.6063 48.8472 45.1461 51.2644 46.6098Z" fill="#C8102E"/>
<path d="M51.2688 17.3905C48.8516 18.8541 46.5023 20.394 44.4954 22.3184C42.4886 20.394 40.1393 18.8541 37.722 17.3905C40.1393 15.9268 42.4886 14.3869 44.4954 12.4626C46.5023 14.3869 48.8516 15.9268 51.2688 17.3905Z" fill="#C8102E"/>
<path d="M79.2745 46.6098C76.8573 48.0735 74.508 49.6134 72.5011 51.5377C70.4943 49.6134 68.145 48.0735 65.7278 46.6098C68.145 45.1461 70.4943 43.6063 72.5011 41.682C74.508 43.6063 76.8573 45.1461 79.2745 46.6098Z" fill="#C8102E"/>
<path d="M79.2764 17.3905C76.8593 18.8541 74.51 20.394 72.5031 22.3184C70.4963 20.394 68.1469 18.8541 65.7297 17.3905C68.1469 15.9268 70.4963 14.3869 72.5031 12.4626C74.51 14.3869 76.8593 15.9268 79.2764 17.3905Z" fill="#C8102E"/>
<path d="M10.8533 61.3766C10.0695 61.4913 8.04312 61.4884 7.44368 61.3947C5.60728 61.1055 4.76691 60.4041 4.49267 59.2292C4.22546 58.088 4.52298 56.4849 6.0578 56.1333L6.07642 57.0873C5.03869 57.6032 5.31586 58.9088 5.76747 59.6443C6.12706 60.231 7.62862 60.4963 7.72102 60.3827C7.72102 60.3827 6.8991 59.2731 6.9597 58.3982C7.15446 56.5288 8.77578 55.7578 10.3065 55.8231C12.1481 55.8826 13.6208 56.4664 13.7188 58.448C13.646 60.3319 12.6189 61.1951 10.8535 61.3765L10.8533 61.3766ZM10.367 56.7303C9.08938 56.7202 8.13183 57.3 8.02687 58.3983C7.92118 59.4956 8.99218 60.6026 10.2946 60.5261C11.6025 60.4495 12.7027 59.9434 12.6968 58.6124C12.6911 57.181 11.2765 56.7372 10.367 56.7303V56.7303Z" fill="#C8102E"/>
<path d="M78.1468 2.62435C78.9307 2.50968 80.9571 2.5126 81.5565 2.6063C83.3929 2.89549 84.2333 3.5969 84.5075 4.77179C84.7747 5.91296 84.4772 7.51604 82.9424 7.86763L82.9241 6.91368C83.9618 6.39772 83.6846 5.09219 83.233 4.35669C82.8734 3.76998 81.3719 3.5047 81.2795 3.61827C81.2795 3.61827 82.1014 4.72788 82.0408 5.60272C81.846 7.4721 80.2247 8.24316 78.694 8.17783C76.8524 8.11834 75.3797 7.53452 75.2817 5.553C75.3546 3.66908 76.3816 2.80587 78.147 2.62446L78.1468 2.62435ZM78.6332 7.27063C79.9108 7.28079 80.8684 6.70097 80.9733 5.60265C81.079 4.50539 80.008 3.39831 78.7056 3.47488C77.3978 3.55145 76.2975 4.0576 76.3035 5.38853C76.3091 6.81997 77.7237 7.26374 78.6332 7.27063Z" fill="#C8102E"/>
</g>
<defs>
<clipPath id="clip0">
<rect width="63.0002" height="88.0003" fill="white" transform="translate(0.5 63.5002) rotate(-90)"/>
</clipPath>
</defs>
</svg>
