<svg width="89" height="64" viewBox="0 0 89 64" fill="none" xmlns="http://www.w3.org/2000/svg">
<g clip-path="url(#clip0)">
<path d="M0.5 3.51351L0.5 60.4868C0.5 62.1511 1.84746 63.5002 3.50963 63.5002L85.4907 63.5002C87.1528 63.5002 88.5003 62.1511 88.5003 60.4868V3.51351C88.5003 1.84922 87.1528 0.500076 85.4907 0.500076L3.50963 0.500076C1.84746 0.500076 0.5 1.84922 0.5 3.51351Z" fill="white"/>
<path d="M20.2481 58.6411C19.241 59.2509 18.2621 59.8925 17.4259 60.6943C16.5897 59.8925 15.6108 59.2509 14.6036 58.6411C15.6108 58.0312 16.5897 57.3896 17.4259 56.5878C18.2621 57.3896 19.241 58.0312 20.2481 58.6411Z" fill="#C8102E"/>
<path d="M23.274 17.3905C20.8568 18.8541 18.5075 20.394 16.5006 22.3184C14.4938 20.394 12.1445 18.8541 9.72729 17.3905C12.1445 15.9268 14.4938 14.3869 16.5006 12.4626C18.5075 14.3869 20.8568 15.9268 23.274 17.3905Z" fill="#C8102E"/>
<path d="M74.3967 5.35883C73.3895 5.96868 72.4106 6.61031 71.5744 7.41211C70.7383 6.61031 69.7594 5.96868 68.7522 5.35883C69.7594 4.74897 70.7383 4.10737 71.5744 3.30554C72.4106 4.10737 73.3895 4.74897 74.3967 5.35883Z" fill="#C8102E"/>
<path d="M23.274 46.6097C20.8568 48.0734 18.5075 49.6133 16.5006 51.5376C14.4938 49.6133 12.1445 48.0734 9.72729 46.6097C12.1445 45.1461 14.4938 43.6062 16.5006 41.6818C18.5075 43.6062 20.8568 45.1461 23.274 46.6097Z" fill="#C8102E"/>
<path d="M37.2691 32.0001C34.8519 33.4638 32.5026 35.0036 30.4958 36.928C28.4889 35.0036 26.1396 33.4638 23.7224 32.0001C26.1396 30.5364 28.4889 28.9966 30.4958 27.0722C32.5026 28.9966 34.8519 30.5364 37.2691 32.0001Z" fill="#C8102E"/>
<path d="M51.2644 46.6097C48.8472 48.0734 46.4979 49.6133 44.491 51.5376C42.4842 49.6133 40.1349 48.0734 37.7177 46.6097C40.1349 45.1461 42.4842 43.6062 44.491 41.6818C46.4979 43.6062 48.8472 45.1461 51.2644 46.6097Z" fill="#C8102E"/>
<path d="M51.2688 17.3905C48.8516 18.8541 46.5023 20.394 44.4954 22.3184C42.4886 20.394 40.1393 18.8541 37.722 17.3905C40.1393 15.9268 42.4886 14.3869 44.4954 12.4626C46.5023 14.3869 48.8516 15.9268 51.2688 17.3905Z" fill="#C8102E"/>
<path d="M79.2745 46.6097C76.8573 48.0734 74.508 49.6133 72.5011 51.5376C70.4943 49.6133 68.145 48.0734 65.7278 46.6097C68.145 45.1461 70.4943 43.6062 72.5011 41.6818C74.508 43.6062 76.8573 45.1461 79.2745 46.6097Z" fill="#C8102E"/>
<path d="M79.2764 17.3905C76.8593 18.8541 74.51 20.394 72.5031 22.3184C70.4963 20.394 68.1469 18.8541 65.7297 17.3905C68.1469 15.9268 70.4963 14.3869 72.5031 12.4626C74.51 14.3869 76.8593 15.9268 79.2764 17.3905Z" fill="#C8102E"/>
<path d="M13.7176 60.0732C10.4796 59.4607 8.04869 58.8086 5.41047 57.0967V60.5765H6.54608V61.5002H4.40527V56.4106L5.41047 55.7828C7.39531 57.6011 13.8115 59.2651 13.7176 58.9705V60.0732Z" fill="#C8102E"/>
<path d="M75.2826 3.92769C78.5206 4.5402 80.9516 5.19219 83.5898 6.90412V3.42443L82.4541 3.42443V2.50059L84.595 2.50059V7.59025L83.5898 8.21802C81.6049 6.39977 75.1888 4.73576 75.2826 5.0304V3.92769Z" fill="#C8102E"/>
</g>
<defs>
<clipPath id="clip0">
<rect width="63.0002" height="88.0003" fill="white" transform="translate(0.5 63.5002) rotate(-90)"/>
</clipPath>
</defs>
</svg>
