<svg width="89" height="64" viewBox="0 0 89 64" fill="none" xmlns="http://www.w3.org/2000/svg">
<g clip-path="url(#clip0)">
<path d="M0.5 3.51351L0.5 60.4868C0.5 62.1511 1.84746 63.5002 3.50963 63.5002L85.4907 63.5002C87.1528 63.5002 88.5003 62.1511 88.5003 60.4868V3.51351C88.5003 1.84922 87.1528 0.500076 85.4907 0.500076L3.50963 0.500076C1.84746 0.500076 0.5 1.84922 0.5 3.51351Z" fill="white"/>
<path d="M20.2481 58.6411C19.241 59.2509 18.2621 59.8925 17.4259 60.6943C16.5897 59.8925 15.6108 59.2509 14.6036 58.6411C15.6108 58.0312 16.5897 57.3896 17.4259 56.5878C18.2621 57.3896 19.241 58.0312 20.2481 58.6411Z" fill="#C8102E"/>
<path d="M23.274 17.3905C20.8568 18.8541 18.5075 20.394 16.5006 22.3184C14.4938 20.394 12.1445 18.8541 9.72729 17.3905C12.1445 15.9268 14.4938 14.3869 16.5006 12.4626C18.5075 14.3869 20.8568 15.9268 23.274 17.3905Z" fill="#C8102E"/>
<path d="M74.3967 5.35883C73.3895 5.96868 72.4106 6.61031 71.5744 7.41211C70.7383 6.61031 69.7594 5.96868 68.7522 5.35883C69.7594 4.749 70.7383 4.1074 71.5744 3.30554C72.4106 4.1074 73.3895 4.749 74.3967 5.35883Z" fill="#C8102E"/>
<path d="M23.274 46.6097C20.8568 48.0734 18.5075 49.6133 16.5006 51.5376C14.4938 49.6133 12.1445 48.0734 9.72729 46.6097C12.1445 45.1461 14.4938 43.6061 16.5006 41.6818C18.5075 43.6061 20.8568 45.1461 23.274 46.6097Z" fill="#C8102E"/>
<path d="M37.2691 32.0001C34.8519 33.4638 32.5026 35.0037 30.4958 36.928C28.4889 35.0037 26.1396 33.4638 23.7224 32.0001C26.1396 30.5364 28.4889 28.9965 30.4958 27.0722C32.5026 28.9965 34.8519 30.5364 37.2691 32.0001Z" fill="#C8102E"/>
<path d="M51.2644 46.6097C48.8472 48.0734 46.4979 49.6133 44.491 51.5376C42.4842 49.6133 40.1349 48.0734 37.7177 46.6097C40.1349 45.1461 42.4842 43.6061 44.491 41.6818C46.4979 43.6061 48.8472 45.1461 51.2644 46.6097Z" fill="#C8102E"/>
<path d="M51.2688 17.3905C48.8516 18.8541 46.5023 20.394 44.4954 22.3184C42.4886 20.394 40.1393 18.8541 37.722 17.3905C40.1393 15.9268 42.4886 14.3869 44.4954 12.4626C46.5023 14.3869 48.8516 15.9268 51.2688 17.3905Z" fill="#C8102E"/>
<path d="M79.2745 46.6097C76.8573 48.0734 74.508 49.6133 72.5011 51.5376C70.4943 49.6133 68.145 48.0734 65.7278 46.6097C68.145 45.1461 70.4943 43.6061 72.5011 41.6818C74.508 43.6061 76.8573 45.1461 79.2745 46.6097Z" fill="#C8102E"/>
<path d="M79.2764 17.3905C76.8593 18.8541 74.51 20.394 72.5031 22.3184C70.4963 20.394 68.1469 18.8541 65.7297 17.3905C68.1469 15.9268 70.4963 14.3869 72.5031 12.4626C74.51 14.3869 76.8593 15.9268 79.2764 17.3905Z" fill="#C8102E"/>
<path d="M65.2694 32.0001C62.8522 33.4638 60.5029 35.0037 58.496 36.928C56.4892 35.0037 54.1399 33.4637 51.7227 32.0001C54.1399 30.5364 56.4892 28.9965 58.496 27.0722C60.5029 28.9965 62.8522 30.5364 65.2694 32.0001Z" fill="#C8102E"/>
<path d="M10.9907 61.6669C9.74046 61.6226 9.27146 61.1705 8.61733 60.2804C8.10512 60.9905 7.35006 61.2899 6.70738 61.2289C5.15112 61.0827 4.37317 59.8809 4.40642 58.5696C4.44116 57.2572 5.48152 56.1277 6.61241 56.0395C7.59548 55.9629 8.07001 56.255 8.58702 56.9524C9.28589 56.1247 9.74489 55.5961 10.9763 55.6157C12.2077 55.6352 13.6731 56.6828 13.7178 58.5087C13.7625 60.3345 12.241 61.7123 10.9907 61.6669V61.6669ZM10.9953 56.57C9.86323 56.492 9.0997 57.4927 9.08861 58.6222C9.07676 59.722 10.0155 60.7058 11.0318 60.7058C12.1232 60.7058 12.7163 59.4259 12.7189 58.5994C12.7234 57.5946 11.9698 56.6379 10.9953 56.57V56.57ZM6.94583 56.9314C5.99347 56.9099 5.31012 57.7888 5.33747 58.6959C5.36231 59.5025 5.97719 60.3556 6.77399 60.3571C7.77148 60.3571 8.26966 59.386 8.28888 58.5569C8.30581 57.8044 7.66615 56.9484 6.94583 56.9314V56.9314Z" fill="#C8102E"/>
<path d="M78.0096 8.38465C79.2599 8.3404 79.7289 7.88828 80.3831 6.9982C80.8953 7.70831 81.6503 8.00767 82.293 7.94671C83.8493 7.80049 84.6272 6.59871 84.5939 5.28736C84.5592 3.97494 83.5189 2.84538 82.388 2.75721C81.4049 2.68064 80.9304 2.97276 80.4133 3.67016C79.7145 2.84249 79.2555 2.31381 78.0241 2.33339C76.7926 2.35287 75.3273 3.40058 75.2826 5.22646C75.2378 7.0523 76.7594 8.43003 78.0096 8.38465V8.38465ZM78.0051 3.28769C79.1371 3.20968 79.9007 4.21044 79.9118 5.34001C79.9236 6.4398 78.9849 7.42347 77.9686 7.42347C76.8772 7.42347 76.2841 6.14371 76.2815 5.31713C76.2769 4.31239 77.0306 3.35556 78.0051 3.28769V3.28769ZM82.0546 3.64915C83.0069 3.6277 83.6903 4.50654 83.6629 5.41366C83.6381 6.22026 83.0232 7.07332 82.2264 7.07475C81.2289 7.07475 80.7307 6.1038 80.7115 5.27469C80.6946 4.52214 81.3342 3.66619 82.0546 3.64915V3.64915Z" fill="#C8102E"/>
</g>
<defs>
<clipPath id="clip0">
<rect width="63.0002" height="88.0003" fill="white" transform="translate(0.5 63.5002) rotate(-90)"/>
</clipPath>
</defs>
</svg>
