<svg width="89" height="64" viewBox="0 0 89 64" fill="none" xmlns="http://www.w3.org/2000/svg">
<g clip-path="url(#clip0)">
<path d="M0.5 3.51351L0.5 60.4868C0.5 62.1511 1.84746 63.5002 3.50963 63.5002L85.4907 63.5002C87.1528 63.5002 88.5003 62.1511 88.5003 60.4868V3.51351C88.5003 1.84922 87.1528 0.500076 85.4907 0.500076L3.50963 0.500076C1.84746 0.500076 0.5 1.84922 0.5 3.51351Z" fill="white"/>
<path d="M20.2481 58.6411C19.241 59.2509 18.2621 59.8925 17.4259 60.6943C16.5897 59.8925 15.6108 59.2509 14.6036 58.6411C15.6108 58.0312 16.5897 57.3896 17.4259 56.5878C18.2621 57.3896 19.241 58.0312 20.2481 58.6411Z" fill="#C8102E"/>
<path d="M23.274 17.3905C20.8568 18.8541 18.5075 20.394 16.5006 22.3184C14.4938 20.394 12.1445 18.8541 9.72729 17.3905C12.1445 15.9268 14.4938 14.3869 16.5006 12.4626C18.5075 14.3869 20.8568 15.9268 23.274 17.3905Z" fill="#C8102E"/>
<path d="M74.3967 5.35883C73.3895 5.96868 72.4106 6.61031 71.5744 7.41211C70.7383 6.61031 69.7594 5.96868 68.7522 5.35883C69.7594 4.74897 70.7383 4.10737 71.5744 3.30554C72.4106 4.10737 73.3895 4.74897 74.3967 5.35883Z" fill="#C8102E"/>
<path d="M23.274 46.6097C20.8568 48.0734 18.5075 49.6133 16.5006 51.5376C14.4938 49.6133 12.1445 48.0734 9.72729 46.6097C12.1445 45.1461 14.4938 43.6062 16.5006 41.6818C18.5075 43.6062 20.8568 45.1461 23.274 46.6097Z" fill="#C8102E"/>
<path d="M41.9423 17.3905C39.5252 18.8541 37.1758 20.394 35.169 22.3184C33.1622 20.394 30.8128 18.8541 28.3956 17.3905C30.8128 15.9268 33.1622 14.3869 35.169 12.4626C37.1758 14.3869 39.5252 15.9268 41.9423 17.3905Z" fill="#C8102E"/>
<path d="M41.9423 46.6097C39.5252 48.0734 37.1758 49.6133 35.169 51.5376C33.1622 49.6133 30.8128 48.0734 28.3956 46.6097C30.8128 45.1461 33.1622 43.6062 35.169 41.6818C37.1758 43.6062 39.5252 45.1461 41.9423 46.6097Z" fill="#C8102E"/>
<path d="M51.2735 32.0001C48.8563 33.4638 46.507 35.0036 44.5002 36.928C42.4933 35.0036 40.144 33.4638 37.7268 32.0001C40.144 30.5364 42.4933 28.9966 44.5002 27.0722C46.507 28.9966 48.8563 30.5364 51.2735 32.0001Z" fill="#C8102E"/>
<path d="M79.2745 46.6097C76.8573 48.0734 74.508 49.6133 72.5011 51.5376C70.4943 49.6133 68.145 48.0734 65.7278 46.6097C68.145 45.1461 70.4943 43.6062 72.5011 41.6818C74.508 43.6062 76.8573 45.1461 79.2745 46.6097Z" fill="#C8102E"/>
<path d="M79.2764 17.3905C76.8593 18.8541 74.51 20.394 72.5031 22.3184C70.4963 20.394 68.1469 18.8541 65.7297 17.3905C68.1469 15.9268 70.4963 14.3869 72.5031 12.4626C74.51 14.3869 76.8593 15.9268 79.2764 17.3905Z" fill="#C8102E"/>
<path d="M60.6063 17.3905C58.1891 18.8541 55.8398 20.394 53.8329 22.3184C51.8261 20.394 49.4768 18.8541 47.0596 17.3905C49.4768 15.9268 51.8261 14.3869 53.8329 12.4626C55.8398 14.3869 58.1891 15.9268 60.6063 17.3905Z" fill="#C8102E"/>
<path d="M60.5972 46.6097C58.1801 48.0734 55.8308 49.6133 53.8239 51.5376C51.8171 49.6133 49.4677 48.0734 47.0505 46.6097C49.4677 45.1461 51.8171 43.6062 53.8239 41.6818C55.8308 43.6062 58.1801 45.1461 60.5972 46.6097Z" fill="#C8102E"/>
<path d="M11.9233 61.2432L11.6531 60.3913C12.512 60.0694 12.7662 59.4203 12.7111 58.7331C12.6128 57.5001 11.2344 57.0904 10.0161 56.9982C10.5257 57.4787 10.7844 58.2004 10.7581 58.8154C10.6528 60.7813 9.07927 61.2845 7.43222 61.3027C6.04348 61.3564 5.03758 60.7824 4.57564 59.7976C4.34174 59.2758 4.34174 58.0814 4.61888 57.5567C5.2545 56.352 6.35241 55.9053 8.97395 55.9862C11.1306 55.9862 13.6424 56.4441 13.6971 58.7559C13.8819 60.0908 12.8427 61.1057 11.9233 61.2432V61.2432ZM9.56004 57.8967C9.30618 57.4957 9.06782 57.27 8.7112 57.09C8.41817 56.9427 8.26517 56.8915 7.65913 56.934C6.09558 57.0432 5.20793 57.8625 5.38384 59.0516C5.48361 59.7149 5.85465 60.0778 6.54457 60.286C7.82061 60.6703 9.31318 60.1826 9.65687 59.2697C9.8128 58.8589 9.76809 58.2239 9.56004 57.8967V57.8967Z" fill="#C8102E"/>
<path d="M77.077 2.7577L77.3471 3.60967C76.4883 3.93152 76.234 4.5807 76.2891 5.26794C76.3874 6.50091 77.7658 6.91058 78.9842 7.00276C78.4746 6.52233 78.2159 5.80062 78.2421 5.1856C78.3475 3.21966 79.921 2.71638 81.568 2.69823C82.9568 2.64453 83.9627 3.21857 84.4246 4.20333C84.6585 4.7251 84.6585 5.91962 84.3814 6.4443C83.7457 7.64894 82.6478 8.09563 80.0263 8.01472C77.8696 8.01472 75.3578 7.55678 75.3032 5.24506C75.1184 3.91015 76.1575 2.89522 77.077 2.7577V2.7577ZM79.4402 6.10427C79.6941 6.50523 79.9324 6.73093 80.289 6.91091C80.5821 7.05823 80.7351 7.10935 81.3411 7.0669C82.9047 6.95768 83.7923 6.1384 83.6164 4.94933C83.5166 4.28603 83.1456 3.92323 82.4557 3.71495C81.1796 3.33068 79.687 3.81832 79.3434 4.73126C79.1874 5.14201 79.2322 5.77698 79.4402 6.10427V6.10427Z" fill="#C8102E"/>
</g>
<defs>
<clipPath id="clip0">
<rect width="63.0002" height="88.0003" fill="white" transform="translate(0.5 63.5002) rotate(-90)"/>
</clipPath>
</defs>
</svg>
