<svg width="89" height="64" viewBox="0 0 89 64" fill="none" xmlns="http://www.w3.org/2000/svg">
<g clip-path="url(#clip0)">
<path d="M0.5 3.51351L0.5 60.4868C0.5 62.1511 1.84746 63.5002 3.50964 63.5002L85.4907 63.5002C87.1528 63.5002 88.5003 62.1511 88.5003 60.4868V3.51351C88.5003 1.84922 87.1528 0.500057 85.4907 0.500057L3.50964 0.500057C1.84746 0.500057 0.5 1.84922 0.5 3.51351Z" fill="white"/>
<path d="M20.2492 58.6413C20.2492 58.6413 19.349 59.2691 18.2905 60.1161C17.5822 60.6827 16.8153 61.1357 16.1547 61.1778C15.4001 61.2261 14.643 60.7689 14.6063 59.9411C14.5696 59.1138 15.1881 58.778 15.6981 58.6413C15.1881 58.5046 14.5696 58.1687 14.6063 57.3415C14.643 56.5137 15.4001 56.0564 16.1547 56.1047C16.8153 56.1468 17.5822 56.5998 18.2905 57.1664C19.349 58.0134 20.2492 58.6413 20.2492 58.6413V58.6413Z" fill="#C8102E"/>
<path d="M68.7533 5.35904C68.7533 5.35904 69.6535 5.9869 70.712 6.83385C71.4202 7.40047 72.1872 7.85344 72.8478 7.89557C73.6024 7.94386 74.3595 7.48663 74.3962 6.65884C74.4329 5.83153 73.8143 5.49575 73.3044 5.35904C73.8143 5.22233 74.4329 4.88651 74.3962 4.05923C74.3595 3.23144 73.6024 2.77419 72.8478 2.8225C72.1872 2.86461 71.4202 3.31761 70.712 3.8842C69.6535 4.73117 68.7533 5.35904 68.7533 5.35904V5.35904Z" fill="#C8102E"/>
<path d="M51.2746 32.0003C51.2746 32.0003 49.1141 33.3172 46.5738 35.0937C44.8739 36.2821 43.0332 37.2323 41.4478 37.3206C39.6367 37.4219 37.8197 36.4629 37.7316 34.7266C37.6436 32.9913 39.1281 32.287 40.352 32.0003C39.1281 31.7135 37.6436 31.0092 37.7316 29.2739C37.8197 27.5376 39.6367 26.5786 41.4478 26.6799C43.0332 26.7682 44.8739 27.7184 46.5738 28.9068C49.1141 30.6833 51.2746 32.0003 51.2746 32.0003V32.0003Z" fill="#C8102E"/>
<path d="M13.7199 61.4899H12.9235V60.73L4.40649 59.1114V58.1901L12.9235 56.407V55.7935H13.7199V57.8842H12.9235V57.32L11.6183 57.5453V59.6545L12.9235 59.8175V59.2533H13.7199V61.4899ZM10.6886 57.7253L6.13001 58.6422L10.6886 59.5011V57.7253Z" fill="#C8102E"/>
<path d="M75.2828 8.20764H76.0792V7.44782L84.5962 5.82916V4.90787L76.0792 3.1248V2.51123H75.2828V4.60199H76.0792V4.03774L77.3844 4.26306V6.37233L76.0792 6.53525V5.97103H75.2828V8.20764ZM78.3141 4.44304L82.8727 5.35999L78.3141 6.21885V4.44304Z" fill="#C8102E"/>
</g>
<defs>
<clipPath id="clip0">
<rect width="63.0002" height="88.0003" fill="white" transform="translate(0.5 63.5002) rotate(-90)"/>
</clipPath>
</defs>
</svg>
