<svg width="89" height="64" viewBox="0 0 89 64" fill="none" xmlns="http://www.w3.org/2000/svg">
<g clip-path="url(#clip0)">
<path d="M0.5 3.51351L0.5 60.4868C0.5 62.1511 1.84746 63.5002 3.50964 63.5002L85.4907 63.5002C87.1528 63.5002 88.5003 62.1511 88.5003 60.4868V3.51351C88.5003 1.84922 87.1528 0.500057 85.4907 0.500057L3.50964 0.500057C1.84746 0.500057 0.5 1.84922 0.5 3.51351Z" fill="white"/>
<path d="M41.9414 46.609C41.9414 46.609 39.7808 47.926 37.2406 49.7024C35.5407 50.8909 33.7 51.841 32.1145 51.9294C30.3034 52.0307 28.4865 51.0716 28.3984 49.3353C28.3104 47.6001 29.7948 46.8957 31.0187 46.609C29.7948 46.3223 28.3104 45.6179 28.3984 43.8827C28.4865 42.1464 30.3034 41.1874 32.1145 41.2887C33.7 41.377 35.5407 42.3271 37.2406 43.5156C39.7808 45.2921 41.9414 46.609 41.9414 46.609V46.609Z" fill="#C8102E"/>
<path d="M20.2492 58.6404C20.2492 58.6404 19.349 59.2683 18.2905 60.1152C17.5822 60.6818 16.8153 61.1348 16.1547 61.1769C15.4001 61.2252 14.643 60.768 14.6063 59.9402C14.5696 59.1129 15.1881 58.7771 15.6981 58.6404C15.1881 58.5037 14.5696 58.1679 14.6063 57.3406C14.643 56.5128 15.4001 56.0556 16.1547 56.1039C16.8153 56.146 17.5822 56.599 18.2905 57.1656C19.349 58.0125 20.2492 58.6404 20.2492 58.6404V58.6404Z" fill="#C8102E"/>
<path d="M68.7533 5.35818C68.7533 5.35818 69.6535 5.98604 70.712 6.833C71.4202 7.39961 72.1872 7.85258 72.8478 7.89472C73.6024 7.94301 74.3595 7.48578 74.3962 6.65799C74.4329 5.83068 73.8143 5.49489 73.3044 5.35818C73.8143 5.22147 74.4329 4.88566 74.3962 4.05838C74.3595 3.23059 73.6024 2.77333 72.8478 2.82165C72.1872 2.86376 71.4202 3.31675 70.712 3.88334C69.6535 4.73032 68.7533 5.35818 68.7533 5.35818V5.35818Z" fill="#C8102E"/>
<path d="M35.3092 31.9994C35.3092 31.9994 33.1486 33.3163 30.6084 35.0928C28.9085 36.2813 27.0678 37.2314 25.4823 37.3197C23.6712 37.4211 21.8542 36.462 21.7662 34.7257C21.6782 32.9905 23.1626 32.2861 24.3865 31.9994C23.1626 31.7127 21.6782 31.0083 21.7662 29.2731C21.8542 27.5368 23.6712 26.5777 25.4823 26.679C27.0678 26.7674 28.9085 27.7175 30.6084 28.906C33.1486 30.6824 35.3092 31.9994 35.3092 31.9994V31.9994Z" fill="#C8102E"/>
<path d="M23.275 46.609C23.275 46.609 21.1144 47.926 18.5742 49.7024C16.8743 50.8909 15.0336 51.841 13.4482 51.9294C11.637 52.0307 9.82007 51.0716 9.73201 49.3353C9.644 47.6001 11.1285 46.8957 12.3523 46.609C11.1285 46.3223 9.644 45.6179 9.73201 43.8827C9.82007 42.1464 11.637 41.1874 13.4482 41.2887C15.0336 41.377 16.8743 42.3271 18.5742 43.5156C21.1144 45.2921 23.275 46.609 23.275 46.609Z" fill="#C8102E"/>
<path d="M41.9414 17.3897C41.9414 17.3897 39.7808 18.7066 37.2406 20.4831C35.5407 21.6715 33.7 22.6217 32.1145 22.71C30.3034 22.8113 28.4865 21.8523 28.3984 20.116C28.3104 18.3807 29.7948 17.6764 31.0187 17.3897C29.7948 17.1029 28.3104 16.3986 28.3984 14.6633C28.4865 12.927 30.3034 11.968 32.1145 12.0693C33.7 12.1576 35.5407 13.1078 37.2406 14.2962C39.7808 16.0727 41.9414 17.3897 41.9414 17.3897V17.3897Z" fill="#C8102E"/>
<path d="M23.275 17.3897C23.275 17.3897 21.1144 18.7066 18.5742 20.4831C16.8743 21.6715 15.0336 22.6217 13.4482 22.71C11.637 22.8113 9.82007 21.8523 9.73201 20.116C9.644 18.3807 11.1285 17.6764 12.3523 17.3897C11.1285 17.1029 9.644 16.3986 9.73201 14.6633C9.82007 12.927 11.637 11.968 13.4482 12.0693C15.0336 12.1576 16.8743 13.1078 18.5742 14.2962C21.1144 16.0727 23.275 17.3897 23.275 17.3897Z" fill="#C8102E"/>
<path d="M53.6934 31.9994C53.6934 31.9994 55.8539 33.3163 58.3941 35.0928C60.094 36.2813 61.9347 37.2314 63.5202 37.3197C65.3313 37.4211 67.1483 36.462 67.2363 34.7257C67.3243 32.9905 65.8399 32.2861 64.616 31.9994C65.8399 31.7127 67.3243 31.0083 67.2363 29.2731C67.1483 27.5368 65.3313 26.5777 63.5202 26.6791C61.9347 26.7674 60.094 27.7175 58.3941 28.906C55.8539 30.6824 53.6934 31.9994 53.6934 31.9994Z" fill="#C8102E"/>
<path d="M47.061 17.3897C47.061 17.3897 49.2216 18.7066 51.7618 20.4831C53.4617 21.6715 55.3024 22.6217 56.8879 22.71C58.699 22.8113 60.5159 21.8523 60.604 20.116C60.692 18.3807 59.2076 17.6764 57.9837 17.3897C59.2076 17.1029 60.692 16.3986 60.604 14.6633C60.5159 12.927 58.699 11.968 56.8879 12.0693C55.3024 12.1576 53.4617 13.1078 51.7618 14.2962C49.2216 16.0727 47.061 17.3897 47.061 17.3897Z" fill="#C8102E"/>
<path d="M47.061 46.609C47.061 46.609 49.2216 47.926 51.7618 49.7024C53.4617 50.8909 55.3024 51.841 56.8879 51.9294C58.699 52.0307 60.5159 51.0716 60.604 49.3353C60.692 47.6001 59.2076 46.8957 57.9837 46.609C59.2076 46.3223 60.692 45.6179 60.604 43.8827C60.5159 42.1464 58.699 41.1874 56.8879 41.2887C55.3024 41.377 53.4617 42.3271 51.7618 43.5156C49.2216 45.2921 47.061 46.609 47.061 46.609Z" fill="#C8102E"/>
<path d="M65.7274 17.3897C65.7274 17.3897 67.888 18.7066 70.4282 20.4831C72.1281 21.6715 73.9688 22.6217 75.5542 22.71C77.3654 22.8113 79.1823 21.8523 79.2704 20.116C79.3584 18.3807 77.8739 17.6764 76.6501 17.3897C77.8739 17.1029 79.3584 16.3986 79.2704 14.6633C79.1823 12.927 77.3654 11.968 75.5542 12.0693C73.9688 12.1576 72.1281 13.1078 70.4282 14.2962C67.888 16.0727 65.7274 17.3897 65.7274 17.3897V17.3897Z" fill="#C8102E"/>
<path d="M65.7274 46.609C65.7274 46.609 67.888 47.926 70.4282 49.7024C72.1281 50.8909 73.9688 51.841 75.5542 51.9294C77.3654 52.0307 79.1823 51.0716 79.2704 49.3353C79.3584 47.6001 77.8739 46.8957 76.6501 46.609C77.8739 46.3223 79.3584 45.6179 79.2704 43.8827C79.1823 42.1464 77.3654 41.1874 75.5542 41.2887C73.9688 41.377 72.1281 42.3271 70.4282 43.5156C67.888 45.2921 65.7274 46.609 65.7274 46.609V46.609Z" fill="#C8102E"/>
<path d="M13.72 61.4684H4.40686V60.5656H13.72V61.4684Z" fill="#C8102E"/>
<path d="M4.40674 57.8895C4.40674 58.7586 5.20051 59.457 6.18644 59.457H11.9406C12.9265 59.457 13.7199 58.7582 13.7199 57.8895V57.3823C13.7199 56.5132 12.9265 55.8133 11.9406 55.8133H6.18644C5.20051 55.8133 4.40674 56.5136 4.40674 57.3823V57.8895ZM5.28736 57.6272C5.28736 57.1141 5.68092 56.7016 6.17315 56.7016H12.0034C12.4956 56.7016 12.8929 57.1141 12.8929 57.6272C12.8929 58.1403 12.4956 58.5543 12.0034 58.5543H6.17315C5.68129 58.5543 5.28736 58.1403 5.28736 57.6272Z" fill="#C8102E"/>
<path d="M75.2829 2.53113L84.5961 2.53113V3.43392L75.2829 3.43392V2.53113Z" fill="#C8102E"/>
<path d="M84.5962 6.11C84.5962 5.24095 83.8024 4.54248 82.8165 4.54248L77.0624 4.54248C76.0764 4.54248 75.283 5.24132 75.283 6.11V6.61726C75.283 7.48628 76.0764 8.18623 77.0624 8.18623H82.8165C83.8024 8.18623 84.5962 7.48592 84.5962 6.61726V6.11ZM83.7156 6.37231C83.7156 6.8854 83.322 7.29795 82.8298 7.29795H76.9995C76.5073 7.29795 76.11 6.8854 76.11 6.37231C76.11 5.85926 76.5073 5.44524 76.9995 5.44524H82.8298C83.3216 5.44524 83.7156 5.85926 83.7156 6.37231Z" fill="#C8102E"/>
</g>
<defs>
<clipPath id="clip0">
<rect width="63.0002" height="88.0003" fill="white" transform="translate(0.5 63.5002) rotate(-90)"/>
</clipPath>
</defs>
</svg>
