<svg width="89" height="64" viewBox="0 0 89 64" fill="none" xmlns="http://www.w3.org/2000/svg">
<g clip-path="url(#clip0)">
<path d="M0.5 3.51351L0.5 60.4868C0.5 62.1511 1.84746 63.5002 3.50964 63.5002L85.4907 63.5002C87.1528 63.5002 88.5003 62.1511 88.5003 60.4868V3.51351C88.5003 1.84922 87.1528 0.500057 85.4907 0.500057L3.50964 0.500057C1.84746 0.500057 0.5 1.84922 0.5 3.51351Z" fill="white"/>
<path d="M20.2492 58.6411C20.2492 58.6411 19.349 59.269 18.2905 60.116C17.5822 60.6826 16.8153 61.1355 16.1547 61.1777C15.4001 61.226 14.643 60.7687 14.6063 59.9409C14.5696 59.1136 15.1881 58.7778 15.6981 58.6411C15.1881 58.5044 14.5696 58.1686 14.6063 57.3413C14.643 56.5135 15.4001 56.0563 16.1547 56.1046C16.8153 56.1467 17.5822 56.5997 18.2905 57.1663C19.349 58.0133 20.2492 58.6411 20.2492 58.6411V58.6411Z" fill="#C8102E"/>
<path d="M68.7533 5.35904C68.7533 5.35904 69.6535 5.9869 70.712 6.83385C71.4202 7.40047 72.1872 7.85344 72.8478 7.89557C73.6024 7.94386 74.3595 7.48663 74.3962 6.65884C74.4329 5.83153 73.8143 5.49575 73.3044 5.35904C73.8143 5.22233 74.4329 4.88651 74.3962 4.05923C74.3595 3.23144 73.6024 2.77419 72.8478 2.8225C72.1872 2.86461 71.4202 3.31761 70.712 3.8842C69.6535 4.73117 68.7533 5.35904 68.7533 5.35904V5.35904Z" fill="#C8102E"/>
<path d="M23.275 32.0003C23.275 32.0003 21.1144 33.3172 18.5742 35.0937C16.8743 36.2821 15.0336 37.2323 13.4482 37.3206C11.637 37.4219 9.82007 36.4629 9.73201 34.7266C9.644 32.9913 11.1285 32.287 12.3523 32.0003C11.1285 31.7135 9.644 31.0092 9.73201 29.2739C9.82007 27.5376 11.637 26.5786 13.4482 26.6799C15.0336 26.7682 16.8743 27.7184 18.5742 28.9068C21.1144 30.6833 23.275 32.0003 23.275 32.0003V32.0003Z" fill="#C8102E"/>
<path d="M65.7274 32.0003C65.7274 32.0003 67.888 33.3172 70.4282 35.0937C72.1281 36.2821 73.9688 37.2323 75.5542 37.3206C77.3654 37.4219 79.1823 36.4629 79.2704 34.7266C79.3584 32.9913 77.8739 32.287 76.6501 32.0003C77.8739 31.7135 79.3584 31.0092 79.2704 29.2739C79.1823 27.5376 77.3654 26.5786 75.5542 26.6799C73.9688 26.7682 72.1281 27.7184 70.4282 28.9068C67.888 30.6833 65.7274 32.0003 65.7274 32.0003V32.0003Z" fill="#C8102E"/>
<path d="M13.7 61.2922L13.1257 61.2469C11.351 61.1036 10.7523 60.7222 8.89962 58.5593C8.00153 57.5092 7.5584 57.1648 7.04433 57.1165C5.83176 56.979 5.45333 58.052 5.44777 58.7508C5.43958 59.6565 5.99069 60.6812 7.27164 60.1921L7.57581 61.2084C6.38096 61.4127 5.26005 61.2025 4.7626 60.2516C4.114 58.9816 4.36829 57.3531 5.39016 56.5309C6.07574 55.9783 7.0244 55.852 7.76687 56.1485C9.66353 57.0146 10.498 59.9526 12.6926 60.195V56.9478H11.4707V55.991H13.72L13.6999 61.2922H13.7Z" fill="#C8102E"/>
<path d="M75.3028 2.70875L75.8771 2.75414C77.6518 2.89745 78.2505 3.27879 80.1032 5.44175C81.0012 6.49185 81.4444 6.83618 81.9585 6.88444C83.171 7.02197 83.5495 5.94901 83.555 5.25017C83.5632 4.34449 83.0121 3.31981 81.7311 3.80893L81.427 2.79259C82.6218 2.58831 83.7428 2.79851 84.2402 3.74943C84.8888 5.01941 84.6345 6.64786 83.6126 7.47009C82.9271 8.02271 81.9784 8.14898 81.2359 7.85253C79.3393 6.98642 78.5048 4.04842 76.3102 3.80602V7.05317H77.5321V8.01001H75.2828L75.3029 2.70875H75.3028Z" fill="#C8102E"/>
</g>
<defs>
<clipPath id="clip0">
<rect width="63.0002" height="88.0003" fill="white" transform="translate(0.5 63.5002) rotate(-90)"/>
</clipPath>
</defs>
</svg>
