<svg width="89" height="64" viewBox="0 0 89 64" fill="none" xmlns="http://www.w3.org/2000/svg">
<g clip-path="url(#clip0)">
<path d="M0.5 3.51351L0.5 60.4868C0.5 62.1511 1.84746 63.5002 3.50964 63.5002L85.4907 63.5002C87.1528 63.5002 88.5003 62.1511 88.5003 60.4868V3.51351C88.5003 1.84922 87.1528 0.500057 85.4907 0.500057L3.50964 0.500057C1.84746 0.500057 0.5 1.84922 0.5 3.51351Z" fill="white"/>
<path d="M20.2492 58.6418C20.2492 58.6418 19.349 59.2696 18.2905 60.1166C17.5822 60.6832 16.8153 61.1362 16.1547 61.1783C15.4001 61.2266 14.643 60.7693 14.6063 59.9416C14.5696 59.1142 15.1881 58.7785 15.6981 58.6418C15.1881 58.505 14.5696 58.1692 14.6063 57.3419C14.643 56.5142 15.4001 56.0569 16.1547 56.1052C16.8153 56.1473 17.5822 56.6003 18.2905 57.1669C19.349 58.0139 20.2492 58.6418 20.2492 58.6418V58.6418Z" fill="#C8102E"/>
<path d="M68.7533 5.35952C68.7533 5.35952 69.6535 5.98739 70.712 6.83434C71.4202 7.40096 72.1872 7.85393 72.8478 7.89606C73.6024 7.94435 74.3595 7.48712 74.3962 6.65933C74.4329 5.83202 73.8143 5.49623 73.3044 5.35952C73.8143 5.22282 74.4329 4.887 74.3962 4.05972C74.3595 3.23193 73.6024 2.77467 72.8478 2.82299C72.1872 2.8651 71.4202 3.31809 70.712 3.88468C69.6535 4.73166 68.7533 5.35952 68.7533 5.35952V5.35952Z" fill="#C8102E"/>
<path d="M23.275 32.0007C23.275 32.0007 21.1144 33.3177 18.5742 35.0942C16.8743 36.2826 15.0336 37.2327 13.4482 37.3211C11.637 37.4224 9.82007 36.4633 9.73201 34.7271C9.644 32.9918 11.1285 32.2875 12.3523 32.0007C11.1285 31.714 9.644 31.0097 9.73201 29.2744C9.82007 27.5381 11.637 26.5791 13.4482 26.6804C15.0336 26.7687 16.8743 27.7189 18.5742 28.9073C21.1144 30.6838 23.275 32.0007 23.275 32.0007V32.0007Z" fill="#C8102E"/>
<path d="M51.2746 32.0007C51.2746 32.0007 49.1141 33.3177 46.5738 35.0942C44.8739 36.2826 43.0332 37.2327 41.4478 37.3211C39.6367 37.4224 37.8197 36.4633 37.7316 34.7271C37.6436 32.9918 39.1281 32.2875 40.352 32.0007C39.1281 31.714 37.6436 31.0097 37.7316 29.2744C37.8197 27.5381 39.6367 26.5791 41.4478 26.6804C43.0332 26.7687 44.8739 27.7189 46.5738 28.9073C49.1141 30.6838 51.2746 32.0007 51.2746 32.0007V32.0007Z" fill="#C8102E"/>
<path d="M65.7274 32.0007C65.7274 32.0007 67.888 33.3177 70.4282 35.0942C72.1281 36.2826 73.9688 37.2327 75.5542 37.3211C77.3654 37.4224 79.1823 36.4633 79.2704 34.7271C79.3584 32.9918 77.8739 32.2875 76.6501 32.0007C77.8739 31.714 79.3584 31.0097 79.2704 29.2744C79.1823 27.5381 77.3654 26.5791 75.5542 26.6804C73.9688 26.7687 72.1281 27.7189 70.4282 28.9073C67.888 30.6838 65.7274 32.0007 65.7274 32.0007V32.0007Z" fill="#C8102E"/>
<path d="M11.6785 61.6641L11.1511 60.947C12.1644 60.3248 12.8318 59.6288 12.7172 58.5642C12.6075 56.967 10.9331 56.3051 9.6715 56.6393C8.53958 56.9626 7.98825 58.2852 8.5917 59.3367C8.73473 59.5849 8.85146 59.8244 8.85146 59.8712C8.85146 59.9815 8.35483 60.2312 8.20333 60.197C7.17265 59.4913 5.36704 57.7776 5.36704 57.7776V60.455H6.57621V61.4826H4.40662V56.2496H5.14273C5.14273 56.2496 6.5969 57.6517 7.39325 58.115C7.43502 56.9738 8.15822 56.054 9.3016 55.7238C9.90358 55.5312 11.2805 55.6175 11.874 55.8697C12.8632 56.291 13.6659 57.4416 13.7121 58.4935C13.8307 60.2595 12.5935 61.1963 11.6785 61.6641V61.6641Z" fill="#C8102E"/>
<path d="M77.3243 2.33672L77.8517 3.05371C76.8384 3.67599 76.171 4.37195 76.2856 5.43656C76.3953 7.03382 78.0697 7.69565 79.3313 7.36147C80.4632 7.03819 81.0146 5.71556 80.4111 4.66402C80.2681 4.41584 80.1513 4.17637 80.1513 4.12955C80.1513 4.01926 80.648 3.76963 80.7995 3.80375C81.8302 4.50947 83.6358 6.22321 83.6358 6.22321V3.54574L82.4266 3.54574V2.51817L84.5962 2.51817V7.75115H83.8601C83.8601 7.75115 82.4059 6.34912 81.6095 5.88576C81.5678 7.02693 80.8446 7.94674 79.7012 8.27694C79.0992 8.46962 77.7223 8.38327 77.1289 8.13108C76.1396 7.70983 75.3369 6.55919 75.2908 5.50732C75.1721 3.74131 76.4093 2.80445 77.3243 2.33672V2.33672Z" fill="#C8102E"/>
</g>
<defs>
<clipPath id="clip0">
<rect width="63.0002" height="88.0003" fill="white" transform="translate(0.5 63.5002) rotate(-90)"/>
</clipPath>
</defs>
</svg>
