<svg width="89" height="64" viewBox="0 0 89 64" fill="none" xmlns="http://www.w3.org/2000/svg">
<g clip-path="url(#clip0)">
<path d="M0.5 3.51351L0.5 60.4868C0.5 62.1511 1.84746 63.5002 3.50964 63.5002L85.4907 63.5002C87.1528 63.5002 88.5003 62.1511 88.5003 60.4868V3.51351C88.5003 1.84922 87.1528 0.500057 85.4907 0.500057L3.50964 0.500057C1.84746 0.500057 0.5 1.84922 0.5 3.51351Z" fill="white"/>
<path d="M20.2492 58.6404C20.2483 58.6404 19.349 59.2683 18.2905 60.1152C17.5822 60.6818 16.8153 61.1348 16.1547 61.1769C15.4001 61.2252 14.643 60.768 14.6063 59.9402C14.5696 59.1129 15.1881 58.7771 15.6981 58.6404C15.1881 58.5037 14.5696 58.1679 14.6063 57.3406C14.643 56.5128 15.4001 56.0556 16.1547 56.1039C16.8153 56.146 17.5822 56.599 18.2905 57.1656C19.349 58.0125 20.2485 58.6399 20.2492 58.6404V58.6404Z" fill="#C8102E"/>
<path d="M68.7533 5.35818C68.7541 5.35818 69.6535 5.98604 70.712 6.833C71.4202 7.39961 72.1872 7.85258 72.8478 7.89472C73.6024 7.94301 74.3595 7.48578 74.3962 6.65799C74.4329 5.83068 73.8143 5.49489 73.3044 5.35818C73.8143 5.22147 74.4329 4.88566 74.3962 4.05838C74.3595 3.23059 73.6024 2.77333 72.8478 2.82165C72.1872 2.86376 71.4202 3.31675 70.712 3.88334C69.6535 4.73032 68.754 5.35765 68.7533 5.35818V5.35818Z" fill="#C8102E"/>
<path d="M23.275 46.609C23.2733 46.609 21.1144 47.926 18.5742 49.7024C16.8743 50.8909 15.0336 51.841 13.4482 51.9294C11.637 52.0307 9.82007 51.0716 9.73201 49.3353C9.644 47.6001 11.1285 46.8957 12.3523 46.609C11.1285 46.3223 9.644 45.6179 9.73201 43.8827C9.82007 42.1464 11.637 41.1874 13.4482 41.2887C15.0336 41.377 16.8743 42.3271 18.5742 43.5156C21.1144 45.2921 23.2732 46.6079 23.275 46.609Z" fill="#C8102E"/>
<path d="M23.275 17.3897C23.2733 17.3897 21.1144 18.7066 18.5742 20.4831C16.8743 21.6715 15.0336 22.6217 13.4482 22.71C11.637 22.8113 9.82007 21.8523 9.73201 20.116C9.644 18.3807 11.1285 17.6764 12.3523 17.3897C11.1285 17.1029 9.644 16.3986 9.73201 14.6633C9.82007 12.927 11.637 11.968 13.4482 12.0693C15.0336 12.1576 16.8743 13.1078 18.5742 14.2962C21.1144 16.0727 23.2732 17.3885 23.275 17.3897Z" fill="#C8102E"/>
<path d="M65.7274 17.3897C65.7291 17.3897 67.888 18.7066 70.4282 20.4831C72.1281 21.6715 73.9688 22.6217 75.5542 22.71C77.3654 22.8113 79.1823 21.8523 79.2704 20.116C79.3584 18.3807 77.8739 17.6764 76.6501 17.3897C77.8739 17.1029 79.3584 16.3986 79.2704 14.6633C79.1823 12.927 77.3654 11.968 75.5542 12.0693C73.9688 12.1576 72.1281 13.1078 70.4282 14.2962C67.888 16.0727 65.7292 17.3885 65.7274 17.3897V17.3897Z" fill="#C8102E"/>
<path d="M65.7274 46.609C65.7291 46.609 67.888 47.926 70.4282 49.7024C72.1281 50.8909 73.9688 51.841 75.5542 51.9294C77.3654 52.0307 79.1823 51.0716 79.2704 49.3353C79.3584 47.6001 77.8739 46.8957 76.6501 46.609C77.8739 46.3223 79.3584 45.6179 79.2704 43.8827C79.1823 42.1464 77.3654 41.1874 75.5542 41.2887C73.9688 41.377 72.1281 42.3271 70.4282 43.5156C67.888 45.2921 65.7292 46.6079 65.7274 46.609V46.609Z" fill="#C8102E"/>
<path d="M13.7188 58.5758H12.8961V57.8335H11.5392V61.5469H10.5817L4.40649 57.5286L4.4099 56.8722H10.5818V55.7355H11.5393V56.8722L12.8962 56.8937V56.2715H13.7199V58.5759L13.7188 58.5758ZM6.66728 57.8335L10.5822 60.3846V57.8335H6.66728Z" fill="#C8102E"/>
<path d="M75.284 5.42438H76.1066V6.16677H77.4635V2.45339H78.4209L84.5963 6.47159L84.5929 7.12799L78.4209 7.12799V8.26477H77.4635V7.12799L76.1065 7.10653V7.72882H75.2828V5.42438H75.284ZM82.3355 6.16677L78.4206 3.6156V6.16677H82.3355Z" fill="#C8102E"/>
</g>
<defs>
<clipPath id="clip0">
<rect width="63.0002" height="88.0003" fill="white" transform="translate(0.5 63.5002) rotate(-90)"/>
</clipPath>
</defs>
</svg>
