<svg width="89" height="64" viewBox="0 0 89 64" fill="none" xmlns="http://www.w3.org/2000/svg">
<g clip-path="url(#clip0)">
<path d="M0.5 3.51351L0.5 60.4868C0.5 62.1511 1.84746 63.5002 3.50964 63.5002L85.4907 63.5002C87.1528 63.5002 88.5003 62.1511 88.5003 60.4868V3.51351C88.5003 1.84922 87.1528 0.500057 85.4907 0.500057L3.50964 0.500057C1.84746 0.500057 0.5 1.84922 0.5 3.51351Z" fill="white"/>
<path d="M20.2492 58.6431C20.2492 58.6431 19.349 59.271 18.2905 60.1179C17.5822 60.6845 16.8153 61.1375 16.1547 61.1796C15.4001 61.2279 14.643 60.7707 14.6063 59.9429C14.5696 59.1156 15.1881 58.7798 15.6981 58.6431C15.1881 58.5064 14.5696 58.1706 14.6063 57.3433C14.643 56.5155 15.4001 56.0582 16.1547 56.1066C16.8153 56.1487 17.5822 56.6017 18.2905 57.1683C19.349 58.0152 20.2492 58.6431 20.2492 58.6431V58.6431Z" fill="#C8102E"/>
<path d="M68.7533 5.36099C68.7533 5.36099 69.6535 5.98885 70.712 6.8358C71.4202 7.40242 72.1872 7.85539 72.8478 7.89753C73.6024 7.94582 74.3595 7.48858 74.3962 6.6608C74.4329 5.83349 73.8143 5.4977 73.3044 5.36099C73.8143 5.22428 74.4329 4.88846 74.3962 4.06118C74.3595 3.2334 73.6024 2.77614 72.8478 2.82445C72.1872 2.86656 71.4202 3.31956 70.712 3.88615C69.6535 4.73313 68.7533 5.36099 68.7533 5.36099V5.36099Z" fill="#C8102E"/>
<path d="M23.275 46.6118C23.275 46.6118 21.1144 47.9288 18.5742 49.7053C16.8743 50.8937 15.0336 51.8438 13.4482 51.9322C11.637 52.0335 9.82007 51.0744 9.73201 49.3381C9.644 47.6029 11.1285 46.8985 12.3523 46.6118C11.1285 46.3251 9.644 45.6208 9.73201 43.8855C9.82007 42.1492 11.637 41.1902 13.4482 41.2915C15.0336 41.3798 16.8743 42.3299 18.5742 43.5184C21.1144 45.2949 23.275 46.6118 23.275 46.6118Z" fill="#C8102E"/>
<path d="M23.275 17.3925C23.275 17.3925 21.1144 18.7094 18.5742 20.4859C16.8743 21.6743 15.0336 22.6245 13.4482 22.7128C11.637 22.8141 9.82007 21.8551 9.73201 20.1188C9.644 18.3835 11.1285 17.6792 12.3523 17.3925C11.1285 17.1057 9.644 16.4014 9.73201 14.6661C9.82007 12.9298 11.637 11.9708 13.4482 12.0721C15.0336 12.1605 16.8743 13.1106 18.5742 14.299C21.1144 16.0755 23.275 17.3925 23.275 17.3925Z" fill="#C8102E"/>
<path d="M51.2746 32.0022C51.2746 32.0022 49.1141 33.3192 46.5738 35.0956C44.8739 36.2841 43.0332 37.2342 41.4478 37.3225C39.6367 37.4239 37.8197 36.4648 37.7316 34.7285C37.6436 32.9933 39.1281 32.2889 40.352 32.0022C39.1281 31.7155 37.6436 31.0111 37.7316 29.2759C37.8197 27.5396 39.6367 26.5805 41.4478 26.6819C43.0332 26.7702 44.8739 27.7203 46.5738 28.9088C49.1141 30.6852 51.2746 32.0022 51.2746 32.0022V32.0022Z" fill="#C8102E"/>
<path d="M65.7274 17.3925C65.7274 17.3925 67.888 18.7094 70.4282 20.4859C72.1281 21.6743 73.9688 22.6245 75.5542 22.7128C77.3654 22.8141 79.1823 21.8551 79.2704 20.1188C79.3584 18.3835 77.8739 17.6792 76.6501 17.3925C77.8739 17.1057 79.3584 16.4014 79.2704 14.6661C79.1823 12.9298 77.3654 11.9708 75.5542 12.0721C73.9688 12.1605 72.1281 13.1106 70.4282 14.299C67.888 16.0755 65.7274 17.3925 65.7274 17.3925V17.3925Z" fill="#C8102E"/>
<path d="M65.7274 46.6118C65.7274 46.6118 67.888 47.9288 70.4282 49.7053C72.1281 50.8937 73.9688 51.8438 75.5542 51.9322C77.3654 52.0335 79.1823 51.0744 79.2704 49.3381C79.3584 47.6029 77.8739 46.8985 76.6501 46.6118C77.8739 46.3251 79.3584 45.6208 79.2704 43.8855C79.1823 42.1492 77.3654 41.1902 75.5542 41.2915C73.9688 41.3798 72.1281 42.3299 70.4282 43.5184C67.888 45.2949 65.7274 46.6118 65.7274 46.6118V46.6118Z" fill="#C8102E"/>
<path d="M11.3088 61.5778L11.3 60.6649C11.8622 60.4907 12.4335 60.1054 12.5921 59.5821C12.9458 58.1039 12.1042 57.1529 11.1341 56.8397C9.95731 56.4598 8.30489 56.8482 7.71838 57.8659C7.23199 58.7091 7.64224 59.9621 8.68263 60.5375L8.2842 61.1769L4.40649 60.8336V56.6568H5.3231V60.0415L6.93854 60.0952C6.41745 59.3666 6.42297 58.2469 6.78851 57.5186C7.45856 56.1394 8.98198 55.4987 10.7774 55.7664C12.5633 56.138 13.5752 56.9573 13.7197 58.8053C13.7386 60.8608 12.299 61.5865 11.3089 61.5778H11.3088Z" fill="#C8102E"/>
<path d="M77.694 2.4245L77.7027 3.33745C77.1405 3.51161 76.5692 3.89697 76.4106 4.42021C76.0569 5.89844 76.8985 6.84947 77.8686 7.16262C79.0454 7.54252 80.6978 7.15416 81.2843 6.13646C81.7707 5.29321 81.3605 4.04027 80.3201 3.46482L80.7185 2.82547L84.5962 3.16871V7.34545H83.6796V3.96081L82.0642 3.9071C82.5853 4.63571 82.5797 5.75547 82.2142 6.48369C81.5442 7.86289 80.0207 8.50368 78.2253 8.23591C76.4394 7.86436 75.4275 7.04505 75.283 5.19705C75.2641 3.14151 76.7037 2.41578 77.6938 2.4245H77.694Z" fill="#C8102E"/>
</g>
<defs>
<clipPath id="clip0">
<rect width="63.0002" height="88.0003" fill="white" transform="translate(0.5 63.5002) rotate(-90)"/>
</clipPath>
</defs>
</svg>
