<svg width="89" height="64" viewBox="0 0 89 64" fill="none" xmlns="http://www.w3.org/2000/svg">
<g clip-path="url(#clip0)">
<path d="M0.5 3.51351L0.5 60.4868C0.5 62.1511 1.84746 63.5002 3.50964 63.5002L85.4907 63.5002C87.1528 63.5002 88.5003 62.1511 88.5003 60.4868V3.51351C88.5003 1.84922 87.1528 0.500057 85.4907 0.500057L3.50964 0.500057C1.84746 0.500057 0.5 1.84922 0.5 3.51351Z" fill="white"/>
<path d="M20.2492 58.6404C20.2492 58.6404 19.349 59.2683 18.2905 60.1152C17.5822 60.6818 16.8153 61.1348 16.1547 61.1769C15.4001 61.2252 14.643 60.768 14.6063 59.9402C14.5696 59.1129 15.1881 58.7771 15.6981 58.6404C15.1881 58.5037 14.5696 58.1679 14.6063 57.3406C14.643 56.5128 15.4001 56.0556 16.1547 56.1039C16.8153 56.146 17.5822 56.599 18.2905 57.1656C19.349 58.0125 20.2492 58.6404 20.2492 58.6404V58.6404Z" fill="#C8102E"/>
<path d="M68.7533 5.35818C68.7533 5.35818 69.6535 5.98604 70.712 6.833C71.4202 7.39961 72.1872 7.85258 72.8478 7.89472C73.6024 7.94301 74.3595 7.48578 74.3962 6.65799C74.4329 5.83068 73.8143 5.49489 73.3044 5.35818C73.8143 5.22147 74.4329 4.88566 74.3962 4.05838C74.3595 3.23059 73.6024 2.77333 72.8478 2.82165C72.1872 2.86376 71.4202 3.31675 70.712 3.88334C69.6535 4.73032 68.7533 5.35818 68.7533 5.35818V5.35818Z" fill="#C8102E"/>
<path d="M23.275 46.609C23.275 46.609 21.1144 47.926 18.5742 49.7024C16.8743 50.8909 15.0336 51.841 13.4482 51.9294C11.637 52.0307 9.82007 51.0716 9.73201 49.3353C9.644 47.6001 11.1285 46.8957 12.3523 46.609C11.1285 46.3223 9.644 45.6179 9.73201 43.8827C9.82007 42.1464 11.637 41.1874 13.4482 41.2887C15.0336 41.377 16.8743 42.3271 18.5742 43.5156C21.1144 45.2921 23.275 46.609 23.275 46.609Z" fill="#C8102E"/>
<path d="M51.2746 17.3897C51.2746 17.3897 49.1141 18.7066 46.5738 20.4831C44.8739 21.6715 43.0332 22.6217 41.4478 22.71C39.6367 22.8113 37.8197 21.8523 37.7316 20.116C37.6436 18.3807 39.1281 17.6764 40.352 17.3897C39.1281 17.1029 37.6436 16.3986 37.7316 14.6633C37.8197 12.927 39.6367 11.968 41.4478 12.0693C43.0332 12.1576 44.8739 13.1078 46.5738 14.2962C49.1141 16.0727 51.2746 17.3897 51.2746 17.3897V17.3897Z" fill="#C8102E"/>
<path d="M23.275 17.3897C23.275 17.3897 21.1144 18.7066 18.5742 20.4831C16.8743 21.6715 15.0336 22.6217 13.4482 22.71C11.637 22.8113 9.82007 21.8523 9.73201 20.116C9.644 18.3807 11.1285 17.6764 12.3523 17.3897C11.1285 17.1029 9.644 16.3986 9.73201 14.6633C9.82007 12.927 11.637 11.968 13.4482 12.0693C15.0336 12.1576 16.8743 13.1078 18.5742 14.2962C21.1144 16.0727 23.275 17.3897 23.275 17.3897Z" fill="#C8102E"/>
<path d="M51.2746 46.609C51.2746 46.609 49.1141 47.926 46.5738 49.7024C44.8739 50.8909 43.0333 51.841 41.4478 51.9294C39.6367 52.0307 37.8197 51.0716 37.7316 49.3353C37.6436 47.6001 39.1281 46.8957 40.352 46.609C39.1281 46.3223 37.6436 45.6179 37.7316 43.8827C37.8197 42.1464 39.6367 41.1874 41.4478 41.2887C43.0333 41.377 44.8739 42.3271 46.5738 43.5156C49.1141 45.2921 51.2746 46.609 51.2746 46.609V46.609Z" fill="#C8102E"/>
<path d="M65.7274 17.3897C65.7274 17.3897 67.888 18.7066 70.4282 20.4831C72.1281 21.6715 73.9688 22.6217 75.5542 22.71C77.3654 22.8113 79.1823 21.8523 79.2704 20.116C79.3584 18.3807 77.8739 17.6764 76.6501 17.3897C77.8739 17.1029 79.3584 16.3986 79.2704 14.6633C79.1823 12.927 77.3654 11.968 75.5542 12.0693C73.9688 12.1576 72.1281 13.1078 70.4282 14.2962C67.888 16.0727 65.7274 17.3897 65.7274 17.3897V17.3897Z" fill="#C8102E"/>
<path d="M65.7274 46.609C65.7274 46.609 67.888 47.926 70.4282 49.7024C72.1281 50.8909 73.9688 51.841 75.5542 51.9294C77.3654 52.0307 79.1823 51.0716 79.2704 49.3353C79.3584 47.6001 77.8739 46.8957 76.6501 46.609C77.8739 46.3223 79.3584 45.6179 79.2704 43.8827C79.1823 42.1464 77.3654 41.1874 75.5542 41.2887C73.9688 41.377 72.1281 42.3271 70.4282 43.5156C67.888 45.2921 65.7274 46.609 65.7274 46.609V46.609Z" fill="#C8102E"/>
<path d="M10.8547 61.3756C10.0708 61.4903 8.04447 61.4874 7.44503 61.3937C5.60863 61.1045 4.76825 60.4031 4.49402 59.2282C4.22681 58.0871 4.52432 56.484 6.05913 56.1324L6.07749 57.0863C5.03976 57.6023 5.31692 58.9078 5.76853 59.6433C6.12811 60.23 7.62968 60.4953 7.72208 60.3817C7.72208 60.3817 6.90015 59.2721 6.96075 58.3973C7.15551 56.5279 8.77685 55.7568 10.3076 55.8221C12.1492 55.8816 13.6219 56.4655 13.7198 58.447C13.647 60.3309 12.62 61.1941 10.8546 61.3755L10.8547 61.3756ZM10.3683 56.7293C9.09071 56.7192 8.13317 57.299 8.02821 58.3973C7.92252 59.4946 8.99351 60.6017 10.2959 60.5251C11.6038 60.4485 12.704 59.9424 12.6981 58.6114C12.6925 57.18 11.2778 56.7362 10.3683 56.7293Z" fill="#C8102E"/>
<path d="M78.1481 2.62334C78.932 2.50867 80.9583 2.51162 81.5578 2.60529C83.3942 2.89448 84.2345 3.59589 84.5088 4.77081C84.776 5.91198 84.4785 7.51506 82.9437 7.86665L82.9253 6.9127C83.963 6.39672 83.6859 5.09118 83.2342 4.35568C82.8747 3.76896 81.3731 3.50376 81.2807 3.61732C81.2807 3.61732 82.1026 4.72694 82.042 5.60177C81.8473 7.47113 80.2259 8.24219 78.6952 8.17685C76.8536 8.11736 75.3809 7.53354 75.283 5.55203C75.3558 3.66807 76.3828 2.80492 78.1482 2.62348L78.1481 2.62334ZM78.6344 7.26969C79.9121 7.27985 80.8696 6.69999 80.9746 5.60164C81.0803 4.50441 80.0093 3.39737 78.7069 3.47394C77.399 3.55048 76.2988 4.05662 76.3047 5.38756C76.3103 6.81899 77.725 7.26277 78.6344 7.26969V7.26969Z" fill="#C8102E"/>
</g>
<defs>
<clipPath id="clip0">
<rect width="63.0002" height="88.0003" fill="white" transform="translate(0.5 63.5002) rotate(-90)"/>
</clipPath>
</defs>
</svg>
