<svg width="89" height="64" viewBox="0 0 89 64" fill="none" xmlns="http://www.w3.org/2000/svg">
<g clip-path="url(#clip0)">
<path d="M0.501221 3.5135L0.501221 60.4868C0.501221 62.1511 1.84868 63.5002 3.51086 63.5002L85.4919 63.5002C87.154 63.5002 88.5015 62.1511 88.5015 60.4868V3.5135C88.5015 1.84922 87.154 0.500046 85.4919 0.500046L3.51086 0.500046C1.84868 0.500046 0.501221 1.84922 0.501221 3.5135Z" fill="white"/>
<path d="M20.2493 58.6411C20.2493 58.6411 19.3491 59.269 18.2907 60.116C17.5824 60.6826 16.8154 61.1355 16.1548 61.1777C15.4002 61.226 14.6431 60.7687 14.6064 59.9409C14.5697 59.1136 15.1883 58.7778 15.6982 58.6411C15.1883 58.5044 14.5697 58.1686 14.6064 57.3413C14.6431 56.5135 15.4002 56.0563 16.1548 56.1046C16.8154 56.1467 17.5824 56.5997 18.2907 57.1663C19.3491 58.0133 20.2493 58.6411 20.2493 58.6411V58.6411Z" fill="#C8102E"/>
<path d="M68.7534 5.35891C68.7534 5.35891 69.6536 5.98678 70.7121 6.83373C71.4204 7.40035 72.1873 7.85332 72.8479 7.89545C73.6026 7.94374 74.3596 7.48651 74.3963 6.65872C74.433 5.83141 73.8145 5.49562 73.3045 5.35891C73.8145 5.22221 74.433 4.88639 74.3963 4.05911C74.3596 3.23132 73.6026 2.77406 72.8479 2.82238C72.1873 2.86449 71.4204 3.31748 70.7121 3.88407C69.6536 4.73105 68.7534 5.35891 68.7534 5.35891V5.35891Z" fill="#C8102E"/>
<path d="M37.2749 32.0001C37.2749 32.0001 35.1143 33.3171 32.5741 35.0936C30.8742 36.282 29.0335 37.2321 27.448 37.3205C25.6369 37.4218 23.8199 36.4627 23.7319 34.7264C23.6439 32.9912 25.1283 32.2868 26.3522 32.0001C25.1283 31.7134 23.6439 31.0091 23.7319 29.2738C23.8199 27.5375 25.6369 26.5785 27.448 26.6798C29.0335 26.7681 30.8742 27.7182 32.5741 28.9067C35.1143 30.6832 37.2749 32.0001 37.2749 32.0001V32.0001Z" fill="#C8102E"/>
<path d="M23.2751 46.6098C23.2751 46.6098 21.1145 47.9267 18.5743 49.7032C16.8744 50.8916 15.0337 51.8418 13.4483 51.9301C11.6372 52.0314 9.82019 51.0724 9.73213 49.3361C9.64412 47.6008 11.1286 46.8965 12.3525 46.6098C11.1286 46.323 9.64412 45.6187 9.73213 43.8834C9.82019 42.1471 11.6372 41.1881 13.4483 41.2894C15.0337 41.3777 16.8744 42.3279 18.5743 43.5163C21.1145 45.2928 23.2751 46.6098 23.2751 46.6098Z" fill="#C8102E"/>
<path d="M51.2747 17.3905C51.2747 17.3905 49.1142 18.7075 46.574 20.4839C44.8741 21.6724 43.0334 22.6225 41.4479 22.7108C39.6368 22.8122 37.8198 21.8531 37.7318 20.1168C37.6438 18.3816 39.1282 17.6772 40.3521 17.3905C39.1282 17.1038 37.6438 16.3994 37.7318 14.6642C37.8198 12.9279 39.6368 11.9688 41.4479 12.0702C43.0334 12.1585 44.8741 13.1086 46.574 14.2971C49.1142 16.0736 51.2747 17.3905 51.2747 17.3905V17.3905Z" fill="#C8102E"/>
<path d="M23.2751 17.3905C23.2751 17.3905 21.1145 18.7075 18.5743 20.4839C16.8744 21.6724 15.0337 22.6225 13.4483 22.7108C11.6372 22.8122 9.82019 21.8531 9.73213 20.1168C9.64412 18.3816 11.1286 17.6772 12.3525 17.3905C11.1286 17.1038 9.64412 16.3994 9.73213 14.6642C9.82019 12.9279 11.6372 11.9688 13.4483 12.0702C15.0337 12.1585 16.8744 13.1086 18.5743 14.2971C21.1145 16.0736 23.2751 17.3905 23.2751 17.3905Z" fill="#C8102E"/>
<path d="M51.2747 46.6098C51.2747 46.6098 49.1142 47.9267 46.574 49.7032C44.874 50.8916 43.0334 51.8418 41.4479 51.9301C39.6368 52.0314 37.8198 51.0724 37.7318 49.3361C37.6438 47.6008 39.1282 46.8965 40.3521 46.6098C39.1282 46.323 37.6438 45.6187 37.7318 43.8834C37.8198 42.1471 39.6368 41.1881 41.4479 41.2894C43.0334 41.3777 44.874 42.3279 46.574 43.5163C49.1142 45.2928 51.2747 46.6098 51.2747 46.6098V46.6098Z" fill="#C8102E"/>
<path d="M65.7275 17.3905C65.7275 17.3905 67.8881 18.7075 70.4283 20.4839C72.1282 21.6724 73.9689 22.6225 75.5544 22.7108C77.3655 22.8122 79.1824 21.8531 79.2705 20.1168C79.3585 18.3816 77.8741 17.6772 76.6502 17.3905C77.8741 17.1038 79.3585 16.3994 79.2705 14.6642C79.1824 12.9279 77.3655 11.9688 75.5544 12.0702C73.9689 12.1585 72.1282 13.1086 70.4283 14.2971C67.8881 16.0736 65.7275 17.3905 65.7275 17.3905V17.3905Z" fill="#C8102E"/>
<path d="M65.7275 46.6098C65.7275 46.6098 67.8881 47.9267 70.4283 49.7032C72.1282 50.8916 73.9689 51.8418 75.5544 51.9301C77.3655 52.0314 79.1824 51.0724 79.2705 49.3361C79.3585 47.6008 77.8741 46.8965 76.6502 46.6098C77.8741 46.323 79.3585 45.6187 79.2705 43.8834C79.1824 42.1471 77.3655 41.1881 75.5544 41.2894C73.9689 41.3777 72.1282 42.3279 70.4283 43.5163C67.8881 45.2928 65.7275 46.6098 65.7275 46.6098V46.6098Z" fill="#C8102E"/>
<path d="M13.7191 60.074C10.4811 59.4615 8.05017 58.8095 5.41195 57.0976V60.5773H6.54756V61.5011H4.40674V56.4114L5.41195 55.7837C7.3968 57.6019 13.813 59.2659 13.7191 58.9713V60.074Z" fill="#C8102E"/>
<path d="M75.284 3.9286C78.522 4.54111 80.9529 5.19316 83.5911 6.9051V3.42534L82.4555 3.42534V2.50156L84.5963 2.50156V7.59123L83.5911 8.21899C81.6063 6.40074 75.1901 4.73667 75.284 5.03131V3.9286Z" fill="#C8102E"/>
</g>
<defs>
<clipPath id="clip0">
<rect width="63.0002" height="88.0003" fill="white" transform="translate(0.501221 63.5002) rotate(-90)"/>
</clipPath>
</defs>
</svg>
