<svg width="89" height="64" viewBox="0 0 89 64" fill="none" xmlns="http://www.w3.org/2000/svg">
<g clip-path="url(#clip0)">
<path d="M0.501343 3.51363L0.501343 60.4869C0.501343 62.1512 1.8488 63.5004 3.51098 63.5004L85.492 63.5004C87.1542 63.5004 88.5016 62.1512 88.5016 60.4869V3.51363C88.5016 1.84935 87.1542 0.500179 85.492 0.500179L3.51098 0.500179C1.8488 0.500179 0.501343 1.84935 0.501343 3.51363Z" fill="white"/>
<path d="M20.2505 58.6433C20.2505 58.6433 19.3503 59.2712 18.2919 60.1182C17.5836 60.6848 16.8166 61.1377 16.156 61.1799C15.4014 61.2282 14.6443 60.7709 14.6076 59.9431C14.571 59.1158 15.1895 58.78 15.6994 58.6433C15.1895 58.5066 14.571 58.1708 14.6076 57.3435C14.6443 56.5157 15.4014 56.0585 16.156 56.1068C16.8166 56.1489 17.5836 56.6019 18.2919 57.1685C19.3503 58.0155 20.2505 58.6433 20.2505 58.6433V58.6433Z" fill="#C8102E"/>
<path d="M68.7546 5.36111C68.7555 5.36111 69.6549 5.98897 70.7133 6.83593C71.4216 7.40254 72.1885 7.85551 72.8491 7.89765C73.6038 7.94594 74.3608 7.48871 74.3975 6.66092C74.4342 5.83361 73.8157 5.49782 73.3057 5.36111C73.8157 5.2244 74.4342 4.88859 74.3975 4.06131C74.3608 3.23352 73.6038 2.77626 72.8491 2.82458C72.1885 2.86668 71.4216 3.31968 70.7133 3.88627C69.6549 4.73325 68.7554 5.36058 68.7546 5.36111V5.36111Z" fill="#C8102E"/>
<path d="M37.2763 32.0015C37.2763 32.0015 35.1158 33.3184 32.5755 35.0949C30.8756 36.2833 29.035 37.2335 27.4495 37.3218C25.6384 37.4231 23.8214 36.4641 23.7333 34.7278C23.6453 32.9925 25.1298 32.2882 26.3537 32.0015C25.1298 31.7147 23.6453 31.0104 23.7333 29.2751C23.8214 27.5389 25.6384 26.5798 27.4495 26.6811C29.035 26.7695 30.8756 27.7196 32.5755 28.908C35.1158 30.6845 37.2763 32.0015 37.2763 32.0015Z" fill="#C8102E"/>
<path d="M23.2763 46.6121C23.2763 46.6121 21.1158 47.929 18.5755 49.7055C16.8756 50.8939 15.035 51.8441 13.4495 51.9324C11.6384 52.0337 9.82141 51.0747 9.73335 49.3384C9.64534 47.6031 11.1298 46.8988 12.3537 46.6121C11.1298 46.3253 9.64534 45.621 9.73335 43.8857C9.82141 42.1495 11.6384 41.1904 13.4495 41.2917C15.035 41.3801 16.8756 42.3302 18.5755 43.5186C21.1158 45.2951 23.2763 46.6121 23.2763 46.6121Z" fill="#C8102E"/>
<path d="M51.276 17.3926C51.276 17.3926 49.1154 18.7095 46.5752 20.486C44.8753 21.6745 43.0346 22.6246 41.4491 22.7129C39.638 22.8142 37.821 21.8552 37.733 20.1189C37.645 18.3836 39.1294 17.6793 40.3533 17.3926C39.1294 17.1059 37.645 16.4015 37.733 14.6663C37.821 12.93 39.638 11.9709 41.4491 12.0722C43.0346 12.1606 44.8753 13.1107 46.5752 14.2991C49.1154 16.0756 51.276 17.3926 51.276 17.3926V17.3926Z" fill="#C8102E"/>
<path d="M23.2763 17.3926C23.2763 17.3926 21.1158 18.7095 18.5755 20.486C16.8756 21.6745 15.035 22.6246 13.4495 22.7129C11.6384 22.8142 9.82141 21.8552 9.73335 20.1189C9.64534 18.3836 11.1298 17.6793 12.3537 17.3926C11.1298 17.1059 9.64534 16.4015 9.73335 14.6663C9.82141 12.93 11.6384 11.9709 13.4495 12.0722C15.035 12.1606 16.8756 13.1107 18.5755 14.2991C21.1158 16.0756 23.2763 17.3926 23.2763 17.3926Z" fill="#C8102E"/>
<path d="M51.276 46.6121C51.276 46.6121 49.1154 47.929 46.5752 49.7055C44.8753 50.8939 43.0346 51.8441 41.4491 51.9324C39.638 52.0337 37.821 51.0747 37.733 49.3384C37.645 47.6031 39.1294 46.8988 40.3533 46.6121C39.1294 46.3253 37.645 45.621 37.733 43.8857C37.821 42.1495 39.638 41.1904 41.4491 41.2917C43.0346 41.3801 44.8753 42.3302 46.5752 43.5186C49.1154 45.2951 51.276 46.6121 51.276 46.6121V46.6121Z" fill="#C8102E"/>
<path d="M51.7291 32.0015C51.7291 32.0015 53.8897 33.3184 56.4299 35.0949C58.1298 36.2833 59.9705 37.2335 61.556 37.3218C63.3671 37.4231 65.184 36.4641 65.2721 34.7278C65.3601 32.9925 63.8756 32.2881 62.6518 32.0015C63.8756 31.7147 65.3601 31.0104 65.2721 29.2751C65.184 27.5389 63.3671 26.5798 61.556 26.6811C59.9705 26.7694 58.1298 27.7196 56.4299 28.908C53.8897 30.6845 51.7291 32.0015 51.7291 32.0015Z" fill="#C8102E"/>
<path d="M65.7288 17.3926C65.7288 17.3926 67.8893 18.7095 70.4295 20.486C72.1294 21.6745 73.9701 22.6246 75.5556 22.7129C77.3667 22.8142 79.1837 21.8552 79.2717 20.1189C79.3597 18.3836 77.8753 17.6793 76.6514 17.3926C77.8753 17.1059 79.3597 16.4015 79.2717 14.6663C79.1837 12.93 77.3667 11.9709 75.5556 12.0722C73.9701 12.1606 72.1294 13.1107 70.4295 14.2991C67.8893 16.0756 65.7288 17.3926 65.7288 17.3926V17.3926Z" fill="#C8102E"/>
<path d="M65.7288 46.6121C65.7288 46.6121 67.8893 47.929 70.4295 49.7055C72.1294 50.8939 73.9701 51.8441 75.5556 51.9324C77.3667 52.0337 79.1837 51.0747 79.2717 49.3384C79.3597 47.6031 77.8753 46.8988 76.6514 46.6121C77.8753 46.3253 79.3597 45.621 79.2717 43.8857C79.1837 42.1495 77.3667 41.1904 75.5556 41.2917C73.9701 41.3801 72.1294 42.3302 70.4295 43.5186C67.8893 45.2951 65.7288 46.6121 65.7288 46.6121V46.6121Z" fill="#C8102E"/>
<path d="M10.9933 61.6681C9.74303 61.6238 9.27403 61.1717 8.61987 60.2817C8.10766 60.9918 7.35261 61.2911 6.70993 61.2302C5.15367 61.0839 4.37574 59.8822 4.40898 58.5708C4.44372 57.2584 5.48409 56.1289 6.61499 56.0407C7.59805 55.9642 8.07255 56.2562 8.58958 56.9536C9.28842 56.1259 9.74744 55.5973 10.9789 55.6169C12.2103 55.6364 13.6757 56.684 13.7204 58.5099C13.7651 60.3357 12.2436 61.7135 10.9933 61.6681V61.6681ZM10.9978 56.5712C9.86582 56.4932 9.10225 57.4939 9.09116 58.6235C9.0793 59.7232 10.0181 60.707 11.0344 60.707C12.1258 60.707 12.7189 59.4272 12.7215 58.6006C12.726 57.5958 11.9724 56.6391 10.9978 56.5712ZM6.9484 56.9326C5.99604 56.9111 5.31267 57.79 5.34002 58.6971C5.36486 59.5037 5.97973 60.3568 6.77653 60.3583C7.77402 60.3583 8.27222 59.3872 8.29144 58.5581C8.30838 57.8056 7.66872 56.9496 6.9484 56.9326V56.9326Z" fill="#C8102E"/>
<path d="M78.0122 8.386C79.2625 8.34174 79.7315 7.88962 80.3856 6.99955C80.8978 7.70965 81.6528 8.00901 82.2956 7.94805C83.8518 7.80183 84.6298 6.60006 84.5965 5.28871C84.5617 3.97629 83.5214 2.84672 82.3905 2.75855C81.4075 2.68199 80.9329 2.9741 80.4159 3.67151C79.7171 2.84383 79.258 2.31515 78.0266 2.33474C76.7952 2.35421 75.3298 3.40193 75.2851 5.2278C75.2404 7.05364 76.762 8.43138 78.0122 8.386ZM78.0077 3.28903C79.1397 3.21102 79.9032 4.21178 79.9143 5.34135C79.9262 6.44114 78.9874 7.42481 77.9711 7.42481C76.8798 7.42481 76.2866 6.14505 76.284 5.31847C76.2795 4.31373 77.0331 3.3569 78.0077 3.28903ZM82.0571 3.65049C83.0095 3.62904 83.6928 4.50788 83.6655 5.415C83.6406 6.2216 83.0258 7.07466 82.229 7.0761C81.2315 7.0761 80.7333 6.10514 80.7141 5.27603C80.6971 4.52348 81.3368 3.66754 82.0571 3.65049V3.65049Z" fill="#C8102E"/>
</g>
<defs>
<clipPath id="clip0">
<rect width="63.0002" height="88.0003" fill="white" transform="translate(0.501343 63.5002) rotate(-90)"/>
</clipPath>
</defs>
</svg>
