<svg width="89" height="64" viewBox="0 0 89 64" fill="none" xmlns="http://www.w3.org/2000/svg">
<g clip-path="url(#clip0)">
<path d="M0.5 3.51351L0.5 60.4868C0.5 62.1511 1.84746 63.5002 3.50964 63.5002L85.4907 63.5002C87.1528 63.5002 88.5003 62.1511 88.5003 60.4868V3.51351C88.5003 1.84922 87.1528 0.500057 85.4907 0.500057L3.50964 0.500057C1.84746 0.500057 0.5 1.84922 0.5 3.51351Z" fill="white"/>
<path d="M41.9414 46.609C41.9414 46.609 39.7808 47.926 37.2406 49.7024C35.5407 50.8909 33.7 51.841 32.1145 51.9294C30.3034 52.0307 28.4865 51.0716 28.3984 49.3353C28.3104 47.6001 29.7948 46.8957 31.0187 46.609C29.7948 46.3223 28.3104 45.6179 28.3984 43.8827C28.4865 42.1464 30.3034 41.1874 32.1145 41.2887C33.7 41.377 35.5407 42.3271 37.2406 43.5156C39.7808 45.2921 41.9414 46.609 41.9414 46.609V46.609Z" fill="#C8102E"/>
<path d="M20.2492 58.6404C20.2483 58.6404 19.349 59.2683 18.2905 60.1152C17.5822 60.6818 16.8153 61.1348 16.1547 61.1769C15.4001 61.2252 14.643 60.768 14.6063 59.9402C14.5696 59.1129 15.1881 58.7771 15.6981 58.6404C15.1881 58.5037 14.5696 58.1679 14.6063 57.3406C14.643 56.5128 15.4001 56.0556 16.1547 56.1039C16.8153 56.146 17.5822 56.599 18.2905 57.1656C19.349 58.0125 20.2485 58.6399 20.2492 58.6404V58.6404Z" fill="#C8102E"/>
<path d="M68.7533 5.35818C68.7533 5.35818 69.6535 5.98604 70.712 6.833C71.4202 7.39961 72.1872 7.85258 72.8478 7.89472C73.6024 7.94301 74.3595 7.48578 74.3962 6.65799C74.4329 5.83068 73.8143 5.49489 73.3044 5.35818C73.8143 5.22147 74.4329 4.88566 74.3962 4.05838C74.3595 3.23059 73.6024 2.77333 72.8478 2.82165C72.1872 2.86376 71.4202 3.31675 70.712 3.88334C69.6535 4.73032 68.7533 5.35818 68.7533 5.35818V5.35818Z" fill="#C8102E"/>
<path d="M23.275 46.609C23.275 46.609 21.1144 47.926 18.5742 49.7024C16.8743 50.8909 15.0336 51.841 13.4482 51.9294C11.637 52.0307 9.82007 51.0716 9.73201 49.3353C9.644 47.6001 11.1285 46.8957 12.3523 46.609C11.1285 46.3223 9.644 45.6179 9.73201 43.8827C9.82007 42.1464 11.637 41.1874 13.4482 41.2887C15.0336 41.377 16.8743 42.3271 18.5742 43.5156C21.1144 45.2921 23.275 46.609 23.275 46.609Z" fill="#C8102E"/>
<path d="M41.9414 17.3898C41.9414 17.3898 39.7808 18.7067 37.2406 20.4832C35.5407 21.6716 33.7 22.6218 32.1145 22.7101C30.3034 22.8114 28.4865 21.8524 28.3984 20.1161C28.3104 18.3808 29.7948 17.6765 31.0187 17.3898C29.7948 17.103 28.3104 16.3987 28.3984 14.6635C28.4865 12.9272 30.3034 11.9681 32.1145 12.0694C33.7 12.1578 35.5407 13.1079 37.2406 14.2963C39.7808 16.0728 41.9414 17.3898 41.9414 17.3898V17.3898Z" fill="#C8102E"/>
<path d="M23.275 17.3898C23.275 17.3898 21.1144 18.7067 18.5742 20.4832C16.8743 21.6716 15.0336 22.6218 13.4482 22.7101C11.637 22.8114 9.82007 21.8524 9.73201 20.1161C9.644 18.3808 11.1285 17.6765 12.3523 17.3898C11.1285 17.103 9.644 16.3987 9.73201 14.6635C9.82007 12.9272 11.637 11.9681 13.4482 12.0694C15.0336 12.1578 16.8743 13.1079 18.5742 14.2963C21.1144 16.0728 23.275 17.3898 23.275 17.3898Z" fill="#C8102E"/>
<path d="M51.2746 31.9994C51.2746 31.9994 49.1141 33.3163 46.5738 35.0928C44.8739 36.2813 43.0332 37.2314 41.4478 37.3197C39.6367 37.4211 37.8197 36.462 37.7316 34.7257C37.6436 32.9905 39.1281 32.2861 40.352 31.9994C39.1281 31.7127 37.6436 31.0083 37.7316 29.2731C37.8197 27.5368 39.6367 26.5777 41.4478 26.6791C43.0332 26.7674 44.8739 27.7175 46.5738 28.906C49.1141 30.6824 51.2746 31.9994 51.2746 31.9994V31.9994Z" fill="#C8102E"/>
<path d="M47.061 17.3898C47.061 17.3898 49.2216 18.7067 51.7618 20.4832C53.4617 21.6716 55.3024 22.6218 56.8879 22.7101C58.699 22.8114 60.5159 21.8524 60.604 20.1161C60.692 18.3808 59.2076 17.6765 57.9837 17.3898C59.2076 17.103 60.692 16.3987 60.604 14.6635C60.5159 12.9272 58.699 11.9681 56.8879 12.0694C55.3024 12.1578 53.4617 13.1079 51.7618 14.2963C49.2216 16.0728 47.061 17.3898 47.061 17.3898Z" fill="#C8102E"/>
<path d="M47.061 46.609C47.061 46.609 49.2216 47.926 51.7618 49.7024C53.4617 50.8909 55.3024 51.841 56.8879 51.9294C58.699 52.0307 60.5159 51.0716 60.604 49.3353C60.692 47.6001 59.2076 46.8957 57.9837 46.609C59.2076 46.3223 60.692 45.6179 60.604 43.8827C60.5159 42.1464 58.699 41.1874 56.8879 41.2887C55.3024 41.377 53.4617 42.3271 51.7618 43.5156C49.2216 45.2921 47.061 46.609 47.061 46.609Z" fill="#C8102E"/>
<path d="M65.7274 17.3898C65.7274 17.3898 67.888 18.7067 70.4282 20.4832C72.1281 21.6716 73.9688 22.6218 75.5542 22.7101C77.3654 22.8114 79.1823 21.8524 79.2704 20.1161C79.3584 18.3808 77.8739 17.6765 76.6501 17.3898C77.8739 17.103 79.3584 16.3987 79.2704 14.6635C79.1823 12.9272 77.3654 11.9681 75.5542 12.0694C73.9688 12.1578 72.1281 13.1079 70.4282 14.2963C67.888 16.0728 65.7274 17.3898 65.7274 17.3898V17.3898Z" fill="#C8102E"/>
<path d="M65.7274 46.609C65.7274 46.609 67.888 47.926 70.4282 49.7024C72.1281 50.8909 73.9688 51.841 75.5542 51.9294C77.3654 52.0307 79.1823 51.0716 79.2704 49.3353C79.3584 47.6001 77.8739 46.8957 76.6501 46.609C77.8739 46.3223 79.3584 45.6179 79.2704 43.8827C79.1823 42.1464 77.3654 41.1874 75.5542 41.2887C73.9688 41.377 72.1281 42.3271 70.4282 43.5156C67.888 45.2921 65.7274 46.609 65.7274 46.609V46.609Z" fill="#C8102E"/>
<path d="M11.9246 61.2426L11.6545 60.3906C12.5133 60.0688 12.7675 59.4196 12.7125 58.7324C12.6142 57.4994 11.2358 57.0898 10.0174 56.9976C10.527 57.4781 10.7857 58.1998 10.7594 58.8148C10.6541 60.7807 9.08062 61.2839 7.43356 61.3021C6.04483 61.3558 5.03893 60.7817 4.57699 59.797C4.34308 59.2752 4.34308 58.0808 4.62022 57.5561C5.25584 56.3514 6.35374 55.9047 8.97528 55.9856C11.1319 55.9856 13.6437 56.4435 13.6984 58.7552C13.8832 60.0902 12.8441 61.1051 11.9246 61.2426V61.2426ZM9.56136 57.896C9.3075 57.4951 9.06914 57.2694 8.71252 57.0894C8.41949 56.9421 8.2665 56.8909 7.66046 56.9334C6.09691 57.0426 5.20926 57.8619 5.38517 59.051C5.48494 59.7143 5.85597 60.0771 6.5459 60.2854C7.82194 60.6697 9.31454 60.182 9.65821 59.2691C9.81416 58.8583 9.76942 58.2233 9.56136 57.896V57.896Z" fill="#C8102E"/>
<path d="M77.0782 2.75721L77.3483 3.60918C76.4895 3.93103 76.2353 4.58021 76.2903 5.26745C76.3886 6.50043 77.767 6.91009 78.9854 7.00227C78.4758 6.52184 78.2171 5.80013 78.2434 5.18511C78.3487 3.21917 79.9222 2.71589 81.5692 2.69774C82.958 2.64404 83.9639 3.21808 84.4258 4.20284C84.6597 4.72462 84.6597 5.91913 84.3826 6.44382C83.747 7.64846 82.6491 8.09515 80.0275 8.01423C77.8708 8.01423 75.3591 7.55629 75.3044 5.24457C75.1196 3.90966 76.1587 2.89473 77.0782 2.75721ZM79.4414 6.10378C79.6953 6.50474 79.9337 6.73045 80.2903 6.91042C80.5833 7.05774 80.7363 7.10886 81.3423 7.06641C82.9059 6.95719 83.7935 6.13791 83.6176 4.94885C83.5179 4.28554 83.1468 3.92274 82.4569 3.71446C81.1809 3.33019 79.6883 3.81784 79.3446 4.73077C79.1886 5.14152 79.2334 5.77649 79.4414 6.10378V6.10378Z" fill="#C8102E"/>
</g>
<defs>
<clipPath id="clip0">
<rect width="63.0002" height="88.0003" fill="white" transform="translate(0.5 63.5002) rotate(-90)"/>
</clipPath>
</defs>
</svg>
