<svg width="89" height="64" viewBox="0 0 89 64" fill="none" xmlns="http://www.w3.org/2000/svg">
<g clip-path="url(#clip0)">
<path d="M0.500977 3.5135L0.500977 60.4868C0.500977 62.1511 1.84844 63.5002 3.51061 63.5002L85.4916 63.5002C87.1538 63.5002 88.5013 62.1511 88.5013 60.4868V3.5135C88.5013 1.84922 87.1538 0.50005 85.4916 0.50005L3.51061 0.50005C1.84844 0.50005 0.500977 1.84922 0.500977 3.5135Z" fill="white"/>
<path d="M14.6046 58.6411C16.1518 59.8577 17.0422 61.1594 18.2492 61.181C18.6401 61.1883 19.3044 60.9513 19.4316 60.209C19.5137 59.7275 19.1661 59.0645 18.46 59.0506C18.3194 59.0534 18.323 58.8837 18.5157 58.8853C19.0727 58.9079 19.7212 59.1057 20.2491 59.438C20.2491 58.9068 20.2491 58.3755 20.2491 57.8443C19.7212 58.1766 19.0727 58.3743 18.5157 58.397C18.323 58.3998 18.3194 58.2296 18.46 58.2317C19.1661 58.2178 19.5137 57.5548 19.4316 57.0733C19.3044 56.331 18.6401 56.0941 18.2492 56.1013C17.0422 56.123 16.1518 57.4246 14.6046 58.6411Z" fill="black"/>
<path d="M74.3976 5.35893C72.8504 6.57548 71.9601 7.87714 70.753 7.89876C70.3622 7.9061 69.6978 7.66906 69.5707 6.92681C69.4885 6.44525 69.8361 5.78227 70.5423 5.76841C70.6829 5.77123 70.6792 5.6015 70.4866 5.60308C69.9296 5.62566 69.2811 5.82347 68.7532 6.15576C68.7532 5.62453 68.7532 5.09334 68.7532 4.56211C69.2811 4.8944 69.9296 5.09211 70.4866 5.11477C70.6792 5.11759 70.6829 4.94734 70.5423 4.94946C69.8361 4.93563 69.4885 4.2726 69.5707 3.79104C69.6978 3.04879 70.3622 2.81184 70.753 2.81909C71.9601 2.84082 72.8504 4.1424 74.3976 5.35893V5.35893Z" fill="black"/>
<path d="M37.7278 32.0002C41.441 34.604 43.5779 37.39 46.4748 37.4363C47.4129 37.4518 49.0073 36.9446 49.3125 35.356C49.5096 34.3253 48.6754 32.9063 46.9806 32.8766C46.6432 32.8812 46.652 32.5194 47.1143 32.5228C48.4511 32.5713 50.0076 32.9945 51.2745 33.7057C51.2745 32.5687 51.2745 31.4317 51.2745 30.2947C50.0076 31.0059 48.4511 31.4291 47.1143 31.4776C46.652 31.481 46.6432 31.1192 46.9806 31.1238C48.6754 31.0941 49.5096 29.6751 49.3125 28.6444C49.0073 27.0558 47.4129 26.5486 46.4748 26.5641C43.5779 26.6104 41.441 29.3964 37.7278 32.0002V32.0002Z" fill="black"/>
<path d="M13.7196 61.4897H12.9233V60.7299L4.40625 59.1113V58.19L12.9233 56.4069V55.7933H13.7196V57.8841H12.9233V57.3198L11.6181 57.5452V59.6544L12.9233 59.8173V59.2531H13.7196V61.4897ZM10.6883 57.7251L6.12972 58.6421L10.6883 59.5009V57.7251Z" fill="black"/>
<path d="M75.2826 8.20752H76.0789V7.4477L84.596 5.82904V4.90775L76.0789 3.12468V2.51111H75.2826V4.60187H76.0789V4.03762L77.3841 4.26294V6.37219L76.0789 6.53513V5.97091H75.2826V8.20752ZM78.3139 4.44293L82.8725 5.35986L78.3139 6.21873V4.44293Z" fill="black"/>
</g>
<defs>
<clipPath id="clip0">
<rect width="63.0002" height="88.0003" fill="white" transform="translate(0.500977 63.5002) rotate(-90)"/>
</clipPath>
</defs>
</svg>
