<svg width="89" height="64" viewBox="0 0 89 64" fill="none" xmlns="http://www.w3.org/2000/svg">
<g clip-path="url(#clip0)">
<path d="M0.5 3.51351L0.5 60.4868C0.5 62.1511 1.84746 63.5002 3.50964 63.5002L85.4907 63.5002C87.1528 63.5002 88.5003 62.1511 88.5003 60.4868V3.51351C88.5003 1.84922 87.1528 0.500076 85.4907 0.500076L3.50964 0.500076C1.84746 0.500076 0.5 1.84922 0.5 3.51351Z" fill="white"/>
<path d="M9.72729 46.6098C13.4405 49.2136 15.5774 51.9996 18.4743 52.0459C19.4124 52.0614 21.0068 51.5543 21.312 49.9656C21.5091 48.9349 20.6749 47.5159 18.9801 47.4863C18.6427 47.4908 18.6515 47.129 19.1138 47.1324C20.4507 47.1809 22.0071 47.6041 23.274 48.3153C23.274 47.1783 23.274 46.0413 23.274 44.9044C22.0071 45.6156 20.4507 46.0387 19.1138 46.0873C18.6515 46.0907 18.6427 45.7289 18.9801 45.7334C20.6749 45.7038 21.5091 44.2847 21.312 43.254C21.0068 41.6654 19.4124 41.1582 18.4743 41.1737C15.5774 41.22 13.4405 44.006 9.72729 46.6098V46.6098Z" fill="black"/>
<path d="M14.6036 58.6411C16.1508 59.8577 17.0412 61.1594 18.2482 61.181C18.6391 61.1883 19.3034 60.9513 19.4306 60.2091C19.5127 59.7275 19.1651 59.0645 18.459 59.0506C18.3184 59.0534 18.3221 58.8837 18.5147 58.8853C19.0717 58.9079 19.7202 59.1057 20.2481 59.438C20.2481 58.9067 20.2481 58.3756 20.2481 57.8443C19.7202 58.1766 19.0717 58.3743 18.5147 58.397C18.3221 58.3998 18.3184 58.2295 18.459 58.2316C19.1651 58.2178 19.5127 57.5548 19.4306 57.0732C19.3034 56.331 18.6391 56.0941 18.2482 56.1013C17.0412 56.123 16.1508 57.4246 14.6036 58.6411V58.6411Z" fill="black"/>
<path d="M60.6066 46.6098C56.8934 49.2136 54.7566 51.9996 51.8596 52.0459C50.9215 52.0614 49.3271 51.5543 49.0219 49.9656C48.8248 48.9349 49.659 47.5159 51.3538 47.4863C51.6912 47.4908 51.6824 47.129 51.2201 47.1324C49.8833 47.1809 48.3269 47.6041 47.0599 48.3153C47.0599 47.1783 47.0599 46.0413 47.0599 44.9044C48.3269 45.6156 49.8833 46.0387 51.2201 46.0873C51.6824 46.0907 51.6912 45.7289 51.3538 45.7334C49.659 45.7038 48.8248 44.2847 49.0219 43.254C49.3271 41.6654 50.9215 41.1582 51.8596 41.1737C54.7566 41.22 56.8934 44.006 60.6066 46.6098V46.6098Z" fill="black"/>
<path d="M74.3967 5.35889C72.8495 6.57544 71.9591 7.87714 70.7521 7.89876C70.3612 7.9061 69.6969 7.66901 69.5697 6.92676C69.4876 6.4452 69.8352 5.78223 70.5413 5.76838C70.6819 5.7712 70.6782 5.60143 70.4856 5.60301C69.9286 5.62559 69.2801 5.82345 68.7522 6.15574C68.7522 5.62452 68.7522 5.09327 68.7522 4.56204C69.2801 4.89433 69.9286 5.09211 70.4856 5.11477C70.6782 5.11759 70.6819 4.94729 70.5413 4.94941C69.8352 4.93558 69.4876 4.27258 69.5697 3.79102C69.6969 3.04878 70.3612 2.81177 70.7521 2.81902C71.9591 2.84075 72.8495 4.14237 74.3967 5.35889V5.35889Z" fill="black"/>
<path d="M9.72729 17.3905C13.4405 19.9942 15.5774 22.7803 18.4743 22.8266C19.4124 22.8421 21.0068 22.3349 21.312 20.7463C21.5091 19.7156 20.6749 18.2966 18.9801 18.267C18.6427 18.2715 18.6515 17.9097 19.1138 17.9131C20.4507 17.9616 22.0071 18.3848 23.274 19.096C23.274 17.959 23.274 16.822 23.274 15.685C22.0071 16.3962 20.4507 16.8194 19.1138 16.8679C18.6515 16.8713 18.6427 16.5095 18.9801 16.514C20.6749 16.4844 21.5091 15.0654 21.312 14.0347C21.0068 12.4461 19.4124 11.9388 18.4743 11.9544C15.5774 12.0006 13.4405 14.7867 9.72729 17.3905V17.3905Z" fill="black"/>
<path d="M28.3936 46.6098C32.1068 49.2136 34.2436 51.9996 37.1406 52.0459C38.0787 52.0614 39.6731 51.5543 39.9783 49.9656C40.1754 48.9349 39.3412 47.5159 37.6464 47.4863C37.309 47.4908 37.3178 47.129 37.7801 47.1324C39.1169 47.1809 40.6733 47.6041 41.9403 48.3153C41.9403 47.1783 41.9403 46.0413 41.9403 44.9044C40.6733 45.6156 39.1169 46.0387 37.7801 46.0873C37.3178 46.0907 37.309 45.7289 37.6464 45.7334C39.3412 45.7038 40.1754 44.2847 39.9783 43.254C39.6731 41.6654 38.0787 41.1582 37.1406 41.1737C34.2436 41.22 32.1068 44.006 28.3936 46.6098V46.6098Z" fill="black"/>
<path d="M21.7614 32.0001C25.4746 34.6039 27.6114 37.3899 30.5084 37.4362C31.4465 37.4517 33.0409 36.9445 33.3461 35.3559C33.5432 34.3252 32.709 32.9062 31.0142 32.8766C30.6768 32.8811 30.6856 32.5193 31.1479 32.5227C32.4847 32.5712 34.0411 32.9944 35.3081 33.7056C35.3081 32.5686 35.3081 31.4316 35.3081 30.2946C34.0411 31.0058 32.4847 31.429 31.1479 31.4775C30.6856 31.4809 30.6768 31.1191 31.0142 31.1236C32.709 31.094 33.5432 29.675 33.3461 28.6443C33.0409 27.0557 31.4465 26.5485 30.5084 26.564C27.6114 26.6103 25.4746 29.3964 21.7614 32.0001V32.0001Z" fill="black"/>
<path d="M28.3936 17.3905C32.1068 19.9942 34.2436 22.7803 37.1406 22.8266C38.0787 22.8421 39.6731 22.3349 39.9783 20.7463C40.1754 19.7156 39.3412 18.2966 37.6464 18.267C37.309 18.2715 37.3178 17.9097 37.7801 17.9131C39.1169 17.9616 40.6733 18.3848 41.9403 19.096C41.9403 17.959 41.9403 16.822 41.9403 15.685C40.6733 16.3962 39.1169 16.8194 37.7801 16.8679C37.3178 16.8713 37.309 16.5095 37.6464 16.514C39.3412 16.4844 40.1754 15.0654 39.9783 14.0347C39.6731 12.4461 38.0787 11.9388 37.1406 11.9544C34.2436 12.0006 32.1068 14.7867 28.3936 17.3905V17.3905Z" fill="black"/>
<path d="M79.273 46.6098C75.5598 49.2136 73.4229 51.9996 70.526 52.0459C69.5879 52.0614 67.9935 51.5543 67.6883 49.9656C67.4912 48.9349 68.3254 47.5159 70.0202 47.4863C70.3576 47.4908 70.3488 47.129 69.8865 47.1324C68.5497 47.1809 66.9933 47.6041 65.7263 48.3153C65.7263 47.1783 65.7263 46.0413 65.7263 44.9044C66.9933 45.6156 68.5497 46.0387 69.8865 46.0873C70.3488 46.0907 70.3576 45.7289 70.0202 45.7334C68.3254 45.7038 67.4912 44.2847 67.6883 43.254C67.9935 41.6654 69.5879 41.1582 70.526 41.1737C73.4229 41.22 75.5598 44.006 79.273 46.6098V46.6098Z" fill="black"/>
<path d="M79.273 17.3905C75.5598 19.9942 73.4229 22.7803 70.526 22.8266C69.5879 22.8421 67.9935 22.3349 67.6883 20.7463C67.4912 19.7156 68.3254 18.2966 70.0202 18.267C70.3576 18.2715 70.3488 17.9097 69.8865 17.9131C68.5497 17.9616 66.9933 18.3848 65.7263 19.096C65.7263 17.959 65.7263 16.822 65.7263 15.685C66.9933 16.3962 68.5497 16.8194 69.8865 16.8679C70.3488 16.8713 70.3576 16.5095 70.0202 16.514C68.3254 16.4844 67.4912 15.0654 67.6883 14.0347C67.9935 12.4461 69.5879 11.9388 70.526 11.9544C73.4229 12.0006 75.5598 14.7867 79.273 17.3905V17.3905Z" fill="black"/>
<path d="M67.239 32.0001C63.5257 34.6039 61.3889 37.3899 58.4919 37.4362C57.5539 37.4517 55.9594 36.9445 55.6542 35.3559C55.4572 34.3252 56.2914 32.9062 57.9861 32.8766C58.3235 32.8811 58.3148 32.5193 57.8524 32.5227C56.5156 32.5712 54.9592 32.9944 53.6923 33.7056C53.6923 32.5686 53.6923 31.4316 53.6923 30.2946C54.9592 31.0058 56.5156 31.429 57.8524 31.4775C58.3148 31.4809 58.3235 31.1191 57.9861 31.1236C56.2914 31.094 55.4572 29.675 55.6542 28.6443C55.9594 27.0557 57.5539 26.5485 58.4919 26.564C61.3889 26.6103 63.5257 29.3964 67.239 32.0001V32.0001Z" fill="black"/>
<path d="M60.6066 17.3905C56.8934 19.9942 54.7566 22.7803 51.8596 22.8266C50.9215 22.8421 49.3271 22.3349 49.0219 20.7463C48.8248 19.7156 49.659 18.2966 51.3538 18.267C51.6912 18.2715 51.6824 17.9097 51.2201 17.9131C49.8833 17.9616 48.3269 18.3848 47.0599 19.096C47.0599 17.959 47.0599 16.822 47.0599 15.685C48.3269 16.3962 49.8833 16.8194 51.2201 16.8679C51.6824 16.8713 51.6912 16.5095 51.3538 16.514C49.659 16.4844 48.8248 15.0654 49.0219 14.0347C49.3271 12.4461 50.9215 11.9388 51.8596 11.9544C54.7566 12.0006 56.8934 14.7867 60.6066 17.3905V17.3905Z" fill="black"/>
<path d="M13.7187 61.4691H4.40552V60.5664H13.7187V61.4691Z" fill="black"/>
<path d="M4.40527 57.8902C4.40527 58.7593 5.19905 59.4578 6.18499 59.4578H11.9391C12.925 59.4578 13.7185 58.7589 13.7185 57.8902V57.383C13.7185 56.514 12.925 55.814 11.9391 55.814H6.18499C5.19905 55.814 4.40527 56.5143 4.40527 57.383V57.8902ZM5.28589 57.6279C5.28589 57.1148 5.67945 56.7023 6.17168 56.7023H12.0019C12.4942 56.7023 12.8914 57.1148 12.8914 57.6279C12.8914 58.141 12.4942 58.555 12.0019 58.555H6.17168C5.67982 58.555 5.28589 58.141 5.28589 57.6279Z" fill="black"/>
<path d="M75.2816 2.53149L84.5948 2.53149V3.43432L75.2816 3.43432V2.53149Z" fill="black"/>
<path d="M84.5949 6.11025C84.5949 5.2412 83.8011 4.54272 82.8152 4.54272L77.0611 4.54272C76.0751 4.54272 75.2817 5.24157 75.2817 6.11025V6.61757C75.2817 7.4866 76.0751 8.18648 77.0611 8.18648H82.8152C83.8011 8.18648 84.5949 7.48623 84.5949 6.61757V6.11025ZM83.7143 6.37263C83.7143 6.88571 83.3207 7.29826 82.8285 7.29826H76.9983C76.506 7.29826 76.1088 6.88571 76.1088 6.37263C76.1088 5.85957 76.506 5.44555 76.9983 5.44555H82.8285C83.3204 5.44555 83.7143 5.85957 83.7143 6.37263Z" fill="black"/>
</g>
<defs>
<clipPath id="clip0">
<rect width="63.0002" height="88.0003" fill="white" transform="translate(0.5 63.5002) rotate(-90)"/>
</clipPath>
</defs>
</svg>
