<svg width="89" height="64" viewBox="0 0 89 64" fill="none" xmlns="http://www.w3.org/2000/svg">
<g clip-path="url(#clip0)">
<path d="M0.501221 3.51351L0.501221 60.4868C0.501221 62.1511 1.84868 63.5002 3.51086 63.5002L85.4919 63.5002C87.154 63.5002 88.5015 62.1511 88.5015 60.4868V3.51351C88.5015 1.84922 87.154 0.500057 85.4919 0.500057L3.51086 0.500057C1.84868 0.500057 0.501221 1.84922 0.501221 3.51351Z" fill="white"/>
<path d="M14.6049 58.6411C16.152 59.8577 17.0424 61.1594 18.2495 61.181C18.6403 61.1883 19.3047 60.9513 19.4318 60.209C19.5139 59.7275 19.1664 59.0645 18.4602 59.0506C18.3196 59.0534 18.3233 58.8837 18.5159 58.8853C19.0729 58.9079 19.7214 59.1057 20.2493 59.438C20.2493 58.9067 20.2493 58.3755 20.2493 57.8443C19.7214 58.1766 19.0729 58.3743 18.5159 58.397C18.3233 58.3998 18.3196 58.2296 18.4602 58.2317C19.1664 58.2178 19.5139 57.5548 19.4318 57.0732C19.3047 56.331 18.6403 56.094 18.2495 56.1013C17.0424 56.123 16.152 57.4246 14.6049 58.6411V58.6411Z" fill="black"/>
<path d="M74.3979 5.35893C72.8507 6.57548 71.9604 7.87714 70.7533 7.89876C70.3624 7.9061 69.6981 7.66907 69.5709 6.92683C69.4888 6.44527 69.8364 5.78227 70.5425 5.76841C70.6831 5.77123 70.6795 5.6015 70.4868 5.60308C69.9298 5.62566 69.2813 5.82347 68.7534 6.15576C68.7534 5.62453 68.7534 5.09334 68.7534 4.56211C69.2813 4.8944 69.9298 5.09213 70.4868 5.11479C70.6795 5.11761 70.6831 4.94734 70.5425 4.94946C69.8364 4.93563 69.4888 4.2726 69.5709 3.79104C69.6981 3.04879 70.3624 2.81184 70.7533 2.81909C71.9604 2.84082 72.8507 4.1424 74.3979 5.35893V5.35893Z" fill="black"/>
<path d="M9.72852 32.0001C13.4418 34.6039 15.5786 37.3899 18.4755 37.4362C19.4136 37.4517 21.0081 36.9445 21.3132 35.3559C21.5103 34.3252 20.6761 32.9061 18.9814 32.8765C18.644 32.881 18.6527 32.5193 19.1151 32.5226C20.4519 32.5712 22.0083 32.9943 23.2752 33.7055C23.2752 32.5686 23.2752 31.4316 23.2752 30.2946C22.0083 31.0058 20.4519 31.429 19.1151 31.4775C18.6527 31.4809 18.644 31.1191 18.9814 31.1236C20.6761 31.094 21.5103 29.6749 21.3132 28.6443C21.0081 27.0556 19.4136 26.5485 18.4755 26.564C15.5786 26.6103 13.4418 29.3963 9.72852 32.0001V32.0001Z" fill="black"/>
<path d="M79.2742 32.0001C75.561 34.6039 73.4242 37.3899 70.5272 37.4362C69.5891 37.4517 67.9947 36.9445 67.6895 35.3559C67.4924 34.3252 68.3266 32.9061 70.0214 32.8765C70.3588 32.881 70.35 32.5193 69.8877 32.5226C68.5509 32.5712 66.9945 32.9943 65.7275 33.7055C65.7275 32.5686 65.7275 31.4316 65.7275 30.2946C66.9945 31.0058 68.5509 31.429 69.8877 31.4775C70.35 31.4809 70.3588 31.1191 70.0214 31.1236C68.3266 31.094 67.4924 29.6749 67.6895 28.6443C67.9947 27.0556 69.5891 26.5485 70.5272 26.564C73.4242 26.6103 75.561 29.3963 79.2742 32.0001V32.0001Z" fill="black"/>
<path d="M13.6999 61.2921L13.1256 61.2467C11.3509 61.1034 10.7522 60.7221 8.89949 58.5591C8.00142 57.509 7.55831 57.1647 7.04424 57.1164C5.83167 56.9789 5.45321 58.0519 5.44768 58.7507C5.4395 59.6564 5.99058 60.6811 7.27151 60.192L7.57567 61.2083C6.38085 61.4126 5.25994 61.2024 4.76249 60.2515C4.11389 58.9815 4.36814 57.353 5.39002 56.5308C6.07557 55.9782 7.02429 55.8519 7.76676 56.1483C9.66341 57.0145 10.4979 59.9525 12.6924 60.1949V56.9477H11.4706V55.9909H13.7199L13.6998 61.2921H13.6999Z" fill="black"/>
<path d="M75.3028 2.70877L75.8771 2.75414C77.6518 2.89745 78.2505 3.27879 80.1032 5.44175C81.0013 6.49185 81.4444 6.83618 81.9585 6.88444C83.171 7.02197 83.5495 5.94901 83.555 5.25017C83.5632 4.34449 83.0121 3.31981 81.7312 3.80893L81.427 2.79259C82.6219 2.58831 83.7428 2.79851 84.2402 3.74943C84.8888 5.01941 84.6346 6.64786 83.6127 7.47009C82.9271 8.02271 81.9784 8.14898 81.2359 7.85253C79.3393 6.98642 78.5048 4.04842 76.3103 3.80602V7.05317H77.5321V8.01001H75.2828L75.3029 2.70877H75.3028Z" fill="black"/>
</g>
<defs>
<clipPath id="clip0">
<rect width="63.0002" height="88.0003" fill="white" transform="translate(0.501221 63.5002) rotate(-90)"/>
</clipPath>
</defs>
</svg>
