<svg width="89" height="64" viewBox="0 0 89 64" fill="none" xmlns="http://www.w3.org/2000/svg">
<g clip-path="url(#clip0)">
<path d="M0.501343 3.51349L0.501343 60.4868C0.501343 62.1511 1.8488 63.5002 3.51098 63.5002L85.492 63.5002C87.1542 63.5002 88.5016 62.1511 88.5016 60.4868V3.51349C88.5016 1.84921 87.1542 0.500057 85.492 0.500057L3.51098 0.500057C1.8488 0.500057 0.501343 1.84921 0.501343 3.51349Z" fill="white"/>
<path d="M14.605 58.6412C16.1522 59.8577 17.0425 61.1594 18.2496 61.181C18.6404 61.1883 19.3048 60.9513 19.432 60.2091C19.5141 59.7275 19.1665 59.0645 18.4603 59.0506C18.3197 59.0535 18.3234 58.8837 18.516 58.8853C19.073 58.9079 19.7216 59.1057 20.2494 59.438C20.2494 58.9068 20.2494 58.3755 20.2494 57.8443C19.7216 58.1766 19.073 58.3743 18.516 58.397C18.3234 58.3998 18.3197 58.2296 18.4603 58.2317C19.1665 58.2179 19.5141 57.5548 19.432 57.0733C19.3048 56.331 18.6404 56.0941 18.2496 56.1013C17.0425 56.123 16.1522 57.4246 14.605 58.6412V58.6412Z" fill="black"/>
<path d="M74.398 5.35893C72.8508 6.57548 71.9605 7.87714 70.7534 7.89876C70.3625 7.9061 69.6982 7.66907 69.571 6.92683C69.4889 6.44527 69.8365 5.78227 70.5426 5.76841C70.6832 5.77123 70.6796 5.6015 70.4869 5.60308C69.9299 5.62566 69.2814 5.82345 68.7535 6.15574C68.7535 5.62452 68.7535 5.09334 68.7535 4.56211C69.2814 4.8944 69.9299 5.09211 70.4869 5.11477C70.6796 5.11759 70.6832 4.94732 70.5426 4.94944C69.8365 4.93561 69.4889 4.27258 69.571 3.79102C69.6982 3.04878 70.3625 2.81184 70.7534 2.81909C71.9605 2.84082 72.8508 4.1424 74.398 5.35893Z" fill="black"/>
<path d="M9.72864 32.0001C13.4419 34.6039 15.5787 37.3899 18.4757 37.4362C19.4137 37.4517 21.0082 36.9445 21.3134 35.3559C21.5104 34.3252 20.6762 32.9061 18.9815 32.8765C18.6441 32.881 18.6528 32.5192 19.1152 32.5226C20.452 32.5712 22.0084 32.9943 23.2753 33.7055C23.2753 32.5686 23.2753 31.4316 23.2753 30.2946C22.0084 31.0058 20.452 31.429 19.1152 31.4775C18.6528 31.4809 18.6441 31.1191 18.9815 31.1236C20.6762 31.094 21.5104 29.6749 21.3134 28.6443C21.0082 27.0556 19.4137 26.5485 18.4757 26.564C15.5787 26.6103 13.4419 29.3963 9.72864 32.0001V32.0001Z" fill="black"/>
<path d="M79.2744 32.0001C75.5611 34.6039 73.4243 37.3899 70.5273 37.4362C69.5893 37.4517 67.9948 36.9445 67.6896 35.3559C67.4926 34.3252 68.3268 32.9061 70.0215 32.8765C70.3589 32.881 70.3502 32.5192 69.8878 32.5226C68.551 32.5712 66.9946 32.9943 65.7277 33.7055C65.7277 32.5686 65.7277 31.4316 65.7277 30.2946C66.9946 31.0058 68.551 31.429 69.8878 31.4775C70.3502 31.4809 70.3589 31.1191 70.0215 31.1236C68.3268 31.094 67.4926 29.6749 67.6896 28.6443C67.9948 27.0556 69.5893 26.5485 70.5273 26.564C73.4243 26.6103 75.5611 29.3963 79.2744 32.0001V32.0001Z" fill="black"/>
<path d="M37.7281 32.0001C41.4414 34.6039 43.5782 37.3899 46.4752 37.4362C47.4133 37.4517 49.0077 36.9445 49.3129 35.3559C49.51 34.3252 48.6758 32.9061 46.981 32.8765C46.6436 32.881 46.6524 32.5192 47.1147 32.5226C48.4515 32.5712 50.0079 32.9943 51.2749 33.7055C51.2749 32.5686 51.2749 31.4316 51.2749 30.2946C50.0079 31.0058 48.4515 31.429 47.1147 31.4775C46.6524 31.4809 46.6436 31.1191 46.981 31.1236C48.6758 31.094 49.51 29.6749 49.3129 28.6443C49.0077 27.0556 47.4133 26.5485 46.4752 26.564C43.5782 26.6103 41.4414 29.3963 37.7281 32.0001V32.0001Z" fill="black"/>
<path d="M11.6786 61.6642L11.1512 60.9472C12.1645 60.3249 12.8319 59.629 12.7174 58.5644C12.6076 56.9671 10.9332 56.3052 9.67158 56.6394C8.5397 56.9627 7.98832 58.2853 8.59179 59.3369C8.7348 59.585 8.85158 59.8245 8.85158 59.8713C8.85158 59.9816 8.35493 60.2313 8.2034 60.1972C7.17275 59.4914 5.36717 57.7777 5.36717 57.7777V60.4552H6.5763V61.4827H4.40674V56.2497H5.14286C5.14286 56.2497 6.59698 57.6518 7.39336 58.1152C7.4351 56.974 8.1583 56.0542 9.30167 55.724C9.90366 55.5313 11.2806 55.6176 11.874 55.8698C12.8633 56.2911 13.666 57.4417 13.7122 58.4936C13.8308 60.2596 12.5935 61.1965 11.6786 61.6642V61.6642Z" fill="black"/>
<path d="M77.3245 2.33672L77.8518 3.05375C76.8385 3.67602 76.1711 4.37195 76.2857 5.43656C76.3955 7.03382 78.0699 7.69565 79.3315 7.36147C80.4634 7.03819 81.0147 5.71559 80.4113 4.66406C80.2683 4.41587 80.1515 4.17641 80.1515 4.12959C80.1515 4.01929 80.6481 3.76963 80.7997 3.80375C81.8303 4.50947 83.6359 6.22321 83.6359 6.22321V3.54574L82.4268 3.54574V2.51817L84.5963 2.51817V7.75118H83.8602C83.8602 7.75118 82.4061 6.34912 81.6097 5.88576C81.568 7.02693 80.8448 7.94674 79.7014 8.27694C79.0994 8.46962 77.7225 8.38327 77.129 8.13108C76.1397 7.70983 75.3371 6.55919 75.2909 5.50732C75.1723 3.74131 76.4095 2.80445 77.3245 2.33672V2.33672Z" fill="black"/>
</g>
<defs>
<clipPath id="clip0">
<rect width="63.0002" height="88.0003" fill="white" transform="translate(0.501343 63.5002) rotate(-90)"/>
</clipPath>
</defs>
</svg>
