<svg width="89" height="64" viewBox="0 0 89 64" fill="none" xmlns="http://www.w3.org/2000/svg">
<g clip-path="url(#clip0)">
<path d="M0.501587 3.51351L0.501587 60.4868C0.501587 62.1511 1.84905 63.5002 3.51122 63.5002L85.4922 63.5002C87.1544 63.5002 88.5019 62.1511 88.5019 60.4868V3.51351C88.5019 1.84922 87.1544 0.500042 85.4922 0.500042L3.51122 0.500042C1.84905 0.500042 0.501587 1.84922 0.501587 3.51351Z" fill="white"/>
<path d="M9.72888 46.6099C13.4421 49.2136 15.579 51.9996 18.4759 52.0459C19.414 52.0614 21.0084 51.5543 21.3136 49.9656C21.5107 48.9349 20.6765 47.5159 18.9817 47.4863C18.6443 47.4908 18.6531 47.129 19.1154 47.1324C20.4522 47.1809 22.0087 47.6041 23.2756 48.3153C23.2756 47.1783 23.2756 46.0413 23.2756 44.9044C22.0087 45.6156 20.4522 46.0387 19.1154 46.0873C18.6531 46.0907 18.6443 45.7289 18.9817 45.7334C20.6765 45.7038 21.5107 44.2847 21.3136 43.254C21.0084 41.6654 19.414 41.1582 18.4759 41.1738C15.579 41.22 13.4421 44.0061 9.72888 46.6099V46.6099Z" fill="black"/>
<path d="M14.6052 58.6412C16.1524 59.8577 17.0428 61.1594 18.2498 61.181C18.6407 61.1883 19.305 60.9513 19.4322 60.209C19.5143 59.7275 19.1667 59.0645 18.4606 59.0506C18.32 59.0534 18.3236 58.8837 18.5163 58.8853C19.0733 58.9079 19.7218 59.1057 20.2497 59.438C20.2497 58.9067 20.2497 58.3755 20.2497 57.8443C19.7218 58.1766 19.0733 58.3743 18.5163 58.397C18.3236 58.3998 18.32 58.2296 18.4606 58.2317C19.1667 58.2178 19.5143 57.5548 19.4322 57.0732C19.305 56.331 18.6407 56.0941 18.2498 56.1013C17.0428 56.123 16.1524 57.4246 14.6052 58.6412Z" fill="black"/>
<path d="M74.3982 5.35893C72.8511 6.57548 71.9607 7.87714 70.7537 7.89876C70.3628 7.9061 69.6984 7.66907 69.5713 6.92683C69.4892 6.44527 69.8367 5.78227 70.5429 5.76841C70.6835 5.77123 70.6798 5.6015 70.4872 5.60308C69.9302 5.62566 69.2817 5.82345 68.7538 6.15574C68.7538 5.62452 68.7538 5.09334 68.7538 4.56211C69.2817 4.8944 69.9302 5.09211 70.4872 5.11477C70.6798 5.11759 70.6835 4.94732 70.5429 4.94944C69.8367 4.93561 69.4892 4.27258 69.5713 3.79102C69.6984 3.04878 70.3628 2.81184 70.7537 2.81909C71.9607 2.84082 72.8511 4.1424 74.3982 5.35893Z" fill="black"/>
<path d="M9.72888 17.3905C13.4421 19.9942 15.579 22.7803 18.4759 22.8266C19.414 22.8421 21.0084 22.3349 21.3136 20.7463C21.5107 19.7156 20.6765 18.2965 18.9817 18.2669C18.6443 18.2714 18.6531 17.9096 19.1154 17.913C20.4522 17.9616 22.0087 18.3847 23.2756 19.0959C23.2756 17.9589 23.2756 16.822 23.2756 15.685C22.0087 16.3962 20.4522 16.8194 19.1154 16.8679C18.6531 16.8713 18.6443 16.5095 18.9817 16.514C20.6765 16.4844 21.5107 15.0653 21.3136 14.0347C21.0084 12.446 19.414 11.9388 18.4759 11.9544C15.579 12.0006 13.4421 14.7867 9.72888 17.3905V17.3905Z" fill="black"/>
<path d="M79.2746 46.6099C75.5614 49.2136 73.4245 51.9996 70.5276 52.0459C69.5895 52.0614 67.9951 51.5543 67.6899 49.9656C67.4928 48.9349 68.327 47.5159 70.0218 47.4863C70.3592 47.4908 70.3504 47.129 69.8881 47.1324C68.5513 47.1809 66.9948 47.6041 65.7279 48.3153C65.7279 47.1783 65.7279 46.0413 65.7279 44.9044C66.9948 45.6156 68.5513 46.0387 69.8881 46.0873C70.3504 46.0907 70.3592 45.7289 70.0218 45.7334C68.327 45.7038 67.4928 44.2847 67.6899 43.254C67.9951 41.6654 69.5895 41.1582 70.5276 41.1738C73.4245 41.22 75.5614 44.0061 79.2746 46.6099V46.6099Z" fill="black"/>
<path d="M79.2746 17.3905C75.5614 19.9942 73.4245 22.7803 70.5276 22.8266C69.5895 22.8421 67.9951 22.3349 67.6899 20.7463C67.4928 19.7156 68.327 18.2965 70.0218 18.2669C70.3592 18.2714 70.3504 17.9096 69.8881 17.913C68.5513 17.9616 66.9948 18.3847 65.7279 19.0959C65.7279 17.9589 65.7279 16.822 65.7279 15.685C66.9948 16.3962 68.5513 16.8194 69.8881 16.8679C70.3504 16.8713 70.3592 16.5095 70.0218 16.514C68.327 16.4844 67.4928 15.0653 67.6899 14.0347C67.9951 12.446 69.5895 11.9388 70.5276 11.9544C73.4245 12.0006 75.5614 14.7867 79.2746 17.3905V17.3905Z" fill="black"/>
<path d="M13.7191 58.5762H12.8965V57.8338H11.5396V61.5472H10.5821L4.40686 57.529L4.41025 56.8726H10.5822V55.7359H11.5397V56.8726L12.8966 56.8941V56.2718H13.7203V58.5763L13.7191 58.5762ZM6.66766 57.8338L10.5825 60.385V57.8338H6.66766Z" fill="black"/>
<path d="M75.2844 5.4243H76.107V6.16668H77.4639V2.45327H78.4214L84.5966 6.47147L84.5932 7.12787L78.4213 7.12787V8.26465H77.4638V7.12787L76.1069 7.1064V7.72869H75.2832V5.42426L75.2844 5.4243ZM82.3358 6.16668L78.421 3.61548V6.16668H82.3358Z" fill="black"/>
</g>
<defs>
<clipPath id="clip0">
<rect width="63.0002" height="88.0003" fill="white" transform="translate(0.501587 63.5002) rotate(-90)"/>
</clipPath>
</defs>
</svg>
