<svg width="89" height="64" viewBox="0 0 89 64" fill="none" xmlns="http://www.w3.org/2000/svg">
<g clip-path="url(#clip0)">
<path d="M88.502 60.4867V3.51347C88.502 1.84918 87.1545 0.5 85.4923 0.5L3.5113 0.5C1.84913 0.5 0.501671 1.84918 0.501671 3.51347V60.4867C0.501671 62.151 1.84913 63.5002 3.5113 63.5002L85.4923 63.5002C87.1545 63.5002 88.502 62.151 88.502 60.4867Z" fill="white"/>
<path d="M79.2747 17.3904C75.5614 14.7866 73.4246 12.0006 70.5276 11.9543C69.5895 11.9388 67.9951 12.446 67.6899 14.0346C67.4929 15.0653 68.327 16.4843 70.0218 16.514C70.3592 16.5094 70.3505 16.8712 69.8881 16.8678C68.5513 16.8193 66.9949 16.3961 65.728 15.6849C65.728 16.8219 65.728 17.9589 65.728 19.0959C66.9949 18.3847 68.5513 17.9615 69.8881 17.913C70.3505 17.9096 70.3592 18.2714 70.0218 18.2669C68.327 18.2965 67.4929 19.7155 67.6899 20.7462C67.9951 22.3348 69.5895 22.842 70.5276 22.8265C73.4246 22.7802 75.5614 19.9942 79.2747 17.3904V17.3904Z" fill="black"/>
<path d="M74.3983 5.35909C72.8511 4.14254 71.9608 2.84087 70.7537 2.81926C70.3628 2.81192 69.6985 3.04898 69.5713 3.79122C69.4892 4.27278 69.8368 4.93578 70.543 4.94964C70.6835 4.94682 70.6799 5.11655 70.4873 5.11497C69.9303 5.09239 69.2817 4.89456 68.7539 4.56227C68.7539 5.0935 68.7539 5.62472 68.7539 6.15595C69.2817 5.82366 69.9303 5.62591 70.4873 5.60325C70.6799 5.60042 70.6835 5.77069 70.543 5.76858C69.8368 5.78241 69.4892 6.44544 69.5713 6.92699C69.6985 7.66924 70.3628 7.90621 70.7537 7.89896C71.9608 7.87723 72.8511 6.57561 74.3983 5.35909Z" fill="black"/>
<path d="M14.6053 58.6413C16.1525 57.4248 17.0428 56.1231 18.2499 56.1015C18.6408 56.0941 19.3051 56.3312 19.4323 57.0734C19.5144 57.555 19.1668 58.218 18.4606 58.2318C18.3201 58.229 18.3237 58.3987 18.5164 58.3972C19.0734 58.3746 19.7219 58.1768 20.2498 57.8445C20.2498 58.3757 20.2498 58.9069 20.2498 59.4381C19.7219 59.1058 19.0734 58.9081 18.5164 58.8855C18.3237 58.8827 18.3201 59.0529 18.4606 59.0508C19.1668 59.0646 19.5144 59.7277 19.4323 60.2092C19.3051 60.9515 18.6408 61.1884 18.2499 61.1812C17.0428 61.1594 16.1525 59.8578 14.6053 58.6413Z" fill="black"/>
<path d="M79.2747 46.6098C75.5614 44.006 73.4246 41.22 70.5276 41.1737C69.5895 41.1582 67.9951 41.6653 67.6899 43.254C67.4929 44.2847 68.327 45.7037 70.0218 45.7334C70.3592 45.7288 70.3505 46.0906 69.8881 46.0872C68.5513 46.0387 66.9949 45.6155 65.728 44.9043C65.728 46.0413 65.728 47.1783 65.728 48.3153C66.9949 47.604 68.5513 47.1809 69.8881 47.1323C70.3505 47.129 70.3592 47.4907 70.0218 47.4862C68.327 47.5159 67.4929 48.9349 67.6899 49.9656C67.9951 51.5542 69.5895 52.0614 70.5276 52.0459C73.4246 51.9996 75.5614 49.2136 79.2747 46.6098V46.6098Z" fill="black"/>
<path d="M9.72893 17.3904C13.4422 14.7866 15.579 12.0006 18.476 11.9543C19.414 11.9388 21.0085 12.446 21.3137 14.0346C21.5107 15.0653 20.6765 16.4843 18.9818 16.514C18.6444 16.5094 18.6531 16.8712 19.1155 16.8678C20.4523 16.8193 22.0087 16.3961 23.2756 15.6849C23.2756 16.8219 23.2756 17.9589 23.2756 19.0959C22.0087 18.3847 20.4523 17.9615 19.1155 17.913C18.6531 17.9096 18.6444 18.2714 18.9818 18.2669C20.6765 18.2965 21.5107 19.7155 21.3137 20.7462C21.0085 22.3348 19.414 22.842 18.476 22.8265C15.579 22.7802 13.4422 19.9942 9.72893 17.3904V17.3904Z" fill="black"/>
<path d="M9.72893 46.6098C13.4422 44.006 15.579 41.22 18.476 41.1737C19.414 41.1582 21.0085 41.6653 21.3137 43.254C21.5107 44.2847 20.6765 45.7037 18.9818 45.7334C18.6444 45.7288 18.6531 46.0906 19.1155 46.0872C20.4523 46.0387 22.0087 45.6155 23.2756 44.9043C23.2756 46.0413 23.2756 47.1783 23.2756 48.3153C22.0087 47.604 20.4523 47.1809 19.1155 47.1323C18.6531 47.129 18.6444 47.4907 18.9818 47.4862C20.6765 47.5159 21.5107 48.9349 21.3137 49.9656C21.0085 51.5542 19.414 52.0614 18.476 52.0459C15.579 51.9996 13.4422 49.2136 9.72893 46.6098V46.6098Z" fill="black"/>
<path d="M51.2751 32C47.5619 29.3963 45.4251 26.6102 42.5281 26.5639C41.59 26.5484 39.9956 27.0556 39.6904 28.6442C39.4933 29.6749 40.3275 31.094 42.0223 31.1236C42.3597 31.1191 42.3509 31.4809 41.8886 31.4775C40.5518 31.4289 38.9954 31.0058 37.7284 30.2946C37.7284 31.4316 37.7284 32.5685 37.7284 33.7055C38.9954 32.9943 40.5518 32.5711 41.8886 32.5226C42.3509 32.5192 42.3597 32.881 42.0223 32.8765C40.3275 32.9061 39.4933 34.3252 39.6904 35.3559C39.9956 36.9445 41.59 37.4517 42.5281 37.4361C45.4251 37.3899 47.5619 34.6038 51.2751 32V32Z" fill="black"/>
<path d="M77.6944 2.42317L77.7032 3.33609C77.141 3.51025 76.5697 3.89561 76.4111 4.41885C76.0574 5.89708 76.899 6.84811 77.8691 7.16126C79.0459 7.54116 80.6983 7.1528 81.2848 6.1351C81.7712 5.29185 81.361 4.03891 80.3206 3.46346L80.719 2.82411L84.5967 3.16735V7.34413H83.6801V3.95948L82.0647 3.90577C82.5858 4.63439 82.5802 5.75415 82.2147 6.48237C81.5447 7.86157 80.0212 8.50232 78.2258 8.23455C76.44 7.863 75.428 7.04369 75.2835 5.19569C75.2646 3.14015 76.7042 2.41445 77.6943 2.42317H77.6944Z" fill="black"/>
<path d="M11.3092 61.5764L11.3005 60.6634C11.8626 60.4892 12.434 60.1039 12.5926 59.5807C12.9462 58.1024 12.1047 57.1514 11.1345 56.8382C9.95778 56.4583 8.30537 56.8467 7.71882 57.8644C7.23247 58.7076 7.6427 59.9606 8.68306 60.536L8.28465 61.1754L4.40699 60.8321V56.6554H5.32356V60.04L6.93901 60.0938C6.41788 59.3651 6.42345 58.2454 6.78895 57.5172C7.45901 56.138 8.98245 55.4972 10.7779 55.7649C12.5637 56.1365 13.5757 56.9558 13.7202 58.8038C13.7391 60.8593 12.2995 61.5851 11.3093 61.5764H11.3092Z" fill="black"/>
</g>
<defs>
<clipPath id="clip0">
<rect width="63.0002" height="88.0003" fill="white" transform="translate(0.501709 63.5002) rotate(-90)"/>
</clipPath>
</defs>
</svg>
