<svg width="89" height="64" viewBox="0 0 89 64" fill="none" xmlns="http://www.w3.org/2000/svg">
<g clip-path="url(#clip0)">
<path d="M0.5 3.51347L0.5 60.4868C0.5 62.1511 1.84746 63.5002 3.50964 63.5002L85.4907 63.5002C87.1528 63.5002 88.5003 62.1511 88.5003 60.4868V3.51347C88.5003 1.84919 87.1528 0.500042 85.4907 0.500042L3.50964 0.500042C1.84746 0.500042 0.5 1.84919 0.5 3.51347Z" fill="white"/>
<path d="M9.72729 46.6099C13.4405 49.2136 15.5774 51.9996 18.4743 52.0459C19.4124 52.0614 21.0068 51.5543 21.312 49.9656C21.5091 48.9349 20.6749 47.5159 18.9801 47.4863C18.6427 47.4908 18.6515 47.129 19.1138 47.1324C20.4507 47.1809 22.0071 47.6041 23.274 48.3153C23.274 47.1783 23.274 46.0413 23.274 44.9044C22.0071 45.6156 20.4507 46.0387 19.1138 46.0873C18.6515 46.0907 18.6427 45.7289 18.9801 45.7334C20.6749 45.7038 21.5091 44.2847 21.312 43.254C21.0068 41.6654 19.4124 41.1582 18.4743 41.1738C15.5774 41.22 13.4405 44.0061 9.72729 46.6099V46.6099Z" fill="black"/>
<path d="M14.6036 58.6412C16.1508 59.8577 17.0412 61.1594 18.2482 61.181C18.6391 61.1883 19.3034 60.9513 19.4306 60.209C19.5127 59.7275 19.1651 59.0645 18.459 59.0506C18.3184 59.0534 18.3221 58.8837 18.5147 58.8853C19.0717 58.9079 19.7202 59.1057 20.2481 59.438C20.2481 58.9067 20.2481 58.3755 20.2481 57.8443C19.7202 58.1766 19.0717 58.3743 18.5147 58.397C18.3221 58.3998 18.3184 58.2296 18.459 58.2317C19.1651 58.2178 19.5127 57.5548 19.4306 57.0732C19.3034 56.331 18.6391 56.0941 18.2482 56.1013C17.0412 56.123 16.1508 57.4246 14.6036 58.6412Z" fill="black"/>
<path d="M74.3967 5.35896C72.8495 6.57551 71.9591 7.87714 70.7521 7.89876C70.3612 7.9061 69.6969 7.66907 69.5697 6.92683C69.4876 6.44527 69.8352 5.78223 70.5413 5.76838C70.6819 5.7712 70.6782 5.6015 70.4856 5.60308C69.9286 5.62566 69.2801 5.82345 68.7522 6.15574C68.7522 5.62452 68.7522 5.09334 68.7522 4.56211C69.2801 4.8944 69.9286 5.09211 70.4856 5.11477C70.6782 5.11759 70.6819 4.94736 70.5413 4.94947C69.8352 4.93565 69.4876 4.27258 69.5697 3.79102C69.6969 3.04878 70.3612 2.81184 70.7521 2.81909C71.9591 2.84082 72.8495 4.14244 74.3967 5.35896V5.35896Z" fill="black"/>
<path d="M9.72729 17.3905C13.4405 19.9942 15.5774 22.7803 18.4743 22.8266C19.4124 22.8421 21.0068 22.3349 21.312 20.7463C21.5091 19.7156 20.6749 18.2965 18.9801 18.2669C18.6427 18.2714 18.6515 17.9096 19.1138 17.913C20.4507 17.9616 22.0071 18.3847 23.274 19.0959C23.274 17.9589 23.274 16.822 23.274 15.685C22.0071 16.3962 20.4507 16.8194 19.1138 16.8679C18.6515 16.8713 18.6427 16.5095 18.9801 16.514C20.6749 16.4844 21.5091 15.0653 21.312 14.0347C21.0068 12.446 19.4124 11.9388 18.4743 11.9544C15.5774 12.0006 13.4405 14.7867 9.72729 17.3905V17.3905Z" fill="black"/>
<path d="M37.7268 46.6099C41.44 49.2136 43.5769 51.9996 46.4738 52.0459C47.4119 52.0614 49.0064 51.5543 49.3115 49.9656C49.5086 48.9349 48.6744 47.5159 46.9797 47.4863C46.6422 47.4908 46.651 47.129 47.1134 47.1324C48.4502 47.1809 50.0066 47.6041 51.2735 48.3153C51.2735 47.1783 51.2735 46.0413 51.2735 44.9044C50.0066 45.6156 48.4502 46.0387 47.1134 46.0873C46.651 46.0907 46.6422 45.7289 46.9797 45.7334C48.6744 45.7038 49.5086 44.2847 49.3115 43.254C49.0064 41.6654 47.4119 41.1582 46.4738 41.1738C43.5769 41.22 41.44 44.0061 37.7268 46.6099V46.6099Z" fill="black"/>
<path d="M79.273 46.6099C75.5598 49.2136 73.4229 51.9996 70.526 52.0459C69.5879 52.0614 67.9935 51.5543 67.6883 49.9656C67.4912 48.9349 68.3254 47.5159 70.0202 47.4863C70.3576 47.4908 70.3488 47.129 69.8865 47.1324C68.5497 47.1809 66.9933 47.6041 65.7263 48.3153C65.7263 47.1783 65.7263 46.0413 65.7263 44.9044C66.9933 45.6156 68.5497 46.0387 69.8865 46.0873C70.3488 46.0907 70.3576 45.7289 70.0202 45.7334C68.3254 45.7038 67.4912 44.2847 67.6883 43.254C67.9935 41.6654 69.5879 41.1582 70.526 41.1738C73.4229 41.22 75.5598 44.0061 79.273 46.6099V46.6099Z" fill="black"/>
<path d="M79.273 17.3905C75.5598 19.9942 73.4229 22.7803 70.526 22.8266C69.5879 22.8421 67.9935 22.3349 67.6883 20.7463C67.4912 19.7156 68.3254 18.2965 70.0202 18.2669C70.3576 18.2714 70.3488 17.9096 69.8865 17.913C68.5497 17.9616 66.9933 18.3847 65.7263 19.0959C65.7263 17.9589 65.7263 16.822 65.7263 15.685C66.9933 16.3962 68.5497 16.8194 69.8865 16.8679C70.3488 16.8713 70.3576 16.5095 70.0202 16.514C68.3254 16.4844 67.4912 15.0653 67.6883 14.0347C67.9935 12.446 69.5879 11.9388 70.526 11.9544C73.4229 12.0006 75.5598 14.7867 79.273 17.3905V17.3905Z" fill="black"/>
<path d="M37.7268 17.3905C41.44 19.9942 43.5769 22.7803 46.4738 22.8266C47.4119 22.8421 49.0064 22.3349 49.3115 20.7463C49.5086 19.7156 48.6744 18.2965 46.9797 18.2669C46.6422 18.2714 46.651 17.9096 47.1134 17.913C48.4502 17.9616 50.0066 18.3847 51.2735 19.0959C51.2735 17.9589 51.2735 16.822 51.2735 15.685C50.0066 16.3962 48.4502 16.8194 47.1134 16.8679C46.651 16.8713 46.6422 16.5095 46.9797 16.514C48.6744 16.4844 49.5086 15.0653 49.3115 14.0347C49.0064 12.446 47.4119 11.9388 46.4738 11.9544C43.5769 12.0006 41.44 14.7867 37.7268 17.3905V17.3905Z" fill="black"/>
<path d="M10.8534 61.3766C10.0695 61.4913 8.04315 61.4884 7.4437 61.3947C5.60731 61.1055 4.7669 60.4041 4.49266 59.2292C4.22548 58.088 4.52297 56.485 6.05782 56.1334L6.07645 57.0873C5.03868 57.6032 5.31585 58.9088 5.76746 59.6443C6.12707 60.231 7.62864 60.4963 7.72101 60.3827C7.72101 60.3827 6.8991 59.2731 6.95972 58.3982C7.15448 56.5288 8.77577 55.7578 10.3065 55.8231C12.1481 55.8826 13.6208 56.4664 13.7188 58.448C13.646 60.3319 12.6189 61.1951 10.8535 61.3765L10.8534 61.3766ZM10.367 56.7303C9.0894 56.7202 8.13184 57.3 8.02688 58.3983C7.92119 59.4956 8.9922 60.6026 10.2945 60.5261C11.6025 60.4495 12.7027 59.9434 12.6968 58.6124C12.6911 57.181 11.2765 56.7372 10.367 56.7303Z" fill="black"/>
<path d="M78.1469 2.62432C78.9308 2.50965 80.9571 2.51257 81.5566 2.60627C83.393 2.89546 84.2334 3.59683 84.5076 4.77172C84.7748 5.91289 84.4773 7.51597 82.9425 7.86756L82.9238 6.91368C83.9616 6.39772 83.6844 5.09216 83.2328 4.35666C82.8732 3.76994 81.3716 3.50466 81.2793 3.61823C81.2793 3.61823 82.1012 4.72785 82.0406 5.60268C81.8458 7.47207 80.2245 8.24316 78.6937 8.17783C76.8522 8.11834 75.3795 7.53452 75.2815 5.553C75.3543 3.66908 76.3813 2.80587 78.1468 2.62446L78.1469 2.62432ZM78.6333 7.27059C79.9109 7.28075 80.8684 6.70094 80.9734 5.60261C81.0791 4.50536 80.0081 3.39828 78.7057 3.47485C77.3978 3.55144 76.2976 4.05763 76.3035 5.38853C76.3092 6.81997 77.7238 7.26371 78.6333 7.27059Z" fill="black"/>
</g>
<defs>
<clipPath id="clip0">
<rect width="63.0002" height="88.0003" fill="white" transform="translate(0.5 63.5002) rotate(-90)"/>
</clipPath>
</defs>
</svg>
