<svg width="89" height="64" viewBox="0 0 89 64" fill="none" xmlns="http://www.w3.org/2000/svg">
<g clip-path="url(#clip0)">
<path d="M0.5 3.51351L0.5 60.4868C0.5 62.1511 1.84746 63.5002 3.50964 63.5002L85.4907 63.5002C87.1528 63.5002 88.5003 62.1511 88.5003 60.4868V3.51351C88.5003 1.84922 87.1528 0.500076 85.4907 0.500076L3.50964 0.500076C1.84746 0.500076 0.5 1.84922 0.5 3.51351Z" fill="white"/>
<path d="M9.72729 46.6097C13.4405 49.2135 15.5774 51.9995 18.4743 52.0458C19.4124 52.0613 21.0068 51.5541 21.312 49.9655C21.5091 48.9348 20.6749 47.5158 18.9801 47.4861C18.6427 47.4906 18.6515 47.1289 19.1138 47.1323C20.4507 47.1808 22.0071 47.604 23.274 48.3152C23.274 47.1782 23.274 46.0412 23.274 44.9042C22.0071 45.6154 20.4507 46.0386 19.1138 46.0871C18.6515 46.0905 18.6427 45.7287 18.9801 45.7333C20.6749 45.7036 21.5091 44.2846 21.312 43.2539C21.0068 41.6653 19.4124 41.1581 18.4743 41.1736C15.5774 41.2199 13.4405 44.0059 9.72729 46.6097V46.6097Z" fill="black"/>
<path d="M14.6036 58.6411C16.1508 59.8577 17.0412 61.1594 18.2482 61.181C18.6391 61.1883 19.3034 60.9513 19.4306 60.2091C19.5127 59.7275 19.1651 59.0645 18.459 59.0506C18.3184 59.0534 18.3221 58.8837 18.5147 58.8853C19.0717 58.9079 19.7202 59.1057 20.2481 59.438C20.2481 58.9067 20.2481 58.3756 20.2481 57.8443C19.7202 58.1766 19.0717 58.3743 18.5147 58.397C18.3221 58.3998 18.3184 58.2296 18.459 58.2317C19.1651 58.2179 19.5127 57.5548 19.4306 57.0732C19.3034 56.331 18.6391 56.0941 18.2482 56.1013C17.0412 56.123 16.1508 57.4246 14.6036 58.6411V58.6411Z" fill="black"/>
<path d="M74.3967 5.35889C72.8495 6.57544 71.9591 7.87714 70.7521 7.89876C70.3612 7.9061 69.6969 7.66907 69.5697 6.92683C69.4876 6.44527 69.8352 5.78223 70.5413 5.76838C70.6819 5.7712 70.6782 5.6015 70.4856 5.60308C69.9286 5.62566 69.2801 5.82345 68.7522 6.15574C68.7522 5.62452 68.7522 5.09334 68.7522 4.56211C69.2801 4.8944 69.9286 5.09211 70.4856 5.11477C70.6782 5.11759 70.6819 4.94729 70.5413 4.94941C69.8352 4.93558 69.4876 4.27258 69.5697 3.79102C69.6969 3.04878 70.3612 2.81184 70.7521 2.81909C71.9591 2.84082 72.8495 4.14237 74.3967 5.35889V5.35889Z" fill="black"/>
<path d="M9.72729 17.3905C13.4405 19.9942 15.5774 22.7803 18.4743 22.8266C19.4124 22.8421 21.0068 22.3348 21.312 20.7462C21.5091 19.7155 20.6749 18.2965 18.9801 18.2669C18.6427 18.2714 18.6515 17.9096 19.1138 17.913C20.4507 17.9616 22.0071 18.3847 23.274 19.0959C23.274 17.9589 23.274 16.8219 23.274 15.6849C22.0071 16.3961 20.4507 16.8193 19.1138 16.8678C18.6515 16.8712 18.6427 16.5094 18.9801 16.514C20.6749 16.4843 21.5091 15.0653 21.312 14.0347C21.0068 12.446 19.4124 11.9388 18.4743 11.9544C15.5774 12.0006 13.4405 14.7867 9.72729 17.3905V17.3905Z" fill="black"/>
<path d="M23.7271 32.0001C27.4403 34.6039 29.5771 37.3899 32.4741 37.4362C33.4122 37.4517 35.0066 36.9445 35.3118 35.3559C35.5089 34.3252 34.6747 32.9061 32.9799 32.8765C32.6425 32.881 32.6513 32.5192 33.1136 32.5226C34.4504 32.5712 36.0068 32.9943 37.2738 33.7055C37.2738 32.5686 37.2738 31.4316 37.2738 30.2946C36.0068 31.0058 34.4504 31.429 33.1136 31.4775C32.6513 31.4809 32.6425 31.1191 32.9799 31.1236C34.6747 31.094 35.5089 29.6749 35.3118 28.6443C35.0066 27.0556 33.4122 26.5485 32.4741 26.564C29.5771 26.6103 27.4403 29.3963 23.7271 32.0001V32.0001Z" fill="black"/>
<path d="M37.7268 46.6097C41.44 49.2135 43.5769 51.9995 46.4738 52.0458C47.4119 52.0613 49.0064 51.5541 49.3115 49.9655C49.5086 48.9348 48.6744 47.5158 46.9797 47.4861C46.6422 47.4906 46.651 47.1289 47.1134 47.1323C48.4502 47.1808 50.0066 47.604 51.2735 48.3152C51.2735 47.1782 51.2735 46.0412 51.2735 44.9042C50.0066 45.6154 48.4502 46.0386 47.1134 46.0871C46.651 46.0905 46.6422 45.7287 46.9797 45.7333C48.6744 45.7036 49.5086 44.2846 49.3115 43.2539C49.0064 41.6653 47.4119 41.1581 46.4738 41.1736C43.5769 41.2199 41.44 44.0059 37.7268 46.6097V46.6097Z" fill="black"/>
<path d="M79.273 46.6097C75.5598 49.2135 73.4229 51.9995 70.526 52.0458C69.5879 52.0613 67.9935 51.5541 67.6883 49.9655C67.4912 48.9348 68.3254 47.5158 70.0202 47.4861C70.3576 47.4906 70.3488 47.1289 69.8865 47.1323C68.5497 47.1808 66.9933 47.604 65.7263 48.3152C65.7263 47.1782 65.7263 46.0412 65.7263 44.9042C66.9933 45.6154 68.5497 46.0386 69.8865 46.0871C70.3488 46.0905 70.3576 45.7287 70.0202 45.7333C68.3254 45.7036 67.4912 44.2846 67.6883 43.2539C67.9935 41.6653 69.5879 41.1581 70.526 41.1736C73.4229 41.2199 75.5598 44.0059 79.273 46.6097V46.6097Z" fill="black"/>
<path d="M79.273 17.3905C75.5598 19.9942 73.4229 22.7803 70.526 22.8266C69.5879 22.8421 67.9935 22.3348 67.6883 20.7462C67.4912 19.7155 68.3254 18.2965 70.0202 18.2669C70.3576 18.2714 70.3488 17.9096 69.8865 17.913C68.5497 17.9616 66.9933 18.3847 65.7263 19.0959C65.7263 17.9589 65.7263 16.8219 65.7263 15.6849C66.9933 16.3961 68.5497 16.8193 69.8865 16.8678C70.3488 16.8712 70.3576 16.5094 70.0202 16.514C68.3254 16.4843 67.4912 15.0653 67.6883 14.0347C67.9935 12.446 69.5879 11.9388 70.526 11.9544C73.4229 12.0006 75.5598 14.7867 79.273 17.3905V17.3905Z" fill="black"/>
<path d="M37.7268 17.3905C41.44 19.9942 43.5769 22.7803 46.4738 22.8266C47.4119 22.8421 49.0064 22.3348 49.3115 20.7462C49.5086 19.7155 48.6744 18.2965 46.9797 18.2669C46.6422 18.2714 46.651 17.9096 47.1134 17.913C48.4502 17.9616 50.0066 18.3847 51.2735 19.0959C51.2735 17.9589 51.2735 16.8219 51.2735 15.6849C50.0066 16.3961 48.4502 16.8193 47.1134 16.8678C46.651 16.8712 46.6422 16.5094 46.9797 16.514C48.6744 16.4843 49.5086 15.0653 49.3115 14.0347C49.0064 12.446 47.4119 11.9388 46.4738 11.9544C43.5769 12.0006 41.44 14.7867 37.7268 17.3905V17.3905Z" fill="black"/>
<path d="M13.7176 60.0731C10.4796 59.4606 8.04868 58.8086 5.41043 57.0967V60.5764H6.54607V61.5002H4.40527V56.4106L5.41043 55.7828C7.39531 57.6011 13.8115 59.2651 13.7176 58.9705V60.0731Z" fill="black"/>
<path d="M75.2826 3.92769C78.5207 4.5402 80.9516 5.19221 83.5898 6.90412V3.42443L82.4542 3.42443V2.50059L84.595 2.50059V7.59025L83.5898 8.21802C81.6049 6.39977 75.1888 4.73573 75.2826 5.0304V3.92769Z" fill="black"/>
</g>
<defs>
<clipPath id="clip0">
<rect width="63.0002" height="88.0003" fill="white" transform="translate(0.5 63.5002) rotate(-90)"/>
</clipPath>
</defs>
</svg>
