<svg width="89" height="64" viewBox="0 0 89 64" fill="none" xmlns="http://www.w3.org/2000/svg">
<g clip-path="url(#clip0)">
<path d="M0.5 3.51351L0.5 60.4868C0.5 62.1511 1.84746 63.5002 3.50964 63.5002L85.4907 63.5002C87.1528 63.5002 88.5003 62.1511 88.5003 60.4868V3.51351C88.5003 1.84922 87.1528 0.500076 85.4907 0.500076L3.50964 0.500076C1.84746 0.500076 0.5 1.84922 0.5 3.51351Z" fill="white"/>
<path d="M9.72729 46.6098C13.4405 49.2136 15.5774 51.9996 18.4743 52.0459C19.4124 52.0614 21.0068 51.5543 21.312 49.9656C21.5091 48.9349 20.6749 47.5159 18.9801 47.4863C18.6427 47.4908 18.6515 47.129 19.1138 47.1324C20.4507 47.1809 22.0071 47.6041 23.274 48.3153C23.274 47.1783 23.274 46.0413 23.274 44.9044C22.0071 45.6156 20.4507 46.0387 19.1138 46.0873C18.6515 46.0907 18.6427 45.7289 18.9801 45.7334C20.6749 45.7038 21.5091 44.2847 21.312 43.254C21.0068 41.6654 19.4124 41.1582 18.4743 41.1737C15.5774 41.22 13.4405 44.006 9.72729 46.6098V46.6098Z" fill="black"/>
<path d="M14.6036 58.6411C16.1508 59.8577 17.0412 61.1594 18.2482 61.181C18.6391 61.1883 19.3034 60.9513 19.4306 60.2091C19.5127 59.7275 19.1651 59.0645 18.459 59.0506C18.3184 59.0534 18.3221 58.8837 18.5147 58.8853C19.0717 58.9079 19.7202 59.1057 20.2481 59.438C20.2481 58.9067 20.2481 58.3756 20.2481 57.8443C19.7202 58.1766 19.0717 58.3743 18.5147 58.397C18.3221 58.3998 18.3184 58.2295 18.459 58.2316C19.1651 58.2178 19.5127 57.5548 19.4306 57.0732C19.3034 56.331 18.6391 56.0941 18.2482 56.1013C17.0412 56.123 16.1508 57.4246 14.6036 58.6411V58.6411Z" fill="black"/>
<path d="M74.3967 5.35889C72.8495 6.57544 71.9591 7.87714 70.7521 7.89876C70.3612 7.9061 69.6969 7.66901 69.5697 6.92676C69.4876 6.4452 69.8352 5.78223 70.5413 5.76838C70.6819 5.7712 70.6782 5.6015 70.4856 5.60308C69.9286 5.62566 69.2801 5.82345 68.7522 6.15574C68.7522 5.62452 68.7522 5.09327 68.7522 4.56204C69.2801 4.89433 69.9286 5.09211 70.4856 5.11477C70.6782 5.11759 70.6819 4.94729 70.5413 4.94941C69.8352 4.93558 69.4876 4.27258 69.5697 3.79102C69.6969 3.04878 70.3612 2.81184 70.7521 2.81909C71.9591 2.84082 72.8495 4.14237 74.3967 5.35889V5.35889Z" fill="black"/>
<path d="M9.72729 17.3905C13.4405 19.9942 15.5774 22.7803 18.4743 22.8266C19.4124 22.8421 21.0068 22.3349 21.312 20.7463C21.5091 19.7156 20.6749 18.2966 18.9801 18.267C18.6427 18.2715 18.6515 17.9097 19.1138 17.9131C20.4507 17.9616 22.0071 18.3848 23.274 19.096C23.274 17.959 23.274 16.822 23.274 15.685C22.0071 16.3962 20.4507 16.8194 19.1138 16.8679C18.6515 16.8713 18.6427 16.5095 18.9801 16.514C20.6749 16.4844 21.5091 15.0654 21.312 14.0347C21.0068 12.4461 19.4124 11.9389 18.4743 11.9544C15.5774 12.0007 13.4405 14.7867 9.72729 17.3905V17.3905Z" fill="black"/>
<path d="M23.7271 32.0002C27.4403 34.604 29.5771 37.39 32.4741 37.4363C33.4122 37.4518 35.0066 36.9446 35.3118 35.356C35.5089 34.3253 34.6747 32.9063 32.9799 32.8766C32.6425 32.8812 32.6513 32.5194 33.1136 32.5228C34.4504 32.5713 36.0068 32.9945 37.2738 33.7057C37.2738 32.5687 37.2738 31.4317 37.2738 30.2947C36.0068 31.0059 34.4504 31.429 33.1136 31.4776C32.6513 31.481 32.6425 31.1192 32.9799 31.1238C34.6747 31.0941 35.5089 29.6751 35.3118 28.6444C35.0066 27.0558 33.4122 26.5486 32.4741 26.5641C29.5771 26.6104 27.4403 29.3964 23.7271 32.0002V32.0002Z" fill="black"/>
<path d="M37.7268 46.6098C41.44 49.2136 43.5769 51.9996 46.4738 52.0459C47.4119 52.0614 49.0064 51.5543 49.3115 49.9656C49.5086 48.9349 48.6744 47.5159 46.9797 47.4863C46.6422 47.4908 46.651 47.129 47.1134 47.1324C48.4502 47.1809 50.0066 47.6041 51.2735 48.3153C51.2735 47.1783 51.2735 46.0413 51.2735 44.9044C50.0066 45.6156 48.4502 46.0387 47.1134 46.0873C46.651 46.0907 46.6422 45.7289 46.9797 45.7334C48.6744 45.7038 49.5086 44.2847 49.3115 43.254C49.0064 41.6654 47.4119 41.1582 46.4738 41.1737C43.5769 41.22 41.44 44.006 37.7268 46.6098V46.6098Z" fill="black"/>
<path d="M79.273 46.6098C75.5598 49.2136 73.4229 51.9996 70.526 52.0459C69.5879 52.0614 67.9935 51.5543 67.6883 49.9656C67.4912 48.9349 68.3254 47.5159 70.0202 47.4863C70.3576 47.4908 70.3488 47.129 69.8865 47.1324C68.5497 47.1809 66.9933 47.6041 65.7263 48.3153C65.7263 47.1783 65.7263 46.0413 65.7263 44.9044C66.9933 45.6156 68.5497 46.0387 69.8865 46.0873C70.3488 46.0907 70.3576 45.7289 70.0202 45.7334C68.3254 45.7038 67.4912 44.2847 67.6883 43.254C67.9935 41.6654 69.5879 41.1582 70.526 41.1737C73.4229 41.22 75.5598 44.006 79.273 46.6098V46.6098Z" fill="black"/>
<path d="M79.273 17.3905C75.5598 19.9942 73.4229 22.7803 70.526 22.8266C69.5879 22.8421 67.9935 22.3349 67.6883 20.7463C67.4912 19.7156 68.3254 18.2966 70.0202 18.267C70.3576 18.2715 70.3488 17.9097 69.8865 17.9131C68.5497 17.9616 66.9933 18.3848 65.7263 19.096C65.7263 17.959 65.7263 16.822 65.7263 15.685C66.9933 16.3962 68.5497 16.8194 69.8865 16.8679C70.3488 16.8713 70.3576 16.5095 70.0202 16.514C68.3254 16.4844 67.4912 15.0654 67.6883 14.0347C67.9935 12.4461 69.5879 11.9389 70.526 11.9544C73.4229 12.0007 75.5598 14.7867 79.273 17.3905V17.3905Z" fill="black"/>
<path d="M65.2733 32.0002C61.56 34.604 59.4232 37.39 56.5262 37.4363C55.5882 37.4518 53.9937 36.9446 53.6886 35.356C53.4915 34.3253 54.3257 32.9063 56.0204 32.8766C56.3578 32.8812 56.3491 32.5194 55.8867 32.5228C54.5499 32.5713 52.9935 32.9945 51.7266 33.7057C51.7266 32.5687 51.7266 31.4317 51.7266 30.2947C52.9935 31.0059 54.5499 31.429 55.8867 31.4776C56.3491 31.481 56.3578 31.1192 56.0204 31.1238C54.3257 31.0941 53.4915 29.6751 53.6886 28.6444C53.9937 27.0558 55.5882 26.5486 56.5262 26.5641C59.4232 26.6104 61.56 29.3964 65.2733 32.0002V32.0002Z" fill="black"/>
<path d="M37.7268 17.3905C41.44 19.9942 43.5769 22.7803 46.4738 22.8266C47.4119 22.8421 49.0064 22.3349 49.3115 20.7463C49.5086 19.7156 48.6744 18.2966 46.9797 18.267C46.6422 18.2715 46.651 17.9097 47.1134 17.9131C48.4502 17.9616 50.0066 18.3848 51.2735 19.096C51.2735 17.959 51.2735 16.822 51.2735 15.685C50.0066 16.3962 48.4502 16.8194 47.1134 16.8679C46.651 16.8713 46.6422 16.5095 46.9797 16.514C48.6744 16.4844 49.5086 15.0654 49.3115 14.0347C49.0064 12.4461 47.4119 11.9389 46.4738 11.9544C43.5769 12.0007 41.44 14.7867 37.7268 17.3905V17.3905Z" fill="black"/>
<path d="M10.9906 61.6669C9.74034 61.6226 9.27134 61.1705 8.61721 60.2804C8.10497 60.9905 7.34994 61.2899 6.70727 61.2289C5.15098 61.0827 4.37302 59.8809 4.4063 58.5696C4.44104 57.2572 5.48137 56.1276 6.61227 56.0394C7.59534 55.9629 8.06987 56.255 8.5869 56.9524C9.28577 56.1247 9.74477 55.596 10.9762 55.6156C12.2076 55.6351 13.673 56.6828 13.7177 58.5087C13.7624 60.3345 12.2409 61.7123 10.9906 61.6669V61.6669ZM10.9951 56.5699C9.86311 56.4919 9.09958 57.4927 9.08849 58.6222C9.07664 59.722 10.0154 60.7057 11.0317 60.7057C12.123 60.7057 12.7162 59.4259 12.7188 58.5994C12.7233 57.5946 11.9697 56.6378 10.9951 56.5699ZM6.94571 56.9314C5.99332 56.9099 5.30997 57.7888 5.33732 58.6959C5.36216 59.5025 5.97707 60.3555 6.77387 60.357C7.77133 60.357 8.26951 59.386 8.28873 58.5569C8.30566 57.8044 7.666 56.9484 6.94571 56.9314V56.9314Z" fill="black"/>
<path d="M78.0097 8.38477C79.2599 8.34052 79.7289 7.8884 80.3831 6.99833C80.8953 7.70843 81.6503 8.00779 82.293 7.94683C83.8493 7.80061 84.6272 6.59884 84.594 5.28749C84.5592 3.97506 83.5189 2.8455 82.388 2.75733C81.4049 2.68076 80.9304 2.97288 80.4134 3.67028C79.7145 2.84261 79.2555 2.31393 78.0241 2.33351C76.7927 2.35299 75.3273 3.40064 75.2826 5.22651C75.2379 7.05235 76.7594 8.43016 78.0097 8.38477V8.38477ZM78.0052 3.28781C79.1372 3.2098 79.9007 4.21056 79.9118 5.34013C79.9236 6.43992 78.9849 7.42359 77.9686 7.42359C76.8772 7.42359 76.284 6.14386 76.2815 5.31725C76.2769 4.31254 77.0306 3.35568 78.0052 3.28781V3.28781ZM82.0546 3.64927C83.0069 3.62782 83.6903 4.50666 83.6629 5.41378C83.6381 6.22038 83.0232 7.07344 82.2264 7.07488C81.2289 7.07488 80.7308 6.10392 80.7115 5.27481C80.6946 4.52226 81.3343 3.66632 82.0546 3.64927V3.64927Z" fill="black"/>
</g>
<defs>
<clipPath id="clip0">
<rect width="63.0002" height="88.0003" fill="white" transform="translate(0.5 63.5002) rotate(-90)"/>
</clipPath>
</defs>
</svg>
