<svg width="89" height="64" viewBox="0 0 89 64" fill="none" xmlns="http://www.w3.org/2000/svg">
<g clip-path="url(#clip0)">
<path d="M0.5 3.51351L0.5 60.4868C0.5 62.1511 1.84746 63.5002 3.50964 63.5002L85.4907 63.5002C87.1528 63.5002 88.5003 62.1511 88.5003 60.4868V3.51351C88.5003 1.84922 87.1528 0.500076 85.4907 0.500076L3.50964 0.500076C1.84746 0.500076 0.5 1.84922 0.5 3.51351Z" fill="white"/>
<path d="M9.72729 46.6097C13.4405 49.2135 15.5774 51.9995 18.4743 52.0458C19.4124 52.0613 21.0068 51.5541 21.312 49.9655C21.5091 48.9348 20.6749 47.5158 18.9801 47.4861C18.6427 47.4906 18.6515 47.1289 19.1138 47.1323C20.4507 47.1808 22.0071 47.604 23.274 48.3152C23.274 47.1782 23.274 46.0412 23.274 44.9042C22.0071 45.6154 20.4507 46.0386 19.1138 46.0871C18.6515 46.0905 18.6427 45.7287 18.9801 45.7333C20.6749 45.7036 21.5091 44.2846 21.312 43.2539C21.0068 41.6653 19.4124 41.1581 18.4743 41.1736C15.5774 41.2199 13.4405 44.0059 9.72729 46.6097V46.6097Z" fill="black"/>
<path d="M14.6036 58.6412C16.1508 59.8577 17.0412 61.1594 18.2482 61.181C18.6391 61.1883 19.3034 60.9513 19.4306 60.2091C19.5127 59.7275 19.1651 59.0645 18.459 59.0507C18.3184 59.0535 18.3221 58.8837 18.5147 58.8853C19.0717 58.9079 19.7202 59.1057 20.2481 59.438C20.2481 58.9067 20.2481 58.3756 20.2481 57.8443C19.7202 58.1766 19.0717 58.3743 18.5147 58.397C18.3221 58.3998 18.3184 58.2296 18.459 58.2317C19.1651 58.2179 19.5127 57.5548 19.4306 57.0732C19.3034 56.331 18.6391 56.0941 18.2482 56.1013C17.0412 56.123 16.1508 57.4247 14.6036 58.6412V58.6412Z" fill="black"/>
<path d="M60.6066 46.6097C56.8934 49.2135 54.7566 51.9995 51.8596 52.0458C50.9215 52.0613 49.3271 51.5541 49.0219 49.9655C48.8248 48.9348 49.659 47.5158 51.3538 47.4861C51.6912 47.4906 51.6824 47.1289 51.2201 47.1323C49.8833 47.1808 48.3269 47.604 47.0599 48.3152C47.0599 47.1782 47.0599 46.0412 47.0599 44.9042C48.3269 45.6154 49.8833 46.0386 51.2201 46.0871C51.6824 46.0905 51.6912 45.7287 51.3538 45.7333C49.659 45.7036 48.8248 44.2846 49.0219 43.2539C49.3271 41.6653 50.9215 41.1581 51.8596 41.1736C54.7566 41.2199 56.8934 44.0059 60.6066 46.6097V46.6097Z" fill="black"/>
<path d="M74.3967 5.35896C72.8495 6.57551 71.9591 7.87714 70.7521 7.89876C70.3612 7.9061 69.6969 7.66907 69.5697 6.92683C69.4876 6.44527 69.8352 5.78223 70.5413 5.76838C70.6819 5.7712 70.6782 5.6015 70.4856 5.60308C69.9286 5.62566 69.2801 5.82345 68.7522 6.15574C68.7522 5.62452 68.7522 5.09334 68.7522 4.56211C69.2801 4.8944 69.9286 5.09211 70.4856 5.11477C70.6782 5.11759 70.6819 4.94736 70.5413 4.94947C69.8352 4.93565 69.4876 4.27258 69.5697 3.79102C69.6969 3.04878 70.3612 2.81184 70.7521 2.81909C71.9591 2.84082 72.8495 4.14244 74.3967 5.35896V5.35896Z" fill="black"/>
<path d="M9.72729 17.3905C13.4405 19.9942 15.5774 22.7803 18.4743 22.8266C19.4124 22.8421 21.0068 22.3349 21.312 20.7463C21.5091 19.7156 20.6749 18.2965 18.9801 18.2669C18.6427 18.2714 18.6515 17.9096 19.1138 17.913C20.4507 17.9616 22.0071 18.3847 23.274 19.0959C23.274 17.9589 23.274 16.822 23.274 15.685C22.0071 16.3962 20.4507 16.8194 19.1138 16.8679C18.6515 16.8713 18.6427 16.5095 18.9801 16.514C20.6749 16.4844 21.5091 15.0653 21.312 14.0347C21.0068 12.446 19.4124 11.9388 18.4743 11.9544C15.5774 12.0006 13.4405 14.7867 9.72729 17.3905V17.3905Z" fill="black"/>
<path d="M28.3936 46.6097C32.1068 49.2135 34.2436 51.9995 37.1406 52.0458C38.0787 52.0613 39.6731 51.5541 39.9783 49.9655C40.1754 48.9348 39.3412 47.5158 37.6464 47.4861C37.309 47.4906 37.3178 47.1289 37.7801 47.1323C39.1169 47.1808 40.6733 47.604 41.9403 48.3152C41.9403 47.1782 41.9403 46.0412 41.9403 44.9042C40.6733 45.6154 39.1169 46.0386 37.7801 46.0871C37.3178 46.0905 37.309 45.7287 37.6464 45.7333C39.3412 45.7036 40.1754 44.2846 39.9783 43.2539C39.6731 41.6653 38.0787 41.1581 37.1406 41.1736C34.2436 41.2199 32.1068 44.0059 28.3936 46.6097V46.6097Z" fill="black"/>
<path d="M28.3936 17.3905C32.1068 19.9942 34.2436 22.7803 37.1406 22.8266C38.0787 22.8421 39.6731 22.3349 39.9783 20.7463C40.1754 19.7156 39.3412 18.2965 37.6464 18.2669C37.309 18.2714 37.3178 17.9096 37.7801 17.913C39.1169 17.9616 40.6733 18.3847 41.9403 19.0959C41.9403 17.9589 41.9403 16.822 41.9403 15.685C40.6733 16.3962 39.1169 16.8194 37.7801 16.8679C37.3178 16.8713 37.309 16.5095 37.6464 16.514C39.3412 16.4844 40.1754 15.0653 39.9783 14.0347C39.6731 12.446 38.0787 11.9388 37.1406 11.9544C34.2436 12.0006 32.1068 14.7867 28.3936 17.3905V17.3905Z" fill="black"/>
<path d="M79.273 46.6097C75.5598 49.2135 73.4229 51.9995 70.526 52.0458C69.5879 52.0613 67.9935 51.5541 67.6883 49.9655C67.4912 48.9348 68.3254 47.5158 70.0202 47.4861C70.3576 47.4906 70.3488 47.1289 69.8865 47.1323C68.5497 47.1808 66.9933 47.604 65.7263 48.3152C65.7263 47.1782 65.7263 46.0412 65.7263 44.9042C66.9933 45.6154 68.5497 46.0386 69.8865 46.0871C70.3488 46.0905 70.3576 45.7287 70.0202 45.7333C68.3254 45.7036 67.4912 44.2846 67.6883 43.2539C67.9935 41.6653 69.5879 41.1581 70.526 41.1736C73.4229 41.2199 75.5598 44.0059 79.273 46.6097V46.6097Z" fill="black"/>
<path d="M79.273 17.3905C75.5598 19.9942 73.4229 22.7803 70.526 22.8266C69.5879 22.8421 67.9935 22.3349 67.6883 20.7463C67.4912 19.7156 68.3254 18.2965 70.0202 18.2669C70.3576 18.2714 70.3488 17.9096 69.8865 17.913C68.5497 17.9616 66.9933 18.3847 65.7263 19.0959C65.7263 17.9589 65.7263 16.822 65.7263 15.685C66.9933 16.3962 68.5497 16.8194 69.8865 16.8679C70.3488 16.8713 70.3576 16.5095 70.0202 16.514C68.3254 16.4844 67.4912 15.0653 67.6883 14.0347C67.9935 12.446 69.5879 11.9388 70.526 11.9544C73.4229 12.0006 75.5598 14.7867 79.273 17.3905V17.3905Z" fill="black"/>
<path d="M60.6066 17.3905C56.8934 19.9942 54.7566 22.7803 51.8596 22.8266C50.9215 22.8421 49.3271 22.3349 49.0219 20.7463C48.8248 19.7156 49.659 18.2965 51.3538 18.2669C51.6912 18.2714 51.6824 17.9096 51.2201 17.913C49.8833 17.9616 48.3269 18.3847 47.0599 19.0959C47.0599 17.9589 47.0599 16.822 47.0599 15.685C48.3269 16.3962 49.8833 16.8194 51.2201 16.8679C51.6824 16.8713 51.6912 16.5095 51.3538 16.514C49.659 16.4844 48.8248 15.0653 49.0219 14.0347C49.3271 12.446 50.9215 11.9388 51.8596 11.9544C54.7566 12.0006 56.8934 14.7867 60.6066 17.3905V17.3905Z" fill="black"/>
<path d="M37.7268 32.0001C41.44 34.6039 43.5769 37.3899 46.4738 37.4362C47.4119 37.4517 49.0064 36.9445 49.3115 35.3559C49.5086 34.3252 48.6744 32.9061 46.9797 32.8765C46.6422 32.881 46.651 32.5192 47.1134 32.5226C48.4502 32.5712 50.0066 32.9943 51.2735 33.7055C51.2735 32.5686 51.2735 31.4316 51.2735 30.2946C50.0066 31.0058 48.4502 31.429 47.1134 31.4775C46.651 31.4809 46.6422 31.1191 46.9797 31.1236C48.6744 31.094 49.5086 29.6749 49.3115 28.6443C49.0064 27.0556 47.4119 26.5485 46.4738 26.564C43.5769 26.6103 41.44 29.3963 37.7268 32.0001V32.0001Z" fill="black"/>
<path d="M11.9233 61.2432L11.6532 60.3912C12.512 60.0693 12.7662 59.4202 12.7112 58.733C12.6129 57.5 11.2345 57.0904 10.0161 56.9982C10.5257 57.4786 10.7843 58.2003 10.7581 58.8153C10.6528 60.7813 9.0793 61.2845 7.43224 61.3027C6.04348 61.3564 5.03758 60.7824 4.57566 59.7976C4.34173 59.2758 4.34173 58.0813 4.6189 57.5566C5.25449 56.3519 6.35243 55.9053 8.97397 55.9862C11.1306 55.9862 13.6424 56.4441 13.6971 58.7559C13.8819 60.0908 12.8427 61.1057 11.9233 61.2432V61.2432ZM9.56006 57.8966C9.30617 57.4956 9.06784 57.2699 8.71122 57.0899C8.41816 56.9426 8.26517 56.8915 7.65912 56.9339C6.09558 57.0432 5.20796 57.8625 5.38384 59.0516C5.48364 59.7149 5.85464 60.0777 6.54459 60.286C7.82064 60.6702 9.3132 60.1826 9.65689 59.2696C9.81282 58.8589 9.76811 58.2239 9.56006 57.8967V57.8966Z" fill="black"/>
<path d="M77.077 2.75776L77.3471 3.60973C76.4883 3.93161 76.234 4.58072 76.2891 5.26793C76.3874 6.50094 77.7658 6.91055 78.9842 7.00275C78.4746 6.52232 78.2159 5.80061 78.2421 5.18559C78.3475 3.21965 79.921 2.71637 81.568 2.69823C82.9568 2.64452 83.9627 3.21853 84.4246 4.20332C84.6585 4.7251 84.6585 5.91962 84.3814 6.4443C83.7458 7.64899 82.6478 8.09566 80.0263 8.01471C77.8697 8.01471 75.3578 7.55677 75.3032 5.24506C75.1184 3.91014 76.1576 2.89528 77.077 2.75776V2.75776ZM79.4402 6.10433C79.6941 6.50532 79.9324 6.73103 80.289 6.91097C80.5821 7.05829 80.7351 7.10947 81.3411 7.06697C82.9047 6.95772 83.7923 6.13842 83.6164 4.94933C83.5166 4.28602 83.1456 3.92323 82.4557 3.71495C81.1796 3.33067 79.6871 3.81832 79.3434 4.73125C79.1874 5.142 79.2322 5.777 79.4402 6.10426V6.10433Z" fill="black"/>
</g>
<defs>
<clipPath id="clip0">
<rect width="63.0002" height="88.0003" fill="white" transform="translate(0.5 63.5002) rotate(-90)"/>
</clipPath>
</defs>
</svg>
